<svg width="472" height="415" viewBox="0 0 472 415" fill="none" xmlns="http://www.w3.org/2000/svg">
<g clip-path="url(#clip0)">
<path d="M191.5 384C293.397 384 376 301.397 376 199.5C376 97.6035 293.397 15 191.5 15C89.6035 15 7 97.6035 7 199.5C7 301.397 89.6035 384 191.5 384Z" fill="#EEE1FB"/>
<g filter="url(#filter0_dii)">
<rect x="73" y="124" width="327" height="223" rx="20" fill="white"/>
<rect x="70" y="121" width="333" height="229" rx="23" stroke="url(#paint0_linear)" stroke-width="6"/>
</g>
<path d="M152.232 169H150.68V157.536H152.232V169ZM155.074 169V160.896H155.922C156.125 160.896 156.253 160.995 156.306 161.192L156.418 162.072C156.77 161.683 157.162 161.368 157.594 161.128C158.032 160.888 158.536 160.768 159.106 160.768C159.549 160.768 159.938 160.843 160.274 160.992C160.616 161.136 160.898 161.344 161.122 161.616C161.352 161.883 161.525 162.205 161.642 162.584C161.76 162.963 161.818 163.381 161.818 163.84V169H160.394V163.84C160.394 163.227 160.253 162.752 159.97 162.416C159.693 162.075 159.266 161.904 158.69 161.904C158.269 161.904 157.874 162.005 157.506 162.208C157.144 162.411 156.808 162.685 156.498 163.032V169H155.074ZM168.605 162.232C168.541 162.349 168.442 162.408 168.309 162.408C168.229 162.408 168.138 162.379 168.037 162.32C167.936 162.261 167.81 162.197 167.661 162.128C167.517 162.053 167.344 161.987 167.141 161.928C166.938 161.864 166.698 161.832 166.421 161.832C166.181 161.832 165.965 161.864 165.773 161.928C165.581 161.987 165.416 162.069 165.277 162.176C165.144 162.283 165.04 162.408 164.965 162.552C164.896 162.691 164.861 162.843 164.861 163.008C164.861 163.216 164.92 163.389 165.037 163.528C165.16 163.667 165.32 163.787 165.517 163.888C165.714 163.989 165.938 164.08 166.189 164.16C166.44 164.235 166.696 164.317 166.957 164.408C167.224 164.493 167.482 164.589 167.733 164.696C167.984 164.803 168.208 164.936 168.405 165.096C168.602 165.256 168.76 165.453 168.877 165.688C169 165.917 169.061 166.195 169.061 166.52C169.061 166.893 168.994 167.24 168.861 167.56C168.728 167.875 168.53 168.149 168.269 168.384C168.008 168.613 167.688 168.795 167.309 168.928C166.93 169.061 166.493 169.128 165.997 169.128C165.432 169.128 164.92 169.037 164.461 168.856C164.002 168.669 163.613 168.432 163.293 168.144L163.629 167.6C163.672 167.531 163.722 167.477 163.781 167.44C163.84 167.403 163.917 167.384 164.013 167.384C164.109 167.384 164.21 167.421 164.317 167.496C164.424 167.571 164.552 167.653 164.701 167.744C164.856 167.835 165.04 167.917 165.253 167.992C165.472 168.067 165.744 168.104 166.069 168.104C166.346 168.104 166.589 168.069 166.797 168C167.005 167.925 167.178 167.827 167.317 167.704C167.456 167.581 167.557 167.44 167.621 167.28C167.69 167.12 167.725 166.949 167.725 166.768C167.725 166.544 167.664 166.36 167.541 166.216C167.424 166.067 167.266 165.941 167.069 165.84C166.872 165.733 166.645 165.643 166.389 165.568C166.138 165.488 165.88 165.405 165.613 165.32C165.352 165.235 165.093 165.139 164.837 165.032C164.586 164.92 164.362 164.781 164.165 164.616C163.968 164.451 163.808 164.248 163.685 164.008C163.568 163.763 163.509 163.467 163.509 163.12C163.509 162.811 163.573 162.515 163.701 162.232C163.829 161.944 164.016 161.693 164.261 161.48C164.506 161.261 164.808 161.088 165.165 160.96C165.522 160.832 165.93 160.768 166.389 160.768C166.922 160.768 167.4 160.853 167.821 161.024C168.248 161.189 168.616 161.419 168.925 161.712L168.605 162.232ZM173.358 169.128C172.718 169.128 172.225 168.949 171.878 168.592C171.537 168.235 171.366 167.72 171.366 167.048V162.088H170.39C170.305 162.088 170.233 162.064 170.174 162.016C170.116 161.963 170.086 161.883 170.086 161.776V161.208L171.414 161.04L171.742 158.536C171.753 158.456 171.788 158.392 171.846 158.344C171.905 158.291 171.98 158.264 172.07 158.264H172.79V161.056H175.11V162.088H172.79V166.952C172.79 167.293 172.873 167.547 173.038 167.712C173.204 167.877 173.417 167.96 173.678 167.96C173.828 167.96 173.956 167.941 174.062 167.904C174.174 167.861 174.27 167.816 174.35 167.768C174.43 167.72 174.497 167.677 174.55 167.64C174.609 167.597 174.66 167.576 174.702 167.576C174.777 167.576 174.844 167.621 174.902 167.712L175.318 168.392C175.073 168.621 174.777 168.803 174.43 168.936C174.084 169.064 173.726 169.128 173.358 169.128ZM182.823 169H182.191C182.052 169 181.94 168.979 181.855 168.936C181.77 168.893 181.714 168.803 181.687 168.664L181.527 167.912C181.314 168.104 181.106 168.277 180.903 168.432C180.7 168.581 180.487 168.709 180.263 168.816C180.039 168.917 179.799 168.995 179.543 169.048C179.292 169.101 179.012 169.128 178.703 169.128C178.388 169.128 178.092 169.085 177.815 169C177.543 168.909 177.306 168.776 177.103 168.6C176.9 168.424 176.738 168.203 176.615 167.936C176.498 167.664 176.439 167.344 176.439 166.976C176.439 166.656 176.527 166.349 176.703 166.056C176.879 165.757 177.162 165.493 177.551 165.264C177.946 165.035 178.46 164.848 179.095 164.704C179.73 164.555 180.506 164.469 181.423 164.448V163.816C181.423 163.187 181.287 162.712 181.015 162.392C180.748 162.067 180.351 161.904 179.823 161.904C179.476 161.904 179.183 161.949 178.943 162.04C178.708 162.125 178.503 162.224 178.327 162.336C178.156 162.443 178.007 162.541 177.879 162.632C177.756 162.717 177.634 162.76 177.511 162.76C177.415 162.76 177.33 162.736 177.255 162.688C177.186 162.635 177.13 162.571 177.087 162.496L176.831 162.04C177.279 161.608 177.762 161.285 178.279 161.072C178.796 160.859 179.37 160.752 179.999 160.752C180.452 160.752 180.855 160.827 181.207 160.976C181.559 161.125 181.855 161.333 182.095 161.6C182.335 161.867 182.516 162.189 182.639 162.568C182.762 162.947 182.823 163.363 182.823 163.816V169ZM179.127 168.128C179.378 168.128 179.607 168.104 179.815 168.056C180.023 168.003 180.218 167.931 180.399 167.84C180.586 167.744 180.762 167.629 180.927 167.496C181.098 167.363 181.263 167.211 181.423 167.04V165.352C180.767 165.373 180.21 165.427 179.751 165.512C179.292 165.592 178.919 165.699 178.631 165.832C178.343 165.965 178.132 166.123 177.999 166.304C177.871 166.485 177.807 166.688 177.807 166.912C177.807 167.125 177.842 167.309 177.911 167.464C177.98 167.619 178.074 167.747 178.191 167.848C178.308 167.944 178.447 168.016 178.607 168.064C178.767 168.107 178.94 168.128 179.127 168.128ZM184.981 169V160.896H185.829C186.031 160.896 186.159 160.995 186.213 161.192L186.325 162.072C186.677 161.683 187.069 161.368 187.501 161.128C187.938 160.888 188.442 160.768 189.013 160.768C189.455 160.768 189.845 160.843 190.181 160.992C190.522 161.136 190.805 161.344 191.029 161.616C191.258 161.883 191.431 162.205 191.549 162.584C191.666 162.963 191.725 163.381 191.725 163.84V169H190.301V163.84C190.301 163.227 190.159 162.752 189.877 162.416C189.599 162.075 189.173 161.904 188.597 161.904C188.175 161.904 187.781 162.005 187.413 162.208C187.05 162.411 186.714 162.685 186.405 163.032V169H184.981ZM196.327 169.128C195.687 169.128 195.194 168.949 194.847 168.592C194.506 168.235 194.335 167.72 194.335 167.048V162.088H193.359C193.274 162.088 193.202 162.064 193.143 162.016C193.084 161.963 193.055 161.883 193.055 161.776V161.208L194.383 161.04L194.711 158.536C194.722 158.456 194.756 158.392 194.815 158.344C194.874 158.291 194.948 158.264 195.039 158.264H195.759V161.056H198.079V162.088H195.759V166.952C195.759 167.293 195.842 167.547 196.007 167.712C196.172 167.877 196.386 167.96 196.647 167.96C196.796 167.96 196.924 167.941 197.031 167.904C197.143 167.861 197.239 167.816 197.319 167.768C197.399 167.72 197.466 167.677 197.519 167.64C197.578 167.597 197.628 167.576 197.671 167.576C197.746 167.576 197.812 167.621 197.871 167.712L198.287 168.392C198.042 168.621 197.746 168.803 197.399 168.936C197.052 169.064 196.695 169.128 196.327 169.128ZM204.518 157.216V169H203.094V157.216H204.518ZM210.307 160.768C210.899 160.768 211.433 160.867 211.907 161.064C212.387 161.261 212.793 161.541 213.123 161.904C213.459 162.267 213.715 162.707 213.891 163.224C214.073 163.736 214.163 164.309 214.163 164.944C214.163 165.584 214.073 166.16 213.891 166.672C213.715 167.184 213.459 167.621 213.123 167.984C212.793 168.347 212.387 168.627 211.907 168.824C211.433 169.016 210.899 169.112 210.307 169.112C209.715 169.112 209.179 169.016 208.699 168.824C208.225 168.627 207.819 168.347 207.483 167.984C207.147 167.621 206.889 167.184 206.707 166.672C206.526 166.16 206.435 165.584 206.435 164.944C206.435 164.309 206.526 163.736 206.707 163.224C206.889 162.707 207.147 162.267 207.483 161.904C207.819 161.541 208.225 161.261 208.699 161.064C209.179 160.867 209.715 160.768 210.307 160.768ZM210.307 168C211.107 168 211.705 167.733 212.099 167.2C212.494 166.661 212.691 165.912 212.691 164.952C212.691 163.987 212.494 163.235 212.099 162.696C211.705 162.157 211.107 161.888 210.307 161.888C209.902 161.888 209.55 161.957 209.251 162.096C208.953 162.235 208.702 162.435 208.499 162.696C208.302 162.957 208.153 163.28 208.051 163.664C207.955 164.043 207.907 164.472 207.907 164.952C207.907 165.432 207.955 165.861 208.051 166.24C208.153 166.619 208.302 166.939 208.499 167.2C208.702 167.456 208.953 167.653 209.251 167.792C209.55 167.931 209.902 168 210.307 168ZM221.87 169H221.238C221.099 169 220.987 168.979 220.902 168.936C220.817 168.893 220.761 168.803 220.734 168.664L220.574 167.912C220.361 168.104 220.153 168.277 219.95 168.432C219.747 168.581 219.534 168.709 219.31 168.816C219.086 168.917 218.846 168.995 218.59 169.048C218.339 169.101 218.059 169.128 217.75 169.128C217.435 169.128 217.139 169.085 216.862 169C216.59 168.909 216.353 168.776 216.15 168.6C215.947 168.424 215.785 168.203 215.662 167.936C215.545 167.664 215.486 167.344 215.486 166.976C215.486 166.656 215.574 166.349 215.75 166.056C215.926 165.757 216.209 165.493 216.598 165.264C216.993 165.035 217.507 164.848 218.142 164.704C218.777 164.555 219.553 164.469 220.47 164.448V163.816C220.47 163.187 220.334 162.712 220.062 162.392C219.795 162.067 219.398 161.904 218.87 161.904C218.523 161.904 218.23 161.949 217.99 162.04C217.755 162.125 217.55 162.224 217.374 162.336C217.203 162.443 217.054 162.541 216.926 162.632C216.803 162.717 216.681 162.76 216.558 162.76C216.462 162.76 216.377 162.736 216.302 162.688C216.233 162.635 216.177 162.571 216.134 162.496L215.878 162.04C216.326 161.608 216.809 161.285 217.326 161.072C217.843 160.859 218.417 160.752 219.046 160.752C219.499 160.752 219.902 160.827 220.254 160.976C220.606 161.125 220.902 161.333 221.142 161.6C221.382 161.867 221.563 162.189 221.686 162.568C221.809 162.947 221.87 163.363 221.87 163.816V169ZM218.174 168.128C218.425 168.128 218.654 168.104 218.862 168.056C219.07 168.003 219.265 167.931 219.446 167.84C219.633 167.744 219.809 167.629 219.974 167.496C220.145 167.363 220.31 167.211 220.47 167.04V165.352C219.814 165.373 219.257 165.427 218.798 165.512C218.339 165.592 217.966 165.699 217.678 165.832C217.39 165.965 217.179 166.123 217.046 166.304C216.918 166.485 216.854 166.688 216.854 166.912C216.854 167.125 216.889 167.309 216.958 167.464C217.027 167.619 217.121 167.747 217.238 167.848C217.355 167.944 217.494 168.016 217.654 168.064C217.814 168.107 217.987 168.128 218.174 168.128ZM224.027 169V160.896H224.875C225.078 160.896 225.206 160.995 225.259 161.192L225.371 162.072C225.723 161.683 226.115 161.368 226.547 161.128C226.985 160.888 227.489 160.768 228.059 160.768C228.502 160.768 228.891 160.843 229.227 160.992C229.569 161.136 229.851 161.344 230.075 161.616C230.305 161.883 230.478 162.205 230.595 162.584C230.713 162.963 230.771 163.381 230.771 163.84V169H229.347V163.84C229.347 163.227 229.206 162.752 228.923 162.416C228.646 162.075 228.219 161.904 227.643 161.904C227.222 161.904 226.827 162.005 226.459 162.208C226.097 162.411 225.761 162.685 225.451 163.032V169H224.027ZM236.332 169V162.112L235.436 162.008C235.324 161.981 235.23 161.941 235.156 161.888C235.086 161.829 235.052 161.747 235.052 161.64V161.056H236.332V160.272C236.332 159.808 236.396 159.397 236.524 159.04C236.657 158.677 236.844 158.373 237.084 158.128C237.329 157.877 237.622 157.688 237.964 157.56C238.305 157.432 238.689 157.368 239.116 157.368C239.478 157.368 239.814 157.421 240.124 157.528L240.092 158.24C240.086 158.347 240.041 158.411 239.956 158.432C239.87 158.453 239.75 158.464 239.596 158.464H239.348C239.102 158.464 238.878 158.496 238.676 158.56C238.478 158.624 238.308 158.728 238.164 158.872C238.02 159.016 237.908 159.205 237.828 159.44C237.753 159.675 237.716 159.965 237.716 160.312V161.056H240.06V162.088H237.764V169H236.332ZM241.402 169V160.896H242.218C242.373 160.896 242.48 160.925 242.538 160.984C242.597 161.043 242.637 161.144 242.658 161.288L242.754 162.552C243.032 161.987 243.373 161.547 243.778 161.232C244.189 160.912 244.669 160.752 245.218 160.752C245.442 160.752 245.645 160.779 245.826 160.832C246.008 160.88 246.176 160.949 246.33 161.04L246.146 162.104C246.109 162.237 246.026 162.304 245.898 162.304C245.824 162.304 245.709 162.28 245.554 162.232C245.4 162.179 245.184 162.152 244.906 162.152C244.41 162.152 243.994 162.296 243.658 162.584C243.328 162.872 243.05 163.291 242.826 163.84V169H241.402ZM251.136 160.768C251.728 160.768 252.261 160.867 252.736 161.064C253.216 161.261 253.621 161.541 253.952 161.904C254.288 162.267 254.544 162.707 254.72 163.224C254.901 163.736 254.992 164.309 254.992 164.944C254.992 165.584 254.901 166.16 254.72 166.672C254.544 167.184 254.288 167.621 253.952 167.984C253.621 168.347 253.216 168.627 252.736 168.824C252.261 169.016 251.728 169.112 251.136 169.112C250.544 169.112 250.008 169.016 249.528 168.824C249.053 168.627 248.648 168.347 248.312 167.984C247.976 167.621 247.717 167.184 247.536 166.672C247.354 166.16 247.264 165.584 247.264 164.944C247.264 164.309 247.354 163.736 247.536 163.224C247.717 162.707 247.976 162.267 248.312 161.904C248.648 161.541 249.053 161.261 249.528 161.064C250.008 160.867 250.544 160.768 251.136 160.768ZM251.136 168C251.936 168 252.533 167.733 252.928 167.2C253.322 166.661 253.52 165.912 253.52 164.952C253.52 163.987 253.322 163.235 252.928 162.696C252.533 162.157 251.936 161.888 251.136 161.888C250.73 161.888 250.378 161.957 250.08 162.096C249.781 162.235 249.53 162.435 249.328 162.696C249.13 162.957 248.981 163.28 248.88 163.664C248.784 164.043 248.736 164.472 248.736 164.952C248.736 165.432 248.784 165.861 248.88 166.24C248.981 166.619 249.13 166.939 249.328 167.2C249.53 167.456 249.781 167.653 250.08 167.792C250.378 167.931 250.73 168 251.136 168ZM256.746 169V160.896H257.594C257.797 160.896 257.925 160.995 257.978 161.192L258.082 162.024C258.381 161.656 258.714 161.355 259.082 161.12C259.455 160.885 259.887 160.768 260.378 160.768C260.927 160.768 261.37 160.92 261.706 161.224C262.047 161.528 262.293 161.939 262.442 162.456C262.554 162.163 262.701 161.909 262.882 161.696C263.069 161.483 263.277 161.307 263.506 161.168C263.735 161.029 263.978 160.928 264.234 160.864C264.495 160.8 264.759 160.768 265.026 160.768C265.453 160.768 265.831 160.837 266.162 160.976C266.498 161.109 266.781 161.307 267.01 161.568C267.245 161.829 267.423 162.152 267.546 162.536C267.669 162.915 267.73 163.349 267.73 163.84V169H266.306V163.84C266.306 163.205 266.167 162.725 265.89 162.4C265.613 162.069 265.21 161.904 264.682 161.904C264.447 161.904 264.223 161.947 264.01 162.032C263.802 162.112 263.618 162.232 263.458 162.392C263.298 162.552 263.17 162.755 263.074 163C262.983 163.24 262.938 163.52 262.938 163.84V169H261.514V163.84C261.514 163.189 261.383 162.704 261.122 162.384C260.861 162.064 260.479 161.904 259.978 161.904C259.626 161.904 259.298 162 258.994 162.192C258.695 162.379 258.421 162.635 258.17 162.96V169H256.746ZM279.637 158.16C279.637 158.363 279.573 158.531 279.445 158.664C279.317 158.792 279.101 158.856 278.797 158.856H275.197L274.669 161.864C275.266 161.736 275.818 161.672 276.325 161.672C276.922 161.672 277.447 161.76 277.901 161.936C278.359 162.112 278.743 162.355 279.053 162.664C279.362 162.973 279.594 163.339 279.749 163.76C279.909 164.181 279.989 164.64 279.989 165.136C279.989 165.744 279.882 166.293 279.669 166.784C279.455 167.275 279.162 167.696 278.789 168.048C278.421 168.395 277.986 168.661 277.485 168.848C276.983 169.035 276.442 169.128 275.861 169.128C275.525 169.128 275.202 169.093 274.893 169.024C274.583 168.96 274.295 168.872 274.029 168.76C273.762 168.648 273.514 168.52 273.285 168.376C273.055 168.232 272.853 168.08 272.677 167.92L273.109 167.312C273.205 167.173 273.333 167.104 273.493 167.104C273.594 167.104 273.711 167.147 273.845 167.232C273.983 167.312 274.149 167.403 274.341 167.504C274.533 167.605 274.757 167.699 275.013 167.784C275.274 167.864 275.583 167.904 275.941 167.904C276.341 167.904 276.701 167.84 277.021 167.712C277.341 167.584 277.613 167.403 277.837 167.168C278.066 166.928 278.242 166.643 278.365 166.312C278.487 165.981 278.549 165.611 278.549 165.2C278.549 164.843 278.495 164.52 278.389 164.232C278.287 163.944 278.13 163.699 277.917 163.496C277.709 163.293 277.447 163.136 277.133 163.024C276.818 162.912 276.45 162.856 276.029 162.856C275.741 162.856 275.442 162.88 275.133 162.928C274.823 162.976 274.503 163.053 274.173 163.16L273.277 162.896L274.205 157.536H279.637V158.16ZM289.894 163.272C289.894 164.275 289.784 165.144 289.566 165.88C289.352 166.611 289.059 167.216 288.686 167.696C288.312 168.176 287.87 168.533 287.358 168.768C286.851 169.003 286.307 169.12 285.726 169.12C285.139 169.12 284.592 169.003 284.086 168.768C283.584 168.533 283.147 168.176 282.774 167.696C282.4 167.216 282.107 166.611 281.894 165.88C281.68 165.144 281.574 164.275 281.574 163.272C281.574 162.269 281.68 161.4 281.894 160.664C282.107 159.928 282.4 159.32 282.774 158.84C283.147 158.355 283.584 157.995 284.086 157.76C284.592 157.525 285.139 157.408 285.726 157.408C286.307 157.408 286.851 157.525 287.358 157.76C287.87 157.995 288.312 158.355 288.686 158.84C289.059 159.32 289.352 159.928 289.566 160.664C289.784 161.4 289.894 162.269 289.894 163.272ZM288.414 163.272C288.414 162.397 288.339 161.664 288.19 161.072C288.046 160.475 287.848 159.995 287.598 159.632C287.352 159.269 287.067 159.011 286.742 158.856C286.416 158.696 286.078 158.616 285.726 158.616C285.374 158.616 285.035 158.696 284.71 158.856C284.384 159.011 284.099 159.269 283.854 159.632C283.608 159.995 283.411 160.475 283.262 161.072C283.118 161.664 283.046 162.397 283.046 163.272C283.046 164.147 283.118 164.88 283.262 165.472C283.411 166.064 283.608 166.541 283.854 166.904C284.099 167.267 284.384 167.528 284.71 167.688C285.035 167.843 285.374 167.92 285.726 167.92C286.078 167.92 286.416 167.843 286.742 167.688C287.067 167.528 287.352 167.267 287.598 166.904C287.848 166.541 288.046 166.064 288.19 165.472C288.339 164.88 288.414 164.147 288.414 163.272ZM299.175 163.272C299.175 164.275 299.066 165.144 298.847 165.88C298.634 166.611 298.34 167.216 297.967 167.696C297.594 168.176 297.151 168.533 296.639 168.768C296.132 169.003 295.588 169.12 295.007 169.12C294.42 169.12 293.874 169.003 293.367 168.768C292.866 168.533 292.428 168.176 292.055 167.696C291.682 167.216 291.388 166.611 291.175 165.88C290.962 165.144 290.855 164.275 290.855 163.272C290.855 162.269 290.962 161.4 291.175 160.664C291.388 159.928 291.682 159.32 292.055 158.84C292.428 158.355 292.866 157.995 293.367 157.76C293.874 157.525 294.42 157.408 295.007 157.408C295.588 157.408 296.132 157.525 296.639 157.76C297.151 157.995 297.594 158.355 297.967 158.84C298.34 159.32 298.634 159.928 298.847 160.664C299.066 161.4 299.175 162.269 299.175 163.272ZM297.695 163.272C297.695 162.397 297.62 161.664 297.471 161.072C297.327 160.475 297.13 159.995 296.879 159.632C296.634 159.269 296.348 159.011 296.023 158.856C295.698 158.696 295.359 158.616 295.007 158.616C294.655 158.616 294.316 158.696 293.991 158.856C293.666 159.011 293.38 159.269 293.135 159.632C292.89 159.995 292.692 160.475 292.543 161.072C292.399 161.664 292.327 162.397 292.327 163.272C292.327 164.147 292.399 164.88 292.543 165.472C292.692 166.064 292.89 166.541 293.135 166.904C293.38 167.267 293.666 167.528 293.991 167.688C294.316 167.843 294.655 167.92 295.007 167.92C295.359 167.92 295.698 167.843 296.023 167.688C296.348 167.528 296.634 167.267 296.879 166.904C297.13 166.541 297.327 166.064 297.471 165.472C297.62 164.88 297.695 164.147 297.695 163.272ZM308.456 163.272C308.456 164.275 308.347 165.144 308.128 165.88C307.915 166.611 307.622 167.216 307.248 167.696C306.875 168.176 306.432 168.533 305.92 168.768C305.414 169.003 304.87 169.12 304.288 169.12C303.702 169.12 303.155 169.003 302.648 168.768C302.147 168.533 301.71 168.176 301.336 167.696C300.963 167.216 300.67 166.611 300.456 165.88C300.243 165.144 300.136 164.275 300.136 163.272C300.136 162.269 300.243 161.4 300.456 160.664C300.67 159.928 300.963 159.32 301.336 158.84C301.71 158.355 302.147 157.995 302.648 157.76C303.155 157.525 303.702 157.408 304.288 157.408C304.87 157.408 305.414 157.525 305.92 157.76C306.432 157.995 306.875 158.355 307.248 158.84C307.622 159.32 307.915 159.928 308.128 160.664C308.347 161.4 308.456 162.269 308.456 163.272ZM306.976 163.272C306.976 162.397 306.902 161.664 306.752 161.072C306.608 160.475 306.411 159.995 306.16 159.632C305.915 159.269 305.63 159.011 305.304 158.856C304.979 158.696 304.64 158.616 304.288 158.616C303.936 158.616 303.598 158.696 303.272 158.856C302.947 159.011 302.662 159.269 302.416 159.632C302.171 159.995 301.974 160.475 301.824 161.072C301.68 161.664 301.608 162.397 301.608 163.272C301.608 164.147 301.68 164.88 301.824 165.472C301.974 166.064 302.171 166.541 302.416 166.904C302.662 167.267 302.947 167.528 303.272 167.688C303.598 167.843 303.936 167.92 304.288 167.92C304.64 167.92 304.979 167.843 305.304 167.688C305.63 167.528 305.915 167.267 306.16 166.904C306.411 166.541 306.608 166.064 306.752 165.472C306.902 164.88 306.976 164.147 306.976 163.272ZM312.831 163.6H316.783V164.808H312.831V163.6ZM325.48 157.408C325.965 157.408 326.419 157.48 326.84 157.624C327.261 157.768 327.624 157.979 327.928 158.256C328.237 158.528 328.48 158.861 328.656 159.256C328.832 159.651 328.92 160.099 328.92 160.6C328.92 161.027 328.856 161.421 328.728 161.784C328.6 162.147 328.427 162.496 328.208 162.832C327.989 163.163 327.736 163.485 327.448 163.8C327.165 164.109 326.864 164.427 326.544 164.752L323.528 167.84C323.741 167.781 323.957 167.736 324.176 167.704C324.395 167.667 324.605 167.648 324.808 167.648H328.648C328.803 167.648 328.925 167.693 329.016 167.784C329.107 167.875 329.152 167.992 329.152 168.136V169H321.504V168.512C321.504 168.411 321.523 168.307 321.56 168.2C321.603 168.093 321.669 167.995 321.76 167.904L325.432 164.216C325.736 163.907 326.013 163.611 326.264 163.328C326.515 163.04 326.728 162.752 326.904 162.464C327.085 162.176 327.224 161.885 327.32 161.592C327.416 161.293 327.464 160.976 327.464 160.64C327.464 160.304 327.411 160.011 327.304 159.76C327.197 159.504 327.051 159.293 326.864 159.128C326.677 158.963 326.459 158.84 326.208 158.76C325.957 158.675 325.688 158.632 325.4 158.632C325.112 158.632 324.845 158.675 324.6 158.76C324.355 158.845 324.136 158.965 323.944 159.12C323.757 159.269 323.597 159.448 323.464 159.656C323.336 159.864 323.245 160.093 323.192 160.344C323.149 160.499 323.085 160.611 323 160.68C322.915 160.749 322.803 160.784 322.664 160.784C322.637 160.784 322.608 160.784 322.576 160.784C322.549 160.779 322.517 160.773 322.48 160.768L321.736 160.64C321.811 160.117 321.955 159.656 322.168 159.256C322.381 158.851 322.651 158.512 322.976 158.24C323.307 157.968 323.683 157.763 324.104 157.624C324.531 157.48 324.989 157.408 325.48 157.408ZM338.753 163.272C338.753 164.275 338.644 165.144 338.425 165.88C338.212 166.611 337.918 167.216 337.545 167.696C337.172 168.176 336.729 168.533 336.217 168.768C335.71 169.003 335.166 169.12 334.585 169.12C333.998 169.12 333.452 169.003 332.945 168.768C332.444 168.533 332.006 168.176 331.633 167.696C331.26 167.216 330.966 166.611 330.753 165.88C330.54 165.144 330.433 164.275 330.433 163.272C330.433 162.269 330.54 161.4 330.753 160.664C330.966 159.928 331.26 159.32 331.633 158.84C332.006 158.355 332.444 157.995 332.945 157.76C333.452 157.525 333.998 157.408 334.585 157.408C335.166 157.408 335.71 157.525 336.217 157.76C336.729 157.995 337.172 158.355 337.545 158.84C337.918 159.32 338.212 159.928 338.425 160.664C338.644 161.4 338.753 162.269 338.753 163.272ZM337.273 163.272C337.273 162.397 337.198 161.664 337.049 161.072C336.905 160.475 336.708 159.995 336.457 159.632C336.212 159.269 335.926 159.011 335.601 158.856C335.276 158.696 334.937 158.616 334.585 158.616C334.233 158.616 333.894 158.696 333.569 158.856C333.244 159.011 332.958 159.269 332.713 159.632C332.468 159.995 332.27 160.475 332.121 161.072C331.977 161.664 331.905 162.397 331.905 163.272C331.905 164.147 331.977 164.88 332.121 165.472C332.27 166.064 332.468 166.541 332.713 166.904C332.958 167.267 333.244 167.528 333.569 167.688C333.894 167.843 334.233 167.92 334.585 167.92C334.937 167.92 335.276 167.843 335.601 167.688C335.926 167.528 336.212 167.267 336.457 166.904C336.708 166.541 336.905 166.064 337.049 165.472C337.198 164.88 337.273 164.147 337.273 163.272ZM348.034 163.272C348.034 164.275 347.925 165.144 347.706 165.88C347.493 166.611 347.2 167.216 346.826 167.696C346.453 168.176 346.01 168.533 345.498 168.768C344.992 169.003 344.448 169.12 343.866 169.12C343.28 169.12 342.733 169.003 342.226 168.768C341.725 168.533 341.288 168.176 340.914 167.696C340.541 167.216 340.248 166.611 340.034 165.88C339.821 165.144 339.714 164.275 339.714 163.272C339.714 162.269 339.821 161.4 340.034 160.664C340.248 159.928 340.541 159.32 340.914 158.84C341.288 158.355 341.725 157.995 342.226 157.76C342.733 157.525 343.28 157.408 343.866 157.408C344.448 157.408 344.992 157.525 345.498 157.76C346.01 157.995 346.453 158.355 346.826 158.84C347.2 159.32 347.493 159.928 347.706 160.664C347.925 161.4 348.034 162.269 348.034 163.272ZM346.554 163.272C346.554 162.397 346.48 161.664 346.33 161.072C346.186 160.475 345.989 159.995 345.738 159.632C345.493 159.269 345.208 159.011 344.882 158.856C344.557 158.696 344.218 158.616 343.866 158.616C343.514 158.616 343.176 158.696 342.85 158.856C342.525 159.011 342.24 159.269 341.994 159.632C341.749 159.995 341.552 160.475 341.402 161.072C341.258 161.664 341.186 162.397 341.186 163.272C341.186 164.147 341.258 164.88 341.402 165.472C341.552 166.064 341.749 166.541 341.994 166.904C342.24 167.267 342.525 167.528 342.85 167.688C343.176 167.843 343.514 167.92 343.866 167.92C344.218 167.92 344.557 167.843 344.882 167.688C345.208 167.528 345.493 167.267 345.738 166.904C345.989 166.541 346.186 166.064 346.33 165.472C346.48 164.88 346.554 164.147 346.554 163.272ZM357.316 163.272C357.316 164.275 357.206 165.144 356.988 165.88C356.774 166.611 356.481 167.216 356.108 167.696C355.734 168.176 355.292 168.533 354.78 168.768C354.273 169.003 353.729 169.12 353.148 169.12C352.561 169.12 352.014 169.003 351.508 168.768C351.006 168.533 350.569 168.176 350.196 167.696C349.822 167.216 349.529 166.611 349.316 165.88C349.102 165.144 348.996 164.275 348.996 163.272C348.996 162.269 349.102 161.4 349.316 160.664C349.529 159.928 349.822 159.32 350.196 158.84C350.569 158.355 351.006 157.995 351.508 157.76C352.014 157.525 352.561 157.408 353.148 157.408C353.729 157.408 354.273 157.525 354.78 157.76C355.292 157.995 355.734 158.355 356.108 158.84C356.481 159.32 356.774 159.928 356.988 160.664C357.206 161.4 357.316 162.269 357.316 163.272ZM355.836 163.272C355.836 162.397 355.761 161.664 355.612 161.072C355.468 160.475 355.27 159.995 355.02 159.632C354.774 159.269 354.489 159.011 354.164 158.856C353.838 158.696 353.5 158.616 353.148 158.616C352.796 158.616 352.457 158.696 352.132 158.856C351.806 159.011 351.521 159.269 351.276 159.632C351.03 159.995 350.833 160.475 350.684 161.072C350.54 161.664 350.468 162.397 350.468 163.272C350.468 164.147 350.54 164.88 350.684 165.472C350.833 166.064 351.03 166.541 351.276 166.904C351.521 167.267 351.806 167.528 352.132 167.688C352.457 167.843 352.796 167.92 353.148 167.92C353.5 167.92 353.838 167.843 354.164 167.688C354.489 167.528 354.774 167.267 355.02 166.904C355.27 166.541 355.468 166.064 355.612 165.472C355.761 164.88 355.836 164.147 355.836 163.272ZM366.597 163.272C366.597 164.275 366.488 165.144 366.269 165.88C366.056 166.611 365.762 167.216 365.389 167.696C365.016 168.176 364.573 168.533 364.061 168.768C363.554 169.003 363.01 169.12 362.429 169.12C361.842 169.12 361.296 169.003 360.789 168.768C360.288 168.533 359.85 168.176 359.477 167.696C359.104 167.216 358.81 166.611 358.597 165.88C358.384 165.144 358.277 164.275 358.277 163.272C358.277 162.269 358.384 161.4 358.597 160.664C358.81 159.928 359.104 159.32 359.477 158.84C359.85 158.355 360.288 157.995 360.789 157.76C361.296 157.525 361.842 157.408 362.429 157.408C363.01 157.408 363.554 157.525 364.061 157.76C364.573 157.995 365.016 158.355 365.389 158.84C365.762 159.32 366.056 159.928 366.269 160.664C366.488 161.4 366.597 162.269 366.597 163.272ZM365.117 163.272C365.117 162.397 365.042 161.664 364.893 161.072C364.749 160.475 364.552 159.995 364.301 159.632C364.056 159.269 363.77 159.011 363.445 158.856C363.12 158.696 362.781 158.616 362.429 158.616C362.077 158.616 361.738 158.696 361.413 158.856C361.088 159.011 360.802 159.269 360.557 159.632C360.312 159.995 360.114 160.475 359.965 161.072C359.821 161.664 359.749 162.397 359.749 163.272C359.749 164.147 359.821 164.88 359.965 165.472C360.114 166.064 360.312 166.541 360.557 166.904C360.802 167.267 361.088 167.528 361.413 167.688C361.738 167.843 362.077 167.92 362.429 167.92C362.781 167.92 363.12 167.843 363.445 167.688C363.77 167.528 364.056 167.267 364.301 166.904C364.552 166.541 364.749 166.064 364.893 165.472C365.042 164.88 365.117 164.147 365.117 163.272ZM375.878 163.272C375.878 164.275 375.769 165.144 375.55 165.88C375.337 166.611 375.043 167.216 374.67 167.696C374.297 168.176 373.854 168.533 373.342 168.768C372.835 169.003 372.291 169.12 371.71 169.12C371.123 169.12 370.577 169.003 370.07 168.768C369.569 168.533 369.131 168.176 368.758 167.696C368.385 167.216 368.091 166.611 367.878 165.88C367.665 165.144 367.558 164.275 367.558 163.272C367.558 162.269 367.665 161.4 367.878 160.664C368.091 159.928 368.385 159.32 368.758 158.84C369.131 158.355 369.569 157.995 370.07 157.76C370.577 157.525 371.123 157.408 371.71 157.408C372.291 157.408 372.835 157.525 373.342 157.76C373.854 157.995 374.297 158.355 374.67 158.84C375.043 159.32 375.337 159.928 375.55 160.664C375.769 161.4 375.878 162.269 375.878 163.272ZM374.398 163.272C374.398 162.397 374.323 161.664 374.174 161.072C374.03 160.475 373.833 159.995 373.582 159.632C373.337 159.269 373.051 159.011 372.726 158.856C372.401 158.696 372.062 158.616 371.71 158.616C371.358 158.616 371.019 158.696 370.694 158.856C370.369 159.011 370.083 159.269 369.838 159.632C369.593 159.995 369.395 160.475 369.246 161.072C369.102 161.664 369.03 162.397 369.03 163.272C369.03 164.147 369.102 164.88 369.246 165.472C369.395 166.064 369.593 166.541 369.838 166.904C370.083 167.267 370.369 167.528 370.694 167.688C371.019 167.843 371.358 167.92 371.71 167.92C372.062 167.92 372.401 167.843 372.726 167.688C373.051 167.528 373.337 167.267 373.582 166.904C373.833 166.541 374.03 166.064 374.174 165.472C374.323 164.88 374.398 164.147 374.398 163.272Z" fill="#333333"/>
<path d="M151.944 238.696H156.904V240H150.392V228.536H151.944V238.696ZM161.386 231.768C161.978 231.768 162.511 231.867 162.986 232.064C163.466 232.261 163.871 232.541 164.202 232.904C164.538 233.267 164.794 233.707 164.97 234.224C165.151 234.736 165.242 235.309 165.242 235.944C165.242 236.584 165.151 237.16 164.97 237.672C164.794 238.184 164.538 238.621 164.202 238.984C163.871 239.347 163.466 239.627 162.986 239.824C162.511 240.016 161.978 240.112 161.386 240.112C160.794 240.112 160.258 240.016 159.778 239.824C159.303 239.627 158.898 239.347 158.562 238.984C158.226 238.621 157.967 238.184 157.786 237.672C157.604 237.16 157.514 236.584 157.514 235.944C157.514 235.309 157.604 234.736 157.786 234.224C157.967 233.707 158.226 233.267 158.562 232.904C158.898 232.541 159.303 232.261 159.778 232.064C160.258 231.867 160.794 231.768 161.386 231.768ZM161.386 239C162.186 239 162.783 238.733 163.178 238.2C163.572 237.661 163.77 236.912 163.77 235.952C163.77 234.987 163.572 234.235 163.178 233.696C162.783 233.157 162.186 232.888 161.386 232.888C160.98 232.888 160.628 232.957 160.33 233.096C160.031 233.235 159.78 233.435 159.578 233.696C159.38 233.957 159.231 234.28 159.13 234.664C159.034 235.043 158.986 235.472 158.986 235.952C158.986 236.432 159.034 236.861 159.13 237.24C159.231 237.619 159.38 237.939 159.578 238.2C159.78 238.456 160.031 238.653 160.33 238.792C160.628 238.931 160.98 239 161.386 239ZM172.948 240H172.316C172.177 240 172.065 239.979 171.98 239.936C171.895 239.893 171.839 239.803 171.812 239.664L171.652 238.912C171.439 239.104 171.231 239.277 171.028 239.432C170.825 239.581 170.612 239.709 170.388 239.816C170.164 239.917 169.924 239.995 169.668 240.048C169.417 240.101 169.137 240.128 168.828 240.128C168.513 240.128 168.217 240.085 167.94 240C167.668 239.909 167.431 239.776 167.228 239.6C167.025 239.424 166.863 239.203 166.74 238.936C166.623 238.664 166.564 238.344 166.564 237.976C166.564 237.656 166.652 237.349 166.828 237.056C167.004 236.757 167.287 236.493 167.676 236.264C168.071 236.035 168.585 235.848 169.22 235.704C169.855 235.555 170.631 235.469 171.548 235.448V234.816C171.548 234.187 171.412 233.712 171.14 233.392C170.873 233.067 170.476 232.904 169.948 232.904C169.601 232.904 169.308 232.949 169.068 233.04C168.833 233.125 168.628 233.224 168.452 233.336C168.281 233.443 168.132 233.541 168.004 233.632C167.881 233.717 167.759 233.76 167.636 233.76C167.54 233.76 167.455 233.736 167.38 233.688C167.311 233.635 167.255 233.571 167.212 233.496L166.956 233.04C167.404 232.608 167.887 232.285 168.404 232.072C168.921 231.859 169.495 231.752 170.124 231.752C170.577 231.752 170.98 231.827 171.332 231.976C171.684 232.125 171.98 232.333 172.22 232.6C172.46 232.867 172.641 233.189 172.764 233.568C172.887 233.947 172.948 234.363 172.948 234.816V240ZM169.252 239.128C169.503 239.128 169.732 239.104 169.94 239.056C170.148 239.003 170.343 238.931 170.524 238.84C170.711 238.744 170.887 238.629 171.052 238.496C171.223 238.363 171.388 238.211 171.548 238.04V236.352C170.892 236.373 170.335 236.427 169.876 236.512C169.417 236.592 169.044 236.699 168.756 236.832C168.468 236.965 168.257 237.123 168.124 237.304C167.996 237.485 167.932 237.688 167.932 237.912C167.932 238.125 167.967 238.309 168.036 238.464C168.105 238.619 168.199 238.747 168.316 238.848C168.433 238.944 168.572 239.016 168.732 239.064C168.892 239.107 169.065 239.128 169.252 239.128ZM175.106 240V231.896H175.954C176.156 231.896 176.284 231.995 176.338 232.192L176.45 233.072C176.802 232.683 177.194 232.368 177.626 232.128C178.063 231.888 178.567 231.768 179.138 231.768C179.58 231.768 179.97 231.843 180.306 231.992C180.647 232.136 180.93 232.344 181.154 232.616C181.383 232.883 181.556 233.205 181.674 233.584C181.791 233.963 181.85 234.381 181.85 234.84V240H180.426V234.84C180.426 234.227 180.284 233.752 180.002 233.416C179.724 233.075 179.298 232.904 178.722 232.904C178.3 232.904 177.906 233.005 177.538 233.208C177.175 233.411 176.839 233.685 176.53 234.032V240H175.106ZM189.546 240.128C188.906 240.128 188.413 239.949 188.066 239.592C187.725 239.235 187.554 238.72 187.554 238.048V233.088H186.578C186.493 233.088 186.421 233.064 186.362 233.016C186.303 232.963 186.274 232.883 186.274 232.776V232.208L187.602 232.04L187.93 229.536C187.941 229.456 187.975 229.392 188.034 229.344C188.093 229.291 188.167 229.264 188.258 229.264H188.978V232.056H191.298V233.088H188.978V237.952C188.978 238.293 189.061 238.547 189.226 238.712C189.391 238.877 189.605 238.96 189.866 238.96C190.015 238.96 190.143 238.941 190.25 238.904C190.362 238.861 190.458 238.816 190.538 238.768C190.618 238.72 190.685 238.677 190.738 238.64C190.797 238.597 190.847 238.576 190.89 238.576C190.965 238.576 191.031 238.621 191.09 238.712L191.506 239.392C191.261 239.621 190.965 239.803 190.618 239.936C190.271 240.064 189.914 240.128 189.546 240.128ZM196.267 231.768C196.752 231.768 197.2 231.851 197.611 232.016C198.021 232.176 198.376 232.411 198.675 232.72C198.973 233.024 199.205 233.403 199.371 233.856C199.541 234.304 199.627 234.816 199.627 235.392C199.627 235.616 199.603 235.765 199.555 235.84C199.507 235.915 199.416 235.952 199.283 235.952H193.891C193.901 236.464 193.971 236.909 194.099 237.288C194.227 237.667 194.403 237.984 194.627 238.24C194.851 238.491 195.117 238.68 195.427 238.808C195.736 238.931 196.083 238.992 196.467 238.992C196.824 238.992 197.131 238.952 197.387 238.872C197.648 238.787 197.872 238.696 198.059 238.6C198.245 238.504 198.4 238.416 198.523 238.336C198.651 238.251 198.76 238.208 198.851 238.208C198.968 238.208 199.059 238.253 199.123 238.344L199.523 238.864C199.347 239.077 199.136 239.264 198.891 239.424C198.645 239.579 198.381 239.707 198.099 239.808C197.821 239.909 197.533 239.984 197.235 240.032C196.936 240.085 196.64 240.112 196.347 240.112C195.787 240.112 195.269 240.019 194.795 239.832C194.325 239.64 193.917 239.363 193.571 239C193.229 238.632 192.963 238.179 192.771 237.64C192.579 237.101 192.483 236.483 192.483 235.784C192.483 235.219 192.568 234.691 192.739 234.2C192.915 233.709 193.165 233.285 193.491 232.928C193.816 232.565 194.213 232.283 194.683 232.08C195.152 231.872 195.68 231.768 196.267 231.768ZM196.299 232.816C195.611 232.816 195.069 233.016 194.675 233.416C194.28 233.811 194.035 234.36 193.939 235.064H198.347C198.347 234.733 198.301 234.432 198.211 234.16C198.12 233.883 197.987 233.645 197.811 233.448C197.635 233.245 197.419 233.091 197.163 232.984C196.912 232.872 196.624 232.816 196.299 232.816ZM201.449 240V231.896H202.297C202.5 231.896 202.628 231.995 202.681 232.192L202.793 233.072C203.145 232.683 203.537 232.368 203.969 232.128C204.407 231.888 204.911 231.768 205.481 231.768C205.924 231.768 206.313 231.843 206.649 231.992C206.991 232.136 207.273 232.344 207.497 232.616C207.727 232.883 207.9 233.205 208.017 233.584C208.135 233.963 208.193 234.381 208.193 234.84V240H206.769V234.84C206.769 234.227 206.628 233.752 206.345 233.416C206.068 233.075 205.641 232.904 205.065 232.904C204.644 232.904 204.249 233.005 203.881 233.208C203.519 233.411 203.183 233.685 202.873 234.032V240H201.449ZM211.572 231.896V237.064C211.572 237.677 211.713 238.152 211.996 238.488C212.279 238.824 212.705 238.992 213.276 238.992C213.692 238.992 214.084 238.893 214.452 238.696C214.82 238.499 215.159 238.224 215.468 237.872V231.896H216.892V240H216.044C215.841 240 215.713 239.901 215.66 239.704L215.548 238.832C215.196 239.221 214.801 239.536 214.364 239.776C213.927 240.011 213.425 240.128 212.86 240.128C212.417 240.128 212.025 240.056 211.684 239.912C211.348 239.763 211.065 239.555 210.836 239.288C210.607 239.021 210.433 238.699 210.316 238.32C210.204 237.941 210.148 237.523 210.148 237.064V231.896H211.572ZM219.231 240V231.896H220.047C220.201 231.896 220.308 231.925 220.367 231.984C220.425 232.043 220.465 232.144 220.487 232.288L220.583 233.552C220.86 232.987 221.201 232.547 221.607 232.232C222.017 231.912 222.497 231.752 223.047 231.752C223.271 231.752 223.473 231.779 223.655 231.832C223.836 231.88 224.004 231.949 224.159 232.04L223.975 233.104C223.937 233.237 223.855 233.304 223.727 233.304C223.652 233.304 223.537 233.28 223.383 233.232C223.228 233.179 223.012 233.152 222.735 233.152C222.239 233.152 221.823 233.296 221.487 233.584C221.156 233.872 220.879 234.291 220.655 234.84V240H219.231ZM228.892 231.768C229.377 231.768 229.825 231.851 230.236 232.016C230.646 232.176 231.001 232.411 231.3 232.72C231.598 233.024 231.83 233.403 231.996 233.856C232.166 234.304 232.252 234.816 232.252 235.392C232.252 235.616 232.228 235.765 232.18 235.84C232.132 235.915 232.041 235.952 231.908 235.952H226.516C226.526 236.464 226.596 236.909 226.724 237.288C226.852 237.667 227.028 237.984 227.252 238.24C227.476 238.491 227.742 238.68 228.052 238.808C228.361 238.931 228.708 238.992 229.092 238.992C229.449 238.992 229.756 238.952 230.012 238.872C230.273 238.787 230.497 238.696 230.684 238.6C230.87 238.504 231.025 238.416 231.148 238.336C231.276 238.251 231.385 238.208 231.476 238.208C231.593 238.208 231.684 238.253 231.748 238.344L232.148 238.864C231.972 239.077 231.761 239.264 231.516 239.424C231.27 239.579 231.006 239.707 230.724 239.808C230.446 239.909 230.158 239.984 229.86 240.032C229.561 240.085 229.265 240.112 228.972 240.112C228.412 240.112 227.894 240.019 227.42 239.832C226.95 239.64 226.542 239.363 226.196 239C225.854 238.632 225.588 238.179 225.396 237.64C225.204 237.101 225.108 236.483 225.108 235.784C225.108 235.219 225.193 234.691 225.364 234.2C225.54 233.709 225.79 233.285 226.116 232.928C226.441 232.565 226.838 232.283 227.308 232.08C227.777 231.872 228.305 231.768 228.892 231.768ZM228.924 232.816C228.236 232.816 227.694 233.016 227.3 233.416C226.905 233.811 226.66 234.36 226.564 235.064H230.972C230.972 234.733 230.926 234.432 230.836 234.16C230.745 233.883 230.612 233.645 230.436 233.448C230.26 233.245 230.044 233.091 229.788 232.984C229.537 232.872 229.249 232.816 228.924 232.816ZM237.488 240V233.112L236.592 233.008C236.48 232.981 236.387 232.941 236.312 232.888C236.243 232.829 236.208 232.747 236.208 232.64V232.056H237.488V231.272C237.488 230.808 237.552 230.397 237.68 230.04C237.813 229.677 238 229.373 238.24 229.128C238.485 228.877 238.779 228.688 239.12 228.56C239.461 228.432 239.845 228.368 240.272 228.368C240.635 228.368 240.971 228.421 241.28 228.528L241.248 229.24C241.243 229.347 241.197 229.411 241.112 229.432C241.027 229.453 240.907 229.464 240.752 229.464H240.504C240.259 229.464 240.035 229.496 239.832 229.56C239.635 229.624 239.464 229.728 239.32 229.872C239.176 230.016 239.064 230.205 238.984 230.44C238.909 230.675 238.872 230.965 238.872 231.312V232.056H241.216V233.088H238.92V240H237.488ZM242.559 240V231.896H243.375C243.529 231.896 243.636 231.925 243.695 231.984C243.753 232.043 243.793 232.144 243.815 232.288L243.911 233.552C244.188 232.987 244.529 232.547 244.935 232.232C245.345 231.912 245.825 231.752 246.375 231.752C246.599 231.752 246.801 231.779 246.983 231.832C247.164 231.88 247.332 231.949 247.487 232.04L247.303 233.104C247.265 233.237 247.183 233.304 247.055 233.304C246.98 233.304 246.865 233.28 246.711 233.232C246.556 233.179 246.34 233.152 246.063 233.152C245.567 233.152 245.151 233.296 244.815 233.584C244.484 233.872 244.207 234.291 243.983 234.84V240H242.559ZM252.292 231.768C252.884 231.768 253.417 231.867 253.892 232.064C254.372 232.261 254.777 232.541 255.108 232.904C255.444 233.267 255.7 233.707 255.876 234.224C256.057 234.736 256.148 235.309 256.148 235.944C256.148 236.584 256.057 237.16 255.876 237.672C255.7 238.184 255.444 238.621 255.108 238.984C254.777 239.347 254.372 239.627 253.892 239.824C253.417 240.016 252.884 240.112 252.292 240.112C251.7 240.112 251.164 240.016 250.684 239.824C250.209 239.627 249.804 239.347 249.468 238.984C249.132 238.621 248.873 238.184 248.692 237.672C248.51 237.16 248.42 236.584 248.42 235.944C248.42 235.309 248.51 234.736 248.692 234.224C248.873 233.707 249.132 233.267 249.468 232.904C249.804 232.541 250.209 232.261 250.684 232.064C251.164 231.867 251.7 231.768 252.292 231.768ZM252.292 239C253.092 239 253.689 238.733 254.084 238.2C254.478 237.661 254.676 236.912 254.676 235.952C254.676 234.987 254.478 234.235 254.084 233.696C253.689 233.157 253.092 232.888 252.292 232.888C251.886 232.888 251.534 232.957 251.236 233.096C250.937 233.235 250.686 233.435 250.484 233.696C250.286 233.957 250.137 234.28 250.036 234.664C249.94 235.043 249.892 235.472 249.892 235.952C249.892 236.432 249.94 236.861 250.036 237.24C250.137 237.619 250.286 237.939 250.484 238.2C250.686 238.456 250.937 238.653 251.236 238.792C251.534 238.931 251.886 239 252.292 239ZM257.902 240V231.896H258.75C258.953 231.896 259.081 231.995 259.134 232.192L259.238 233.024C259.537 232.656 259.87 232.355 260.238 232.12C260.612 231.885 261.044 231.768 261.534 231.768C262.084 231.768 262.526 231.92 262.862 232.224C263.204 232.528 263.449 232.939 263.598 233.456C263.71 233.163 263.857 232.909 264.038 232.696C264.225 232.483 264.433 232.307 264.662 232.168C264.892 232.029 265.134 231.928 265.39 231.864C265.652 231.8 265.916 231.768 266.182 231.768C266.609 231.768 266.988 231.837 267.318 231.976C267.654 232.109 267.937 232.307 268.166 232.568C268.401 232.829 268.58 233.152 268.702 233.536C268.825 233.915 268.886 234.349 268.886 234.84V240H267.462V234.84C267.462 234.205 267.324 233.725 267.046 233.4C266.769 233.069 266.366 232.904 265.838 232.904C265.604 232.904 265.38 232.947 265.166 233.032C264.958 233.112 264.774 233.232 264.614 233.392C264.454 233.552 264.326 233.755 264.23 234C264.14 234.24 264.094 234.52 264.094 234.84V240H262.67V234.84C262.67 234.189 262.54 233.704 262.278 233.384C262.017 233.064 261.636 232.904 261.134 232.904C260.782 232.904 260.454 233 260.15 233.192C259.852 233.379 259.577 233.635 259.326 233.96V240H257.902ZM277.929 228.408C278.414 228.408 278.862 228.477 279.273 228.616C279.683 228.755 280.035 228.952 280.329 229.208C280.627 229.464 280.859 229.773 281.025 230.136C281.19 230.499 281.273 230.901 281.273 231.344C281.273 231.707 281.225 232.032 281.129 232.32C281.038 232.603 280.905 232.853 280.729 233.072C280.558 233.285 280.35 233.467 280.105 233.616C279.859 233.765 279.585 233.885 279.281 233.976C280.027 234.173 280.587 234.504 280.961 234.968C281.339 235.432 281.529 236.013 281.529 236.712C281.529 237.24 281.427 237.715 281.225 238.136C281.027 238.557 280.755 238.917 280.409 239.216C280.062 239.509 279.657 239.736 279.193 239.896C278.734 240.051 278.241 240.128 277.713 240.128C277.105 240.128 276.585 240.053 276.153 239.904C275.721 239.749 275.355 239.539 275.057 239.272C274.758 239.005 274.513 238.691 274.321 238.328C274.129 237.96 273.966 237.563 273.833 237.136L274.441 236.88C274.553 236.832 274.665 236.808 274.777 236.808C274.883 236.808 274.977 236.832 275.057 236.88C275.142 236.923 275.206 236.992 275.249 237.088C275.259 237.109 275.27 237.133 275.281 237.16C275.291 237.181 275.302 237.205 275.313 237.232C275.387 237.387 275.478 237.563 275.585 237.76C275.691 237.952 275.835 238.133 276.017 238.304C276.198 238.475 276.422 238.619 276.689 238.736C276.961 238.853 277.297 238.912 277.697 238.912C278.097 238.912 278.446 238.848 278.745 238.72C279.049 238.587 279.299 238.416 279.497 238.208C279.699 238 279.851 237.768 279.953 237.512C280.054 237.256 280.105 237.003 280.105 236.752C280.105 236.443 280.062 236.16 279.977 235.904C279.897 235.648 279.747 235.427 279.529 235.24C279.315 235.053 279.017 234.907 278.633 234.8C278.254 234.693 277.766 234.64 277.169 234.64V233.608C277.654 233.603 278.067 233.549 278.409 233.448C278.755 233.347 279.038 233.208 279.257 233.032C279.475 232.856 279.633 232.645 279.729 232.4C279.83 232.155 279.881 231.883 279.881 231.584C279.881 231.253 279.827 230.965 279.721 230.72C279.619 230.475 279.478 230.272 279.297 230.112C279.115 229.952 278.899 229.832 278.649 229.752C278.403 229.672 278.137 229.632 277.849 229.632C277.561 229.632 277.294 229.675 277.049 229.76C276.803 229.845 276.585 229.965 276.393 230.12C276.206 230.269 276.049 230.451 275.921 230.664C275.793 230.872 275.697 231.099 275.633 231.344C275.59 231.499 275.526 231.611 275.441 231.68C275.355 231.749 275.246 231.784 275.113 231.784C275.086 231.784 275.057 231.784 275.025 231.784C274.998 231.779 274.966 231.773 274.929 231.768L274.185 231.64C274.259 231.117 274.403 230.656 274.617 230.256C274.83 229.851 275.099 229.512 275.425 229.24C275.755 228.968 276.131 228.763 276.553 228.624C276.979 228.48 277.438 228.408 277.929 228.408ZM288.968 240.128C288.328 240.128 287.834 239.949 287.488 239.592C287.146 239.235 286.976 238.72 286.976 238.048V233.088H286C285.914 233.088 285.842 233.064 285.784 233.016C285.725 232.963 285.696 232.883 285.696 232.776V232.208L287.024 232.04L287.352 229.536C287.362 229.456 287.397 229.392 287.456 229.344C287.514 229.291 287.589 229.264 287.68 229.264H288.4V232.056H290.72V233.088H288.4V237.952C288.4 238.293 288.482 238.547 288.648 238.712C288.813 238.877 289.026 238.96 289.288 238.96C289.437 238.96 289.565 238.941 289.672 238.904C289.784 238.861 289.88 238.816 289.96 238.768C290.04 238.72 290.106 238.677 290.16 238.64C290.218 238.597 290.269 238.576 290.312 238.576C290.386 238.576 290.453 238.621 290.512 238.712L290.928 239.392C290.682 239.621 290.386 239.803 290.04 239.936C289.693 240.064 289.336 240.128 288.968 240.128ZM295.761 231.768C296.353 231.768 296.886 231.867 297.361 232.064C297.841 232.261 298.246 232.541 298.577 232.904C298.913 233.267 299.169 233.707 299.345 234.224C299.526 234.736 299.617 235.309 299.617 235.944C299.617 236.584 299.526 237.16 299.345 237.672C299.169 238.184 298.913 238.621 298.577 238.984C298.246 239.347 297.841 239.627 297.361 239.824C296.886 240.016 296.353 240.112 295.761 240.112C295.169 240.112 294.633 240.016 294.153 239.824C293.678 239.627 293.273 239.347 292.937 238.984C292.601 238.621 292.342 238.184 292.161 237.672C291.979 237.16 291.889 236.584 291.889 235.944C291.889 235.309 291.979 234.736 292.161 234.224C292.342 233.707 292.601 233.267 292.937 232.904C293.273 232.541 293.678 232.261 294.153 232.064C294.633 231.867 295.169 231.768 295.761 231.768ZM295.761 239C296.561 239 297.158 238.733 297.553 238.2C297.947 237.661 298.145 236.912 298.145 235.952C298.145 234.987 297.947 234.235 297.553 233.696C297.158 233.157 296.561 232.888 295.761 232.888C295.355 232.888 295.003 232.957 294.705 233.096C294.406 233.235 294.155 233.435 293.953 233.696C293.755 233.957 293.606 234.28 293.505 234.664C293.409 235.043 293.361 235.472 293.361 235.952C293.361 236.432 293.409 236.861 293.505 237.24C293.606 237.619 293.755 237.939 293.953 238.2C294.155 238.456 294.406 238.653 294.705 238.792C295.003 238.931 295.355 239 295.761 239ZM305.593 238.912H308.057V231.096C308.057 230.861 308.065 230.624 308.081 230.384L306.033 232.136C305.98 232.179 305.926 232.211 305.873 232.232C305.82 232.248 305.769 232.256 305.721 232.256C305.641 232.256 305.569 232.24 305.505 232.208C305.441 232.171 305.393 232.128 305.361 232.08L304.913 231.464L308.321 228.512H309.481V238.912H311.737V240H305.593V238.912ZM317.386 228.408C317.871 228.408 318.325 228.48 318.746 228.624C319.167 228.768 319.53 228.979 319.834 229.256C320.143 229.528 320.386 229.861 320.562 230.256C320.738 230.651 320.826 231.099 320.826 231.6C320.826 232.027 320.762 232.421 320.634 232.784C320.506 233.147 320.333 233.496 320.114 233.832C319.895 234.163 319.642 234.485 319.354 234.8C319.071 235.109 318.77 235.427 318.45 235.752L315.434 238.84C315.647 238.781 315.863 238.736 316.082 238.704C316.301 238.667 316.511 238.648 316.714 238.648H320.554C320.709 238.648 320.831 238.693 320.922 238.784C321.013 238.875 321.058 238.992 321.058 239.136V240H313.41V239.512C313.41 239.411 313.429 239.307 313.466 239.2C313.509 239.093 313.575 238.995 313.666 238.904L317.338 235.216C317.642 234.907 317.919 234.611 318.17 234.328C318.421 234.04 318.634 233.752 318.81 233.464C318.991 233.176 319.13 232.885 319.226 232.592C319.322 232.293 319.37 231.976 319.37 231.64C319.37 231.304 319.317 231.011 319.21 230.76C319.103 230.504 318.957 230.293 318.77 230.128C318.583 229.963 318.365 229.84 318.114 229.76C317.863 229.675 317.594 229.632 317.306 229.632C317.018 229.632 316.751 229.675 316.506 229.76C316.261 229.845 316.042 229.965 315.85 230.12C315.663 230.269 315.503 230.448 315.37 230.656C315.242 230.864 315.151 231.093 315.098 231.344C315.055 231.499 314.991 231.611 314.906 231.68C314.821 231.749 314.709 231.784 314.57 231.784C314.543 231.784 314.514 231.784 314.482 231.784C314.455 231.779 314.423 231.773 314.386 231.768L313.642 231.64C313.717 231.117 313.861 230.656 314.074 230.256C314.287 229.851 314.557 229.512 314.882 229.24C315.213 228.968 315.589 228.763 316.01 228.624C316.437 228.48 316.895 228.408 317.386 228.408ZM326.121 240V231.896H326.969C327.172 231.896 327.3 231.995 327.353 232.192L327.457 233.024C327.756 232.656 328.089 232.355 328.457 232.12C328.83 231.885 329.262 231.768 329.753 231.768C330.302 231.768 330.745 231.92 331.081 232.224C331.422 232.528 331.668 232.939 331.817 233.456C331.929 233.163 332.076 232.909 332.257 232.696C332.444 232.483 332.652 232.307 332.881 232.168C333.11 232.029 333.353 231.928 333.609 231.864C333.87 231.8 334.134 231.768 334.401 231.768C334.828 231.768 335.206 231.837 335.537 231.976C335.873 232.109 336.156 232.307 336.385 232.568C336.62 232.829 336.798 233.152 336.921 233.536C337.044 233.915 337.105 234.349 337.105 234.84V240H335.681V234.84C335.681 234.205 335.542 233.725 335.265 233.4C334.988 233.069 334.585 232.904 334.057 232.904C333.822 232.904 333.598 232.947 333.385 233.032C333.177 233.112 332.993 233.232 332.833 233.392C332.673 233.552 332.545 233.755 332.449 234C332.358 234.24 332.313 234.52 332.313 234.84V240H330.889V234.84C330.889 234.189 330.758 233.704 330.497 233.384C330.236 233.064 329.854 232.904 329.353 232.904C329.001 232.904 328.673 233 328.369 233.192C328.07 233.379 327.796 233.635 327.545 233.96V240H326.121ZM342.542 231.768C343.134 231.768 343.667 231.867 344.142 232.064C344.622 232.261 345.027 232.541 345.358 232.904C345.694 233.267 345.95 233.707 346.126 234.224C346.307 234.736 346.398 235.309 346.398 235.944C346.398 236.584 346.307 237.16 346.126 237.672C345.95 238.184 345.694 238.621 345.358 238.984C345.027 239.347 344.622 239.627 344.142 239.824C343.667 240.016 343.134 240.112 342.542 240.112C341.95 240.112 341.414 240.016 340.934 239.824C340.459 239.627 340.054 239.347 339.718 238.984C339.382 238.621 339.123 238.184 338.942 237.672C338.76 237.16 338.67 236.584 338.67 235.944C338.67 235.309 338.76 234.736 338.942 234.224C339.123 233.707 339.382 233.267 339.718 232.904C340.054 232.541 340.459 232.261 340.934 232.064C341.414 231.867 341.95 231.768 342.542 231.768ZM342.542 239C343.342 239 343.939 238.733 344.334 238.2C344.728 237.661 344.926 236.912 344.926 235.952C344.926 234.987 344.728 234.235 344.334 233.696C343.939 233.157 343.342 232.888 342.542 232.888C342.136 232.888 341.784 232.957 341.486 233.096C341.187 233.235 340.936 233.435 340.734 233.696C340.536 233.957 340.387 234.28 340.286 234.664C340.19 235.043 340.142 235.472 340.142 235.952C340.142 236.432 340.19 236.861 340.286 237.24C340.387 237.619 340.536 237.939 340.734 238.2C340.936 238.456 341.187 238.653 341.486 238.792C341.784 238.931 342.136 239 342.542 239ZM348.152 240V231.896H349C349.203 231.896 349.331 231.995 349.384 232.192L349.496 233.072C349.848 232.683 350.24 232.368 350.672 232.128C351.11 231.888 351.614 231.768 352.184 231.768C352.627 231.768 353.016 231.843 353.352 231.992C353.694 232.136 353.976 232.344 354.2 232.616C354.43 232.883 354.603 233.205 354.72 233.584C354.838 233.963 354.896 234.381 354.896 234.84V240H353.472V234.84C353.472 234.227 353.331 233.752 353.048 233.416C352.771 233.075 352.344 232.904 351.768 232.904C351.347 232.904 350.952 233.005 350.584 233.208C350.222 233.411 349.886 233.685 349.576 234.032V240H348.152ZM359.499 240.128C358.859 240.128 358.366 239.949 358.019 239.592C357.678 239.235 357.507 238.72 357.507 238.048V233.088H356.531C356.446 233.088 356.374 233.064 356.315 233.016C356.256 232.963 356.227 232.883 356.227 232.776V232.208L357.555 232.04L357.883 229.536C357.894 229.456 357.928 229.392 357.987 229.344C358.046 229.291 358.12 229.264 358.211 229.264H358.931V232.056H361.251V233.088H358.931V237.952C358.931 238.293 359.014 238.547 359.179 238.712C359.344 238.877 359.558 238.96 359.819 238.96C359.968 238.96 360.096 238.941 360.203 238.904C360.315 238.861 360.411 238.816 360.491 238.768C360.571 238.72 360.638 238.677 360.691 238.64C360.75 238.597 360.8 238.576 360.843 238.576C360.918 238.576 360.984 238.621 361.043 238.712L361.459 239.392C361.214 239.621 360.918 239.803 360.571 239.936C360.224 240.064 359.867 240.128 359.499 240.128ZM363.012 240V228.216H364.436V232.984C364.782 232.616 365.166 232.323 365.588 232.104C366.009 231.88 366.494 231.768 367.044 231.768C367.486 231.768 367.876 231.843 368.212 231.992C368.553 232.136 368.836 232.344 369.06 232.616C369.289 232.883 369.462 233.205 369.58 233.584C369.697 233.963 369.756 234.381 369.756 234.84V240H368.332V234.84C368.332 234.227 368.19 233.752 367.908 233.416C367.63 233.075 367.204 232.904 366.628 232.904C366.206 232.904 365.812 233.005 365.444 233.208C365.081 233.411 364.745 233.685 364.436 234.032V240H363.012ZM376.542 233.232C376.478 233.349 376.38 233.408 376.246 233.408C376.166 233.408 376.076 233.379 375.974 233.32C375.873 233.261 375.748 233.197 375.598 233.128C375.454 233.053 375.281 232.987 375.078 232.928C374.876 232.864 374.636 232.832 374.358 232.832C374.118 232.832 373.902 232.864 373.71 232.928C373.518 232.987 373.353 233.069 373.214 233.176C373.081 233.283 372.977 233.408 372.902 233.552C372.833 233.691 372.798 233.843 372.798 234.008C372.798 234.216 372.857 234.389 372.974 234.528C373.097 234.667 373.257 234.787 373.454 234.888C373.652 234.989 373.876 235.08 374.126 235.16C374.377 235.235 374.633 235.317 374.894 235.408C375.161 235.493 375.42 235.589 375.67 235.696C375.921 235.803 376.145 235.936 376.342 236.096C376.54 236.256 376.697 236.453 376.814 236.688C376.937 236.917 376.998 237.195 376.998 237.52C376.998 237.893 376.932 238.24 376.798 238.56C376.665 238.875 376.468 239.149 376.206 239.384C375.945 239.613 375.625 239.795 375.246 239.928C374.868 240.061 374.43 240.128 373.934 240.128C373.369 240.128 372.857 240.037 372.398 239.856C371.94 239.669 371.55 239.432 371.23 239.144L371.566 238.6C371.609 238.531 371.66 238.477 371.718 238.44C371.777 238.403 371.854 238.384 371.95 238.384C372.046 238.384 372.148 238.421 372.254 238.496C372.361 238.571 372.489 238.653 372.638 238.744C372.793 238.835 372.977 238.917 373.19 238.992C373.409 239.067 373.681 239.104 374.006 239.104C374.284 239.104 374.526 239.069 374.734 239C374.942 238.925 375.116 238.827 375.254 238.704C375.393 238.581 375.494 238.44 375.558 238.28C375.628 238.12 375.662 237.949 375.662 237.768C375.662 237.544 375.601 237.36 375.478 237.216C375.361 237.067 375.204 236.941 375.006 236.84C374.809 236.733 374.582 236.643 374.326 236.568C374.076 236.488 373.817 236.405 373.55 236.32C373.289 236.235 373.03 236.139 372.774 236.032C372.524 235.92 372.3 235.781 372.102 235.616C371.905 235.451 371.745 235.248 371.622 235.008C371.505 234.763 371.446 234.467 371.446 234.12C371.446 233.811 371.51 233.515 371.638 233.232C371.766 232.944 371.953 232.693 372.198 232.48C372.444 232.261 372.745 232.088 373.102 231.96C373.46 231.832 373.868 231.768 374.326 231.768C374.86 231.768 375.337 231.853 375.758 232.024C376.185 232.189 376.553 232.419 376.862 232.712L376.542 233.232ZM378.376 239.12C378.376 238.981 378.4 238.851 378.448 238.728C378.501 238.605 378.571 238.499 378.656 238.408C378.747 238.317 378.853 238.245 378.976 238.192C379.099 238.139 379.229 238.112 379.368 238.112C379.507 238.112 379.637 238.139 379.76 238.192C379.883 238.245 379.989 238.317 380.08 238.408C380.171 238.499 380.24 238.605 380.288 238.728C380.341 238.851 380.368 238.981 380.368 239.12C380.368 239.264 380.341 239.397 380.288 239.52C380.24 239.637 380.171 239.741 380.08 239.832C379.989 239.923 379.883 239.992 379.76 240.04C379.637 240.093 379.507 240.12 379.368 240.12C379.229 240.12 379.099 240.093 378.976 240.04C378.853 239.992 378.747 239.923 378.656 239.832C378.571 239.741 378.501 239.637 378.448 239.52C378.4 239.397 378.376 239.264 378.376 239.12Z" fill="#333333"/>
<path d="M160.328 303.272C160.328 304.131 160.192 304.912 159.92 305.616C159.648 306.32 159.264 306.923 158.768 307.424C158.272 307.925 157.677 308.315 156.984 308.592C156.291 308.864 155.523 309 154.68 309H150.392V297.536H154.68C155.523 297.536 156.291 297.675 156.984 297.952C157.677 298.224 158.272 298.613 158.768 299.12C159.264 299.621 159.648 300.224 159.92 300.928C160.192 301.632 160.328 302.413 160.328 303.272ZM158.736 303.272C158.736 302.568 158.64 301.939 158.448 301.384C158.256 300.829 157.984 300.36 157.632 299.976C157.28 299.592 156.853 299.299 156.352 299.096C155.851 298.893 155.293 298.792 154.68 298.792H151.952V307.744H154.68C155.293 307.744 155.851 307.643 156.352 307.44C156.853 307.237 157.28 306.947 157.632 306.568C157.984 306.184 158.256 305.715 158.448 305.16C158.64 304.605 158.736 303.976 158.736 303.272ZM163.799 300.896V309H162.375V300.896H163.799ZM164.119 298.352C164.119 298.491 164.09 298.621 164.031 298.744C163.978 298.861 163.903 298.968 163.807 299.064C163.716 299.155 163.61 299.227 163.487 299.28C163.364 299.333 163.234 299.36 163.095 299.36C162.956 299.36 162.826 299.333 162.703 299.28C162.586 299.227 162.479 299.155 162.383 299.064C162.292 298.968 162.22 298.861 162.167 298.744C162.114 298.621 162.087 298.491 162.087 298.352C162.087 298.213 162.114 298.083 162.167 297.96C162.22 297.832 162.292 297.723 162.383 297.632C162.479 297.536 162.586 297.461 162.703 297.408C162.826 297.355 162.956 297.328 163.095 297.328C163.234 297.328 163.364 297.355 163.487 297.408C163.61 297.461 163.716 297.536 163.807 297.632C163.903 297.723 163.978 297.832 164.031 297.96C164.09 298.083 164.119 298.213 164.119 298.352ZM170.949 302.232C170.885 302.349 170.786 302.408 170.653 302.408C170.573 302.408 170.482 302.379 170.381 302.32C170.279 302.261 170.154 302.197 170.005 302.128C169.861 302.053 169.687 301.987 169.485 301.928C169.282 301.864 169.042 301.832 168.765 301.832C168.525 301.832 168.309 301.864 168.117 301.928C167.925 301.987 167.759 302.069 167.621 302.176C167.487 302.283 167.383 302.408 167.309 302.552C167.239 302.691 167.205 302.843 167.205 303.008C167.205 303.216 167.263 303.389 167.381 303.528C167.503 303.667 167.663 303.787 167.861 303.888C168.058 303.989 168.282 304.08 168.533 304.16C168.783 304.235 169.039 304.317 169.301 304.408C169.567 304.493 169.826 304.589 170.077 304.696C170.327 304.803 170.551 304.936 170.749 305.096C170.946 305.256 171.103 305.453 171.221 305.688C171.343 305.917 171.405 306.195 171.405 306.52C171.405 306.893 171.338 307.24 171.205 307.56C171.071 307.875 170.874 308.149 170.613 308.384C170.351 308.613 170.031 308.795 169.653 308.928C169.274 309.061 168.837 309.128 168.341 309.128C167.775 309.128 167.263 309.037 166.805 308.856C166.346 308.669 165.957 308.432 165.637 308.144L165.973 307.6C166.015 307.531 166.066 307.477 166.125 307.44C166.183 307.403 166.261 307.384 166.357 307.384C166.453 307.384 166.554 307.421 166.661 307.496C166.767 307.571 166.895 307.653 167.045 307.744C167.199 307.835 167.383 307.917 167.597 307.992C167.815 308.067 168.087 308.104 168.413 308.104C168.69 308.104 168.933 308.069 169.141 308C169.349 307.925 169.522 307.827 169.661 307.704C169.799 307.581 169.901 307.44 169.965 307.28C170.034 307.12 170.069 306.949 170.069 306.768C170.069 306.544 170.007 306.36 169.885 306.216C169.767 306.067 169.61 305.941 169.413 305.84C169.215 305.733 168.989 305.643 168.733 305.568C168.482 305.488 168.223 305.405 167.957 305.32C167.695 305.235 167.437 305.139 167.181 305.032C166.93 304.92 166.706 304.781 166.509 304.616C166.311 304.451 166.151 304.248 166.029 304.008C165.911 303.763 165.853 303.467 165.853 303.12C165.853 302.811 165.917 302.515 166.045 302.232C166.173 301.944 166.359 301.693 166.605 301.48C166.85 301.261 167.151 301.088 167.509 300.96C167.866 300.832 168.274 300.768 168.733 300.768C169.266 300.768 169.743 300.853 170.165 301.024C170.591 301.189 170.959 301.419 171.269 301.712L170.949 302.232ZM173.294 309V297.216H174.726V302.064C175.062 301.675 175.446 301.363 175.878 301.128C176.315 300.888 176.814 300.768 177.374 300.768C177.843 300.768 178.267 300.856 178.646 301.032C179.025 301.208 179.347 301.472 179.614 301.824C179.881 302.171 180.086 302.603 180.23 303.12C180.374 303.632 180.446 304.224 180.446 304.896C180.446 305.493 180.366 306.051 180.206 306.568C180.046 307.08 179.814 307.525 179.51 307.904C179.211 308.277 178.843 308.573 178.406 308.792C177.974 309.005 177.486 309.112 176.942 309.112C176.419 309.112 175.974 309.011 175.606 308.808C175.243 308.605 174.926 308.323 174.654 307.96L174.582 308.696C174.539 308.899 174.417 309 174.214 309H173.294ZM176.91 301.904C176.446 301.904 176.038 302.011 175.686 302.224C175.339 302.437 175.019 302.739 174.726 303.128V307.048C174.982 307.4 175.265 307.648 175.574 307.792C175.889 307.936 176.238 308.008 176.622 308.008C177.379 308.008 177.961 307.739 178.366 307.2C178.771 306.661 178.974 305.893 178.974 304.896C178.974 304.368 178.926 303.915 178.83 303.536C178.739 303.157 178.606 302.848 178.43 302.608C178.254 302.363 178.038 302.184 177.782 302.072C177.526 301.96 177.235 301.904 176.91 301.904ZM183.416 300.896V306.064C183.416 306.677 183.557 307.152 183.84 307.488C184.122 307.824 184.549 307.992 185.12 307.992C185.536 307.992 185.928 307.893 186.296 307.696C186.664 307.499 187.002 307.224 187.312 306.872V300.896H188.736V309H187.888C187.685 309 187.557 308.901 187.504 308.704L187.392 307.832C187.04 308.221 186.645 308.536 186.208 308.776C185.77 309.011 185.269 309.128 184.704 309.128C184.261 309.128 183.869 309.056 183.528 308.912C183.192 308.763 182.909 308.555 182.68 308.288C182.45 308.021 182.277 307.699 182.16 307.32C182.048 306.941 181.992 306.523 181.992 306.064V300.896H183.416ZM191.074 309V300.896H191.89C192.045 300.896 192.152 300.925 192.21 300.984C192.269 301.043 192.309 301.144 192.33 301.288L192.426 302.552C192.704 301.987 193.045 301.547 193.45 301.232C193.861 300.912 194.341 300.752 194.89 300.752C195.114 300.752 195.317 300.779 195.498 300.832C195.68 300.88 195.848 300.949 196.002 301.04L195.818 302.104C195.781 302.237 195.698 302.304 195.57 302.304C195.496 302.304 195.381 302.28 195.226 302.232C195.072 302.179 194.856 302.152 194.578 302.152C194.082 302.152 193.666 302.296 193.33 302.584C193 302.872 192.722 303.291 192.498 303.84V309H191.074ZM202.167 302.232C202.103 302.349 202.005 302.408 201.871 302.408C201.791 302.408 201.701 302.379 201.599 302.32C201.498 302.261 201.373 302.197 201.223 302.128C201.079 302.053 200.906 301.987 200.703 301.928C200.501 301.864 200.261 301.832 199.983 301.832C199.743 301.832 199.527 301.864 199.335 301.928C199.143 301.987 198.978 302.069 198.839 302.176C198.706 302.283 198.602 302.408 198.527 302.552C198.458 302.691 198.423 302.843 198.423 303.008C198.423 303.216 198.482 303.389 198.599 303.528C198.722 303.667 198.882 303.787 199.079 303.888C199.277 303.989 199.501 304.08 199.751 304.16C200.002 304.235 200.258 304.317 200.519 304.408C200.786 304.493 201.045 304.589 201.295 304.696C201.546 304.803 201.77 304.936 201.967 305.096C202.165 305.256 202.322 305.453 202.439 305.688C202.562 305.917 202.623 306.195 202.623 306.52C202.623 306.893 202.557 307.24 202.423 307.56C202.29 307.875 202.093 308.149 201.831 308.384C201.57 308.613 201.25 308.795 200.871 308.928C200.493 309.061 200.055 309.128 199.559 309.128C198.994 309.128 198.482 309.037 198.023 308.856C197.565 308.669 197.175 308.432 196.855 308.144L197.191 307.6C197.234 307.531 197.285 307.477 197.343 307.44C197.402 307.403 197.479 307.384 197.575 307.384C197.671 307.384 197.773 307.421 197.879 307.496C197.986 307.571 198.114 307.653 198.263 307.744C198.418 307.835 198.602 307.917 198.815 307.992C199.034 308.067 199.306 308.104 199.631 308.104C199.909 308.104 200.151 308.069 200.359 308C200.567 307.925 200.741 307.827 200.879 307.704C201.018 307.581 201.119 307.44 201.183 307.28C201.253 307.12 201.287 306.949 201.287 306.768C201.287 306.544 201.226 306.36 201.103 306.216C200.986 306.067 200.829 305.941 200.631 305.84C200.434 305.733 200.207 305.643 199.951 305.568C199.701 305.488 199.442 305.405 199.175 305.32C198.914 305.235 198.655 305.139 198.399 305.032C198.149 304.92 197.925 304.781 197.727 304.616C197.53 304.451 197.37 304.248 197.247 304.008C197.13 303.763 197.071 303.467 197.071 303.12C197.071 302.811 197.135 302.515 197.263 302.232C197.391 301.944 197.578 301.693 197.823 301.48C198.069 301.261 198.37 301.088 198.727 300.96C199.085 300.832 199.493 300.768 199.951 300.768C200.485 300.768 200.962 300.853 201.383 301.024C201.81 301.189 202.178 301.419 202.487 301.712L202.167 302.232ZM207.673 300.768C208.158 300.768 208.606 300.851 209.017 301.016C209.428 301.176 209.782 301.411 210.081 301.72C210.38 302.024 210.612 302.403 210.777 302.856C210.948 303.304 211.033 303.816 211.033 304.392C211.033 304.616 211.009 304.765 210.961 304.84C210.913 304.915 210.822 304.952 210.689 304.952H205.297C205.308 305.464 205.377 305.909 205.505 306.288C205.633 306.667 205.809 306.984 206.033 307.24C206.257 307.491 206.524 307.68 206.833 307.808C207.142 307.931 207.489 307.992 207.873 307.992C208.23 307.992 208.537 307.952 208.793 307.872C209.054 307.787 209.278 307.696 209.465 307.6C209.652 307.504 209.806 307.416 209.929 307.336C210.057 307.251 210.166 307.208 210.257 307.208C210.374 307.208 210.465 307.253 210.529 307.344L210.929 307.864C210.753 308.077 210.542 308.264 210.297 308.424C210.052 308.579 209.788 308.707 209.505 308.808C209.228 308.909 208.94 308.984 208.641 309.032C208.342 309.085 208.046 309.112 207.753 309.112C207.193 309.112 206.676 309.019 206.201 308.832C205.732 308.64 205.324 308.363 204.977 308C204.636 307.632 204.369 307.179 204.177 306.64C203.985 306.101 203.889 305.483 203.889 304.784C203.889 304.219 203.974 303.691 204.145 303.2C204.321 302.709 204.572 302.285 204.897 301.928C205.222 301.565 205.62 301.283 206.089 301.08C206.558 300.872 207.086 300.768 207.673 300.768ZM207.705 301.816C207.017 301.816 206.476 302.016 206.081 302.416C205.686 302.811 205.441 303.36 205.345 304.064H209.753C209.753 303.733 209.708 303.432 209.617 303.16C209.526 302.883 209.393 302.645 209.217 302.448C209.041 302.245 208.825 302.091 208.569 301.984C208.318 301.872 208.03 301.816 207.705 301.816ZM212.856 309V300.896H213.704C213.906 300.896 214.034 300.995 214.088 301.192L214.192 302.024C214.49 301.656 214.824 301.355 215.192 301.12C215.565 300.885 215.997 300.768 216.488 300.768C217.037 300.768 217.48 300.92 217.816 301.224C218.157 301.528 218.402 301.939 218.552 302.456C218.664 302.163 218.81 301.909 218.992 301.696C219.178 301.483 219.386 301.307 219.616 301.168C219.845 301.029 220.088 300.928 220.344 300.864C220.605 300.8 220.869 300.768 221.136 300.768C221.562 300.768 221.941 300.837 222.272 300.976C222.608 301.109 222.89 301.307 223.12 301.568C223.354 301.829 223.533 302.152 223.656 302.536C223.778 302.915 223.84 303.349 223.84 303.84V309H222.416V303.84C222.416 303.205 222.277 302.725 222 302.4C221.722 302.069 221.32 301.904 220.792 301.904C220.557 301.904 220.333 301.947 220.12 302.032C219.912 302.112 219.728 302.232 219.568 302.392C219.408 302.552 219.28 302.755 219.184 303C219.093 303.24 219.048 303.52 219.048 303.84V309H217.624V303.84C217.624 303.189 217.493 302.704 217.232 302.384C216.97 302.064 216.589 301.904 216.088 301.904C215.736 301.904 215.408 302 215.104 302.192C214.805 302.379 214.53 302.635 214.28 302.96V309H212.856ZM229.204 300.768C229.689 300.768 230.137 300.851 230.548 301.016C230.959 301.176 231.313 301.411 231.612 301.72C231.911 302.024 232.143 302.403 232.308 302.856C232.479 303.304 232.564 303.816 232.564 304.392C232.564 304.616 232.54 304.765 232.492 304.84C232.444 304.915 232.353 304.952 232.22 304.952H226.828C226.839 305.464 226.908 305.909 227.036 306.288C227.164 306.667 227.34 306.984 227.564 307.24C227.788 307.491 228.055 307.68 228.364 307.808C228.673 307.931 229.02 307.992 229.404 307.992C229.761 307.992 230.068 307.952 230.324 307.872C230.585 307.787 230.809 307.696 230.996 307.6C231.183 307.504 231.337 307.416 231.46 307.336C231.588 307.251 231.697 307.208 231.788 307.208C231.905 307.208 231.996 307.253 232.06 307.344L232.46 307.864C232.284 308.077 232.073 308.264 231.828 308.424C231.583 308.579 231.319 308.707 231.036 308.808C230.759 308.909 230.471 308.984 230.172 309.032C229.873 309.085 229.577 309.112 229.284 309.112C228.724 309.112 228.207 309.019 227.732 308.832C227.263 308.64 226.855 308.363 226.508 308C226.167 307.632 225.9 307.179 225.708 306.64C225.516 306.101 225.42 305.483 225.42 304.784C225.42 304.219 225.505 303.691 225.676 303.2C225.852 302.709 226.103 302.285 226.428 301.928C226.753 301.565 227.151 301.283 227.62 301.08C228.089 300.872 228.617 300.768 229.204 300.768ZM229.236 301.816C228.548 301.816 228.007 302.016 227.612 302.416C227.217 302.811 226.972 303.36 226.876 304.064H231.284C231.284 303.733 231.239 303.432 231.148 303.16C231.057 302.883 230.924 302.645 230.748 302.448C230.572 302.245 230.356 302.091 230.1 301.984C229.849 301.872 229.561 301.816 229.236 301.816ZM234.387 309V300.896H235.235C235.437 300.896 235.565 300.995 235.619 301.192L235.731 302.072C236.083 301.683 236.475 301.368 236.907 301.128C237.344 300.888 237.848 300.768 238.419 300.768C238.861 300.768 239.251 300.843 239.587 300.992C239.928 301.136 240.211 301.344 240.435 301.616C240.664 301.883 240.837 302.205 240.955 302.584C241.072 302.963 241.131 303.381 241.131 303.84V309H239.707V303.84C239.707 303.227 239.565 302.752 239.283 302.416C239.005 302.075 238.579 301.904 238.003 301.904C237.581 301.904 237.187 302.005 236.819 302.208C236.456 302.411 236.12 302.685 235.811 303.032V309H234.387ZM245.733 309.128C245.093 309.128 244.6 308.949 244.253 308.592C243.912 308.235 243.741 307.72 243.741 307.048V302.088H242.765C242.68 302.088 242.608 302.064 242.549 302.016C242.491 301.963 242.461 301.883 242.461 301.776V301.208L243.789 301.04L244.117 298.536C244.128 298.456 244.163 298.392 244.221 298.344C244.28 298.291 244.355 298.264 244.445 298.264H245.165V301.056H247.485V302.088H245.165V306.952C245.165 307.293 245.248 307.547 245.413 307.712C245.579 307.877 245.792 307.96 246.053 307.96C246.203 307.96 246.331 307.941 246.437 307.904C246.549 307.861 246.645 307.816 246.725 307.768C246.805 307.72 246.872 307.677 246.925 307.64C246.984 307.597 247.035 307.576 247.077 307.576C247.152 307.576 247.219 307.621 247.277 307.712L247.693 308.392C247.448 308.621 247.152 308.803 246.805 308.936C246.459 309.064 246.101 309.128 245.733 309.128ZM251.284 300.896H252.404C252.521 300.896 252.617 300.925 252.692 300.984C252.767 301.043 252.817 301.112 252.844 301.192L254.396 306.408C254.439 306.6 254.479 306.787 254.516 306.968C254.553 307.144 254.585 307.323 254.612 307.504C254.655 307.323 254.703 307.144 254.756 306.968C254.809 306.787 254.865 306.6 254.924 306.408L256.636 301.16C256.663 301.08 256.708 301.013 256.772 300.96C256.841 300.907 256.927 300.88 257.028 300.88H257.644C257.751 300.88 257.839 300.907 257.908 300.96C257.977 301.013 258.025 301.08 258.052 301.16L259.724 306.408C259.783 306.595 259.833 306.779 259.876 306.96C259.924 307.141 259.969 307.32 260.012 307.496C260.039 307.32 260.073 307.136 260.116 306.944C260.159 306.752 260.204 306.573 260.252 306.408L261.836 301.192C261.863 301.107 261.913 301.037 261.988 300.984C262.063 300.925 262.151 300.896 262.252 300.896H263.324L260.7 309H259.572C259.433 309 259.337 308.909 259.284 308.728L257.492 303.232C257.449 303.109 257.415 302.987 257.388 302.864C257.361 302.736 257.335 302.611 257.308 302.488C257.281 302.611 257.255 302.736 257.228 302.864C257.201 302.992 257.167 303.117 257.124 303.24L255.308 308.728C255.249 308.909 255.14 309 254.98 309H253.908L251.284 300.896ZM266.174 300.896V309H264.75V300.896H266.174ZM266.494 298.352C266.494 298.491 266.465 298.621 266.406 298.744C266.353 298.861 266.278 298.968 266.182 299.064C266.091 299.155 265.985 299.227 265.862 299.28C265.739 299.333 265.609 299.36 265.47 299.36C265.331 299.36 265.201 299.333 265.078 299.28C264.961 299.227 264.854 299.155 264.758 299.064C264.667 298.968 264.595 298.861 264.542 298.744C264.489 298.621 264.462 298.491 264.462 298.352C264.462 298.213 264.489 298.083 264.542 297.96C264.595 297.832 264.667 297.723 264.758 297.632C264.854 297.536 264.961 297.461 265.078 297.408C265.201 297.355 265.331 297.328 265.47 297.328C265.609 297.328 265.739 297.355 265.862 297.408C265.985 297.461 266.091 297.536 266.182 297.632C266.278 297.723 266.353 297.832 266.406 297.96C266.465 298.083 266.494 298.213 266.494 298.352ZM271.14 309.128C270.5 309.128 270.006 308.949 269.66 308.592C269.318 308.235 269.148 307.72 269.148 307.048V302.088H268.172C268.086 302.088 268.014 302.064 267.956 302.016C267.897 301.963 267.868 301.883 267.868 301.776V301.208L269.196 301.04L269.524 298.536C269.534 298.456 269.569 298.392 269.628 298.344C269.686 298.291 269.761 298.264 269.852 298.264H270.572V301.056H272.892V302.088H270.572V306.952C270.572 307.293 270.654 307.547 270.82 307.712C270.985 307.877 271.198 307.96 271.46 307.96C271.609 307.96 271.737 307.941 271.844 307.904C271.956 307.861 272.052 307.816 272.132 307.768C272.212 307.72 272.278 307.677 272.332 307.64C272.39 307.597 272.441 307.576 272.484 307.576C272.558 307.576 272.625 307.621 272.684 307.712L273.1 308.392C272.854 308.621 272.558 308.803 272.212 308.936C271.865 309.064 271.508 309.128 271.14 309.128ZM274.652 309V297.216H276.076V301.984C276.423 301.616 276.807 301.323 277.228 301.104C277.65 300.88 278.135 300.768 278.684 300.768C279.127 300.768 279.516 300.843 279.852 300.992C280.194 301.136 280.476 301.344 280.7 301.616C280.93 301.883 281.103 302.205 281.22 302.584C281.338 302.963 281.396 303.381 281.396 303.84V309H279.972V303.84C279.972 303.227 279.831 302.752 279.548 302.416C279.271 302.075 278.844 301.904 278.268 301.904C277.847 301.904 277.452 302.005 277.084 302.208C276.722 302.411 276.386 302.685 276.076 303.032V309H274.652ZM285.127 300.896V309H283.703V300.896H285.127ZM285.447 298.352C285.447 298.491 285.418 298.621 285.359 298.744C285.306 298.861 285.231 298.968 285.135 299.064C285.044 299.155 284.938 299.227 284.815 299.28C284.692 299.333 284.562 299.36 284.423 299.36C284.284 299.36 284.154 299.333 284.031 299.28C283.914 299.227 283.807 299.155 283.711 299.064C283.62 298.968 283.548 298.861 283.495 298.744C283.442 298.621 283.415 298.491 283.415 298.352C283.415 298.213 283.442 298.083 283.495 297.96C283.548 297.832 283.62 297.723 283.711 297.632C283.807 297.536 283.914 297.461 284.031 297.408C284.154 297.355 284.284 297.328 284.423 297.328C284.562 297.328 284.692 297.355 284.815 297.408C284.938 297.461 285.044 297.536 285.135 297.632C285.231 297.723 285.306 297.832 285.359 297.96C285.418 298.083 285.447 298.213 285.447 298.352ZM287.637 309V300.896H288.485C288.687 300.896 288.815 300.995 288.869 301.192L288.981 302.072C289.333 301.683 289.725 301.368 290.157 301.128C290.594 300.888 291.098 300.768 291.669 300.768C292.111 300.768 292.501 300.843 292.837 300.992C293.178 301.136 293.461 301.344 293.685 301.616C293.914 301.883 294.087 302.205 294.205 302.584C294.322 302.963 294.381 303.381 294.381 303.84V309H292.957V303.84C292.957 303.227 292.815 302.752 292.533 302.416C292.255 302.075 291.829 301.904 291.253 301.904C290.831 301.904 290.437 302.005 290.069 302.208C289.706 302.411 289.37 302.685 289.061 303.032V309H287.637ZM303.261 297.408C303.746 297.408 304.2 297.48 304.621 297.624C305.042 297.768 305.405 297.979 305.709 298.256C306.018 298.528 306.261 298.861 306.437 299.256C306.613 299.651 306.701 300.099 306.701 300.6C306.701 301.027 306.637 301.421 306.509 301.784C306.381 302.147 306.208 302.496 305.989 302.832C305.77 303.163 305.517 303.485 305.229 303.8C304.946 304.109 304.645 304.427 304.325 304.752L301.309 307.84C301.522 307.781 301.738 307.736 301.957 307.704C302.176 307.667 302.386 307.648 302.589 307.648H306.429C306.584 307.648 306.706 307.693 306.797 307.784C306.888 307.875 306.933 307.992 306.933 308.136V309H299.285V308.512C299.285 308.411 299.304 308.307 299.341 308.2C299.384 308.093 299.45 307.995 299.541 307.904L303.213 304.216C303.517 303.907 303.794 303.611 304.045 303.328C304.296 303.04 304.509 302.752 304.685 302.464C304.866 302.176 305.005 301.885 305.101 301.592C305.197 301.293 305.245 300.976 305.245 300.64C305.245 300.304 305.192 300.011 305.085 299.76C304.978 299.504 304.832 299.293 304.645 299.128C304.458 298.963 304.24 298.84 303.989 298.76C303.738 298.675 303.469 298.632 303.181 298.632C302.893 298.632 302.626 298.675 302.381 298.76C302.136 298.845 301.917 298.965 301.725 299.12C301.538 299.269 301.378 299.448 301.245 299.656C301.117 299.864 301.026 300.093 300.973 300.344C300.93 300.499 300.866 300.611 300.781 300.68C300.696 300.749 300.584 300.784 300.445 300.784C300.418 300.784 300.389 300.784 300.357 300.784C300.33 300.779 300.298 300.773 300.261 300.768L299.517 300.64C299.592 300.117 299.736 299.656 299.949 299.256C300.162 298.851 300.432 298.512 300.757 298.24C301.088 297.968 301.464 297.763 301.885 297.624C302.312 297.48 302.77 297.408 303.261 297.408ZM314.958 304.864H316.694V305.68C316.694 305.765 316.668 305.837 316.614 305.896C316.566 305.955 316.489 305.984 316.382 305.984H314.958V309H313.702V305.984H308.622C308.516 305.984 308.422 305.955 308.342 305.896C308.268 305.832 308.22 305.755 308.198 305.664L308.054 304.936L313.63 297.536H314.958V304.864ZM313.702 300.136C313.702 299.997 313.705 299.848 313.71 299.688C313.721 299.528 313.74 299.363 313.766 299.192L309.598 304.864H313.702V300.136ZM321.277 309V297.216H322.701V301.984C323.048 301.616 323.432 301.323 323.853 301.104C324.275 300.88 324.76 300.768 325.309 300.768C325.752 300.768 326.141 300.843 326.477 300.992C326.819 301.136 327.101 301.344 327.325 301.616C327.555 301.883 327.728 302.205 327.845 302.584C327.963 302.963 328.021 303.381 328.021 303.84V309H326.597V303.84C326.597 303.227 326.456 302.752 326.173 302.416C325.896 302.075 325.469 301.904 324.893 301.904C324.472 301.904 324.077 302.005 323.709 302.208C323.347 302.411 323.011 302.685 322.701 303.032V309H321.277ZM333.448 300.768C334.04 300.768 334.573 300.867 335.048 301.064C335.528 301.261 335.933 301.541 336.264 301.904C336.6 302.267 336.856 302.707 337.032 303.224C337.213 303.736 337.304 304.309 337.304 304.944C337.304 305.584 337.213 306.16 337.032 306.672C336.856 307.184 336.6 307.621 336.264 307.984C335.933 308.347 335.528 308.627 335.048 308.824C334.573 309.016 334.04 309.112 333.448 309.112C332.856 309.112 332.32 309.016 331.84 308.824C331.365 308.627 330.96 308.347 330.624 307.984C330.288 307.621 330.029 307.184 329.848 306.672C329.667 306.16 329.576 305.584 329.576 304.944C329.576 304.309 329.667 303.736 329.848 303.224C330.029 302.707 330.288 302.267 330.624 301.904C330.96 301.541 331.365 301.261 331.84 301.064C332.32 300.867 332.856 300.768 333.448 300.768ZM333.448 308C334.248 308 334.845 307.733 335.24 307.2C335.635 306.661 335.832 305.912 335.832 304.952C335.832 303.987 335.635 303.235 335.24 302.696C334.845 302.157 334.248 301.888 333.448 301.888C333.043 301.888 332.691 301.957 332.392 302.096C332.093 302.235 331.843 302.435 331.64 302.696C331.443 302.957 331.293 303.28 331.192 303.664C331.096 304.043 331.048 304.472 331.048 304.952C331.048 305.432 331.096 305.861 331.192 306.24C331.293 306.619 331.443 306.939 331.64 307.2C331.843 307.456 332.093 307.653 332.392 307.792C332.691 307.931 333.043 308 333.448 308ZM340.291 300.896V306.064C340.291 306.677 340.432 307.152 340.715 307.488C340.997 307.824 341.424 307.992 341.995 307.992C342.411 307.992 342.803 307.893 343.171 307.696C343.539 307.499 343.877 307.224 344.187 306.872V300.896H345.611V309H344.763C344.56 309 344.432 308.901 344.379 308.704L344.267 307.832C343.915 308.221 343.52 308.536 343.083 308.776C342.645 309.011 342.144 309.128 341.579 309.128C341.136 309.128 340.744 309.056 340.403 308.912C340.067 308.763 339.784 308.555 339.555 308.288C339.325 308.021 339.152 307.699 339.035 307.32C338.923 306.941 338.867 306.523 338.867 306.064V300.896H340.291ZM347.949 309V300.896H348.765C348.92 300.896 349.027 300.925 349.085 300.984C349.144 301.043 349.184 301.144 349.205 301.288L349.301 302.552C349.579 301.987 349.92 301.547 350.325 301.232C350.736 300.912 351.216 300.752 351.765 300.752C351.989 300.752 352.192 300.779 352.373 300.832C352.555 300.88 352.723 300.949 352.877 301.04L352.693 302.104C352.656 302.237 352.573 302.304 352.445 302.304C352.371 302.304 352.256 302.28 352.101 302.232C351.947 302.179 351.731 302.152 351.453 302.152C350.957 302.152 350.541 302.296 350.205 302.584C349.875 302.872 349.597 303.291 349.373 303.84V309H347.949ZM359.042 302.232C358.978 302.349 358.88 302.408 358.746 302.408C358.666 302.408 358.576 302.379 358.474 302.32C358.373 302.261 358.248 302.197 358.098 302.128C357.954 302.053 357.781 301.987 357.578 301.928C357.376 301.864 357.136 301.832 356.858 301.832C356.618 301.832 356.402 301.864 356.21 301.928C356.018 301.987 355.853 302.069 355.714 302.176C355.581 302.283 355.477 302.408 355.402 302.552C355.333 302.691 355.298 302.843 355.298 303.008C355.298 303.216 355.357 303.389 355.474 303.528C355.597 303.667 355.757 303.787 355.954 303.888C356.152 303.989 356.376 304.08 356.626 304.16C356.877 304.235 357.133 304.317 357.394 304.408C357.661 304.493 357.92 304.589 358.17 304.696C358.421 304.803 358.645 304.936 358.842 305.096C359.04 305.256 359.197 305.453 359.314 305.688C359.437 305.917 359.498 306.195 359.498 306.52C359.498 306.893 359.432 307.24 359.298 307.56C359.165 307.875 358.968 308.149 358.706 308.384C358.445 308.613 358.125 308.795 357.746 308.928C357.368 309.061 356.93 309.128 356.434 309.128C355.869 309.128 355.357 309.037 354.898 308.856C354.44 308.669 354.05 308.432 353.73 308.144L354.066 307.6C354.109 307.531 354.16 307.477 354.218 307.44C354.277 307.403 354.354 307.384 354.45 307.384C354.546 307.384 354.648 307.421 354.754 307.496C354.861 307.571 354.989 307.653 355.138 307.744C355.293 307.835 355.477 307.917 355.69 307.992C355.909 308.067 356.181 308.104 356.506 308.104C356.784 308.104 357.026 308.069 357.234 308C357.442 307.925 357.616 307.827 357.754 307.704C357.893 307.581 357.994 307.44 358.058 307.28C358.128 307.12 358.162 306.949 358.162 306.768C358.162 306.544 358.101 306.36 357.978 306.216C357.861 306.067 357.704 305.941 357.506 305.84C357.309 305.733 357.082 305.643 356.826 305.568C356.576 305.488 356.317 305.405 356.05 305.32C355.789 305.235 355.53 305.139 355.274 305.032C355.024 304.92 354.8 304.781 354.602 304.616C354.405 304.451 354.245 304.248 354.122 304.008C354.005 303.763 353.946 303.467 353.946 303.12C353.946 302.811 354.01 302.515 354.138 302.232C354.266 301.944 354.453 301.693 354.698 301.48C354.944 301.261 355.245 301.088 355.602 300.96C355.96 300.832 356.368 300.768 356.826 300.768C357.36 300.768 357.837 300.853 358.258 301.024C358.685 301.189 359.053 301.419 359.362 301.712L359.042 302.232ZM360.876 308.12C360.876 307.981 360.9 307.851 360.948 307.728C361.001 307.605 361.071 307.499 361.156 307.408C361.247 307.317 361.353 307.245 361.476 307.192C361.599 307.139 361.729 307.112 361.868 307.112C362.007 307.112 362.137 307.139 362.26 307.192C362.383 307.245 362.489 307.317 362.58 307.408C362.671 307.499 362.74 307.605 362.788 307.728C362.841 307.851 362.868 307.981 362.868 308.12C362.868 308.264 362.841 308.397 362.788 308.52C362.74 308.637 362.671 308.741 362.58 308.832C362.489 308.923 362.383 308.992 362.26 309.04C362.137 309.093 362.007 309.12 361.868 309.12C361.729 309.12 361.599 309.093 361.476 309.04C361.353 308.992 361.247 308.923 361.156 308.832C361.071 308.741 361.001 308.637 360.948 308.52C360.9 308.397 360.876 308.264 360.876 308.12Z" fill="#333333"/>
<circle cx="112.5" cy="163.5" r="23.5" fill="#EC702A"/>
<circle cx="112.5" cy="234.5" r="23.5" fill="#8236FF"/>
<circle cx="112.5" cy="303.5" r="23.5" fill="#289800"/>
<line x1="86.0017" y1="269.5" x2="381.002" y2="270.5" stroke="#E8E8E8"/>
<line x1="86" y1="199.5" x2="381" y2="199.5" stroke="#E8E8E8"/>
<path d="M126.918 167.269C126.703 166.525 126.1 165.963 125.343 165.802C124.858 165.699 124.354 165.774 123.924 166.003C124.173 164.453 124.042 162.85 123.529 161.355C123.431 161.069 123.12 160.917 122.834 161.015C122.548 161.113 122.396 161.424 122.494 161.71C123.1 163.475 123.105 165.411 122.512 167.179L118.153 171.05C117.884 171.288 117.59 171.491 117.276 171.655C117.365 171.297 117.359 170.917 117.252 170.556C117.084 169.987 116.681 169.513 116.145 169.257L112.284 167.408C110.596 166.599 108.621 166.506 106.864 167.15L106.472 167.295C105.382 164.217 106.141 160.805 108.473 158.472L112.334 154.611H116.609L119.88 157.883C120.094 158.096 120.44 158.096 120.653 157.883C120.867 157.669 120.867 157.323 120.653 157.109L117.528 153.983L118.658 150.732C118.809 150.296 118.642 149.82 118.251 149.575C117.86 149.33 117.359 149.387 117.032 149.713L117.026 149.72C116.8 149.946 116.432 149.946 116.206 149.72C115.246 148.76 113.684 148.76 112.724 149.72C112.615 149.829 112.469 149.89 112.314 149.89C112.159 149.89 112.014 149.829 111.904 149.72C111.578 149.393 111.076 149.337 110.685 149.582C110.294 149.828 110.127 150.304 110.28 150.741L111.415 153.984L107.7 157.699C106.325 159.074 105.411 160.807 105.057 162.712C104.746 164.382 104.881 166.085 105.444 167.672L104.582 167.989C104.295 167.616 103.845 167.375 103.339 167.375H100.568C99.7033 167.375 99 168.078 99 168.942V175.432C99 176.297 99.7033 177 100.568 177H114.982C117.246 177 119.387 176.131 121.011 174.553L126.366 169.348C126.921 168.809 127.132 168.012 126.918 167.269V167.269ZM112.314 150.983C112.761 150.983 113.182 150.809 113.498 150.493C114.031 149.96 114.899 149.96 115.432 150.493C115.748 150.809 116.169 150.983 116.616 150.983C116.933 150.983 117.237 150.896 117.5 150.732L116.532 153.517H112.41L111.437 150.736C111.698 150.897 112 150.983 112.314 150.983ZM100.094 175.432V168.942C100.094 168.681 100.306 168.468 100.568 168.468H103.339C103.6 168.468 103.813 168.681 103.813 168.942V175.432C103.813 175.693 103.6 175.906 103.339 175.906H100.568C100.306 175.906 100.094 175.693 100.094 175.432ZM125.603 168.564L120.248 173.769C118.83 175.147 116.96 175.906 114.982 175.906H104.833C104.881 175.756 104.906 175.597 104.906 175.432V169.035L107.241 168.177C108.722 167.634 110.389 167.712 111.812 168.394L115.673 170.243C115.933 170.368 116.121 170.589 116.203 170.866C116.285 171.143 116.247 171.431 116.096 171.677C115.853 172.073 115.375 172.251 114.933 172.11L109.804 170.479C109.516 170.388 109.208 170.547 109.117 170.835C109.025 171.122 109.184 171.43 109.472 171.522L114.601 173.153C114.813 173.22 115.028 173.252 115.24 173.252C115.266 173.252 115.291 173.25 115.317 173.25C116.632 173.231 117.895 172.742 118.88 171.868L124.245 167.102C124.481 166.893 124.807 166.807 125.115 166.872C125.482 166.95 125.763 167.212 125.867 167.572C125.971 167.932 125.872 168.303 125.603 168.564V168.564Z" fill="white"/>
<path d="M121.9 159.882C122.044 159.882 122.185 159.824 122.287 159.722C122.389 159.62 122.447 159.479 122.447 159.335C122.447 159.191 122.389 159.051 122.287 158.948C122.185 158.847 122.044 158.788 121.9 158.788C121.757 158.788 121.616 158.847 121.514 158.948C121.412 159.051 121.354 159.191 121.354 159.335C121.354 159.479 121.412 159.62 121.514 159.722C121.615 159.824 121.757 159.882 121.9 159.882Z" fill="white"/>
<path d="M113.94 167L111.78 163.232V162.344H112.5C112.924 162.344 113.28 162.252 113.568 162.068C113.856 161.876 114.04 161.612 114.12 161.276H111.78V160.388H114.108C114.036 160.084 113.888 159.832 113.664 159.632C113.44 159.424 113.128 159.32 112.728 159.32H111.78V158.432H117.192V159.32H115.308C115.588 159.624 115.764 159.98 115.836 160.388H117.192V161.276H115.86C115.78 161.868 115.552 162.332 115.176 162.668C114.8 162.996 114.316 163.22 113.724 163.34L116.076 167H113.94Z" fill="white"/>
<path d="M119.129 232.891H118.466C118.142 232.891 117.88 233.153 117.88 233.477C117.88 233.801 118.142 234.063 118.466 234.063H119.129C119.452 234.063 119.715 233.801 119.715 233.477C119.715 233.153 119.452 232.891 119.129 232.891Z" fill="white"/>
<path d="M104.487 232.891H103.824C103.501 232.891 103.238 233.153 103.238 233.477C103.238 233.801 103.501 234.063 103.824 234.063H104.487C104.811 234.063 105.073 233.801 105.073 233.477C105.073 233.153 104.811 232.891 104.487 232.891Z" fill="white"/>
<path d="M111.477 239.881C111.153 239.881 110.891 240.144 110.891 240.467V241.13C110.891 241.454 111.153 241.716 111.477 241.716C111.8 241.716 112.062 241.454 112.062 241.13V240.467C112.062 240.144 111.8 239.881 111.477 239.881Z" fill="white"/>
<path d="M111.477 227.091C111.8 227.091 112.062 226.829 112.062 226.505V225.842C112.062 225.519 111.8 225.256 111.477 225.256C111.153 225.256 110.891 225.519 110.891 225.842V226.505C110.891 226.829 111.153 227.091 111.477 227.091Z" fill="white"/>
<path d="M116.046 228.079L112.057 232.068C111.878 231.994 111.682 231.953 111.477 231.953C111.271 231.953 111.076 231.994 110.897 232.068L108.783 229.953C108.554 229.725 108.183 229.725 107.954 229.953C107.725 230.182 107.725 230.553 107.954 230.782L110.068 232.896C109.994 233.075 109.953 233.271 109.953 233.476C109.953 234.318 110.636 235 111.477 235C112.318 235 113 234.318 113 233.476C113 233.271 112.959 233.075 112.886 232.896L116.875 228.907C117.103 228.679 117.103 228.308 116.875 228.079C116.646 227.85 116.275 227.85 116.046 228.079V228.079Z" fill="white"/>
<path d="M118.801 239.248H119.387C119.71 239.248 119.973 238.986 119.973 238.662C119.973 238.339 119.71 238.076 119.387 238.076H118.801C118.477 238.076 118.215 238.339 118.215 238.662C118.215 238.986 118.477 239.248 118.801 239.248Z" fill="white"/>
<path d="M121.965 239.248H124.777C125.101 239.248 125.363 238.986 125.363 238.662C125.363 238.339 125.101 238.076 124.777 238.076H121.965C121.641 238.076 121.379 238.339 121.379 238.662C121.379 238.986 121.641 239.248 121.965 239.248Z" fill="white"/>
<path d="M118.801 241.885H119.387C119.71 241.885 119.973 241.622 119.973 241.299C119.973 240.975 119.71 240.713 119.387 240.713H118.801C118.477 240.713 118.215 240.975 118.215 241.299C118.215 241.622 118.477 241.885 118.801 241.885Z" fill="white"/>
<path d="M121.965 241.885H124.777C125.101 241.885 125.363 241.622 125.363 241.299C125.363 240.975 125.101 240.713 124.777 240.713H121.965C121.641 240.713 121.379 240.975 121.379 241.299C121.379 241.622 121.641 241.885 121.965 241.885Z" fill="white"/>
<path d="M118.801 244.521H119.387C119.71 244.521 119.973 244.259 119.973 243.936C119.973 243.612 119.71 243.35 119.387 243.35H118.801C118.477 243.35 118.215 243.612 118.215 243.936C118.215 244.259 118.477 244.521 118.801 244.521Z" fill="white"/>
<path d="M121.965 244.521H124.777C125.101 244.521 125.363 244.259 125.363 243.936C125.363 243.612 125.101 243.35 124.777 243.35H121.965C121.641 243.35 121.379 243.612 121.379 243.936C121.379 244.259 121.641 244.521 121.965 244.521Z" fill="white"/>
<path d="M118.801 247.158H119.387C119.71 247.158 119.973 246.896 119.973 246.572C119.973 246.249 119.71 245.986 119.387 245.986H118.801C118.477 245.986 118.215 246.249 118.215 246.572C118.215 246.896 118.477 247.158 118.801 247.158Z" fill="white"/>
<path d="M121.965 247.158H124.777C125.101 247.158 125.363 246.896 125.363 246.572C125.363 246.249 125.101 245.986 124.777 245.986H121.965C121.641 245.986 121.379 246.249 121.379 246.572C121.379 246.896 121.641 247.158 121.965 247.158Z" fill="white"/>
<path d="M127.414 235.234H124.839C124.914 234.653 124.953 234.065 124.953 233.477C124.953 229.877 123.551 226.493 121.006 223.947C118.461 221.402 115.076 220 111.477 220C107.877 220 104.493 221.402 101.947 223.947C99.4019 226.493 98 229.877 98 233.477C98 237.076 99.4018 240.461 101.947 243.006C104.493 245.551 107.877 246.953 111.477 246.953C112.881 246.953 114.257 246.739 115.578 246.317V249.414C115.578 249.738 115.841 250 116.164 250H127.414C127.738 250 128 249.738 128 249.414V235.82C128 235.497 127.738 235.234 127.414 235.234ZM111.477 245.781C104.692 245.781 99.1719 240.261 99.1719 233.477C99.1719 226.692 104.692 221.172 111.477 221.172C118.261 221.172 123.781 226.692 123.781 233.477C123.781 234.065 123.739 234.655 123.656 235.234H122.073C122.168 234.655 122.217 234.067 122.217 233.477C122.217 227.554 117.399 222.736 111.477 222.736C105.554 222.736 100.736 227.554 100.736 233.477C100.736 239.399 105.554 244.217 111.477 244.217C112.884 244.217 114.285 243.938 115.578 243.405V245.081C114.264 245.546 112.886 245.781 111.477 245.781V245.781ZM116.164 235.234C115.841 235.234 115.578 235.497 115.578 235.82V242.124C114.294 242.735 112.916 243.045 111.477 243.045C106.2 243.045 101.908 238.753 101.908 233.477C101.908 228.2 106.2 223.908 111.477 223.908C116.753 223.908 121.045 228.2 121.045 233.477C121.045 234.068 120.99 234.657 120.883 235.234H116.164ZM126.828 248.828H116.75V236.406H126.828V248.828Z" fill="white"/>
<path d="M119.669 296.438L124.638 296.8L125 291.831L123.297 291.706L123.155 293.662C120.427 290.71 116.585 289 112.508 289C104.508 289 98 295.508 98 303.508C98 311.507 104.508 318.015 112.508 318.015C117.345 318.015 121.849 315.609 124.557 311.579L123.14 310.626C120.75 314.184 116.775 316.308 112.508 316.308C105.45 316.308 99.7075 310.566 99.7075 303.508C99.7075 296.45 105.45 290.707 112.508 290.707C116.137 290.707 119.555 292.245 121.966 294.893L119.793 294.735L119.669 296.438Z" fill="white"/>
<path d="M105.381 305.111C105.381 304.563 105.93 304.206 106.71 303.811C107.606 303.359 108.232 302.839 108.232 301.722C108.232 300.402 107.384 299.584 105.863 299.584C104.553 299.584 103.581 300.21 103.157 300.691L104.11 301.712C104.457 301.356 105.035 300.951 105.651 300.951C106.152 300.951 106.479 301.221 106.479 301.741C106.479 302.55 105.68 302.897 104.861 303.262C103.475 303.888 103.138 304.717 103.138 306.498H108.241V305.111H105.381V305.111Z" fill="white"/>
<path d="M113.172 303.676V299.651H112.112L108.935 303.676V305.053H111.631V306.488H113.172V305.053H114.019V303.676H113.172ZM111.804 303.676H110.466L111.804 301.962V303.676Z" fill="white"/>
<path d="M118.189 301.346C117.447 301.346 116.802 301.692 116.436 302.289V299.468H114.896V306.497H116.436V303.599C116.629 303.06 117.139 302.703 117.505 302.703C117.948 302.703 118.237 303.002 118.237 303.657V306.498H119.778V303.262C119.778 302.386 119.547 301.346 118.189 301.346Z" fill="white"/>
</g>
<defs>
<filter id="filter0_dii" x="27" y="78" width="419" height="315" filterUnits="userSpaceOnUse" color-interpolation-filters="sRGB">
<feFlood flood-opacity="0" result="BackgroundImageFix"/>
<feColorMatrix in="SourceAlpha" type="matrix" values="0 0 0 0 0 0 0 0 0 0 0 0 0 0 0 0 0 0 127 0"/>
<feOffset/>
<feGaussianBlur stdDeviation="20"/>
<feColorMatrix type="matrix" values="0 0 0 0 0 0 0 0 0 0 0 0 0 0 0 0 0 0 0.15 0"/>
<feBlend mode="normal" in2="BackgroundImageFix" result="effect1_dropShadow"/>
<feBlend mode="normal" in="SourceGraphic" in2="effect1_dropShadow" result="shape"/>
<feColorMatrix in="SourceAlpha" type="matrix" values="0 0 0 0 0 0 0 0 0 0 0 0 0 0 0 0 0 0 127 0" result="hardAlpha"/>
<feOffset dx="-18" dy="-18"/>
<feGaussianBlur stdDeviation="9.5"/>
<feComposite in2="hardAlpha" operator="arithmetic" k2="-1" k3="1"/>
<feColorMatrix type="matrix" values="0 0 0 0 0 0 0 0 0 0 0 0 0 0 0 0 0 0 0.03 0"/>
<feBlend mode="normal" in2="shape" result="effect2_innerShadow"/>
<feColorMatrix in="SourceAlpha" type="matrix" values="0 0 0 0 0 0 0 0 0 0 0 0 0 0 0 0 0 0 127 0" result="hardAlpha"/>
<feOffset dx="16" dy="16"/>
<feGaussianBlur stdDeviation="10"/>
<feComposite in2="hardAlpha" operator="arithmetic" k2="-1" k3="1"/>
<feColorMatrix type="matrix" values="0 0 0 0 1 0 0 0 0 1 0 0 0 0 1 0 0 0 1 0"/>
<feBlend mode="normal" in2="effect2_innerShadow" result="effect3_innerShadow"/>
</filter>
<linearGradient id="paint0_linear" x1="52.5" y1="198" x2="430" y2="249.5" gradientUnits="userSpaceOnUse">
<stop stop-color="#F9F9F9"/>
<stop offset="1" stop-color="#EDEDED"/>
</linearGradient>
<clipPath id="clip0">
<rect width="472" height="415" fill="white"/>
</clipPath>
</defs>
</svg>
