<svg xmlns="http://www.w3.org/2000/svg" xmlns:xlink="http://www.w3.org/1999/xlink" viewBox="0 0 640.6 356.98"><defs><linearGradient id="linear-gradient" x1="324.65" y1="364.28" x2="324.65" y2="18.27" gradientUnits="userSpaceOnUse"><stop offset="0" stop-color="#18288e"/><stop offset="1" stop-color="#79d3fd"/></linearGradient><linearGradient id="linear-gradient-2" x1="351.09" y1="327.13" x2="351.09" y2="58.19" gradientUnits="userSpaceOnUse"><stop offset="0" stop-color="#7995fd"/><stop offset="1" stop-color="#54deff"/></linearGradient><linearGradient id="linear-gradient-3" x1="351.09" y1="45.78" x2="351.09" y2="292.3" gradientUnits="userSpaceOnUse"><stop offset="0" stop-color="#f9dd68"/><stop offset="1" stop-color="#f9a942"/></linearGradient><clipPath id="clip-path"><circle cx="354.09" cy="109.05" r="49.68" style="fill:none"/></clipPath><linearGradient id="linear-gradient-4" x1="354.89" y1="119.15" x2="354.89" y2="157.4" xlink:href="#linear-gradient-2"/><linearGradient id="linear-gradient-5" x1="366.3" y1="93.61" x2="366.3" y2="79.77" gradientUnits="userSpaceOnUse"><stop offset="0" stop-color="#00004f"/><stop offset="1" stop-color="#000079"/></linearGradient><linearGradient id="linear-gradient-6" x1="325.19" y1="119.15" x2="325.19" y2="157.4" xlink:href="#linear-gradient-2"/><linearGradient id="linear-gradient-7" x1="381.95" y1="119.15" x2="381.95" y2="157.4" xlink:href="#linear-gradient-2"/><linearGradient id="linear-gradient-8" x1="356.44" y1="93.61" x2="356.44" y2="79.78" xlink:href="#linear-gradient-5"/><linearGradient id="linear-gradient-9" x1="341.69" y1="93.61" x2="341.69" y2="79.78" xlink:href="#linear-gradient-5"/><linearGradient id="linear-gradient-10" x1="377.49" y1="134.28" x2="377.49" y2="159.35" gradientUnits="userSpaceOnUse"><stop offset="0" stop-color="#d1d3d4"/><stop offset="1" stop-color="#a7a9ac"/></linearGradient><linearGradient id="linear-gradient-11" x1="330.71" y1="134.28" x2="330.71" y2="159.35" xlink:href="#linear-gradient-10"/><linearGradient id="linear-gradient-12" x1="343.64" y1="115.41" x2="352.22" y2="124.41" xlink:href="#linear-gradient-2"/><linearGradient id="linear-gradient-13" x1="364.85" y1="115.52" x2="356.02" y2="124.35" xlink:href="#linear-gradient-2"/><linearGradient id="linear-gradient-14" x1="235.09" y1="351.42" x2="259.65" y2="351.42" gradientUnits="userSpaceOnUse"><stop offset="0" stop-color="aqua"/><stop offset="1" stop-color="#5793fb"/></linearGradient><linearGradient id="linear-gradient-15" x1="281.83" y1="188.62" x2="276.6" y2="153.11" xlink:href="#linear-gradient-2"/><linearGradient id="linear-gradient-16" x1="272.19" y1="235.71" x2="274.99" y2="343.36" gradientUnits="userSpaceOnUse"><stop offset="0" stop-color="#00006c"/><stop offset="1" stop-color="#5793fb"/></linearGradient><linearGradient id="linear-gradient-17" x1="247.29" y1="236.36" x2="250.09" y2="344.01" xlink:href="#linear-gradient-16"/><linearGradient id="linear-gradient-18" x1="263.1" y1="260.33" x2="265.25" y2="260.33" gradientUnits="userSpaceOnUse"><stop offset="0" stop-color="#00006c"/><stop offset="1" stop-color="#3049b9"/></linearGradient><linearGradient id="linear-gradient-19" x1="274.45" y1="351.42" x2="298.83" y2="351.42" xlink:href="#linear-gradient-14"/><linearGradient id="linear-gradient-20" x1="260.7" y1="225.48" x2="252.85" y2="155.95" xlink:href="#linear-gradient-2"/><linearGradient id="linear-gradient-21" x1="264.07" y1="139.74" x2="250.33" y2="113.39" gradientUnits="userSpaceOnUse"><stop offset="0" stop-color="#000051"/><stop offset="1" stop-color="#30389c"/></linearGradient><linearGradient id="linear-gradient-22" x1="240.37" y1="326.31" x2="320.89" y2="164.27" gradientTransform="translate(-83.42 158.36) rotate(-27.73)" gradientUnits="userSpaceOnUse"><stop offset="0" stop-color="#9b00cf"/><stop offset="1" stop-color="#2733fd"/></linearGradient><linearGradient id="linear-gradient-23" x1="318.68" y1="176.84" x2="323.43" y2="156.09" gradientTransform="translate(-42.68 168.41) rotate(-27.73)" gradientUnits="userSpaceOnUse"><stop offset="0" stop-color="#fffffd"/><stop offset="1" stop-color="#54deff"/></linearGradient><linearGradient id="linear-gradient-24" x1="301.42" y1="39.26" x2="301.42" y2="278.69" gradientTransform="translate(126.05 -104.44) rotate(27.72)" xlink:href="#linear-gradient-23"/><linearGradient id="linear-gradient-25" x1="301.42" y1="43.94" x2="301.42" y2="258.08" gradientTransform="translate(126.05 -104.44) rotate(27.72)" xlink:href="#linear-gradient-2"/><linearGradient id="linear-gradient-26" x1="257.1" y1="185.95" x2="231.35" y2="162.7" xlink:href="#linear-gradient-2"/><linearGradient id="linear-gradient-27" x1="571.67" y1="212.53" x2="560.16" y2="201.03" gradientTransform="translate(765.52 -361.68) rotate(89.28)" gradientUnits="userSpaceOnUse"><stop offset="0" stop-color="#84cf9b"/><stop offset="1" stop-color="#79d3fd"/></linearGradient><linearGradient id="linear-gradient-28" x1="180.08" y1="163.62" x2="180.08" y2="228.61" gradientTransform="translate(20.51 -20.91) rotate(5.79)" xlink:href="#linear-gradient-23"/><linearGradient id="linear-gradient-29" x1="182.22" y1="188.97" x2="176.28" y2="180.33" gradientTransform="matrix(1, 0, 0, 1, 0, 0)" xlink:href="#linear-gradient-23"/><linearGradient id="linear-gradient-30" x1="167.32" y1="351.68" x2="192.08" y2="351.68" xlink:href="#linear-gradient-14"/><linearGradient id="linear-gradient-31" x1="112.83" y1="348.64" x2="134.57" y2="348.64" xlink:href="#linear-gradient-14"/><linearGradient id="linear-gradient-32" x1="163.91" y1="238.65" x2="165.91" y2="322.65" xlink:href="#linear-gradient-5"/><linearGradient id="linear-gradient-33" x1="139.45" y1="239.23" x2="141.45" y2="323.23" xlink:href="#linear-gradient-5"/><linearGradient id="linear-gradient-34" x1="157.93" y1="159.78" x2="157.93" y2="224.01" gradientTransform="matrix(1, 0, 0, 1, 0, 0)" xlink:href="#linear-gradient-23"/><linearGradient id="linear-gradient-35" x1="102.9" y1="161.25" x2="223.59" y2="235.52" gradientTransform="matrix(1.09, 0.15, -0.17, 0.99, 12.23, -23.97)" xlink:href="#linear-gradient-3"/><linearGradient id="linear-gradient-36" x1="125.66" y1="164.83" x2="125.66" y2="234.37" gradientTransform="translate(37.85 -24.98) rotate(9.38)" xlink:href="#linear-gradient-23"/><linearGradient id="linear-gradient-37" x1="166.5" y1="116.86" x2="171.08" y2="136.48" gradientUnits="userSpaceOnUse"><stop offset="0" stop-color="#00b5ff"/><stop offset="1" stop-color="#3049b9"/></linearGradient><linearGradient id="linear-gradient-38" x1="156.7" y1="119.15" x2="161.28" y2="138.77" xlink:href="#linear-gradient-37"/><linearGradient id="linear-gradient-39" x1="466.28" y1="351.58" x2="491.25" y2="351.58" xlink:href="#linear-gradient-14"/><linearGradient id="linear-gradient-40" x1="505.07" y1="351.73" x2="528.37" y2="351.73" xlink:href="#linear-gradient-14"/><linearGradient id="linear-gradient-41" x1="503.46" y1="341.24" x2="503.79" y2="219.58" gradientUnits="userSpaceOnUse"><stop offset="0" stop-color="#8900cf"/><stop offset="1" stop-color="#4f33fd"/></linearGradient><linearGradient id="linear-gradient-42" x1="477.81" y1="226.64" x2="478.18" y2="160.29" xlink:href="#linear-gradient-2"/><linearGradient id="linear-gradient-43" x1="502.35" y1="226.78" x2="502.73" y2="160.43" xlink:href="#linear-gradient-2"/><linearGradient id="linear-gradient-44" x1="487.58" y1="143.98" x2="484.69" y2="114.55" xlink:href="#linear-gradient-5"/><linearGradient id="linear-gradient-45" x1="497.62" y1="142.75" x2="494.82" y2="114.25" xlink:href="#linear-gradient-5"/><linearGradient id="linear-gradient-46" x1="521.08" y1="226.88" x2="521.45" y2="160.54" xlink:href="#linear-gradient-2"/><linearGradient id="linear-gradient-47" x1="508.68" y1="217.28" x2="488.87" y2="178.78" gradientTransform="translate(1021.2 321.02) rotate(171.59)" gradientUnits="userSpaceOnUse"><stop offset="0" stop-color="#160ec0"/><stop offset="1" stop-color="#5451ff"/></linearGradient><linearGradient id="linear-gradient-48" x1="459.86" y1="140.17" x2="456.81" y2="145.92" gradientTransform="matrix(1, 0, 0, 1, 0, 0)" xlink:href="#linear-gradient-23"/><linearGradient id="linear-gradient-49" x1="452.03" y1="144.76" x2="445.24" y2="153.24" xlink:href="#linear-gradient-5"/><linearGradient id="linear-gradient-50" x1="445.78" y1="143.9" x2="449.44" y2="143.9" xlink:href="#linear-gradient-3"/><linearGradient id="linear-gradient-51" x1="446.58" y1="143.26" x2="452.39" y2="132.47" xlink:href="#linear-gradient-2"/><linearGradient id="linear-gradient-52" x1="445.15" y1="122.9" x2="434.77" y2="143.03" gradientTransform="matrix(1, 0, 0, 1, 0, 0)" xlink:href="#linear-gradient-23"/><linearGradient id="linear-gradient-53" x1="405.76" y1="76.68" x2="379.6" y2="54.18" gradientTransform="matrix(1, 0, 0, 1, 0, 0)" xlink:href="#linear-gradient-27"/><linearGradient id="linear-gradient-54" x1="555.47" y1="138.02" x2="517.97" y2="99.68" xlink:href="#linear-gradient"/><linearGradient id="linear-gradient-55" x1="131.49" y1="146.25" x2="99.83" y2="114.25" xlink:href="#linear-gradient-2"/><linearGradient id="linear-gradient-56" x1="468.94" y1="33.67" x2="496.77" y2="62.34" gradientTransform="matrix(1, 0, 0, 1, 0, 0)" xlink:href="#linear-gradient-23"/><linearGradient id="linear-gradient-57" x1="475.02" y1="33.73" x2="494.73" y2="53.44" xlink:href="#linear-gradient-37"/><linearGradient id="linear-gradient-58" x1="468.13" y1="40.62" x2="487.84" y2="60.33" xlink:href="#linear-gradient-37"/><linearGradient id="linear-gradient-59" x1="467.38" y1="271.25" x2="408.38" y2="227.92" xlink:href="#linear-gradient-2"/><linearGradient id="linear-gradient-60" x1="414.67" y1="233.17" x2="429.54" y2="245.83" xlink:href="#linear-gradient-37"/><linearGradient id="linear-gradient-61" x1="416.01" y1="231.59" x2="430.88" y2="244.26" xlink:href="#linear-gradient-37"/><linearGradient id="linear-gradient-62" x1="596.44" y1="389.69" x2="530.84" y2="259.73" xlink:href="#linear-gradient-2"/><linearGradient id="linear-gradient-63" x1="605.93" y1="397.09" x2="534.33" y2="255.27" xlink:href="#linear-gradient-2"/><linearGradient id="linear-gradient-64" x1="626.36" y1="403.46" x2="535.43" y2="223.33" xlink:href="#linear-gradient-2"/><linearGradient id="linear-gradient-65" x1="643.86" y1="437.46" x2="539.01" y2="229.75" xlink:href="#linear-gradient-2"/><linearGradient id="linear-gradient-66" x1="577.28" y1="357.94" x2="531.02" y2="266.29" xlink:href="#linear-gradient-2"/><linearGradient id="linear-gradient-67" x1="183.1" y1="58.99" x2="222.3" y2="58.99" xlink:href="#linear-gradient-37"/><linearGradient id="linear-gradient-68" x1="168.54" y1="116.49" x2="217.21" y2="75.4" gradientTransform="matrix(1, 0, 0, 1, 0, 0)" xlink:href="#linear-gradient-23"/><linearGradient id="linear-gradient-69" x1="231.95" y1="102.76" x2="202.87" y2="65.78" xlink:href="#linear-gradient-37"/><linearGradient id="linear-gradient-70" y1="355.98" x2="640.6" y2="355.98" gradientUnits="userSpaceOnUse"><stop offset="0" stop-color="#7995fd"/><stop offset="1" stop-color="#271a74"/></linearGradient></defs><title>career</title><g style="isolation:isolate"><g id="Layer_2" data-name="Layer 2"><g id="OBJECTS"><path d="M21.11,356c-10.86-57.69,1.31-97.21,36.33-126.89,25.49-21.6,78.09-39.4,96.3-70.4,7.84-13.35,12.18-29.3,17.67-44.36C195,49.56,227.7,1.78,304.19,0,357-1.16,388,23.19,416.8,55c20.74,22.88,30,54.29,56,66.2s78,24.19,102.23,43C662.3,231.78,627.3,326,612.39,355.75" style="fill:url(#linear-gradient)"/><rect x="272.92" y="32.97" width="156.35" height="296.99" rx="17.49" ry="17.49" style="fill:url(#linear-gradient-2)"/><rect x="277.05" y="37.08" width="148.08" height="288.94" rx="14.53" ry="14.53" style="fill:url(#linear-gradient-3)"/><path d="M319.58,201.76l1.29,2.61a.56.56,0,0,0,.42.31l2.88.42a.56.56,0,0,1,.31,1l-2.08,2a.56.56,0,0,0-.16.49l.49,2.86a.56.56,0,0,1-.81.59l-2.57-1.35a.56.56,0,0,0-.52,0L316.25,212a.56.56,0,0,1-.81-.59l.49-2.86a.56.56,0,0,0-.16-.49l-2.08-2a.56.56,0,0,1,.31-1l2.88-.42a.56.56,0,0,0,.42-.31l1.29-2.61A.56.56,0,0,1,319.58,201.76Z" style="fill:#fff"/><path d="M335.59,201.76l1.29,2.61a.56.56,0,0,0,.42.31l2.87.42a.56.56,0,0,1,.31,1l-2.08,2a.56.56,0,0,0-.16.49l.49,2.86a.56.56,0,0,1-.81.59l-2.57-1.35a.56.56,0,0,0-.52,0L332.26,212a.56.56,0,0,1-.81-.59l.49-2.86a.56.56,0,0,0-.16-.49l-2.08-2a.56.56,0,0,1,.31-1l2.88-.42a.56.56,0,0,0,.42-.31l1.29-2.61A.56.56,0,0,1,335.59,201.76Z" style="fill:#fff"/><path d="M351.59,201.76l1.29,2.61a.56.56,0,0,0,.42.31l2.87.42a.56.56,0,0,1,.31,1l-2.08,2a.56.56,0,0,0-.16.49l.49,2.86a.56.56,0,0,1-.81.59l-2.57-1.35a.56.56,0,0,0-.52,0L348.26,212a.56.56,0,0,1-.81-.59l.49-2.86a.56.56,0,0,0-.16-.49l-2.08-2a.56.56,0,0,1,.31-1l2.88-.42a.56.56,0,0,0,.42-.31l1.29-2.61A.56.56,0,0,1,351.59,201.76Z" style="fill:#fff"/><path d="M367.6,201.76l1.29,2.61a.56.56,0,0,0,.42.31l2.88.42a.56.56,0,0,1,.31,1l-2.08,2a.56.56,0,0,0-.16.49l.49,2.86a.56.56,0,0,1-.81.59l-2.57-1.35a.56.56,0,0,0-.52,0L364.27,212a.56.56,0,0,1-.81-.59l.49-2.86a.56.56,0,0,0-.16-.49l-2.08-2a.56.56,0,0,1,.31-1l2.88-.42a.56.56,0,0,0,.42-.31l1.29-2.61A.56.56,0,0,1,367.6,201.76Z" style="fill:#fff"/><path d="M383.6,201.76l1.29,2.61a.56.56,0,0,0,.42.31l2.88.42a.56.56,0,0,1,.31,1l-2.08,2a.56.56,0,0,0-.16.49l.49,2.86a.56.56,0,0,1-.81.59l-2.57-1.35a.56.56,0,0,0-.52,0L380.27,212a.56.56,0,0,1-.81-.59l.49-2.86a.56.56,0,0,0-.16-.49l-2.08-2a.56.56,0,0,1,.31-1l2.88-.42a.56.56,0,0,0,.42-.31l1.29-2.61A.56.56,0,0,1,383.6,201.76Z" style="fill:#fff"/><circle cx="354.09" cy="109.05" r="49.68" style="fill:#fff"/><g style="clip-path:url(#clip-path)"><path id="_Path_" data-name="&lt;Path&gt;" d="M362.56,114.55a18.19,18.19,0,0,1-1.48-5.41,11.48,11.48,0,0,1,0-1.86,5.67,5.67,0,0,1,.15-1.09l-.38.1v-.1l-6.69,1.87-6.69-1.87v.1l-.38-.1a5.67,5.67,0,0,1,.15,1.09,11.47,11.47,0,0,1,0,1.86,18.18,18.18,0,0,1-1.48,5.41s-.62,1.59-4.93,2.14a17.85,17.85,0,0,0,1.09,2.75l.29.58c.26.5.56,1,.91,1.57a18.66,18.66,0,0,0,2,2.64c.8,2.26,2.55,4.16,4.58,4.48a18.09,18.09,0,0,0,2.88.22q.54,0,1.06,0l.51,0,.51,0q.52,0,1.06,0a18.09,18.09,0,0,0,2.88-.22c2-.32,3.79-2.21,4.58-4.48a18.65,18.65,0,0,0,2-2.64c.35-.54.65-1.07.91-1.57s.39-.78.55-1.13a14,14,0,0,0,.75-1.93C363.1,116.41,362.56,114.55,362.56,114.55Z" style="fill:#efcdaf"/><path id="_Path_2" data-name="&lt;Path&gt;" d="M390.82,150.82l-12.1-12.1-1,32.68a54.71,54.71,0,0,1-47.17-.05l-.13-4.26-.9-28.36-1.59,1.59H319c1.86-8.58,4.41-16.4,12.94-20.91a39.17,39.17,0,0,1,10.49-3.14.65.65,0,0,1,.63.38,24,24,0,0,0,1.19,2.32.39.39,0,0,1,.16.27c1.55,2.63,4.32,6.28,8.36,8a3.72,3.72,0,0,0,2.84,0c4-1.67,6.8-5.33,8.36-8a.39.39,0,0,1,.16-.27,24.08,24.08,0,0,0,1.19-2.32.65.65,0,0,1,.63-.38c1.83.64,6.66,1.94,10.05,3.33C388.14,126,390,140.07,390.82,150.82Z" style="fill:url(#linear-gradient-4)"/><path id="_Path_3" data-name="&lt;Path&gt;" d="M361.08,109.13a11.16,11.16,0,0,1,0-1.86l-.28-.54-6.63,1.77-6.63-1.77-.28.54a11.47,11.47,0,0,1,0,1.86,8.33,8.33,0,0,0,6.95,4.26h0A8.3,8.3,0,0,0,361.08,109.13Z" style="fill:#cc6362"/><g id="_Group_" data-name="&lt;Group&gt;"><path id="_Path_4" data-name="&lt;Path&gt;" d="M342.09,93.62s.75,2.52,1.37,5.81c.34,1.82.08,2.72-1.53,2.47-1.25-.19-4.42-3.93-3.34-7.14A2.46,2.46,0,0,1,342.09,93.62Z" style="fill:#efcdaf"/></g><g id="_Group_2" data-name="&lt;Group&gt;"><path id="_Path_5" data-name="&lt;Path&gt;" d="M366.43,101.9l-.22,0c-1.41.14-1.64-.77-1.31-2.5l.13-.69c.59-2.94,1.24-5.12,1.24-5.12a2.46,2.46,0,0,1,3.49,1.14C370.85,98,367.68,101.71,366.43,101.9Z" style="fill:#efcdaf"/></g><path id="_Path_6" data-name="&lt;Path&gt;" d="M366.22,101.93c-1.41.14-1.64-.77-1.31-2.5l.13-.69.29.12S365.34,101.85,366.22,101.93Z" style="fill:#cc6362;opacity:0.5"/><path id="_Path_7" data-name="&lt;Path&gt;" d="M342.15,101.93c1.41.14,1.64-.77,1.31-2.5l-.13-.69-.29.12S343,101.85,342.15,101.93Z" style="fill:#cc6362;opacity:0.5"/><path id="_Path_8" data-name="&lt;Path&gt;" d="M354.15,85.31H339.93s1.21,4.12,2,8.76c1.39,7.74,1.71,17.67,12.18,17.67s10.79-9.9,12.17-17.66c.81-4.59,2.05-8.77,2.05-8.77Z" style="fill:#efcdaf"/><path id="_Path_9" data-name="&lt;Path&gt;" d="M369,81.84c-1.76-5.22-5.87,4.06-5.87,4.06,1.58.64,3.16,8.19,3.16,8.19l1.13-.69h0S370.5,86.21,369,81.84Z" style="fill:url(#linear-gradient-5)"/><path id="_Path_10" data-name="&lt;Path&gt;" d="M325.76,158.77A84.73,84.73,0,0,0,330,148.33l-13.28-5a89.59,89.59,0,0,0-7.11,20.24Z" style="fill:#ffc1cd"/><path id="_Path_11" data-name="&lt;Path&gt;" d="M382.19,156.06c-2-3.75-5.35-10.73-5.35-10.73l13.59-6.09a229.21,229.21,0,0,0,7.89,21.66l-16.13-4.84" style="fill:#ffc1cd"/><path id="_Path_12" data-name="&lt;Path&gt;" d="M336.72,117.56s-9.59,2.9-12.63,6.55c-3.37,4-5.69,11.31-10.43,24,0,0,10.6,5.11,16.33,5.3Z" style="fill:url(#linear-gradient-6)"/><path id="_Path_13" data-name="&lt;Path&gt;" d="M369.25,117.31s12.36,3.05,14.73,6.28c2.92,4,6.9,11.43,10.68,24.53,0,0-10.67,5.09-16.4,5.29Z" style="fill:url(#linear-gradient-7)"/><path id="_Path_14" data-name="&lt;Path&gt;" d="M342.26,78.33a4.5,4.5,0,0,1,2.18-6c6.7-3.69,24.93,1.64,27,5.1,2.72,4.44-2.59,11.45-11.11,11.22s-12.56-3.89-15.86-2.52-3.83-4.78-3.83-4.78Z" style="fill:url(#linear-gradient-8)"/><path id="_Path_15" data-name="&lt;Path&gt;" d="M344.4,85.69l-2.14-7.37s-4-1.33-4,3.49a10.71,10.71,0,0,0,1,4.8,23.11,23.11,0,0,0,1.61,6.76l1.13.69s1.58-7.55,3.16-8.19Z" style="fill:url(#linear-gradient-9)"/><path id="_Path_16" data-name="&lt;Path&gt;" d="M376.84,135.71l.09.76.23,2,.31,2.82.3,3.24.25,3.25c.07,1,.11,2,.16,2.84.08,1.66.07,2.78.07,2.78l-.15-.75c-.08-.48-.23-1.16-.34-2s-.28-1.79-.39-2.82-.23-2.14-.34-3.25-.17-2.22-.21-3.26-.05-2-.07-2.85,0-1.53,0-2S376.84,135.71,376.84,135.71Z" style="mix-blend-mode:multiply;fill:url(#linear-gradient-10)"/><path id="_Path_17" data-name="&lt;Path&gt;" d="M331.37,135.71s0,.28.05.77.06,1.18,0,2,0,1.81-.07,2.85-.13,2.15-.21,3.26-.21,2.21-.34,3.25-.28,2-.39,2.82-.26,1.51-.34,2l-.15.75s0-1.12.07-2.78c0-.83.08-1.8.16-2.84l.25-3.25.3-3.24.31-2.82.23-2Z" style="mix-blend-mode:multiply;fill:url(#linear-gradient-11)"/><path d="M330.27,163.73s.19,11.78,0,16.9c-.12,3.19-.76,6.66-.74,8.92,0,1.37.13,2.38.71,2.83,3.31.81,18.87,2,25.63,2.08,7.17,0,18.45-1.21,21.92-1.56.69-1.3-.06-3.95,0-7.11,0-8.91.17-22.07.17-22.07H358.29" style="fill:#ffb966"/><path d="M354.13,121.28l-3.35,2.36,1,3.55a9.06,9.06,0,0,0,4.78,0l1-3.55Z" style="fill:#fff"/><path d="M342.39,116.26l3.36-1.85s1.84,3.77,8.38,6.87a6.31,6.31,0,0,0-1.57,2.82c-.26.76-.77,3.13-.77,3.13S345.25,125.25,342.39,116.26Z" style="fill:url(#linear-gradient-12)"/><path d="M365.87,116.26l-3.36-1.85s-1.84,3.77-8.38,6.87a6.31,6.31,0,0,1,1.57,2.82c.26.76.77,3.13.77,3.13S363,125.25,365.87,116.26Z" style="fill:url(#linear-gradient-13)"/><path d="M356,127.23l-1.91-.53-1.91.53s-4.53,37.64-4.33,40.94c.41,6.61,4.28,12.64,5.71,14.66a.65.65,0,0,0,1.06,0c1.43-2,5.31-8,5.71-14.66C360.58,164.87,356,127.23,356,127.23Z" style="fill:#fff"/></g><path d="M246.38,341l-1.11,6.4c0,1-1.94,2.23-3.08,2.26-2.81,0-5.59-2.26-5.59-2.26l.7-7.26Z" style="fill:#e5918f"/><path d="M259.65,354.86c0-1.25-11-6-14.38-7.51,0,0-6.25-.33-8.72-.49-1.68,1.69-1.63,6.85-1.23,8.2a1.28,1.28,0,0,0,1.23.91h22.63a.47.47,0,0,0,.47-.47Z" style="fill:url(#linear-gradient-14)"/><path d="M309.37,187.2l-19.49,1.94-3-8.42-11,2s3.67,8.92,6,14.43c1.08,2.57,6.73,2,13.36.05,8.88-2.54,15.93-4.81,15.93-4.81Z" style="fill:#efcdaf"/><path d="M278.57,157a240.09,240.09,0,0,1,9.58,25.65s-3.6,2.85-11.35,4.26S278.57,157,278.57,157Z" style="fill:url(#linear-gradient-15)"/><path d="M284.95,332l-.32,15.31c0,1-1.94,2.23-3.08,2.26-2.81,0-5.59-2.26-5.59-2.26l-1.07-8.12,1.2-1.57-.06-.33,3.25.11Z" style="fill:#e5918f"/><path d="M286.64,343.31c-5,.48-16.11.79-16.11.79-1.78-19.75-4.25-43.5-4.53-59.75-1.9-8.46-3.48-16.63-4.67-23.3-.49-2.73-.92-5.21-1.28-7.36-.9-5.32-1.37-8.6-1.37-8.6s.16-19.64,4.19-24.31c3.8-4.4,17.31-4.87,20.57-2.2,1.14.94,1.79,20.66,2,23.52,0,.61.13,2.46.24,5l.1,0,1.41,36Z" style="fill:url(#linear-gradient-16)"/><path d="M247.48,344.55a85.61,85.61,0,0,1-15.31-2.83c2.33-19.9,6-43.09,8.77-58.66.21-9-2.6-30.91-3.51-39.11-2.41-5.67-4.42-20.33,0-24.63,4.17-4.06,23.94-2.58,27,.37,1.05,1,0,20.74,0,23.6,0,.62-.08,2.46-.19,5h.1l-1.71,36Z" style="fill:url(#linear-gradient-17)"/><polygon points="264.46 239.66 263.1 272.27 265.25 281 264.46 239.66" style="opacity:0.35000000000000003;mix-blend-mode:color-burn;fill:url(#linear-gradient-18)"/><path d="M298.83,354.86c0-1.25-9.16-5.25-14.2-7.51,0,0-6.25-.33-8.72-.49-1.68,1.69-1.63,6.85-1.23,8.2a1.28,1.28,0,0,0,1.23.91h22.45a.47.47,0,0,0,.47-.47Z" style="fill:url(#linear-gradient-19)"/><path d="M274.13,153.23a46.2,46.2,0,0,0-8.51-2.06,26.86,26.86,0,0,0-3.74,0c-2.69.25-6.81.68-11.41,1.55-2,.38-12.82,3.8-13.45,5.43-.84,2.2-3.75,64-2.84,64.94,2,2.09,38.31,3.76,51.07-1-1-12-3.19-36.27-3.62-40.37-1-9.63-1.32-19.13-2.49-23.35A7.6,7.6,0,0,0,274.13,153.23Z" style="fill:url(#linear-gradient-20)"/><path d="M250.47,152.75s5.89,6.37,12.7,4.39c3.1-.91,2.44-6,2.44-6a2.92,2.92,0,0,1-2.06-1,10.27,10.27,0,0,1-.68-1.83c-.54-1.79-1.18-4.24-1.18-4.24l-2.47-.75L251.54,141a68.34,68.34,0,0,1-.11,10.32A1.87,1.87,0,0,1,250.47,152.75Z" style="fill:#efcdaf"/><path d="M255.85,143.75s1.67,3.61,7,4.62c-.54-1.79-1.18-4.24-1.18-4.24l-2.47-.75Z" style="fill:#e8a77d"/><path d="M258.77,120.62c1.37.28,6.09-2.44,7.17-1s3.83,11,4.49,13c.42,1.25,2.38,9.3-.26,12-2.79,2.88-11.24,1-12.22.73-2.55-.66-7.42-3-8.2-5.27l-1.22-14.16Z" style="fill:#efcdaf"/><path d="M245.11,121.43c-2.55,1.22-3.93,4-3.52,7.6.35,3.06,3.4,7,6.27,10.25,1.42,1.62,3.17,3.14,3.79,4.21l.88-1.43s-3.11-4.07-1.62-6.94c1.7-2.51,3.94.09,5.24,1.16a.28.28,0,0,0,.45-.22c0-1.33-.55-2,.17-4.43a5.91,5.91,0,0,0-1.26-5.35s9-2.69,10.87-5.9c1.58-2.67,2.66-7.28,0-8.62s-5.73,1.14-7.94,1.88C251.71,115.93,243,115,245.11,121.43Z" style="fill:url(#linear-gradient-21)"/><path d="M255.34,135.6a5,5,0,0,1,.75,2.47c.27,2,0,3.8-1.11,4.19a3.59,3.59,0,0,1-4.08-2.16c-.72-1.7-1.5-4.74.66-5.86S255.34,135.6,255.34,135.6Z" style="fill:#efcdaf"/><path d="M272,157.81h14.29a0,0,0,0,1,0,0V334.57a4,4,0,0,1-4,4H276a4,4,0,0,1-4-4V157.81a0,0,0,0,1,0,0Z" transform="translate(147.52 -101.37) rotate(27.73)" style="fill:url(#linear-gradient-22)"/><path d="M310.07,167h19.62a0,0,0,0,1,0,0v5.4a1.94,1.94,0,0,1-1.94,1.94H312a1.94,1.94,0,0,1-1.94-1.94V167A0,0,0,0,1,310.07,167Z" transform="translate(116.13 -129.22) rotate(27.73)" style="fill:url(#linear-gradient-23)"/><path d="M385.69,49.45a68.12,68.12,0,1,0,28.62,92A68.12,68.12,0,0,0,385.69,49.45ZM328.85,157.6a54.06,54.06,0,1,1,73-22.71A54,54,0,0,1,328.85,157.6Z" style="fill:url(#linear-gradient-24)"/><path d="M382.35,55.82a60.93,60.93,0,1,0,25.6,82.28A60.93,60.93,0,0,0,382.35,55.82ZM328.85,157.6a54.06,54.06,0,1,1,73-22.71A54,54,0,0,1,328.85,157.6Z" style="fill:url(#linear-gradient-25)"/><path d="M297,222.31c-.3-.07-.91-.13-1.62-.22a4.4,4.4,0,0,0,2.42-.43c.66-.69-.41-1.25-1.09-1.41s-2.85-.47-4.26-.86a19.92,19.92,0,0,1-2.65-1.06,35.7,35.7,0,0,1,3.94-.46c1.56,0,2.08-1,1.55-1.22s-5.29-2.33-7.26-2.2c-1.6.11-3.36.42-3.36.42l-23.27-19.22-3.86-13L243.16,188s5.72,11.23,7.37,14.82,29.87,17.65,29.87,17.65.51.7,1.93,2.44a5.56,5.56,0,0,0,2.1,1.57h0l.07,0a6,6,0,0,0,.57.21c1,.38,3,1.09,3.57,1.21.82.17,3.94.38,4.44-.14a.42.42,0,0,0,0-.63c1.34,0,2.7-.05,3.06-.43a.54.54,0,0,0,.16-.61,3.13,3.13,0,0,0,1.75-.41C298.7,223,297.64,222.47,297,222.31Z" style="fill:#efcdaf"/><path d="M234,161.84c-2.08,5.23-2.15,10.11,6.1,28.88,0,0,11.27-2.19,18.39-6,0,0-3-20.13-8-24.82S236.67,155.15,234,161.84Z" style="fill:url(#linear-gradient-26)"/><path d="M320.52,190.52a1.26,1.26,0,0,0-.17-.77s-.06-.05-.1-.08h0a1.54,1.54,0,0,0,.5-.82,1.26,1.26,0,0,0-.19-.93.32.32,0,0,0-.13-.11.3.3,0,0,0,.12,0,1.31,1.31,0,0,0,.43-.71.69.69,0,0,0-.18-.67,7.27,7.27,0,0,0-2.62-.33c-.37,0-1.27.11-1.29.74,0,.29.27.52.83.7h-.47c-.47,0-1.61.14-1.63.94,0,.4.39.71,1.26.95-.51.06-1.22.25-1.24.86,0,.39.39.7,1.29.93l.41.09c-.4,0-1.26.13-1.28.75,0,.34.34.6,1.1.79a7.39,7.39,0,0,0,2.66.2,1.16,1.16,0,0,0,.38-.74,1.29,1.29,0,0,0-.14-.67.12.12,0,1,1,0-.19A1.23,1.23,0,0,0,320.52,190.52Z" style="fill:#efcdaf"/><circle cx="57.94" cy="212.35" r="9.19" transform="translate(-1 0.28) rotate(-0.27)" style="fill:#98e7f4"/><polyline points="53.9 212.8 57.53 216.29 62.34 209.74" style="fill:none;stroke:#fff;stroke-linecap:round;stroke-linejoin:round;stroke-width:1.5769700000000002px"/><circle cx="565.88" cy="206.75" r="6.91" transform="translate(352.06 769.99) rotate(-89.28)" style="fill:url(#linear-gradient-27)"/><polyline points="562.83 207.03 565.52 209.7 569.22 204.84" style="fill:none;stroke:#fff;stroke-linecap:round;stroke-linejoin:round;stroke-width:1.46845px"/><circle cx="96.57" cy="192.93" r="2.54" style="fill:#bdf3ff;opacity:0.5"/><circle cx="92.62" cy="252.89" r="1.55" style="fill:#bdf3ff"/><circle cx="217.8" cy="294.4" r="1.55" style="fill:#bdf3ff;opacity:0.30000000000000004"/><circle cx="91.06" cy="307.28" r="3.24" style="fill:#bdf3ff;opacity:0.1"/><circle cx="588.61" cy="322.28" r="3.24" style="fill:#bdf3ff;opacity:0.1"/><circle cx="298.25" cy="12.61" r="3.24" style="fill:#bdf3ff;opacity:0.30000000000000004"/><circle cx="131.7" cy="74.62" r="4.3" style="fill:#bdf3ff;opacity:0.1"/><circle cx="569.22" cy="261.81" r="4.3" style="fill:#bdf3ff;opacity:0.1"/><circle cx="454.71" cy="71.94" r="2.54" style="fill:#bdf3ff"/><circle cx="460.04" cy="298.33" r="2.54" style="fill:#98e7f4"/><path d="M246.19,53.63h-2v-2a.81.81,0,0,0-1.62,0v2h-2a.81.81,0,1,0,0,1.62h2v2a.81.81,0,0,0,1.62,0v-2h2a.81.81,0,1,0,0-1.62Z" style="fill:#bdf3ff"/><path d="M444.25,166.21h-2v-2a.81.81,0,0,0-1.62,0v2h-2a.81.81,0,1,0,0,1.62h2v2a.81.81,0,1,0,1.62,0v-2h2a.81.81,0,0,0,0-1.62Z" style="fill:#bdf3ff"/><path d="M428,339.28h-2v-2a.81.81,0,0,0-1.62,0v2h-2a.81.81,0,1,0,0,1.62h2v2a.81.81,0,0,0,1.62,0v-2h2a.81.81,0,0,0,0-1.62Z" style="fill:#bdf3ff"/><path d="M195.26,203.08h-2v-2a.81.81,0,0,0-1.62,0v2h-2a.81.81,0,1,0,0,1.62h2v2a.81.81,0,1,0,1.62,0v-2h2a.81.81,0,1,0,0-1.62Z" style="fill:#bdf3ff"/><path d="M610.85,242.42h-2v-2a.81.81,0,0,0-1.62,0v2h-2a.81.81,0,1,0,0,1.62h2v2a.81.81,0,0,0,1.62,0v-2h2a.81.81,0,1,0,0-1.62Z" style="fill:#98e7f4"/><path d="M227.71,187.33a32.78,32.78,0,0,0-6.89,1c-8.28,1.87-23.07,5.12-28.41,4.61C188,192.5,174.35,178,173.76,177.5L178.21,162l6.26,7.06,11.19,12.61,22.5.79s8.1-.18,10-.5Z" style="fill:#efcdaf"/><path d="M175.87,158.86a12,12,0,0,1,2.27,1.45c3.56,3.75,13,15.82,13,15.82s-1.16,3.09-10.06,11.38l-9.32-9.22Z" style="fill:url(#linear-gradient-28)"/><polygon points="176.17 176.85 180.46 186.9 174.42 180.92 176.17 176.85" style="mix-blend-mode:multiply;fill:url(#linear-gradient-29)"/><path d="M177.78,339.35l-.83,11a21.77,21.77,0,0,1-7.81,0L168.66,339" style="fill:#efcdaf"/><path d="M169,347.45s.94.81,4.12.7a4.3,4.3,0,0,1,3.92-.68l8.1,4s6.89,2.63,6.92,4.54c-3.64,0-23.27.3-24.23,0S167.17,349.22,169,347.45Z" style="fill:url(#linear-gradient-30)"/><path d="M130.36,334.28l-5.6,12.78a21.19,21.19,0,0,1-8.08-2.47l3.38-12.87" style="fill:#efcdaf"/><path d="M113,349.75c.8.84,12.35,6.23,13.75,6.23h5.09c.95,0,2.75.09,2.73-.33-.07-1.07-2-3.78-5-4.13-.37,0-3.86-5.66-3.86-5.66-1-2.31-4.3-2-4.3-2-3.34-1.66-3.85-2.59-3.85-2.59C114.62,342.1,112.17,348.91,113,349.75Z" style="fill:url(#linear-gradient-31)"/><path d="M148.51,252.48c.45,2.69,10.4,23.92,13.68,33.61.31,24.86,1.32,55.45,1.46,58,3.34.58,13.57.85,14.79.42,2.14-24,2.28-60.85,2.25-61.86-.55-21.48-3.19-41.29-3.4-44.45s-.55-20.82-2.06-21.42c-3.34-1.25-12-4.12-15.91,1.56C155.24,224.33,148.29,251.25,148.51,252.48Z" style="fill:url(#linear-gradient-32)"/><path d="M116.44,337.09c.77.63,11.49,5.25,15.2,5.62,7.13-19.63,18.72-52.56,20.26-58.65,1.22-4.84,3.32-25.36,5.68-34.84l6.72-30.44L146.76,215c-13.91,11.87-15.24,25.45-14.67,32.26.23,2.76-.84,27.28-1.24,34.1C126.18,299.94,118.2,330.18,116.44,337.09Z" style="fill:url(#linear-gradient-33)"/><path d="M176.67,159.36c-2.49-2.08-18.06-5.67-23.11-4.36-5.86,1.52-12.67,2.8-13.68,5s-1.6,16-2.07,24.65c1.06,5.61,5.25,26,5.25,29.39s-1.8,4.79-1,5.76c1.88,2.18,14.75,3.1,20.79,3.1,5.38,0,14.53-1.43,15-3.16.69-2.56-1-2.46-1.28-5.14S178.79,161.78,176.67,159.36Z" style="fill:url(#linear-gradient-34)"/><rect x="115.08" y="191.09" width="124.16" height="41.97" rx="3.21" ry="3.21" transform="matrix(0.99, -0.15, 0.15, 0.99, -29.84, 29.01)" style="fill:url(#linear-gradient-35)"/><text transform="translate(131.61 227.59) rotate(-8.64)" style="mix-blend-mode:color-burn;font-size:23.10055923461914px;fill:#ffaf3b;font-family:Montserrat-Bold, Montserrat;font-weight:700">JOIN US</text><text transform="translate(130.77 227.03) rotate(-8.64)" style="font-size:23.10055923461914px;fill:#fff;font-family:Montserrat-Bold, Montserrat;font-weight:700">JOIN US</text><path d="M136.86,240.26a9.58,9.58,0,0,0-2.19-2.84h0c-1.08-1-2.31-1.89-2.44-2.19-.62-1.37-.5-5.26-.5-5.26l-.65-32.66s1.81-5,4-10.45a72.57,72.57,0,0,1-13.87-5.28c-1.36,4.91-3.07,9.9-3.51,12.55-1.11,6.74,8.22,38.2,8.68,40.62.19,1.18.26,2.15.33,2.41s0,4.83,1.62,5.17,5.59.22,6.73-.51a3.46,3.46,0,0,0,.55-.44,1.74,1.74,0,0,0,1.3.38C137.43,241.59,137.25,241.31,136.86,240.26Z" style="fill:#efcdaf"/><path d="M142.11,178.28l4.35-21.48s-12.52,3-15.8,6.76c-3.67,4.27-5.16,7.84-11.8,23.6,5,2.35,11.37,4.86,15.92,5.51A120.09,120.09,0,0,0,142.11,178.28Z" style="fill:url(#linear-gradient-36)"/><path d="M149.13,156.11s7.14,4,12.93-.9a86.2,86.2,0,0,1-.79-10.19c0-3.78-11.86-9.37-11.86-9.37l-1.27-1s.37,2.13.87,5.24c.28,1.77.72,3.83.94,6C150.73,153.73,149.13,156.11,149.13,156.11Z" style="fill:#efcdaf"/><path d="M152.79,145.67s3.81,6.71,9,7.71l-.3-3.35Z" style="fill:#e8a77d"/><path d="M170.81,128s1.94,5.31-1.52,8.32l-1.65-8.08Z" style="fill:url(#linear-gradient-37)"/><path d="M151.42,143.93a24.66,24.66,0,0,0,1.82,2.25h0a20.9,20.9,0,0,0,3.62,3.12,15.32,15.32,0,0,0,4.65,2.2,10.25,10.25,0,0,0,2.05.39,7.82,7.82,0,0,0,4.69-.89c2.77-4.12,2.67-10.8,2-15.87-.25-2.05-.59-3.84-.85-5.09s-.43-1.8-.43-1.8l0-.13c-1.2-6.54-9.95-6.77-16-3.09a10.61,10.61,0,0,0-1,.7,11.68,11.68,0,0,0-3.88,4.55c-1.41,3.09-.55,6.61.9,9.6l.24.48A27.89,27.89,0,0,0,151.42,143.93Z" style="fill:#efcdaf"/><path d="M171.35,118.56c-6.29,4.87-11.24-4.4-17.28-1.27a6,6,0,0,0-3.18,4.9c-3.7-2.17-8.73,2-7.22,10.66,1.69,9.79,6.29,13.08,6.29,13.08-.27-3.14-2.21-9.92.12-10.81,1.89-.72,2.83,1.54,3.12,2.5.21.69.56,2.49.71,2.79l1.48-.2c-.06-1.06-.11-2.54-.14-4.15a8.18,8.18,0,0,0,1.77-3.12,16.35,16.35,0,0,0,.42-2.89c3.19,1.56,7.49,2.24,12.71-.29C173.63,128.07,174.41,116.18,171.35,118.56Z" style="fill:url(#linear-gradient-38)"/><path d="M225.2,182.25a16,16,0,0,0,3-1.07c.77-.49,2.59,0,3.54.32s1.92,1.53,2.66,2,.26,1.05-.84.77a13.08,13.08,0,0,1-2.38-1,4.86,4.86,0,0,1-2.83,0" style="fill:#efcdaf"/><path d="M236.44,187.58a.52.52,0,0,0,.24-.17.77.77,0,0,0-.29-1l.05,0a.88.88,0,0,0-.25-1.1l0,0a.74.74,0,0,0-.45-1.1,7.6,7.6,0,0,0-2.35,1.06c-.17.23,0,.61.42.64h.23a2.13,2.13,0,0,0-.74.49c-.19.26,0,.68.46.71a4.19,4.19,0,0,0,.72-.06,1.85,1.85,0,0,0-.64.42.42.42,0,0,0,.42.64l.37,0a.9.9,0,0,0-.27.17c-.15.17,0,.48.28.53s1.75-.05,1.9-.3A.6.6,0,0,0,236.44,187.58Z" style="fill:#efcdaf"/><path d="M490.65,337l-.92,10.5s-5.47,2-9.1,0l-.18-10.23" style="fill:#efcdaf"/><path d="M489.73,347.49a6.73,6.73,0,0,1,1.34,3.17,27.13,27.13,0,0,1,.14,4.59c0,.44-4.16.37-6.55.4s-9.79-.07-11.86,0-4.75,0-6.34,0c-1,0,2.13-2.78,4.28-3.67,2.35-1,4.93-2.34,7.05-3.38a19.22,19.22,0,0,1,2.84-1.12S488.43,348,489.73,347.49Z" style="fill:url(#linear-gradient-39)"/><path d="M525.23,335.31l1.44,12.18s-4.65,2-8.28,0l-2.62-10.23" style="fill:#efcdaf"/><path d="M526.67,347.49a6.41,6.41,0,0,1,1.59,3.27,23.19,23.19,0,0,1-.12,4.91c0,.44-21.94.4-22.81,0s.52-2.91,3.83-4.26c2.36-1,3.32-1.21,5.45-2.25,1.55-.76,3.78-1.66,3.78-1.66S525.37,348,526.67,347.49Z" style="fill:url(#linear-gradient-40)"/><path d="M478.89,343.41a81.29,81.29,0,0,0,16.17,0c.6-7.85,2-47.83,2.34-57.91.46-1.38,3.48-18.41,4.58-26.91-.08,12.15.32,27.44.4,27.85,1.35,8.71,8.59,40.84,12.73,57.66,5.28.52,13.66-1.64,14.72-2.52-.95-7.38-5.63-45.7-7-56.82,1.25-9.11,2.06-19.68,2.63-28.85.68-2.57,4.33-21.46-5-32.89,0,0-19.83.12-28.8.63a53.16,53.16,0,0,1-10.66-.21s-3.37,55.2-3.71,59.58C477.16,284.05,478.31,326.09,478.89,343.41Z" style="fill:url(#linear-gradient-41)"/><path d="M473.6,168.4,455,188.5s-2.63,6.22,4.91,6.59,21.65-16,21.65-16" style="fill:#efcdaf"/><path d="M466.14,176.07a55.78,55.78,0,0,0,10.68,12l12.52-8.74.79-21.11s-8.5,2.17-11.26,4.82S472.29,169.54,466.14,176.07Z" style="fill:url(#linear-gradient-42)"/><path d="M481.67,219.14c-.29,2.71-1.45,4.43-.46,5.78s9.75,2.55,15.53,2.63c6.51.09,20.35-.37,23.71-2.25.32-.17,1.26-.69,1.27-1.3,0-.87-.94-2-.91-4.18,0-3.39,1.31-18.28,1.74-24.07.09-1.21.2-2.46.32-3.74.78-8.41,2.08-18.13,2.38-23.54a23.6,23.6,0,0,0-3.15-4.36,18.13,18.13,0,0,0-6.81-4.9l-.06,0a66.18,66.18,0,0,0-13.58-2.41c-9.63-.42-19,3.71-21.32,6.14-.76.8.71,8.67.93,16.57C481.71,195.56,481.86,217.32,481.67,219.14Z" style="fill:url(#linear-gradient-43)"/><path d="M483.53,125.81s-1.16,9.46,2.6,10.7c3.06,1,2.75-3.11,2.75-3.11l.07-4.54" style="fill:url(#linear-gradient-44)"/><path d="M507.67,157.49s-2.42,6.25-11.6,5.36c-8-.77-3.21-5.49-3.21-5.49s.42-1.26.92-2.93,1.08-3.65,1.44-5.23l3.19-2.62L505.2,141S504.32,153.09,507.67,157.49Z" style="fill:#efcdaf"/><path d="M502.57,146.64s-2.77,5.9-8.78,7.78c.49-1.63,1.08-3.65,1.44-5.23l3.19-2.62Z" style="fill:#cc6362"/><path d="M485.61,130.94s-1.3,18.84,4.41,21c0,0,6.34,1.43,11.93-4.54a18.06,18.06,0,0,0,3.64-6c1.36-3.58,3.46-10.23,2.24-14.52C506.09,120.77,487.46,116.75,485.61,130.94Z" style="fill:#efcdaf"/><path d="M500.56,137.37s.63-3.51,3.11-2.85c3.28.88.95,9.28-2.41,7.5" style="fill:#efcdaf"/><path d="M508.3,121.63c-5-7.33-12.74-3.53-21-3.2-1.17,0-2.25,0-3.19-.07h0a22.09,22.09,0,0,0-3.34,0c-.77.28-.87,5.29-.46,7,2.58,10.63,14,8.28,17.4,7.32a4.88,4.88,0,0,0,1.09,2.15,4.1,4.1,0,0,0,2.38,1.1,2.41,2.41,0,0,1,1.69-1.44,2.08,2.08,0,0,1,.9.06,2,2,0,0,1,1.35,1.37,6.3,6.3,0,0,1-.64,4.74c.27,2.36.55,4.61.75,6l1.06-.34a11.43,11.43,0,0,1,1.41-4.63,22,22,0,0,0,2.76-7.08s0,0,0,0C510.93,133.3,514.42,124.6,508.3,121.63Z" style="fill:url(#linear-gradient-45)"/><path d="M527.15,176.36s3.91,25.14,3.3,27.19-7.77,3.37-10.66.3-5.66-22.55-5.66-22.55" style="fill:#efcdaf"/><path d="M524.12,164.31c-1.93-2.89-8.81-5.1-8.81-5.1L512,175.46c-.07,5.42,1.49,17.07,1.49,17.07a49.23,49.23,0,0,0,9.37-.52,60.59,60.59,0,0,0,7.75-1.84S527.85,169.92,524.12,164.31Z" style="fill:url(#linear-gradient-46)"/><rect x="485.11" y="179.9" width="27.36" height="36.33" rx="0.93" ry="0.93" transform="translate(963.24 466.98) rotate(-171.59)" style="fill:url(#linear-gradient-47)"/><path d="M530.22,198.69l-6.52,1.39a80.51,80.51,0,0,0-14.86-1.74A75.09,75.09,0,0,1,495,196.78a4.54,4.54,0,0,1-2.34-1.36c-.57-.68-.63-1.18-1.06-1.67a14.48,14.48,0,0,1-2.06-2.57c-.41-.85-.64-1.09-1.14-.41s.36,2.3.57,2.77a4.31,4.31,0,0,1,.18,1.53c0,.11-3.08-.82-3.49-1.53a2,2,0,0,0-.84,1.12c-.09.39.24.85.16,1s-.47.38-.56.7a2.4,2.4,0,0,0,.18,1.16,7.55,7.55,0,0,0-.53.89,1.18,1.18,0,0,0,.26,1.09c-.07.29-.35.67-.27,1,.16.62,1.92,1.3,3.61,1.52,2.58.33,5.18-1,8.12-.27h0c12.93,4.9,27.15,8.14,30,8.46,3,.33,4.17-1.12,4.68-2S530.22,198.69,530.22,198.69Z" style="fill:#efcdaf"/><path d="M460.36,143.81a3.65,3.65,0,0,1-.17.36c-.5.91-1.29,1.46-1.84,1.3l-.17.21c-.29.35-.53.55-.65.51l-2.44-.8-.39-.13,3.41-6.29,2.32,1.87c.12.09,0,.5-.16,1.08A1.74,1.74,0,0,1,460.36,143.81Z" style="fill:url(#linear-gradient-48)"/><path d="M454.71,145.26s-2.69,5.79-6.07,8.62a1,1,0,0,1-1.09.15l-.36-.17a12.7,12.7,0,0,1-3.57-2.52,1,1,0,0,1,.27-1.62,18.73,18.73,0,0,0,6-5.36q.48-.64.95-1.38Z" style="fill:url(#linear-gradient-49)"/><path d="M449.44,143.39a4.45,4.45,0,0,1-.41.59,2.79,2.79,0,0,1-3,1.18.3.3,0,0,1,.06-.58,2.41,2.41,0,0,0,1.68-1.07,4,4,0,0,0,.51-1Z" style="fill:url(#linear-gradient-50)"/><path d="M457.87,142.91l-.21.39c-1,1.77-2,3-2.24,2.9-11.73-6.36-19.3-3.22-19.3-3.22l2.7-5.56,1.86-3.83,5.38-8.94s1.49,8.05,13.23,14.42C459.58,139.22,458.94,140.94,457.87,142.91Z" style="fill:url(#linear-gradient-51)"/><path d="M442,125.24a23.48,23.48,0,0,1,1.42-2c.5-.61.78-.79,1-.66,0,0,1.59.69,1.65,2a.84.84,0,0,1,0,.38h0a53.24,53.24,0,0,1-4.24,9.16,53.25,53.25,0,0,1-5.37,8.55h0a.84.84,0,0,1-.31.22,2.78,2.78,0,0,1-2.62-.27h0c-.24-.13-.24-.46,0-1.21a23.45,23.45,0,0,1,.89-2.28c.86-2,2.12-4.48,3.55-7.12S440.8,127,442,125.24Z" style="fill:url(#linear-gradient-52)"/><path d="M449.14,153.44s1.94,1.37,2.19,1.47c.59.22,1,9.7,1.48,19,.7,14.48,2,18.42,2,18.42l10.07-11.81s-9.2-29.21-9.37-30c-.11-.51-.72-2-1-2.69a4,4,0,0,0-1.05-1.65,9.41,9.41,0,0,0-3.55-1.32c-.31.11-.15.6.12,1.11s1.53,1,1.89,1.23.38.82.47,1.34a1.61,1.61,0,0,1-.2,1.11c-.19.32-.46.78-.81,1.26A27.27,27.27,0,0,1,449.14,153.44Z" style="fill:#efcdaf"/><path d="M446.15,147.37l2,1.54c.27.21,1,.49,1.26.17s.14-.72-.16-1.1a18.51,18.51,0,0,0-2-1.92C446.7,145.63,445.52,146.5,446.15,147.37Z" style="fill:#efcdaf"/><path d="M445.22,148.39l1.77,1.33c.24.18.78.35,1,.08s.18-.56-.08-.89a16,16,0,0,0-1.72-1.66C445.7,146.89,444.67,147.64,445.22,148.39Z" style="fill:#efcdaf"/><path d="M444.54,149.35l1.56,1.17c.21.16.68.3.91.07s.16-.49-.07-.78a14.1,14.1,0,0,0-1.51-1.46C445,148,444.06,148.69,444.54,149.35Z" style="fill:#efcdaf"/><path d="M447.34,146.28l1.8,1.35c.24.19.8.37,1.05.08s.18-.57-.08-.9a16.25,16.25,0,0,0-1.75-1.69C447.83,144.75,446.79,145.51,447.34,146.28Z" style="fill:#efcdaf"/><circle cx="393.91" cy="66.5" r="15.11" style="fill:url(#linear-gradient-53)"/><path d="M384.19,63.79a13.88,13.88,0,0,1,7.42,4.44.24.24,0,0,0,.39,0,28.07,28.07,0,0,1,11.56-9.67.25.25,0,0,1,.27.42c-3.09,2.44-9.46,8.16-11.7,15.33a.24.24,0,0,1-.46,0A21.74,21.74,0,0,0,384,64.23.25.25,0,0,1,384.19,63.79Z" style="fill:#fff"/><rect x="305.97" y="222.09" width="90.25" height="5.14" rx="2.57" ry="2.57" style="fill:#fff"/><path d="M393.65,239H308.54a2.57,2.57,0,0,1-2.57-2.57h0a2.57,2.57,0,0,1,2.57-2.57h85.11a2.57,2.57,0,0,1,2.57,2.57h0A2.57,2.57,0,0,1,393.65,239Z" style="fill:#fff"/><path d="M393.65,250.84H308.54a2.57,2.57,0,0,1-2.57-2.57h0a2.57,2.57,0,0,1,2.57-2.57h85.11a2.57,2.57,0,0,1,2.57,2.57h0A2.57,2.57,0,0,1,393.65,250.84Z" style="fill:#fff"/><path d="M393.65,262.64H308.54a2.57,2.57,0,0,1-2.57-2.57h0a2.57,2.57,0,0,1,2.57-2.57h85.11a2.57,2.57,0,0,1,2.57,2.57h0A2.57,2.57,0,0,1,393.65,262.64Z" style="fill:#fff"/><path d="M393.65,274.45H308.54a2.57,2.57,0,0,1-2.57-2.57h0a2.57,2.57,0,0,1,2.57-2.57h85.11a2.57,2.57,0,0,1,2.57,2.57h0A2.57,2.57,0,0,1,393.65,274.45Z" style="fill:#fff"/><path d="M526.67,125.19a14.79,14.79,0,1,1,3.93,3.68.55.55,0,0,0-.55,0l-5.57,2.88a.28.28,0,0,1-.39-.37l2.64-5.6A.55.55,0,0,0,526.67,125.19Z" style="fill:url(#linear-gradient-54)"/><circle cx="545.72" cy="116.7" r="1.78" style="fill:#fff"/><circle cx="538.6" cy="116.7" r="1.78" style="fill:#fff"/><circle cx="531.48" cy="116.7" r="1.78" style="fill:#fff"/><path d="M128.37,139.84a14.79,14.79,0,1,0-3.93,3.68.55.55,0,0,1,.55,0l5.57,2.88a.28.28,0,0,0,.39-.37l-2.64-5.6A.55.55,0,0,1,128.37,139.84Z" style="fill:url(#linear-gradient-55)"/><circle cx="109.32" cy="131.34" r="1.78" style="fill:#fff"/><circle cx="116.44" cy="131.34" r="1.78" style="fill:#fff"/><circle cx="123.56" cy="131.34" r="1.78" style="fill:#fff"/><rect x="467.85" y="32.97" width="27.86" height="27.86" rx="2.55" ry="2.55" style="fill:url(#linear-gradient-56)"/><circle cx="481.78" cy="40.5" r="4.53" style="fill:url(#linear-gradient-57)"/><path d="M481.95,46.22a8.88,8.88,0,0,0-8.86,8.92v1.68a1,1,0,0,0,1,1h15.35a1,1,0,0,0,1-1V54.91A8.69,8.69,0,0,0,481.95,46.22Z" style="fill:url(#linear-gradient-58)"/><rect x="408.98" y="227.05" width="57.14" height="44.59" rx="3.27" ry="3.27" style="opacity:0.8;fill:url(#linear-gradient-59)"/><circle cx="422.33" cy="239.69" r="8.13" style="fill:#fff"/><path d="M422.34,232.18a7.51,7.51,0,0,0-4.51,13.51,7.5,7.5,0,0,0,9,0,7.51,7.51,0,0,0-4.5-13.51Zm4.34,12.94v0a4.34,4.34,0,1,0-8.68,0v0a7,7,0,1,1,8.68,0Z" style="fill:url(#linear-gradient-60)"/><circle cx="422.33" cy="236.98" r="2.96" style="fill:url(#linear-gradient-61)"/><path d="M462,233.47H436a1,1,0,0,1-1-1h0a1,1,0,0,1,1-1H462a1,1,0,0,1,1,1h0A1,1,0,0,1,462,233.47Z" style="fill:#fff"/><path d="M462,238.35H436a1,1,0,0,1-1-1h0a1,1,0,0,1,1-1H462a1,1,0,0,1,1,1h0A1,1,0,0,1,462,238.35Z" style="fill:#fff"/><path d="M462,243.23H436a1,1,0,0,1-1-1h0a1,1,0,0,1,1-1H462a1,1,0,0,1,1,1h0A1,1,0,0,1,462,243.23Z" style="fill:#fff"/><path d="M462,248.11H436a1,1,0,0,1-1-1h0a1,1,0,0,1,1-1H462a1,1,0,0,1,1,1h0A1,1,0,0,1,462,248.11Z" style="fill:#fff"/><path d="M462,253H413.48a1,1,0,0,1-1-1h0a1,1,0,0,1,1-1H462a1,1,0,0,1,1,1h0A1,1,0,0,1,462,253Z" style="fill:#fff"/><path d="M462,257.87H413.48a1,1,0,0,1-1-1h0a1,1,0,0,1,1-1H462a1,1,0,0,1,1,1h0A1,1,0,0,1,462,257.87Z" style="fill:#fff"/><path d="M462,262.75H413.48a1,1,0,0,1-1-1h0a1,1,0,0,1,1-1H462a1,1,0,0,1,1,1h0A1,1,0,0,1,462,262.75Z" style="fill:#fff"/><path d="M462,267.63H413.48a1,1,0,0,1-1-1h0a1,1,0,0,1,1-1H462a1,1,0,0,1,1,1h0A1,1,0,0,1,462,267.63Z" style="fill:#fff"/><g style="opacity:0.5"><path d="M559.36,314.22a21,21,0,0,0-.14-8.55c-1.18-5.81-8.68-18.15-19.63-19.6a.53.53,0,0,0-.52.79,79.3,79.3,0,0,1,5.48,10.84c2.8,7.32,6.89,15,13.95,17.15a41,41,0,0,1,3.79,13.73.52.52,0,0,0,.56.48h0a.53.53,0,0,0,.49-.57A42.14,42.14,0,0,0,559.36,314.22Z" style="fill:url(#linear-gradient-62)"/><path d="M563.84,311.86a29,29,0,0,0,.06-17c-2.85-8.9-12.88-17-16.31-19.52a.52.52,0,0,0-.82.55c1,4,4,15.76,6.59,21.34C556,303,561,309.7,562.8,312A119.7,119.7,0,0,1,565,335.49a.52.52,0,0,0,.51.53h0a.52.52,0,0,0,.55-.51A120.9,120.9,0,0,0,563.84,311.86Z" style="opacity:0.8;fill:url(#linear-gradient-63)"/><path d="M587.92,279.76c-3.25,1.92-12.86,8.24-15.72,17.17-2.42,7.54-.68,13.13.16,15.14a119.39,119.39,0,0,0-3.47,26.2.52.52,0,0,0,.53.53h0a.52.52,0,0,0,.53-.51,118.16,118.16,0,0,1,3.42-25.92,36.65,36.65,0,0,0,8.77-11.44c2.59-5.63,5.61-16.9,6.56-20.59A.52.52,0,0,0,587.92,279.76Z" style="opacity:0.5;fill:url(#linear-gradient-64)"/><path d="M583.64,266.23a.52.52,0,0,0-.83-.4c-2.7,2-11.6,9.22-14.25,19.78a20.31,20.31,0,0,0,1.51,14.2,119.54,119.54,0,0,0-3,37.53.52.52,0,0,0,.58.47h0a.52.52,0,0,0,.46-.57,118.38,118.38,0,0,1,2.93-37.11c1.65-1.08,6.32-4.85,9.88-14.61C583.82,277.65,583.75,269.06,583.64,266.23Z" style="fill:url(#linear-gradient-65)"/><path d="M557,356h18.12a.53.53,0,0,0,.52-.44l4.74-28.95a2.85,2.85,0,0,0-2.81-3.31h-23a2.85,2.85,0,0,0-2.81,3.31l4.74,28.95A.53.53,0,0,0,557,356Z" style="fill:url(#linear-gradient-66)"/></g><polygon points="226.15 72.54 202.7 88.41 179.25 72.54 226.15 72.54" style="fill:#3156aa"/><path d="M226.15,72.54,204.46,50.42a2.47,2.47,0,0,0-3.52,0L179.25,72.54Z" style="fill:#3156aa"/><path d="M184.66,56.39h36.08A1.56,1.56,0,0,1,222.3,58V95.16a0,0,0,0,1,0,0H183.1a0,0,0,0,1,0,0V58A1.56,1.56,0,0,1,184.66,56.39Z" style="fill:#ccf2ff"/><path d="M184.66,56.39h36.08A1.56,1.56,0,0,1,222.3,58v3.63a0,0,0,0,1,0,0H183.1a0,0,0,0,1,0,0V58A1.56,1.56,0,0,1,184.66,56.39Z" style="fill:url(#linear-gradient-67)"/><circle cx="186.24" cy="58.99" r="1.1" style="fill:#fff"/><circle cx="189.86" cy="58.99" r="1.1" style="fill:#fff"/><circle cx="193.47" cy="58.99" r="1.1" style="fill:#fff"/><path d="M195.08,74.77h-6l-1.18,2.78h-2.3l5.4-12h2.19l5.41,12h-2.33ZM194.35,73l-2.26-5.24L189.84,73Z" style="fill:#fff"/><rect x="201.43" y="65.35" width="17.77" height="1.12" style="fill:#fff"/><rect x="201.43" y="68.37" width="17.77" height="1.12" style="fill:#fff"/><rect x="201.43" y="71.39" width="17.77" height="1.12" style="fill:#fff"/><rect x="201.43" y="74.41" width="17.77" height="1.12" style="fill:#fff"/><rect x="201.43" y="77.44" width="17.77" height="1.12" style="fill:#fff"/><rect x="186.24" y="80.46" width="32.95" height="1.12" style="fill:#fff"/><rect x="186.24" y="83.48" width="32.95" height="1.12" style="fill:#fff"/><rect x="186.24" y="86.5" width="32.95" height="1.12" style="fill:#fff"/><rect x="186.24" y="89.53" width="32.95" height="1.12" style="fill:#fff"/><path d="M226.15,72.54v28.92a2.82,2.82,0,0,1-2.81,2.81H182.07a2.82,2.82,0,0,1-2.82-2.81V72.54L202.7,88.41h0Z" style="fill:url(#linear-gradient-68)"/><path d="M226.15,72.54v28.92a2.79,2.79,0,0,1-1,2.14l-22.45-15.2Z" style="fill:url(#linear-gradient-69)"/><line x1="1" y1="355.98" x2="639.6" y2="355.98" style="fill:none;stroke-linecap:round;stroke-miterlimit:10;stroke-width:2px;stroke:url(#linear-gradient-70)"/></g></g></g></svg>