<svg width="35" height="35" viewBox="0 0 35 35" fill="none" xmlns="http://www.w3.org/2000/svg">
<path d="M17.4997 2.91664C13.6319 2.91664 9.92261 4.4531 7.1877 7.188C4.4528 9.92291 2.91635 13.6322 2.91634 17.5C2.91634 19.4151 3.29355 21.3114 4.02643 23.0808C4.75931 24.8501 5.83352 26.4578 7.1877 27.812C8.54189 29.1661 10.1495 30.2403 11.9189 30.9732C13.6882 31.7061 15.5846 32.0833 17.4997 32.0833C19.4148 32.0833 21.3111 31.7061 23.0805 30.9732C24.8498 30.2403 26.4575 29.1661 27.8116 27.812C30.5466 25.077 32.083 21.3677 32.083 17.5C32.083 13.6322 30.5466 9.92291 27.8117 7.18801C26.4575 5.83382 24.8498 4.75961 23.0805 4.02673C21.3111 3.29385 19.4148 2.91664 17.4997 2.91664ZM17.4997 5.83331C20.5939 5.83331 23.5613 7.06247 25.7493 9.2504C27.9372 11.4383 29.1663 14.4058 29.1663 17.5C29.1663 20.5942 27.9372 23.5616 25.7493 25.7496C23.5613 27.9375 20.5939 29.1666 17.4997 29.1666C14.4055 29.1666 11.438 27.9375 9.2501 25.7496C7.06217 23.5616 5.83301 20.5942 5.83301 17.5C5.83301 14.4058 7.06217 11.4383 9.2501 9.2504C11.438 7.06247 14.4055 5.83331 17.4997 5.83331ZM10.208 14.5833L17.4997 21.875L24.7913 14.5833L10.208 14.5833Z" fill="#F18324"/>
</svg>
