<svg width="116" height="117" viewBox="0 0 116 117" fill="none" xmlns="http://www.w3.org/2000/svg">
<path d="M78.5 43.5L71.5 43L71 24L66.5 20H13L9 24L8 92.5L11.5 97H71V79.5L78.5 79L77.5 110.5L72 115L5.5 114L2 108V9.5L6.5 2H72L78.5 7.5V43.5Z" fill="#02359A"/>
<path d="M79 91.5C121.5 72 96.5 31 79 29.5V18C115 27.6 117 56.6667 113.5 70C110.5 77.1667 102.6 92.6 95 97C85.5 102.5 67.5 106 48 97C32.4 89.8 27.8333 70 27.5 61H20.5L34 39.5L46 61L39 62.5C39 62.5 39 93.5 79 91.5Z" fill="#F18324"/>
<path d="M39.5 102C37.0188 102 35 104.019 35 106.5C35 108.981 37.0188 111 39.5 111C41.9812 111 44 108.981 44 106.5C44 104.019 41.9812 102 39.5 102Z" fill="white"/>
<path d="M31.1118 11.702H49.0885C50.0431 11.702 50.8174 10.9285 50.8174 9.97393C50.8174 9.01933 50.0431 8.245 49.0885 8.245H31.1118C30.1572 8.245 29.3838 9.01933 29.3838 9.97393C29.3838 10.9285 30.1572 11.702 31.1118 11.702Z" fill="black"/>
<path d="M24.5443 11.7029C25.3435 11.7029 26.053 11.1292 26.2288 10.3522C26.3851 9.66401 26.0903 8.92697 25.5024 8.53625C24.8755 8.11978 24.031 8.16063 23.4476 8.63749C22.8882 9.0948 22.6759 9.87624 22.9166 10.5556C23.1572 11.2331 23.8232 11.7029 24.5443 11.7029Z" fill="black"/>
<path d="M105.308 30.7611C98.8093 23.1048 89.939 17.8265 80.2022 15.785V9.6845C80.2022 4.34408 75.8563 0 70.515 0H9.6845C4.34408 0 0 4.34408 0 9.6845V106.704C0 112.046 4.34408 116.392 9.6845 116.392H70.515C75.8563 116.392 80.2022 112.046 80.2022 106.704V103.944C89.939 101.902 98.8093 96.6239 105.308 88.9676C112.202 80.8433 116 70.5079 116 59.8644C116 49.2208 112.202 38.8854 105.308 30.7611ZM70.515 112.935H9.6845C6.25061 112.935 3.45697 110.14 3.45697 106.704V9.6845C3.45697 6.25061 6.25061 3.45697 9.6845 3.45697H70.515C73.9498 3.45697 76.7443 6.25061 76.7443 9.6845V42.2711C76.7443 43.2257 77.5186 44 78.4732 44C79.4278 44 80.2022 43.2257 80.2022 42.2711V30.8801C85.8782 32.6987 90.9816 36.1992 94.7405 40.9012C99.0908 46.3437 101.39 52.9007 101.39 59.8644C101.39 66.828 99.0899 73.385 94.7405 78.8267C90.9816 83.5286 85.8791 87.03 80.2022 88.8486V79.4962C80.2022 78.5416 79.4278 77.7682 78.4732 77.7682C77.5186 77.7682 76.7443 78.5416 76.7443 79.4962V89.7339C75.6618 89.9435 74.5651 90.0953 73.4605 90.1859V79.4962C73.4605 78.5416 72.6861 77.7682 71.7316 77.7682C70.777 77.7682 70.0035 78.5416 70.0035 79.4962V90.2729C54.8987 89.8041 42.4534 78.2956 40.7395 63.3782H46.349C46.9662 63.3782 47.5372 63.0487 47.8453 62.5132C48.1543 61.9787 48.1543 61.3198 47.8453 60.7852L34.7287 38.0658C34.4197 37.5312 33.8496 37.2018 33.2315 37.2018C32.6144 37.2018 32.0434 37.5312 31.7344 38.0658L18.6178 60.7852C18.3087 61.3198 18.3087 61.9787 18.6178 62.5132C18.9268 63.0487 19.4969 63.3782 20.1149 63.3782H26.0654C26.917 74.3698 31.7379 84.5871 39.7512 92.3011C41.0175 93.5195 42.3433 94.6543 43.7214 95.7066H14.4051C12.0848 95.7066 10.196 93.8196 10.196 91.5002V25.9357C10.196 23.6154 12.0839 21.7275 14.4051 21.7275H65.7944C68.1147 21.7275 70.0035 23.6154 70.0035 25.9357V41.6986C70.0035 42.6532 70.777 43.4266 71.7316 43.4266C72.6861 43.4266 73.4605 42.6532 73.4605 41.6986V25.9357C73.4605 21.7089 70.0213 18.2697 65.7944 18.2697H14.4051C10.1782 18.2697 6.73901 21.7089 6.73901 25.9357V91.5002C6.73901 95.7252 10.1782 99.1636 14.4051 99.1636H48.9757C55.6313 102.904 63.1615 104.9 70.9617 104.9C72.8948 104.9 74.8324 104.775 76.7443 104.529V106.704C76.7443 110.14 73.9498 112.935 70.515 112.935ZM102.671 86.7307C96.3779 94.1464 87.6782 99.1485 78.174 100.817C75.8083 101.232 73.3823 101.443 70.9625 101.443C60.1734 101.443 49.941 97.3121 42.1488 89.8112C34.3797 82.3307 29.8598 72.3043 29.422 61.5791C29.3847 60.6529 28.6228 59.9212 27.6949 59.9212H23.1092L33.2324 42.3877L43.3547 59.9212H38.8588C38.3837 59.9212 37.9299 60.1165 37.6031 60.4611C37.2764 60.8056 37.1068 61.2701 37.1325 61.7442C38.12 79.6898 52.9788 93.7468 70.9625 93.7468C73.639 93.7468 76.3021 93.4324 78.8773 92.8117C86.1464 91.0677 92.7398 86.8675 97.4409 80.9854C102.217 75.0109 104.847 67.51 104.847 59.8644C104.847 52.2187 102.217 44.7178 97.4409 38.7424C93.0266 33.2209 86.9456 29.1805 80.2022 27.2642V19.3211C88.9116 21.3093 96.829 26.1133 102.672 32.998C109.037 40.498 112.543 50.0396 112.543 59.8644C112.543 69.6892 109.037 79.2307 102.671 86.7307Z" fill="black"/>
<path d="M70.3214 70.4023H57.4054V68.7578C57.4054 66.6337 59.9416 64.855 62.8791 62.7949C64.8522 61.4114 67.0873 59.8431 68.7825 57.9704C70.7263 55.8214 71.672 53.5881 71.672 51.1452C71.672 48.6402 70.6757 46.3731 68.8659 44.7605C67.1237 43.2083 64.7634 42.3531 62.2202 42.3531C59.8164 42.3531 57.5671 43.1124 55.8887 44.4897C54.1314 45.9318 53.1644 47.9511 53.1644 50.1755C53.1644 51.9435 53.865 52.8031 55.3071 52.8031C56.228 52.8031 56.8096 52.5003 57.1355 52.2463C57.5591 51.916 57.8015 51.4667 57.8015 51.012C57.8015 49.617 58.2473 48.4821 59.0909 47.7318C59.8616 47.0453 60.9441 46.6821 62.2202 46.6821C64.4961 46.6821 66.947 48.1198 66.947 51.2766C66.947 52.7711 66.2304 54.2488 64.7563 55.7921C63.4358 57.1747 61.6368 58.4898 59.8954 59.7615C56.2839 62.4015 52.5481 65.1312 52.5481 68.7578V73.029C52.5481 73.4579 52.803 73.8637 53.2656 74.1701C53.6705 74.4383 54.1873 74.5981 54.6464 74.5981H70.3223C71.1286 74.5981 71.8922 73.5574 71.8922 72.4563C71.8913 71.3623 71.1579 70.4023 70.3214 70.4023Z" fill="black"/>
<path d="M72.0105 65.632C72.0105 66.6594 72.6925 67.3778 73.6684 67.3778H84.4718V73.029C84.4718 73.5121 84.7257 73.9179 85.207 74.2038C85.635 74.4587 86.2122 74.599 86.8338 74.599C87.4306 74.599 88.0175 74.4551 88.4447 74.2038C88.9366 73.9152 89.1968 73.5094 89.1968 73.029V67.3778H91.3253C92.1547 67.3778 92.9397 66.3148 92.9397 65.1915C92.9397 64.609 92.7967 64.0655 92.5383 63.6624C92.2453 63.2033 91.8253 62.9609 91.3253 62.9609H89.1968V56.9136C89.1968 55.7548 87.9243 55.3436 86.8338 55.3436C85.6919 55.3436 84.4718 55.7557 84.4718 56.9136V62.9609H78.0746L87.1242 44.9052C87.2583 44.637 87.3471 44.4124 87.3471 44.1877C87.3471 43.0848 85.9254 42.354 84.985 42.354C84.4718 42.354 83.5225 42.5218 82.9338 43.646L72.2787 64.649C72.1082 64.9464 72.0105 65.3052 72.0105 65.632Z" fill="black"/>
</svg>
