<svg width="111" height="111" viewBox="0 0 111 111" fill="none" xmlns="http://www.w3.org/2000/svg">
<rect y="25.0057" width="82.9229" height="85.9941" fill="#FFF0AF"/>
<path d="M25 25V4L3 25H25Z" fill="#F18324"/>
<rect x="27.6409" y="3.5072" width="55.2819" height="107.493" fill="#FFF0AF"/>
<rect x="24.5698" y="0.436035" width="49.1395" height="36.8546" fill="#FFF0AF"/>
<path d="M59.1641 58.6972V48.2888H88.0028V58.6972" stroke="#C8D2DC" stroke-width="2"/>
<rect x="36.8547" y="58.7892" width="70.638" height="49.1395" fill="#F18324"/>
<rect x="67.5669" y="83.3589" width="12.2849" height="9.21366" fill="#FFF0AF"/>
<path d="M9.21362 25.0057H70.638V37.2906H9.21362V25.0057Z" fill="#FFF0AF"/>
<path d="M9.21362 33.283H73.7092V37.2755H9.21362V33.283Z" fill="#FFD064"/>
<path d="M68.9612 2.69971H73.7093V37.2878H68.9612V2.69971Z" fill="#FFD064"/>
<path fill-rule="evenodd" clip-rule="evenodd" d="M93.0948 57.2905H105.628C108.59 57.2939 110.992 59.6912 111 62.6529V105.628C110.997 108.594 108.594 110.997 105.628 111H0V24.3241L24.3241 0H85.9327V42.9664H87.7232C90.6885 42.9697 93.0914 45.3727 93.0948 48.3379V57.2905ZM107.004 61.5594C106.675 61.1315 106.168 60.878 105.628 60.8714H41.1758C40.6361 60.878 40.129 61.1315 39.7999 61.5594L49.5511 85.9357H66.2401V82.3546H80.5642V85.9357H97.2532L107.004 61.5594ZM76.9832 85.9357V89.5167H69.8211V85.9357H76.9832ZM64.4495 57.2907H82.3548L82.3517 53.7096H64.4495V57.2907ZM89.5168 48.338V57.2906H85.9358V50.1285H60.8716V57.2906H57.2905V48.338C57.2922 47.3498 58.0929 46.5491 59.081 46.5474H87.7263C88.7133 46.5508 89.5121 47.351 89.5137 48.338H89.5168ZM23.2737 6.11173L6.11173 23.2737H23.2737V6.11173ZM3.58104 26.8548H7.16208V39.3885H75.1927V24.7357C75.1627 24.5789 75.1771 20.4869 75.1934 15.837V15.836C75.2098 11.1796 75.2281 5.96417 75.2059 3.58113H82.3547V42.9664H59.081C56.1158 42.9698 53.7129 45.3728 53.7095 48.338V57.2906H41.1758C38.2154 57.2957 35.8158 59.6925 35.8073 62.653V105.619C35.813 106.231 35.9242 106.836 36.136 107.41H3.58104V26.8548ZM75.1927 2.69662C75.1981 2.91663 75.2025 3.21555 75.2059 3.58113H71.6273C71.6176 3.01696 71.6116 2.69662 71.6116 2.69662C71.6116 2.69662 75.165 0.479195 75.1927 2.69662ZM71.6273 3.58113C71.6963 7.57215 71.9534 23.765 71.6116 25.0674V35.8166H10.7493V26.8548H26.8547V3.58113H71.6273ZM41.1758 107.419H105.628C106.615 107.415 107.414 106.615 107.416 105.628V70.1649L99.6764 89.5136H80.5611V93.0977H66.2401V89.5167H47.1248L39.3853 70.168V105.628C39.387 106.616 40.1877 107.417 41.1758 107.419Z" fill="black"/>
<rect x="15.3562" y="43.4331" width="33.7834" height="3.07122" fill="black"/>
<rect x="9.21362" y="49.5756" width="39.9258" height="3.07122" fill="black"/>
<rect x="9.21362" y="55.718" width="21.4985" height="3.07122" fill="black"/>
<rect x="9.21362" y="61.8605" width="21.4985" height="3.07122" fill="black"/>
<rect x="9.21362" y="68.0029" width="12.2849" height="3.07122" fill="black"/>
<rect x="9.21362" y="74.1453" width="12.2849" height="3.07122" fill="black"/>
<rect x="9.21362" y="80.2877" width="9.21366" height="3.07122" fill="black"/>
<rect x="21.4985" y="80.2877" width="9.21366" height="3.07122" fill="black"/>
<rect x="9.21362" y="86.4302" width="21.4985" height="3.07122" fill="black"/>
<rect x="9.21362" y="92.5726" width="15.3561" height="3.07122" fill="black"/>
<rect x="27.6409" y="92.5726" width="3.07122" height="3.07122" fill="black"/>
<rect x="24.5698" y="74.1453" width="6.14244" height="3.07122" fill="black"/>
<rect x="24.5698" y="68.0029" width="6.14244" height="3.07122" fill="black"/>
</svg>
