<svg width="93" height="129" viewBox="0 0 93 129" fill="none" xmlns="http://www.w3.org/2000/svg">
<path d="M53.3894 5.94052C54.0528 5.94052 54.7033 5.67085 55.1718 5.20139C55.6412 4.73291 55.9109 4.08236 55.9109 3.41901C55.9109 2.75665 55.6412 2.1061 55.1718 1.63664C54.7033 1.16817 54.0528 0.898499 53.3894 0.898499C52.7271 0.898499 52.0765 1.16817 51.608 1.63664C51.1386 2.1061 50.8689 2.75665 50.8689 3.41901C50.8689 4.08236 51.1386 4.73291 51.608 5.20139C52.0765 5.67085 52.7271 5.94052 53.3894 5.94052Z" fill="black"/>
<path d="M26.6323 126.229L17.562 105.946C17.9399 101.579 20.8626 94.1549 29.5298 99.3955C35.1856 102.815 37.4296 106.957 38.0962 110.205V54.1699L43.5132 49.2568L50.6939 52.5322V85.4121H58.8823L62.7876 88.0576L69.9683 85.4121L76.5191 89.9473H86.2192L90.5024 96.876V126.229V128.748H26.6323V126.229Z" fill="#FFDDCF"/>
<circle cx="44.647" cy="42.2021" r="7.68457" fill="#F18324"/>
<circle cx="71.8579" cy="12.9756" r="6.92871" fill="#F18324"/>
<circle cx="16.9321" cy="74.7041" r="6.92871" fill="#F18324"/>
<path d="M23.6404 81.2401C27.3754 77.5051 27.3754 71.4267 23.6404 67.6917C21.8305 65.8828 19.4251 64.8858 16.8662 64.8858C15.387 64.8858 13.9599 65.2204 12.6696 65.8513C8.11968 59.3419 5.72317 51.7242 5.72317 43.7119C5.72317 23.2063 21.7419 6.2191 42.1904 5.03807C43.5811 4.95737 44.6421 3.76551 44.5623 2.37583C44.4816 0.985166 43.2898 -0.0728403 41.9001 0.00392654C18.7864 1.33948 0.681152 20.5381 0.681152 43.7119C0.681152 52.9574 3.50677 61.7393 8.86373 69.1985C6.41604 72.9148 6.82546 77.9736 10.092 81.2401C11.9019 83.0491 14.3073 84.0461 16.8662 84.0461C19.4251 84.0461 21.8305 83.0491 23.6404 81.2401ZM13.6567 71.2575C14.5415 70.3727 15.7039 69.9298 16.8662 69.9298C18.0275 69.9298 19.1899 70.3727 20.0747 71.2575C21.8442 73.0261 21.8442 75.9058 20.0747 77.6744C18.3051 79.444 15.4263 79.444 13.6567 77.6744C11.8881 75.9058 11.8881 73.027 13.6567 71.2575Z" fill="black"/>
<path d="M83.3325 87.3439C81.7391 87.3439 80.2411 87.7593 78.941 88.4876C77.7885 84.8333 74.3675 82.176 70.3372 82.176C67.7872 82.176 65.4812 83.2399 63.8396 84.9465C63.3839 84.474 62.8771 84.0518 62.3289 83.6867C68.1395 81.0855 73.3685 77.2215 77.5996 72.3271C84.4633 64.3847 88.2436 54.2219 88.2436 43.7118C88.2436 34.4712 85.418 25.6843 80.062 18.2241C82.5097 14.5078 82.1003 9.45006 78.8328 6.18254C75.0978 2.44753 69.0204 2.44753 65.2844 6.18254C61.5494 9.91755 61.5494 15.9959 65.2844 19.7309C67.1524 21.5989 69.605 22.5329 72.0586 22.5329C73.4965 22.5329 74.9324 22.2091 76.2522 21.5674C80.8041 28.0788 83.2016 35.7024 83.2016 43.7118C83.2016 61.9488 70.8214 77.3642 53.3648 81.425V67.855C63.3623 64.1643 70.1926 54.5005 70.1926 43.7118C70.1926 29.5246 58.6499 17.982 44.4618 17.982C30.2747 17.982 18.7321 29.5236 18.7321 43.7118C18.7321 49.3108 20.5007 54.6353 23.845 59.1075C26.7621 63.0078 30.7983 66.0372 35.3266 67.7654V104.849L32.1594 99.6532C29.4982 95.2844 23.9424 93.8672 19.5126 96.4241C15.2992 98.857 13.6556 104.195 15.7825 108.599L25.1864 127.596C25.6264 128.485 26.52 129 27.4481 129C27.8241 129 28.205 128.916 28.5642 128.738C29.8121 128.12 30.3229 126.607 29.7058 125.36L20.3117 106.384C19.3384 104.368 20.0942 101.911 22.0341 100.791C24.0389 99.6336 26.6499 100.3 27.8546 102.277L35.6947 115.141C36.2832 116.106 37.4416 116.562 38.5291 116.257C39.6167 115.951 40.3686 114.959 40.3686 113.829V55.9856C40.3686 53.7928 42.1529 52.0095 44.3457 52.0095C46.5385 52.0095 48.3228 53.7928 48.3228 55.9856V65.9575C48.3218 65.9752 48.3228 65.9929 48.3228 66.0116V103.866C48.3228 105.258 49.4507 106.386 50.8433 106.386C52.236 106.386 53.3648 105.258 53.3648 103.866V91.1951C53.3648 89.0023 55.1482 87.218 57.341 87.218C59.5338 87.218 61.3181 89.0023 61.3181 91.1951V104.783C61.3181 106.175 62.447 107.304 63.8386 107.304C65.2312 107.304 66.3601 106.175 66.3601 104.783V91.1951C66.3601 89.0023 68.1444 87.218 70.3372 87.218C72.53 87.218 74.3134 89.0023 74.3134 91.1951V104.953C74.3134 106.346 75.4422 107.475 76.8349 107.475C78.2275 107.475 79.3554 106.346 79.3554 104.953V96.3631C79.3554 94.1703 81.1397 92.386 83.3325 92.386C85.5253 92.386 87.3096 94.1703 87.3096 96.3631V126.477C87.3096 127.87 88.4375 128.999 89.8301 128.999C91.2228 128.999 92.3516 127.87 92.3516 126.477V96.3631C92.3516 91.39 88.3056 87.3439 83.3325 87.3439ZM68.8501 16.1662C67.0805 14.3966 67.0805 11.5178 68.8501 9.74827C69.7349 8.86348 70.8962 8.42158 72.0586 8.42158C73.2209 8.42158 74.3832 8.86348 75.268 9.74827C77.0366 11.5178 77.0366 14.3966 75.268 16.1662C73.4985 17.9348 70.6187 17.9348 68.8501 16.1662ZM23.7741 43.7118C23.7741 32.304 33.055 23.0231 44.4628 23.0231C55.8696 23.0231 65.1505 32.304 65.1505 43.7118C65.1505 51.7447 60.4431 59.0032 53.3648 62.3898V55.9856C53.3648 54.5704 53.0361 53.2299 52.4515 52.0361C54.6876 49.8807 56.0094 46.8759 56.0094 43.7118C56.0094 37.344 50.8296 32.1642 44.4628 32.1642C38.0951 32.1642 32.9153 37.344 32.9153 43.7118C32.9153 46.7834 34.1662 49.735 36.3167 51.8865C35.6858 53.1167 35.3266 54.5103 35.3266 55.9856V62.2835C28.3063 58.8526 23.7741 51.7378 23.7741 43.7118ZM39.7712 48.2174C38.6088 47.0147 37.9573 45.4213 37.9573 43.7118C37.9573 40.1244 40.8754 37.2062 44.4618 37.2062C48.0492 37.2062 50.9673 40.1244 50.9673 43.7118C50.9673 45.4459 50.2627 47.0974 49.0639 48.304C47.69 47.4566 46.0739 46.9675 44.3457 46.9675C42.6765 46.9675 41.1136 47.4241 39.7712 48.2174Z" fill="black"/>
</svg>
