<svg width="136" height="115" viewBox="0 0 136 115" fill="none" xmlns="http://www.w3.org/2000/svg">
<path d="M128.96 39.0997C127.573 32.6148 124.823 26.7849 120.782 21.773C116.842 16.8879 111.903 13.0617 106.101 10.4056C100.253 7.72624 93.7994 6.36713 86.9236 6.36713C73.726 6.36713 60.3057 11.423 49.1351 20.6028C38.0163 29.7386 30.3302 41.9706 27.4929 55.044C25.9785 62.0337 25.9138 68.8759 27.3039 75.3789C28.6889 81.8664 31.4408 87.6963 35.4819 92.7082C39.422 97.5932 44.3614 101.417 50.1629 104.076C56.011 106.755 62.4622 108.114 69.3406 108.114C82.5382 108.114 95.9584 103.058 107.129 93.8783C118.248 84.7425 125.934 72.5105 128.769 59.4372C130.286 52.4474 130.35 45.6053 128.96 39.0997ZM118.649 57.2393C113.803 79.5831 91.6818 97.7589 69.3406 97.7589C46.9994 97.7589 32.7663 79.5831 37.6125 57.2393C42.4613 34.8981 64.5824 16.7223 86.9236 16.7223C109.265 16.7223 123.498 34.8981 118.649 57.2393Z" fill="#F18324"/>
<path d="M102.407 84.2653C120.96 67.6077 125.126 41.9924 111.711 27.052C98.2972 12.1116 72.3828 13.5037 53.8299 30.1613C35.2771 46.819 31.1114 72.4343 44.5257 87.3747C57.9399 102.315 83.8543 100.923 102.407 84.2653Z" fill="#F9F5F3"/>
<path d="M131.491 38.559C130.019 31.6721 127.094 25.4777 122.807 20.1613L122.774 20.1209C121.883 19.0104 120.26 18.8276 119.144 19.7153C118.025 20.6053 117.839 22.2339 118.729 23.3528L118.766 23.3976C122.549 28.09 125.127 33.5552 126.428 39.6411C127.741 45.7841 127.678 52.2594 126.24 58.8867C123.526 71.3944 116.155 83.1107 105.486 91.8776C94.7762 100.678 81.9392 105.524 69.3402 105.524C62.8379 105.524 56.7486 104.245 51.241 101.722C45.8063 99.2318 41.1825 95.6523 37.4976 91.0823C33.8011 86.4976 31.2587 81.174 29.9306 75.2568H35.233C36.4298 79.8724 38.5388 84.125 41.5281 87.8326C48.0348 95.9024 57.912 100.347 69.3402 100.347C69.8566 100.347 70.3736 100.335 70.8911 100.316C71.0169 100.335 71.1422 100.347 71.2662 100.347C71.4767 100.347 71.683 100.32 71.8824 100.271C82.465 99.6667 93.1394 95.3217 102.199 87.8771C111.971 79.847 118.712 69.1615 121.179 57.7888C121.181 57.7844 121.181 57.78 121.182 57.7756C121.184 57.7662 121.186 57.7569 121.188 57.7473C123.726 46.0005 121.435 34.9567 114.735 26.647C108.237 18.5879 98.377 14.1453 86.9674 14.1336C86.956 14.1334 86.9447 14.1334 86.9333 14.1331C86.9299 14.1331 86.9265 14.1331 86.9229 14.1331C75.5196 14.1331 63.8501 18.5615 54.0643 26.6025C44.2919 34.6326 37.551 45.3181 35.0833 56.6909C35.0823 56.696 35.0813 56.7012 35.0802 56.7066C35.0787 56.7144 35.0771 56.7222 35.0756 56.7299C34.0817 61.3287 33.8311 65.8184 34.2922 70.0795H29.1007C28.645 65.3848 28.9523 60.5313 30.0238 55.5932C32.7376 43.0858 40.1079 31.3695 50.7773 22.6023C61.4871 13.802 74.3238 8.95553 86.9229 8.95553C92.0334 8.95553 96.9241 9.75469 101.459 11.331C102.809 11.8009 104.284 11.0861 104.754 9.73553C105.223 8.38496 104.509 6.90962 103.159 6.44027C98.0759 4.67369 92.6136 3.77771 86.9229 3.77771C73.9296 3.77771 60.7514 8.44968 49.5427 16.9805H17.3448C15.915 16.9805 14.756 18.1395 14.756 19.5693C14.756 20.9991 15.915 22.1581 17.3448 22.1581H43.487C34.0792 31.1771 27.5689 42.4891 24.9641 54.4951C23.8154 59.7883 23.4649 65.0076 23.9045 70.0793H14.225C12.7952 70.0793 11.6362 71.2383 11.6362 72.668C11.6362 74.0978 12.7952 75.2568 14.225 75.2568H24.6399C24.6839 75.4782 24.7251 75.7 24.7722 75.9206C26.2439 82.8073 29.1695 89.0017 33.4674 94.3323C37.66 99.5318 42.9144 103.602 49.0848 106.429C55.2738 109.264 62.0887 110.702 69.3404 110.702C83.1353 110.702 97.1395 105.437 108.773 95.8778C120.34 86.3738 128.34 73.6267 131.3 59.9843C132.894 52.6342 132.959 45.4255 131.491 38.559ZM39.7556 59.8287H42.6672C44.097 59.8287 45.256 58.6697 45.256 57.2399C45.256 55.8102 44.097 54.6512 42.6672 54.6512H40.9531C43.6532 45.5904 49.3889 37.1458 57.3515 30.6029C65.2779 24.0896 74.5167 20.1965 83.6831 19.4466L83.2968 21.2266C82.9937 22.6238 83.8806 24.0023 85.2777 24.3055C85.4628 24.3456 85.6474 24.3647 85.8291 24.3647C87.021 24.3647 88.0936 23.5366 88.3566 22.3243L88.9976 19.3694C97.9397 19.8628 105.592 23.5555 110.704 29.897C116.028 36.4997 118.057 45.2257 116.508 54.6512H113.596C112.167 54.6512 111.007 55.8102 111.007 57.2399C111.007 58.6697 112.167 59.8287 113.596 59.8287H115.31C112.61 68.8895 106.875 77.3341 98.9118 83.8769C91.5527 89.9241 83.0625 93.7122 74.5493 94.8241L74.8903 93.2533C75.1934 91.8561 74.3065 90.4776 72.9096 90.1744C71.5122 89.8702 70.1334 90.7579 69.8305 92.1554L69.1768 95.1674C59.4156 95.1257 51.0326 91.3717 45.5586 84.5829C43.3255 81.8134 41.6746 78.6688 40.6215 75.2571H51.6642C53.094 75.2571 54.253 74.0981 54.253 72.6683C54.253 71.2385 53.094 70.0795 51.6642 70.0795H39.5107C39.0978 66.8114 39.1734 63.3699 39.7556 59.8287Z" fill="black"/>
<path d="M67.8175 68.3057C68.3959 68.3057 68.9776 68.1128 69.4596 67.717L79.7756 59.2403C80.2261 58.8701 80.5383 58.3588 80.662 57.789L85.8559 33.8503C86.159 32.4531 85.2721 31.0746 83.875 30.7715C82.4783 30.4681 81.0993 31.3552 80.7961 32.7524L75.793 55.8114L66.1726 63.7165C65.068 64.6242 64.9082 66.2556 65.8161 67.3603C66.3277 67.9831 67.0696 68.3057 67.8175 68.3057Z" fill="black"/>
<path d="M2.58878 44.4506H20.2624C21.6922 44.4506 22.8512 43.2916 22.8512 41.8618C22.8512 40.432 21.6922 39.273 20.2624 39.273H2.58878C1.159 39.273 0 40.432 0 41.8618C0 43.2916 1.159 44.4506 2.58878 44.4506Z" fill="black"/>
<path d="M22.8772 93.6375H9.40177C7.97199 93.6375 6.81299 94.7964 6.81299 96.2262C6.81299 97.656 7.97199 98.815 9.40177 98.815H22.8772C24.3069 98.815 25.4659 97.656 25.4659 96.2262C25.4659 94.7964 24.3069 93.6375 22.8772 93.6375Z" fill="black"/>
<path d="M4.97817 71.6779C4.08737 69.5393 0.943033 69.6144 0.153196 71.7957C-0.220883 72.8291 0.127049 74.0355 0.996621 74.7088C1.83979 75.3617 3.01717 75.4324 3.92997 74.8813C5.0082 74.2299 5.46305 72.841 4.97817 71.6779Z" fill="black"/>
<path d="M110.326 15.2555C110.868 16.5563 112.403 17.1973 113.707 16.656C115.011 16.1149 115.646 14.579 115.108 13.275C114.569 11.9721 113.029 11.334 111.727 11.8745C110.421 12.4166 109.791 13.9494 110.326 15.2555Z" fill="black"/>
</svg>
