<svg width="114" height="101" viewBox="0 0 114 101" fill="none" xmlns="http://www.w3.org/2000/svg">
<circle cx="38.1866" cy="60.6493" r="35.9403" fill="#F18324"/>
<path d="M73.5652 2.24622L51.6641 26.3936L70.1958 40.4328L75.2499 59.5261L72.442 76.9346L60.6491 91.5354L89.2891 93.2201L91.5353 42.679L109.505 41.5559L73.5652 2.24622Z" fill="#FFF0AF"/>
<circle cx="38.1867" cy="60.6492" r="26.9552" fill="#FFF0AF"/>
<path d="M112.833 40.9453L75.1638 0.701634C74.7449 0.254113 74.1593 0 73.5463 0C72.9333 0 72.3478 0.25389 71.9288 0.701411L49.886 24.2501C46.384 23.2097 42.678 22.6483 38.8426 22.6483C17.4247 22.6483 0 40.0731 0 61.491C0 82.9088 17.4247 100.334 38.8426 100.334C45.8038 100.334 52.3422 98.4914 57.9985 95.271H89.6903C90.9137 95.271 91.9058 94.2792 91.9058 93.0556V84.1938C91.9058 82.9702 90.9137 81.9783 89.6903 81.9783C88.467 81.9783 87.4749 82.9702 87.4749 84.1938V90.8401H64.2596C72.4787 83.7126 77.6855 73.1985 77.6855 61.491C77.6855 45.6046 68.0974 31.9176 54.4053 25.9062L73.5463 5.45754L106.107 40.2439H89.6903C88.467 40.2439 87.4749 41.2358 87.4749 42.4593V85.9198C87.4749 87.1433 88.467 88.1352 89.6903 88.1352C90.9137 88.1352 91.9058 87.1433 91.9058 85.9198V44.6748H111.216C112.098 44.6748 112.897 44.1506 113.248 43.3409C113.599 42.5309 113.436 41.5898 112.833 40.9453ZM73.2543 61.491C73.2543 80.4656 57.8173 95.9027 38.8426 95.9027C19.8679 95.9027 4.4309 80.4656 4.4309 61.491C4.4309 42.5163 19.8679 27.0792 38.8426 27.0792C57.8175 27.0792 73.2543 42.5163 73.2543 61.491Z" fill="black"/>
<path d="M8.87915 61.4909C8.87915 78.0129 22.3207 91.4542 38.8425 91.4542C55.3642 91.4542 68.8058 78.0129 68.8058 61.4909C68.8058 44.969 55.3642 31.5276 38.8425 31.5276C22.3207 31.5276 8.87915 44.969 8.87915 61.4909ZM64.3749 61.4909C64.3749 75.5694 52.9212 87.0233 38.8425 87.0233C24.7637 87.0233 13.3101 75.5694 13.3101 61.4909C13.3101 47.4124 24.7637 35.9585 38.8425 35.9585C52.9212 35.9585 64.3749 47.4124 64.3749 61.4909Z" fill="black"/>
<path d="M33.3773 66.9062C30.7748 64.3187 26.5404 64.3187 23.9379 66.906C22.6731 68.1634 21.9763 69.8365 21.9763 71.6167C21.9763 73.3968 22.6731 75.0694 23.9379 76.3269C25.2392 77.621 26.9482 78.2679 28.6577 78.2677C30.3667 78.2677 32.0763 77.6208 33.3773 76.3272C34.6423 75.0697 35.3388 73.3968 35.3388 71.6169C35.3388 69.8366 34.6421 68.1637 33.3773 66.9062ZM30.2532 73.185C29.3735 74.0596 27.9419 74.0599 27.0619 73.185C26.6401 72.7654 26.4074 72.2084 26.4074 71.6169C26.4074 71.0254 26.6401 70.4682 27.0621 70.0486C27.5019 69.6112 28.0799 69.3926 28.6577 69.3926C29.2355 69.3926 29.8135 69.6112 30.2532 70.0486V70.0488C30.6753 70.4684 30.9079 71.0254 30.9079 71.6171C30.9079 72.2082 30.6753 72.7652 30.2532 73.185Z" fill="black"/>
<path d="M49.0276 58.0162C50.737 58.0162 52.4463 57.3693 53.7476 56.0757C55.0124 54.8182 55.709 53.1454 55.709 51.3655C55.709 49.5853 55.0124 47.9127 53.7476 46.6552C53.7476 46.655 53.7476 46.655 53.7476 46.655C51.1449 44.0678 46.9105 44.0675 44.3082 46.655C43.0432 47.9125 42.3467 49.5853 42.3467 51.3655C42.3467 53.1456 43.0434 54.8185 44.3082 56.0759C45.6092 57.3693 47.3184 58.0162 49.0276 58.0162ZM47.432 49.7971C47.8718 49.3596 48.4498 49.1411 49.0276 49.1411C49.6056 49.1411 50.1836 49.3598 50.6234 49.7971C51.0454 50.2167 51.2778 50.7737 51.2778 51.3652C51.2778 51.957 51.0454 52.5139 50.6234 52.9333C49.7436 53.8084 48.3118 53.808 47.4318 52.9333C47.01 52.5137 46.7774 51.9568 46.7774 51.3652C46.7774 50.7737 47.0098 50.2167 47.432 49.7971Z" fill="black"/>
<path d="M28.5706 48.1548C27.7028 47.2923 26.3 47.2961 25.4373 48.1641C24.5746 49.0317 24.5788 50.4345 25.4464 51.2972L49.1147 74.8273C49.5469 75.2571 50.1119 75.4715 50.6768 75.4715C51.2457 75.4715 51.8151 75.2535 52.248 74.818C53.1105 73.9502 53.1065 72.5476 52.2389 71.6849L28.5706 48.1548Z" fill="black"/>
</svg>
