<svg width="102" height="114" viewBox="0 0 102 114" fill="none" xmlns="http://www.w3.org/2000/svg">
<rect x="3.14307" y="10.2096" width="78.5776" height="103.722" fill="#FFF0AF"/>
<rect x="9.42944" y="3.92346" width="72.2914" height="44.0034" fill="#FFF0AF"/>
<path d="M50.4783 58.142L60.8505 56.4102L67.1964 53.0942L74.8405 46.7483L81.331 53.0942L89.2642 56.4102L100.658 58.142L100.08 88.7213L98.7815 94.3474L95.3241 99.2507L91.8666 102.425L74.8467 112.521L57.3994 102.422L52.7822 98.2386L50.4783 93.6214L49.1802 89.2933V58.142H50.4783Z" fill="#F18324"/>
<circle cx="73.863" cy="80.9294" r="17.2871" fill="#87D147"/>
<path d="M59.6499 11.1873V25.5669H74.2748L59.6499 11.1873Z" fill="#F18324"/>
<path fill-rule="evenodd" clip-rule="evenodd" d="M58.2889 11.9227H3.64288V110.289H72.2348L75.1202 113.932H1.82302C1.33928 113.933 0.875105 113.741 0.533045 113.399C0.190985 113.057 -0.000811731 112.593 2.44774e-05 112.109V10.1091C-0.00248838 9.62428 0.188568 9.15848 0.530811 8.81506C0.873053 8.47164 1.33819 8.27898 1.82302 8.27982H7.29202V2.81397C7.29119 2.33022 7.48298 1.86605 7.82504 1.52399C8.1671 1.18193 8.63128 0.990133 9.11502 0.99097H81.969C82.4527 0.990133 82.9169 1.18193 83.259 1.52399C83.601 1.86605 83.7928 2.33022 83.792 2.81397V51.9752H80.1491V4.63697H10.9286V8.27982H60.1119C60.5969 8.27968 61.0619 8.47315 61.4037 8.81729L75.9719 23.3856C76.3142 23.7271 76.5064 24.1908 76.5063 24.6742V48.3292H72.8634V26.4972H60.1119C59.6281 26.4981 59.1639 26.3063 58.8219 25.9642C58.4798 25.6222 58.288 25.158 58.2889 24.6742V11.9227ZM70.2735 22.8639L61.9192 14.5095V22.8639H70.2735Z" fill="black"/>
<path fill-rule="evenodd" clip-rule="evenodd" d="M97.4425 55.64H100.186C101.19 55.6435 102.002 56.4592 102 57.463V86.9642C101.991 94.1521 98.1406 100.787 91.9044 104.361L75.5822 113.69C75.0224 114.01 74.3348 114.01 73.775 113.69L57.4528 104.361C51.2166 100.787 47.3663 94.1521 47.3572 86.9642V57.463C47.3563 56.9793 47.5481 56.5151 47.8902 56.173C48.2323 55.831 48.6964 55.6392 49.1802 55.64H51.9241C60.0363 55.6508 67.7315 52.0469 72.9169 45.8084L73.2846 45.3684C73.6422 44.972 74.151 44.7457 74.6849 44.7457C75.2187 44.7457 75.7275 44.972 76.0851 45.3684L76.4529 45.8115C81.6379 52.0483 89.3319 55.6511 97.4425 55.64ZM90.1034 101.199C95.2072 98.2758 98.3579 92.846 98.3634 86.9642V59.2829H97.4425C88.7951 59.2944 80.5392 55.679 74.6833 49.3161C68.8272 55.6786 60.5714 59.294 51.9241 59.2829H51.0032V86.9642C51.01 92.8457 54.1603 98.2749 59.2633 101.199L74.6833 110L90.1034 101.199Z" fill="black"/>
<path fill-rule="evenodd" clip-rule="evenodd" d="M54.646 81.1431C54.646 70.0768 63.617 61.1058 74.6833 61.1058C85.7438 61.1197 94.7067 70.0826 94.7206 81.1431C94.7206 92.2094 85.7496 101.18 74.6833 101.18C63.617 101.18 54.646 92.2094 54.646 81.1431ZM58.2889 81.1432C58.2889 90.1976 65.6289 97.5376 74.6833 97.5376C83.7334 97.5272 91.0673 90.1933 91.0777 81.1432C91.0777 72.0888 83.7377 64.7488 74.6833 64.7488C65.6289 64.7488 58.2889 72.0888 58.2889 81.1432Z" fill="black"/>
<path d="M7.28564 30.1403H54.6459V33.7831H7.28564V30.1403Z" fill="black"/>
<path d="M7.28564 37.4259H54.6459V41.0688H7.28564V37.4259Z" fill="black"/>
<path d="M7.28564 44.7117H54.6459V48.3545H7.28564V44.7117Z" fill="black"/>
<path d="M7.28564 51.9973H43.7173V55.6402H7.28564V51.9973Z" fill="black"/>
<path d="M7.28564 59.2831H43.7173V62.9259H7.28564V59.2831Z" fill="black"/>
<path d="M7.28564 66.5687H43.7173V70.2116H7.28564V66.5687Z" fill="black"/>
<path d="M7.28564 88.4288H43.7173V92.0717H7.28564V88.4288Z" fill="black"/>
<path d="M7.28564 95.7146H43.7173V99.3575H7.28564V95.7146Z" fill="black"/>
<path d="M7.28564 103H43.7173V106.643H7.28564V103Z" fill="black"/>
<path d="M9.10864 15.5654H12.7515V19.2083H9.10864V15.5654Z" fill="black"/>
<path d="M16.3945 15.5654H20.0374V19.2083H16.3945V15.5654Z" fill="black"/>
<path d="M23.6802 15.5654H27.323V19.2083H23.6802V15.5654Z" fill="black"/>
<path d="M30.9658 15.5654H54.646V19.2083H30.9658V15.5654Z" fill="black"/>
<path d="M65.3389 80.5522L71.8797 87.1024L84.4521 74.5551L82.6259 72.7793L71.8797 83.5224L67.1179 78.7606L65.3389 80.5522Z" fill="black"/>
</svg>
