<svg width="118" height="118" viewBox="0 0 118 118" fill="none" xmlns="http://www.w3.org/2000/svg">
<path d="M75.2719 21H54.765L38.9816 37.2305L28.6129 52.994L27 66.5389L30.341 80.6677L44.6267 76.5808L66.1705 84.2874L75.2719 91.5269V99H76.6544L102 75.0629V57.8982L96.8157 42.8353L75.2719 21Z" fill="#F18324"/>
<path d="M55 21L50.5 6H56L67 2L75 6H81L75 21H55Z" fill="#87D147"/>
<path d="M42 77.5L24 83.5L22 115.5H53.5L83 113.5L116.5 81L112.5 73.5H106L81.5 94.5L74.5 98V90.5L54.5 79.5L42 77.5Z" fill="#FFDDCF"/>
<rect x="3" y="81" width="20" height="34" fill="#02359A"/>
<path d="M117.653 76.9899C116.749 73.8563 114.206 71.4886 111.017 70.8101C108.974 70.3752 106.849 70.6926 105.035 71.6569C106.086 65.124 105.534 58.3662 103.372 52.067C103.174 51.4895 100.409 45.5176 97.4883 40.9082C96.028 38.6039 97.1994 42.9984 96.573 43.2129C95.9654 43.4214 93.141 41.0272 93.7743 43.5236C97.6101 50.8184 98.8074 52.9668 99.012 53.5632C101.565 61.0024 101.586 69.1631 99.0846 76.6113L80.7177 92.9238C79.5844 93.93 78.3417 94.7833 77.0208 95.4761C77.3942 93.9653 77.3689 92.3656 76.9203 90.8458C76.2121 88.4456 74.5114 86.4492 72.2546 85.3683L55.9839 77.5751C48.8704 74.168 40.5447 73.7738 33.1414 76.4919L31.4875 77.0992C26.8968 64.1309 30.0922 49.7488 39.9229 39.9183L56.1941 23.6472H74.2074L93.7743 43.5236C94.6745 44.4234 96.1335 44.4234 97.0339 43.5236C97.9339 42.6236 97.9339 41.1642 97.0339 40.264L78.0808 21.002L82.8427 7.29825C83.4811 5.46112 82.7761 3.45688 81.1282 2.42388C79.4807 1.39111 77.3691 1.63057 75.9938 3.00514L75.9655 3.03349C75.0129 3.98652 73.4623 3.98652 72.5097 3.03349C68.4646 -1.01116 61.8834 -1.01116 57.8383 3.03349C57.3769 3.49514 56.7631 3.74913 56.1104 3.74913C55.4577 3.74913 54.8439 3.49491 54.3825 3.03349C53.0059 1.65685 50.8931 1.41853 49.2443 2.45453C47.5957 3.4903 46.8934 5.4973 47.5367 7.33513L52.3193 21.0034L36.6635 36.6591C30.8696 42.4533 27.0181 49.7585 25.526 57.7849C24.2171 64.8237 24.7841 72.001 27.1568 78.6897L23.5233 80.0237C22.3143 78.4518 20.4163 77.4359 18.2846 77.4359H6.60707C2.96393 77.4361 0 80.4001 0 84.043V111.393C0 115.036 2.96393 118 6.60707 118H67.3523C76.8936 118 85.9165 114.338 92.7587 107.688L115.327 85.7543C117.665 83.4818 118.557 80.1235 117.653 76.9899ZM56.1102 8.35891C57.9941 8.35891 59.7653 7.6253 61.0977 6.29314C63.3453 4.04552 67.0025 4.04552 69.2501 6.29314C70.5822 7.6253 72.3537 8.35891 74.2376 8.35891C75.5753 8.35891 76.8558 7.98923 77.963 7.29779L73.8836 19.0379H56.5151L52.4131 7.31531C53.5139 7.99522 54.7838 8.35891 56.1102 8.35891ZM4.60953 111.393V84.043C4.60953 82.9416 5.50562 82.0455 6.60707 82.0455H18.2844C19.3858 82.0455 20.2819 82.9416 20.2819 84.043V111.393C20.2819 112.494 19.3858 113.39 18.2844 113.39H6.60707C5.50562 113.391 4.60953 112.495 4.60953 111.393ZM112.114 82.449L89.5461 104.382C83.5689 110.191 75.6871 113.391 67.3523 113.391H24.5819C24.7824 112.76 24.8915 112.089 24.8915 111.393V84.4321L34.73 80.8195C40.9729 78.5274 47.9944 78.8598 53.9928 81.7329L70.2635 89.5261C71.3608 90.0516 72.1548 90.9838 72.4991 92.151C72.8435 93.3181 72.6828 94.5325 72.0465 95.5697C71.0241 97.2358 69.0086 97.9853 67.1459 97.3937L45.5304 90.5199C44.3176 90.1345 43.0214 90.8048 42.6354 92.018C42.2498 93.231 42.9202 94.5272 44.1335 94.913L65.7489 101.787C66.6393 102.07 67.5457 102.206 68.4407 102.206C68.5485 102.206 68.6559 102.199 68.7633 102.195C74.3065 102.115 79.6271 100.058 83.7782 96.3708L106.39 76.2884C107.384 75.4049 108.756 75.0426 110.057 75.3192C111.602 75.6479 112.786 76.75 113.223 78.2677C113.662 79.7849 113.247 81.348 112.114 82.449Z" fill="black"/>
<path d="M78 42H57V46.161H64.4056C67.1253 46.161 69.4449 47.9004 70.3059 50.3221H57V54.4831H70.3059C69.4449 56.9048 67.1253 58.6441 64.4056 58.6441H57V62.8051L69.2273 75L72.1775 72.0576L62.9004 62.8053H64.4056C69.4427 62.8053 73.6573 59.2257 74.6264 54.4832H78V50.3221H74.6264C74.3124 48.7856 73.6576 47.3713 72.7447 46.1611H78V42Z" fill="black"/>
</svg>
