<svg width="123" height="131" viewBox="0 0 123 131" fill="none" xmlns="http://www.w3.org/2000/svg">
<path d="M114.434 32.8393V19.6485C114.434 17.8783 113.007 16.4507 111.237 16.4507H11.7061C9.93588 16.4507 8.5083 17.8783 8.5083 19.6485V32.8964H114.434V32.8393Z" fill="#87D147"/>
<path d="M106.954 16.4507V4.68742C106.954 3.20274 105.755 1.94647 104.213 1.94647H18.7868C17.3022 1.94647 16.0459 3.14564 16.0459 4.68742V16.4507H106.954Z" fill="#87D147"/>
<path d="M103.471 32.8393C100.045 30.7265 97.475 27.4716 96.3329 23.5886C96.1616 23.0175 95.6477 22.6749 95.0767 22.6749H27.9234C27.3524 22.6749 26.8385 23.0746 26.6672 23.5886C25.5251 27.4145 22.9555 30.7265 19.5293 32.8393H103.471Z" fill="#B2E26D"/>
<path d="M98.2743 16.4506C94.9623 14.6804 92.5069 11.7111 91.422 8.11359C91.2507 7.65677 90.8509 7.31415 90.337 7.31415H32.6629C32.149 7.31415 31.7493 7.65677 31.578 8.11359C30.493 11.7111 28.0376 14.6804 24.7256 16.4506H98.2743Z" fill="#B2E26D"/>
<path d="M117.975 32.8392H5.02498C3.02638 32.8392 1.42749 34.4381 1.42749 36.4367V101.02C1.42749 103.019 3.02638 104.618 5.02498 104.618H57.5598V98.5078C57.5598 96.3378 59.33 94.5676 61.4999 94.5676C63.6698 94.5676 65.44 96.3378 65.44 98.5078V104.618H117.975C119.973 104.618 121.572 103.019 121.572 101.02V36.4938C121.572 34.4952 119.973 32.8963 117.975 32.8392Z" fill="#87D147"/>
<path d="M113.407 53.3964C107.468 51.6262 102.843 46.9437 101.015 41.005C100.844 40.3769 100.216 39.92 99.5877 39.92H23.4122C22.727 39.92 22.1559 40.3769 21.9846 41.005C20.2144 46.9437 15.532 51.5691 9.59326 53.3964C8.96512 53.5677 8.5083 54.1958 8.5083 54.8239V82.6902C8.5083 83.3755 8.96512 83.9465 9.59326 84.1178C15.532 85.888 20.1573 90.5705 21.9846 96.5092C22.1559 97.1373 22.7841 97.5941 23.4122 97.5941H57.674C58.188 95.4813 60.3579 94.2251 62.4707 94.739C63.8983 95.0816 64.9832 96.1666 65.3259 97.5941H99.5877C100.273 97.5941 100.844 97.1373 101.015 96.5092C102.785 90.5705 107.468 85.9451 113.407 84.1178C114.035 83.9465 114.492 83.3184 114.492 82.6902V54.8239C114.492 54.1958 114.035 53.6248 113.407 53.3964Z" fill="#B2E26D"/>
<path d="M61.5001 89.0287C72.6958 89.0287 81.7717 79.9528 81.7717 68.7571C81.7717 57.5614 72.6958 48.4855 61.5001 48.4855C50.3044 48.4855 41.2285 57.5614 41.2285 68.7571C41.2285 79.9528 50.3044 89.0287 61.5001 89.0287Z" fill="#87D147"/>
<path d="M117.975 106.102H65.4401C64.6407 106.102 64.0125 105.474 64.0125 104.675V98.5649C64.0125 97.1944 62.8705 96.0523 61.5 96.0523C60.1295 96.0523 58.9875 97.1944 58.9875 98.5649V104.675C58.9875 105.474 58.3593 106.102 57.5599 106.102H5.02507C2.22702 106.102 0 103.818 0 101.077V36.4938C0 33.6958 2.28412 31.4688 5.02507 31.4688H117.975C120.773 31.4688 123 33.7529 123 36.4938V101.077C123 103.875 120.773 106.102 117.975 106.102ZM66.8677 103.247H117.975C119.174 103.247 120.145 102.277 120.145 101.077V36.4938C120.145 35.2947 119.174 34.3239 117.975 34.3239H5.02507C3.82591 34.3239 2.85515 35.2947 2.85515 36.4938V101.077C2.85515 102.277 3.82591 103.247 5.02507 103.247H56.1323V98.5649C56.1323 95.5955 58.5306 93.1972 61.5 93.1972C64.4694 93.1972 66.8677 95.5955 66.8677 98.5649V103.247Z" fill="black"/>
<path d="M30.2076 70.1846H25.9249C25.1254 70.1846 24.4973 69.5565 24.4973 68.757C24.4973 67.9576 25.1254 67.3295 25.9249 67.3295H30.2076C31.0071 67.3295 31.6352 67.9576 31.6352 68.757C31.6352 69.5565 31.0071 70.1846 30.2076 70.1846Z" fill="black"/>
<path d="M97.0753 70.1846H92.7926C91.9931 70.1846 91.365 69.5565 91.365 68.757C91.365 67.9576 91.9931 67.3295 92.7926 67.3295H97.0753C97.8747 67.3295 98.5029 67.9576 98.5029 68.757C98.5029 69.5565 97.8176 70.1846 97.0753 70.1846Z" fill="black"/>
<path d="M99.5878 99.0217H65.326C64.6978 99.0217 64.1268 98.5649 63.9555 97.9367C63.6129 96.5662 62.2424 95.7668 60.8719 96.1094C59.9583 96.3378 59.273 97.0231 59.0446 97.9367C58.8733 98.5649 58.3023 99.0217 57.6742 99.0217H23.4123C22.0989 99.0217 21.014 98.1651 20.6143 96.966C18.9583 91.4841 14.6755 87.2013 9.19365 85.5453C7.93738 85.1456 7.13794 84.0036 7.13794 82.7473V54.881C7.13794 53.5676 7.99449 52.4827 9.19365 52.083C14.6755 50.427 18.9583 46.1442 20.6143 40.6623C20.9569 39.4061 22.0989 38.6066 23.4123 38.6066H99.6449C100.958 38.6066 102.043 39.4632 102.443 40.6623C104.099 46.1442 108.382 50.427 113.864 52.083C115.12 52.4827 115.919 53.6247 115.919 54.881V82.7473C115.919 84.0607 115.063 85.1456 113.864 85.5453C108.382 87.2013 104.099 91.4841 102.443 96.966C102.043 98.1651 100.901 99.0217 99.5878 99.0217ZM66.2967 96.1665H99.5878C99.6449 96.1665 99.6449 96.1665 99.6449 96.1094C101.586 89.7139 106.554 84.6888 112.95 82.8044L113.007 82.7473V54.881C113.007 54.8239 113.007 54.8239 112.95 54.8239C106.554 52.8824 101.529 47.9144 99.6449 41.5189L99.5878 41.4618H23.4123C23.3552 41.4618 23.3552 41.4618 23.3552 41.5189C21.4137 47.9144 16.4457 52.9395 10.0502 54.8239L9.99309 54.881V82.7473C9.99309 82.8044 9.99309 82.8044 10.0502 82.8044C16.4457 84.7459 21.4708 89.7139 23.3552 96.1094L23.4123 96.1665H56.7034C58.0168 93.5398 61.2716 92.4548 63.8984 93.7682C64.9262 94.2821 65.7828 95.0816 66.2967 96.1665Z" fill="black"/>
<path d="M114.435 34.2668H8.56552C7.76607 34.2668 7.13794 33.6387 7.13794 32.8392V19.6484C7.13794 17.0788 9.19365 15.0231 11.7633 15.0231H111.294C113.864 15.0231 115.919 17.0788 115.919 19.6484V32.8963C115.862 33.6387 115.234 34.2668 114.435 34.2668ZM9.99309 31.4116H113.064V19.6484C113.064 18.6777 112.265 17.8782 111.294 17.8782H11.7062C10.7354 17.8782 9.93599 18.6777 9.93599 19.6484L9.99309 31.4116Z" fill="black"/>
<path d="M106.954 17.8783H16.046C15.2465 17.8783 14.6184 17.2501 14.6184 16.4507V4.68744C14.6184 2.40332 16.5028 0.518921 18.7869 0.518921H104.213C106.497 0.518921 108.382 2.40332 108.382 4.68744V16.4507C108.382 17.2501 107.754 17.8783 106.954 17.8783ZM17.4736 15.0231H105.526V4.68744C105.526 3.9451 104.955 3.37407 104.213 3.37407H18.7869C18.0446 3.37407 17.4736 3.9451 17.4736 4.68744V15.0231Z" fill="black"/>
<path d="M61.4999 90.4563C49.5083 90.4563 39.8008 80.7487 39.8008 68.7571C39.8008 56.7654 49.5083 47.0579 61.4999 47.0579C73.4916 47.0579 83.1991 56.7654 83.1991 68.7571C83.1991 80.7487 73.4916 90.4563 61.4999 90.4563ZM61.4999 49.9131C51.1072 49.9131 42.6559 58.3643 42.6559 68.7571C42.6559 79.1498 51.1072 87.6011 61.4999 87.6011C71.8927 87.6011 80.344 79.1498 80.344 68.7571C80.344 58.3643 71.8927 49.9702 61.4999 49.9131Z" fill="black"/>
<path d="M47.6812 116.609L58.7021 127.63C60.2438 129.172 62.7564 129.172 64.2982 127.63L75.3191 116.609C76.8608 115.068 76.9179 112.555 75.3762 111.013C73.8344 109.472 71.3218 109.414 69.7801 110.956L69.723 111.013L65.4973 115.239V98.5078C65.4973 96.3379 63.7271 94.5677 61.5572 94.5677C59.3873 94.5677 57.6171 96.3379 57.6171 98.5078V115.239L53.3915 111.013C51.8497 109.472 49.3372 109.529 47.7954 111.07C46.1965 112.612 46.1965 115.068 47.6812 116.609Z" fill="#29589F"/>
<path d="M47.6812 116.609L58.7021 127.63C60.2438 129.172 62.7564 129.172 64.2982 127.63L75.3191 116.609C76.8608 115.068 76.9179 112.555 75.3762 111.013C73.8344 109.472 71.3218 109.414 69.7801 110.956L69.723 111.013L65.4973 115.239V98.5078C65.4973 96.3379 63.7271 94.5677 61.5572 94.5677C59.3873 94.5677 57.6171 96.3379 57.6171 98.5078V115.239L53.3915 111.013C51.8497 109.472 49.3372 109.529 47.7954 111.07C46.1965 112.612 46.1965 115.068 47.6812 116.609Z" fill="#F18324"/>
<path d="M61.5001 130.2C60.0725 130.2 58.702 129.629 57.6742 128.601L46.7104 117.58C44.6547 115.467 44.7118 112.041 46.8246 109.986C48.9374 107.93 52.2494 107.93 54.3051 109.986L56.1324 111.813V98.5649C56.1324 95.5955 58.5307 93.1972 61.5001 93.1972C64.4694 93.1972 66.8677 95.5955 66.8677 98.5649V111.813L68.6951 109.986C70.8079 107.873 74.234 107.93 76.2898 110.043C78.3455 112.155 78.3455 115.525 76.2898 117.58L65.2689 128.601C64.2981 129.629 62.9276 130.2 61.5001 130.2ZM48.709 115.582L59.7299 126.603C60.7006 127.573 62.2995 127.573 63.3274 126.603L74.3483 115.582C75.319 114.611 75.3761 113.012 74.4054 111.984C73.4346 111.013 71.8357 110.956 70.8079 111.927C70.8079 111.927 70.8079 111.927 70.7508 111.984L66.5251 116.21C65.9541 116.781 65.0405 116.781 64.5265 116.21C64.241 115.924 64.1268 115.582 64.1268 115.182V98.4507C64.1268 97.0802 62.9847 95.9382 61.6143 95.9382C60.2438 95.9382 59.1017 97.0802 59.1017 98.4507V115.182C59.1017 115.981 58.4736 116.609 57.6742 116.609C57.2744 116.609 56.9318 116.438 56.6463 116.21L52.4207 111.984C51.4499 111.013 49.851 110.956 48.8232 111.927C47.7382 112.955 47.6811 114.554 48.709 115.582Z" fill="black"/>
<path d="M61.5001 130.2C60.0725 130.2 58.702 129.629 57.6742 128.601L46.7104 117.58C44.6547 115.467 44.7118 112.041 46.8246 109.986C48.9374 107.93 52.2494 107.93 54.3051 109.986L56.1324 111.813V98.5649C56.1324 95.5955 58.5307 93.1972 61.5001 93.1972C64.4694 93.1972 66.8677 95.5955 66.8677 98.5649V111.813L68.6951 109.986C70.8079 107.873 74.234 107.93 76.2898 110.043C78.3455 112.155 78.3455 115.525 76.2898 117.58L65.2689 128.601C64.2981 129.629 62.9276 130.2 61.5001 130.2ZM48.709 115.582L59.7299 126.603C60.7006 127.573 62.2995 127.573 63.3274 126.603L74.3483 115.582C75.319 114.611 75.3761 113.012 74.4054 111.984C73.4346 111.013 71.8357 110.956 70.8079 111.927C70.8079 111.927 70.8079 111.927 70.7508 111.984L66.5251 116.21C65.9541 116.781 65.0405 116.781 64.5265 116.21C64.241 115.924 64.1268 115.582 64.1268 115.182V98.4507C64.1268 97.0802 62.9847 95.9382 61.6143 95.9382C60.2438 95.9382 59.1017 97.0802 59.1017 98.4507V115.182C59.1017 115.981 58.4736 116.609 57.6742 116.609C57.2744 116.609 56.9318 116.438 56.6463 116.21L52.4207 111.984C51.4499 111.013 49.851 110.956 48.8232 111.927C47.7382 112.955 47.6811 114.554 48.709 115.582Z" fill="black"/>
<path d="M103.471 34.2668H19.5291C18.7297 34.2668 18.1016 33.6387 18.1016 32.8393C18.1016 32.3253 18.3871 31.8685 18.7868 31.6401C21.9275 29.7557 24.2687 26.7292 25.2965 23.2459C25.6392 22.1039 26.7241 21.3044 27.9233 21.3044H95.0765C96.2757 21.3044 97.3606 22.1039 97.7032 23.2459C98.7882 26.7863 101.072 29.7557 104.213 31.6401C104.898 32.0398 105.127 32.9535 104.67 33.5816C104.441 34.0384 103.985 34.2668 103.471 34.2668ZM23.6406 31.4117H99.4163C97.3606 29.356 95.8759 26.8434 95.0194 24.1025H27.9804C27.1238 26.9005 25.6392 29.4131 23.6406 31.4117Z" fill="black"/>
<path d="M98.2744 17.8782H24.7257C23.9262 17.8782 23.2981 17.2501 23.2981 16.4507C23.2981 15.9367 23.5836 15.4228 24.0404 15.1944C27.0098 13.5955 29.2368 10.9117 30.2076 7.71389C30.5502 6.62893 31.5209 5.8866 32.663 5.8866H90.3371C91.4792 5.8866 92.4499 6.62893 92.7925 7.71389C93.7633 10.9117 95.9903 13.5955 98.9597 15.1944C99.6449 15.537 99.9304 16.4507 99.5307 17.1359C99.3023 17.5927 98.7883 17.8782 98.2744 17.8782ZM29.0655 15.0231H93.9917C92.2215 13.2529 90.9081 11.1401 90.1658 8.74175H32.8914C32.1491 11.083 30.8357 13.2529 29.0655 15.0231Z" fill="black"/>
<path d="M69 58H54V61.0262H59.2897C61.2323 61.0262 62.8892 62.2912 63.5042 64.0524H54V67.0786H63.5042C62.8892 68.8398 61.2323 70.1048 59.2897 70.1048H54V73.131L62.7338 82L64.8411 79.8601L58.2146 73.1311H59.2897C62.8877 73.1311 65.8981 70.5278 66.5903 67.0787H69V64.0525H66.5903C66.366 62.935 65.8983 61.9064 65.2462 61.0262H69V58Z" fill="black"/>
</svg>
