<svg width="65" height="59" viewBox="0 0 65 59" fill="none" xmlns="http://www.w3.org/2000/svg">
<path d="M6.43488 39.6942H1.96177C0.878352 39.6942 0 40.5725 0 41.656V57.035C0 58.1184 0.878352 58.9967 1.96177 58.9967H6.43501V39.6942H6.43488Z" fill="#F18324"/>
<path d="M64.4246 39.5572C60.7478 35.8802 54.7647 35.8801 51.088 39.5572L45.2113 45.4338L42.8026 47.8424C41.8292 48.8159 40.5088 49.3628 39.1322 49.3628H27.4198C26.362 49.3628 25.4518 48.5499 25.402 47.4932C25.3489 46.3651 26.2477 45.4338 27.3643 45.4338H39.2691C41.6627 45.4338 43.7388 43.7296 44.1502 41.3717C44.2448 40.8303 44.2941 40.2735 44.2941 39.7054C44.2942 38.62 43.4148 37.7393 42.3296 37.7393H35.8064C33.6746 37.7393 31.6274 36.7723 29.4599 35.7482C27.1865 34.6744 24.8358 33.5639 22.0871 33.381C19.683 33.2208 17.2734 33.4841 14.9249 34.1622C12.4103 34.8883 10.6027 37.1224 10.3835 39.7017C10.3752 39.7011 10.3667 39.7009 10.3582 39.7004V58.99L44.1565 58.9993C46.4803 58.9993 48.6652 58.0943 50.3086 56.451L64.4243 42.3354C65.1918 41.5684 65.1918 40.3244 64.4246 39.5572Z" fill="#F18324"/>
<circle cx="42.8576" cy="16.0109" r="15.3764" fill="#F18324"/>
<path d="M47.8958 9.0098H37.6885V11.0229H41.2881C42.61 11.0229 43.7375 11.8644 44.156 13.036H37.6885V15.0491H44.156C43.7375 16.2207 42.61 17.0622 41.2881 17.0622H37.6885V19.0752L43.6317 24.9751L45.0657 23.5516L40.5564 19.0753H41.2881C43.7364 19.0753 45.785 17.3435 46.256 15.0491H47.8958V13.036H46.256C46.1034 12.2926 45.7851 11.6084 45.3414 11.0229H47.8958V9.0098Z" fill="#159190"/>
</svg>
