<svg width="46" height="49" viewBox="0 0 46 49" fill="none" xmlns="http://www.w3.org/2000/svg">
<path d="M35.0809 22.3348C34.8328 21.7866 34.2877 21.4375 33.6874 21.4375H27.5624V1.53125C27.5624 0.686 26.8764 0 26.0312 0H19.9062C19.0609 0 18.3749 0.686 18.3749 1.53125V21.4375H12.2499C11.6497 21.4375 11.1046 21.7897 10.8565 22.3348C10.6054 22.883 10.7034 23.5231 11.0984 23.9763L21.8172 36.2263C22.1081 36.5601 22.5277 36.75 22.9687 36.75C23.4097 36.75 23.8293 36.5571 24.1202 36.2263L34.8389 23.9763C35.2371 23.5261 35.3289 22.883 35.0809 22.3348Z" fill="#F18324"/>
<path d="M39.8125 33.6875V42.875H6.125V33.6875H0V45.9375C0 47.6311 1.372 49 3.0625 49H42.875C44.5686 49 45.9375 47.6311 45.9375 45.9375V33.6875H39.8125Z" fill="#F18324"/>
</svg>
