<svg width="56" height="55" viewBox="0 0 56 55" fill="none" xmlns="http://www.w3.org/2000/svg">
<path d="M52.4808 49.9782H2.4997C1.11878 49.9782 0 51.097 0 52.479C0 53.8588 1.11878 54.9776 2.4997 54.9776H52.4796C53.8605 54.9776 54.9793 53.8588 54.9793 52.479C54.9781 51.097 53.8594 49.9782 52.4808 49.9782Z" fill="#F18324"/>
<path d="M5.62323 43.4797C4.24231 43.4797 3.12354 44.5985 3.12354 45.9794C3.12354 47.3603 4.24231 48.4803 5.62323 48.4803H49.3562C50.7372 48.4803 51.8559 47.3603 51.8559 45.9794C51.8559 44.5985 50.7372 43.4797 49.3562 43.4797H48.7325V20.9871H49.3562C50.0479 20.9871 50.6049 20.4277 50.6049 19.7385C50.6049 19.0492 50.0455 18.4898 49.3562 18.4898H5.62323C4.93277 18.4898 4.37455 19.0492 4.37455 19.7385C4.37455 20.4277 4.93394 20.9871 5.62323 20.9871H6.24816V43.4786H5.62323V43.4797ZM43.7331 20.9871V43.4786H36.2363V20.9871H43.7331ZM31.2369 20.9871V43.4786H23.7402V20.9871H31.2369ZM11.2452 20.9871H18.742V43.4786H11.2452V20.9871Z" fill="#F18324"/>
<path d="M2.49974 16.2428H52.4797C52.4878 16.2428 52.4972 16.2428 52.5042 16.2428C53.8863 16.2428 55.0039 15.124 55.0039 13.7431C55.0039 12.6454 54.2971 11.715 53.3152 11.378L28.5172 0.219426C27.8654 -0.0731419 27.1199 -0.0731419 26.4669 0.219426L1.47459 11.4646C0.39911 11.949 -0.191877 13.117 0.0562205 14.2685C0.303147 15.4201 1.32128 16.2428 2.49974 16.2428Z" fill="#F18324"/>
</svg>
