<svg width="58" height="58" viewBox="0 0 58 58" fill="none" xmlns="http://www.w3.org/2000/svg">
<g clip-path="url(#clip0)">
<path d="M56.1875 22.9582H40.4792C39.4787 22.9582 38.6667 23.7702 38.6667 24.7707C38.6667 25.7712 39.4787 26.5832 40.4792 26.5832H56.1875C57.188 26.5832 58 25.7712 58 24.7707C58 23.7702 57.188 22.9582 56.1875 22.9582Z" fill="#F18324"/>
<path d="M56.1875 30.2083H40.4792C39.4787 30.2083 38.6667 31.0203 38.6667 32.0208C38.6667 33.0213 39.4787 33.8333 40.4792 33.8333H56.1875C57.188 33.8333 58 33.0213 58 32.0208C58 31.0203 57.188 30.2083 56.1875 30.2083Z" fill="#F18324"/>
<path d="M56.1875 37.4583H40.4792C39.4787 37.4583 38.6667 38.2703 38.6667 39.2708C38.6667 40.2713 39.4787 41.0833 40.4792 41.0833H56.1875C57.188 41.0833 58 40.2713 58 39.2708C58 38.2703 57.188 37.4583 56.1875 37.4583Z" fill="#F18324"/>
<path d="M56.1875 44.7083H40.4792C39.4787 44.7083 38.6667 45.5203 38.6667 46.5208C38.6667 47.5213 39.4787 48.3333 40.4792 48.3333H56.1875C57.188 48.3333 58 47.5213 58 46.5208C58 45.5203 57.188 44.7083 56.1875 44.7083Z" fill="#F18324"/>
<path d="M56.1875 51.9583H40.4792C39.4787 51.9583 38.6667 52.7703 38.6667 53.7708C38.6667 54.7713 39.4787 55.5833 40.4792 55.5833H56.1875C57.188 55.5833 58 54.7713 58 53.7708C58 52.7703 57.188 51.9583 56.1875 51.9583Z" fill="#F18324"/>
<path d="M29.6042 22.9582H4.22921C1.9092 22.9582 0 24.8674 0 27.1874V51.3541C0 53.6741 1.9092 55.5833 4.22921 55.5833H29.6042C31.9242 55.5833 33.8334 53.6741 33.8334 51.3541V27.1874C33.8333 24.8674 31.9242 22.9582 29.6042 22.9582ZM16.9167 31.4166C18.9225 31.4166 20.5417 33.0358 20.5417 35.0416C20.5417 37.0474 18.9225 38.6666 16.9167 38.6666C14.9109 38.6666 13.2917 37.0474 13.2917 35.0416C13.2917 33.0358 14.9108 31.4166 16.9167 31.4166ZM24.1667 46.5207C24.1667 47.5115 23.345 48.3332 22.3542 48.3332H11.4792C10.4884 48.3332 9.66671 47.5115 9.66671 46.5207V45.6265C9.66671 43.1132 11.9384 41.0832 14.7417 41.0832H19.0917C21.895 41.0832 24.1667 43.1132 24.1667 45.6265V46.5207Z" fill="#F18324"/>
<path d="M53.7708 2.41666H4.22921C1.8971 2.41666 0 4.31376 0 6.64575V12.6875C0 15.0196 1.8971 16.9167 4.22921 16.9167H53.7709C56.103 16.9167 58.0001 15.0196 58.0001 12.6875V6.64575C58 4.31376 56.1029 2.41666 53.7708 2.41666Z" fill="#F18324"/>
</g>
<defs>
<clipPath id="clip0">
<rect width="58" height="58" fill="white"/>
</clipPath>
</defs>
</svg>
