<svg width="687" height="436" viewBox="0 0 687 436" fill="none" xmlns="http://www.w3.org/2000/svg">
<path d="M49.7814 435.152C49.7814 435.152 -25.5145 354.42 37.049 266.981C92.5722 189.415 150.717 220.98 204.917 238.532C244.237 251.273 283.308 227.836 332.94 148.924C400.621 41.2887 635.222 106.563 592.456 272.167C571.76 352.301 655.469 355.218 612.803 435.302L49.7814 435.152Z" fill="#EBF3FA"/>
<path d="M417.473 434.105C417.523 434.13 417.598 434.155 417.673 434.205H459.515C459.115 432.709 457.767 430.016 452.974 429.243C446.483 428.196 435.223 424.431 432.727 416.129C432.652 415.854 432.577 415.58 432.502 415.306C430.505 406.455 416.025 418.024 416.025 418.024C416.025 418.024 415.975 418.373 415.925 418.971C415.576 422.212 414.727 432.709 417.473 434.105Z" fill="#2C3A64"/>
<path d="M472.821 284.035C472.821 284.035 445.609 380.549 437.42 417.874C437.42 417.874 417.223 421.913 414.077 415.58C414.077 415.58 420.593 310.463 432.552 297.124C447.431 280.519 472.821 284.035 472.821 284.035Z" fill="#2C3A64"/>
<path d="M475.068 186.223C475.068 186.223 474.344 181.91 475.467 178.319C476.591 174.729 481.234 165.23 479.761 161.939C478.288 158.647 472.946 149.771 469.65 149.796C466.355 149.821 473.12 159.296 472.172 162.238C471.248 165.205 470.948 165.429 469.8 165.18C468.652 164.931 466.904 159.271 466.33 160.592C465.756 161.914 466.08 170.665 467.179 172.859C468.277 175.053 466.03 187.37 466.03 187.37L475.068 186.223Z" fill="#ED975D"/>
<path d="M477.689 184.278C477.689 184.278 470.399 180.14 464.782 181.885C464.782 181.885 453.597 214.048 447.431 237.684C435.622 208.563 428.332 179.516 428.332 179.516C428.332 179.516 414.002 199.288 408.834 212.428C403.666 225.567 434.574 271.668 446.582 275.308C459.115 279.073 456.818 275.308 463.883 271.269C466.155 268.327 473.42 253.666 477.689 184.278Z" fill="#FFA412"/>
<path d="M510.643 435.601C510.693 435.626 510.768 435.651 510.843 435.676H552.685C552.285 434.18 550.912 431.487 546.144 430.714C539.653 429.667 528.393 425.902 525.897 417.6C525.822 417.325 525.747 417.051 525.672 416.777C523.675 407.926 509.195 419.494 509.195 419.494C509.195 419.494 509.145 419.844 509.095 420.442C508.745 423.708 507.897 434.23 510.643 435.601Z" fill="#2C3A64"/>
<path d="M480.935 281.691C480.935 281.691 476.865 283.511 471.822 287.201C471.248 284.284 470.424 282.414 470.424 282.414C434.524 273.064 338.431 273.837 338.431 273.837C338.431 273.837 317.76 278.998 323.827 309.042C329.419 336.693 421.691 323.877 451.475 315.6C452.174 315.4 452.848 315.201 453.497 315.001C451.126 332.604 467.728 357.736 482.258 380.849C494.241 399.897 504.452 419.195 504.452 419.195C510.469 422.935 530.666 420.766 530.666 420.766C517.908 384.738 480.935 281.691 480.935 281.691Z" fill="#35488B"/>
<path d="M401.694 169.768C401.694 169.768 412.005 202.729 427.484 210.084C427.484 210.084 428.957 200.086 426.435 192.481C428.482 190.911 430.28 189.464 431.877 188.168C437.12 183.805 439.791 181.012 439.791 181.012L437.495 164.955L435.922 154.06C433.4 156.952 430.804 159.296 428.208 161.24C414.851 171.189 401.694 169.768 401.694 169.768Z" fill="#FFB27D"/>
<path d="M428.208 161.216C428.208 161.216 423.015 175.477 431.878 188.168C437.121 183.805 439.792 181.012 439.792 181.012L437.495 164.955C431.928 161.864 428.208 161.216 428.208 161.216Z" fill="#ED975D"/>
<path d="M443.712 184.154C443.712 184.154 420.893 169.019 430.53 154.982C440.192 140.92 443.737 129.526 458.716 138.577C473.695 147.627 472.821 154.908 470.749 160.393C468.652 165.853 449.903 187.719 443.712 184.154Z" fill="#FFB27D"/>
<path d="M433.201 125.562C433.101 125.188 432.677 124.689 431.528 124.066C431.528 124.066 432.776 123.916 434.05 124.514C435.123 122.969 437.445 120.425 440.641 121.099C440.641 121.099 438.718 121.173 437.645 122.869C442.613 121.049 450.901 121.996 469.675 133.141C494.416 147.802 477.714 160.368 473.42 160.742C469.101 161.116 463.384 151.542 456.943 148.998C450.477 146.455 444.835 154.982 442.114 155.207C439.392 155.431 441.315 153.611 439.093 150.918C436.871 148.226 434.249 152.863 433.55 156.404C432.851 159.919 426.91 162.113 426.91 162.113C426.91 162.113 426.91 162.113 425.062 155.855C423.215 149.597 428.482 129.451 432.202 126.434C432.527 126.085 432.851 125.836 433.201 125.562Z" fill="#2B478B"/>
<path d="M429.481 224.67C422.615 240.876 416.349 251.248 415.55 252.594C412.604 257.481 409.434 261.944 406.513 265.859C406.413 265.983 406.338 266.108 406.238 266.233C400.521 273.912 391.783 276.031 392.058 277.951C392.607 281.816 382.845 291.066 366.743 295.18C348.068 299.942 326.398 302.236 320.931 295.928C319.109 293.808 318.484 289.919 318.684 285.082C319.084 274.884 331.941 233.82 331.941 233.82C353.935 167.349 416.898 167.349 416.898 167.349C416.898 167.349 415.675 183.281 431.129 188.791C431.153 188.841 434.748 212.178 429.481 224.67Z" fill="#FFB93E"/>
<path d="M466.455 271.967C466.455 271.967 475.917 275.308 478.513 276.929C481.11 278.549 487.077 286.702 487.751 289.57C488.425 292.437 489.199 300.839 488.724 302.236C488.225 303.632 480.985 298.246 479.387 293.16C477.789 288.074 473.645 286.727 473.795 287.002C473.945 287.276 476.067 293.783 475.617 294.058C475.168 294.332 473.246 294.83 471.498 291.19C469.751 287.55 466.305 284.907 466.954 281.167C467.603 277.427 466.455 271.967 466.455 271.967Z" fill="#FFB27D"/>
<path d="M392.358 278.5C392.907 282.364 382.821 291.091 366.718 295.205C353.287 268.526 378.826 207.441 378.826 207.441L406.488 265.908C400.671 273.737 392.083 276.53 392.358 278.5Z" fill="#FFA412"/>
<path d="M415.525 252.594C412.579 257.481 409.408 261.944 406.487 265.859C406.387 265.983 406.312 266.108 406.213 266.233C402.418 264.762 398.648 261.869 396.751 259.177C392.382 253.043 392.032 216.093 392.032 216.093C392.032 216.093 409.882 238.108 415.525 252.594Z" fill="#FFA412"/>
<path d="M470.075 272.79C470.075 272.79 426.934 260.722 404.79 255.437C406.737 229.332 413.128 150.445 372.909 182.034C372.909 182.034 369.863 266.582 389.361 283.71C389.361 283.71 451.95 285.032 463.883 284.309C463.883 284.309 467.378 282.489 468.252 281.292C471.023 277.452 470.075 272.79 470.075 272.79Z" fill="#FFB93E"/>
<path d="M220.196 399.399L221.793 399.249C221.194 387.68 212.406 381.198 212.406 381.198C206.265 375.762 204.268 369.803 204.268 369.803C204.268 369.803 214.628 357.736 204.917 350.057C204.917 350.057 197.802 345.768 192.035 346.117C192.035 346.117 200.248 359.855 197.577 361.227C194.931 362.598 189.538 345.245 189.538 345.245C189.538 345.245 173.385 343.674 168.168 346.167C168.168 346.167 181.974 357.462 179.078 358.135C176.157 358.808 161.252 347.713 161.252 347.713C161.252 347.713 146.198 350.281 147.022 359.431C147.821 368.607 153.014 371.424 155.285 371.175C157.557 370.925 170.889 365.839 171.188 367.709C171.488 369.579 163.449 375.663 157.832 375.962C157.832 375.962 168.442 387.655 175.483 384.264C182.523 380.899 183.122 375.538 187.516 373.543C191.91 371.549 195.655 371.549 193.857 373.593C192.035 375.638 184.096 377.632 181.574 382.07C179.053 386.508 176.806 389.5 184.096 388.403C191.386 387.306 203.244 381.971 203.768 375.887C203.793 375.613 203.818 375.363 203.843 375.114C203.843 375.588 203.768 375.887 203.768 375.887C205.291 376.161 208.462 378.954 210.734 381.148C211.083 381.522 211.608 382.045 212.356 382.744C212.631 383.018 212.856 383.267 213.031 383.442C217.624 388.503 220.196 399.399 220.196 399.399Z" fill="#82B378"/>
<path d="M240.493 354.619C240.493 354.619 224.015 345.394 231.705 332.878C231.705 332.878 237.871 325.199 244.462 323.229C244.462 323.229 240.942 341.879 244.462 342.328C247.982 342.776 246.884 321.259 246.884 321.259C246.884 321.259 264.26 312.907 271.05 313.58C271.05 313.58 260.29 331.806 263.785 331.357C267.305 330.908 279.389 312.483 279.389 312.483C279.389 312.483 297.189 309.192 300.06 319.738C302.906 330.285 298.313 335.546 295.666 336.194C293.02 336.842 276.093 336.643 276.543 338.837C276.992 341.031 288.401 344.547 294.792 342.577C294.792 342.577 287.752 359.93 278.515 359.032C269.278 358.16 266.432 352.45 260.715 352.001C254.997 351.553 250.828 353.098 253.674 354.644C256.52 356.19 266.207 355.143 270.826 359.057C275.444 362.972 279.189 365.39 270.601 367.136C262.038 368.881 246.634 367.784 243.563 361.202C240.493 354.619 240.493 354.619 240.493 354.619Z" fill="#A8D29F"/>
<path d="M291.921 323.005C291.921 323.005 245.76 337.939 240.492 354.619C240.492 354.619 240.717 362.074 236.099 370.651C236.099 370.651 228.983 381.447 233.028 394.587L234.85 394.088C234.85 394.088 233.252 381.048 236.273 373.494C236.398 373.219 236.573 372.82 236.798 372.322C237.347 371.25 237.721 370.477 237.946 369.903C239.594 366.537 241.965 362.124 243.563 361.202C243.563 361.202 233.252 346.716 291.921 323.005Z" fill="#82B378"/>
<path d="M214.278 341.904C214.278 341.904 235.998 329.761 225.862 313.256C225.862 313.256 217.749 303.133 209.061 300.515C209.061 300.515 213.704 325.099 209.061 325.697C204.417 326.271 205.865 297.922 205.865 297.922C205.865 297.922 182.972 286.927 173.984 287.8C173.984 287.8 188.19 311.81 183.546 311.236C178.902 310.663 162.974 286.353 162.974 286.353C162.974 286.353 139.507 282.015 135.737 295.903C131.967 309.79 138.059 316.747 141.529 317.594C144.999 318.467 167.318 318.168 166.744 321.06C166.17 323.952 151.091 328.59 142.702 325.972C142.702 325.972 151.965 348.835 164.148 347.663C176.306 346.516 180.076 338.987 187.615 338.413C195.155 337.84 200.647 339.859 196.878 341.879C193.108 343.898 180.35 342.552 174.284 347.713C168.192 352.874 163.274 356.066 174.583 358.384C185.893 360.703 206.165 359.257 210.234 350.58C214.278 341.904 214.278 341.904 214.278 341.904Z" fill="#A8D29F"/>
<path d="M220.07 363.022C213.978 351.727 214.278 341.904 214.278 341.904C207.313 319.913 146.472 300.241 146.472 300.241C223.84 331.482 210.209 350.58 210.209 350.58C212.306 351.802 215.426 357.586 217.598 362.024C217.898 362.772 218.397 363.82 219.121 365.241C219.421 365.889 219.645 366.413 219.82 366.787C223.815 376.735 221.693 393.938 221.693 393.938L224.114 394.587C229.457 377.258 220.07 363.022 220.07 363.022Z" fill="#82B378"/>
<path d="M172.437 389.625C172.437 413.112 191.485 432.135 215.003 432.135C219.921 432.135 224.614 431.313 229.008 429.767C245.635 423.982 257.569 408.2 257.569 389.625H172.437Z" fill="#ED7D2B"/>
<path d="M200.447 389.625C200.447 405.557 204.267 421.763 217.249 429.044C219.396 430.266 226.636 428.944 229.008 429.767C245.635 423.982 257.568 408.2 257.568 389.625H200.447Z" fill="#F99746"/>
<path d="M215.003 432.135C216.726 432.36 208.013 432.135 209.81 432.135C233.328 432.135 252.376 413.112 252.376 389.625H241.791C241.816 411.317 236.024 429.542 215.003 432.135Z" fill="#FFB176"/>
<path d="M171.837 434.305H258.143C258.143 432.859 257.543 431.537 256.595 430.59C255.646 429.642 254.323 429.044 252.875 429.044H177.105C174.209 429.069 171.837 431.412 171.837 434.305Z" fill="#ED7D2B"/>
<path d="M212.281 434.305H258.143C258.143 432.859 257.544 431.537 256.595 430.59C255.646 429.642 254.323 429.044 252.875 429.044H217.549C214.628 429.069 212.281 431.412 212.281 434.305Z" fill="#F99746"/>
<path d="M171.467 390.939H258.971V389.642H171.467V390.939Z" fill="#DB6A1F"/>
<path d="M433.225 324.7V341.33C433.225 344.771 430.404 347.563 426.984 347.563H328.595C325.15 347.563 322.354 344.746 322.354 341.33V324.7C322.354 321.259 325.175 318.467 328.595 318.467H426.984C430.429 318.467 433.225 321.284 433.225 324.7Z" fill="#F99746"/>
<path d="M433.225 338.313V341.33C433.225 344.771 430.404 347.563 426.984 347.563H328.595C325.15 347.563 322.354 344.746 322.354 341.33V338.064H431.453C432.052 338.064 432.651 338.139 433.225 338.313Z" fill="#ED7D2B"/>
<path d="M346.021 347.563L341.577 364.343L323.103 434.18H321.155L331.84 376.236C331.84 376.186 331.865 376.111 331.865 376.062L337.133 347.414L346.021 347.563Z" fill="#E8C6A7"/>
<path d="M346.021 347.563L341.577 364.343C341.327 364.468 333.238 368.632 331.865 376.062L337.133 347.414L346.021 347.563Z" fill="#C69D7B"/>
<path d="M433.225 434.18H431.278L416.224 377.283L412.803 364.343L408.359 347.563L417.222 347.414L420.243 363.795L422.49 376.062C422.49 376.111 422.515 376.186 422.515 376.236L433.225 434.18Z" fill="#E8C6A7"/>
<path d="M403.241 369.554C403.241 369.554 403.216 369.554 403.216 369.529C403.167 369.454 403.166 369.479 403.241 369.554Z" fill="#E8C6A7"/>
<path d="M420.268 363.795C418.646 366.163 416.374 370.626 416.249 377.283L412.829 364.343L408.385 347.563L417.248 347.414L420.268 363.795Z" fill="#C69D7B"/>
<path d="M318.185 109.505C315.389 122.719 311.42 134.787 306.302 145.583C306.077 146.081 305.827 146.58 305.578 147.054C305.453 147.303 305.328 147.552 305.203 147.802C304.904 148.425 304.579 149.048 304.255 149.647C304.08 149.971 303.905 150.295 303.73 150.619C303.431 151.217 303.106 151.791 302.782 152.364C302.457 152.963 302.133 153.536 301.808 154.11C301.234 155.107 300.66 156.079 300.085 157.077C299.961 157.276 299.861 157.451 299.736 157.625C299.436 158.124 299.112 158.623 298.787 159.121C298.662 159.321 298.538 159.495 298.413 159.695C298.113 160.168 297.789 160.667 297.464 161.141C297.289 161.39 297.115 161.639 296.965 161.914C296.665 162.362 296.341 162.836 296.016 163.285C295.841 163.534 295.667 163.784 295.492 164.008C295.467 164.033 295.467 164.058 295.442 164.083C295.142 164.532 294.818 164.955 294.493 165.379C294.368 165.554 294.243 165.703 294.119 165.878C293.819 166.302 293.495 166.726 293.17 167.125C292.995 167.349 292.82 167.573 292.646 167.773C292.346 168.172 292.022 168.571 291.697 168.97C291.372 169.369 291.048 169.792 290.698 170.191C290.399 170.565 290.074 170.939 289.75 171.313C289.525 171.588 289.3 171.862 289.051 172.136C289.026 172.161 289.026 172.186 289.001 172.211C288.951 172.261 288.926 172.311 288.876 172.361C288.576 172.71 288.252 173.059 287.927 173.408C287.253 174.181 286.554 174.929 285.855 175.677C285.556 176.001 285.231 176.325 284.906 176.649C284.182 177.397 283.433 178.145 282.685 178.868C282.385 179.167 282.06 179.466 281.736 179.766C281.187 180.289 280.637 180.788 280.088 181.286C280.088 181.286 280.088 181.286 280.063 181.311C279.739 181.586 279.414 181.885 279.089 182.159C278.79 182.433 278.465 182.708 278.141 182.957C276.443 184.403 274.696 185.774 272.923 187.096C272.623 187.32 272.299 187.545 271.974 187.769C270.701 188.691 269.378 189.589 268.055 190.437C267.406 190.861 266.732 191.284 266.057 191.683C264.609 192.581 263.137 193.429 261.639 194.227C260.49 194.85 259.317 195.448 258.143 196.047C256.346 196.919 254.523 197.767 252.651 198.54C252.351 198.665 252.027 198.789 251.702 198.939C251.153 199.163 250.604 199.388 250.055 199.587C249.256 199.886 248.457 200.186 247.658 200.485C245.86 201.133 244.038 201.731 242.19 202.28C241.541 202.479 240.867 202.679 240.218 202.853C237.672 203.576 235.05 204.2 232.379 204.748C230.332 205.172 228.26 205.546 226.138 205.87C221.269 206.618 216.251 207.092 211.009 207.316C210.16 207.366 209.311 207.391 208.437 207.391C207.189 207.416 205.916 207.441 204.642 207.441C203.12 207.441 201.572 207.416 200.024 207.391C186.992 207.092 173.51 205.596 160.478 202.803C159.505 202.604 158.506 202.38 157.533 202.155C145.974 199.512 134.839 195.872 124.753 191.185C124.503 191.06 124.229 190.935 123.979 190.836C121.432 189.639 118.961 188.367 116.589 187.046C90.0509 172.311 73.299 149.422 80.6139 117.857C92.1729 68.8644 160.753 16.3809 222.018 3.51555C311.545 -15.3087 331.966 44.6048 318.185 109.505Z" fill="#EBF3FA"/>
<path d="M268.279 190.437C267.63 190.861 266.956 191.285 266.282 191.683C264.834 192.581 263.361 193.429 261.863 194.227C260.715 194.85 259.541 195.448 258.368 196.047C256.57 196.919 254.748 197.767 252.875 198.54C252.576 198.665 252.251 198.789 251.927 198.939C251.377 199.163 250.828 199.388 250.279 199.587H215.727C215.402 199.587 215.078 199.512 214.803 199.363C214.229 199.064 213.804 198.465 213.729 197.792V197.692V192.307C213.779 191.26 214.653 190.412 215.727 190.412H268.279V190.437Z" fill="#FFB93E"/>
<path d="M252.851 190.437V198.54C252.551 198.665 252.227 198.789 251.902 198.939V190.437H252.851Z" fill="#FFA412"/>
<path d="M244.961 190.437H244.013V199.587H244.961V190.437Z" fill="#FFA412"/>
<path d="M280.262 181.286C279.937 181.586 279.613 181.86 279.288 182.159C278.989 182.433 278.664 182.708 278.34 182.957C276.642 184.403 274.894 185.774 273.122 187.096C272.822 187.32 272.498 187.545 272.173 187.769C270.9 188.692 269.577 189.589 268.253 190.437H217.698C216.625 190.437 215.751 189.589 215.701 188.542C215.701 188.517 215.701 188.467 215.701 188.442V183.281C215.701 183.256 215.701 183.206 215.701 183.181C215.751 182.209 216.5 181.411 217.449 181.311C217.524 181.311 217.599 181.286 217.698 181.286H280.262Z" fill="#FFB93E"/>
<path d="M279.289 181.286V182.159C278.989 182.433 278.664 182.708 278.34 182.957V181.286H279.289Z" fill="#FFA412"/>
<path d="M273.122 181.286V187.096C272.822 187.32 272.497 187.545 272.173 187.769V181.286H273.122Z" fill="#FFA412"/>
<path d="M263.685 181.286H262.736V190.437H263.685V181.286Z" fill="#FFA412"/>
<path d="M254.847 181.286H253.898V190.437H254.847V181.286Z" fill="#FFA412"/>
<path d="M246.933 181.286H245.984V190.437H246.933V181.286Z" fill="#FFA412"/>
<path d="M286.03 172.136V175.677C286.729 174.929 287.428 174.181 288.102 173.408V172.136H286.03ZM286.03 172.136V175.677C286.729 174.929 287.428 174.181 288.102 173.408C288.427 173.059 288.726 172.71 289.051 172.361C289.101 172.311 289.151 172.261 289.176 172.211C289.201 172.186 289.226 172.161 289.226 172.136H286.03ZM286.03 172.136V175.677C286.729 174.929 287.428 174.181 288.102 173.408C288.427 173.059 288.726 172.71 289.051 172.361C289.101 172.311 289.151 172.261 289.176 172.211C289.201 172.186 289.226 172.161 289.226 172.136H286.03ZM286.03 172.136V175.677C286.729 174.929 287.428 174.181 288.102 173.408C288.427 173.059 288.726 172.71 289.051 172.361C289.101 172.311 289.151 172.261 289.176 172.211C289.201 172.186 289.226 172.161 289.226 172.136H286.03ZM286.03 172.136V175.677C286.729 174.929 287.428 174.181 288.102 173.408C288.427 173.059 288.726 172.71 289.051 172.361C289.101 172.311 289.151 172.261 289.176 172.211C289.201 172.186 289.226 172.161 289.226 172.136H286.03ZM286.03 172.136V175.677C286.729 174.929 287.428 174.181 288.102 173.408C288.427 173.059 288.726 172.71 289.051 172.361C289.101 172.311 289.151 172.261 289.176 172.211C289.201 172.186 289.226 172.161 289.226 172.136H286.03ZM286.03 172.136V175.677C286.729 174.929 287.428 174.181 288.102 173.408V172.136H286.03ZM211.658 172.136C211.508 172.136 211.358 172.161 211.233 172.186C211.208 172.186 211.183 172.186 211.183 172.211C210.435 172.41 209.86 173.034 209.711 173.807C209.711 173.857 209.686 173.906 209.686 173.956C209.686 173.981 209.686 174.006 209.686 174.031C209.686 174.056 209.686 174.106 209.686 174.131V179.292C209.686 179.317 209.686 179.367 209.686 179.392C209.686 179.441 209.686 179.491 209.686 179.541C209.711 179.641 209.711 179.716 209.735 179.815C209.96 180.663 210.734 181.311 211.658 181.311H280.263C280.263 181.311 280.288 181.311 280.288 181.286C280.837 180.788 281.411 180.289 281.936 179.766C282.26 179.466 282.56 179.167 282.884 178.868C283.633 178.145 284.382 177.397 285.106 176.649C285.431 176.325 285.73 176.001 286.055 175.677C286.754 174.929 287.453 174.181 288.127 173.408C288.452 173.059 288.751 172.71 289.076 172.361C289.126 172.311 289.176 172.261 289.201 172.211C289.226 172.186 289.251 172.161 289.251 172.136H211.658Z" fill="#FFB93E"/>
<path d="M255.597 181.286H211.433C210.484 181.286 209.71 180.439 209.66 179.391C209.66 179.366 209.66 179.317 209.66 179.292V174.131C209.66 174.106 209.66 174.056 209.66 174.031C209.66 174.006 209.66 173.981 209.66 173.956C209.735 173.083 210.309 172.385 211.033 172.211C211.058 172.211 211.083 172.186 211.108 172.186C211.208 172.161 211.308 172.161 211.433 172.161H250.154C250.154 172.186 250.154 172.211 250.179 172.236C250.803 174.879 252.251 178.569 255.597 181.286C255.572 181.286 255.572 181.286 255.597 181.286Z" fill="#FFA412"/>
<path d="M286.03 172.136V175.677C285.73 176.001 285.406 176.325 285.081 176.649V172.136H286.03Z" fill="#FFA412"/>
<path d="M282.859 172.136V178.868C282.559 179.167 282.235 179.466 281.91 179.766V172.161H282.859V172.136Z" fill="#FFA412"/>
<path d="M279.064 172.136H278.115V181.286H279.064V172.136Z" fill="#FFA412"/>
<path d="M273.248 172.136H272.299V181.286H273.248V172.136Z" fill="#FFA412"/>
<path d="M267.081 172.136H266.132V181.286H267.081V172.136Z" fill="#FFA412"/>
<path d="M257.619 172.136H256.67V181.286H257.619V172.136Z" fill="#FFA412"/>
<path d="M248.782 172.136H247.833V181.286H248.782V172.136Z" fill="#FFA412"/>
<path d="M240.892 172.136H239.943V181.286H240.892V172.136Z" fill="#FFA412"/>
<path d="M289.05 172.136V172.361C288.751 172.71 288.426 173.059 288.102 173.408V172.136H289.05Z" fill="#FFA412"/>
<path d="M289.175 163.285V163.061H288.876V172.136H289.225C289.475 171.862 289.699 171.588 289.924 171.313C290.249 170.939 290.548 170.565 290.873 170.191V163.26H289.175V163.285ZM295.541 163.933C295.491 163.858 295.417 163.784 295.367 163.709L295.342 163.684C295.342 163.684 295.342 163.684 295.317 163.659C295.292 163.634 295.292 163.634 295.267 163.609C295.242 163.584 295.217 163.559 295.192 163.559C295.167 163.534 295.142 163.509 295.117 163.509C295.067 163.484 295.017 163.435 294.967 163.41C294.892 163.36 294.842 163.335 294.767 163.285C294.742 163.26 294.693 163.26 294.668 163.235C294.643 163.235 294.643 163.21 294.618 163.21C294.593 163.21 294.593 163.185 294.568 163.185C294.443 163.135 294.318 163.11 294.193 163.086H294.168H294.143C294.118 163.086 294.118 163.086 294.093 163.086H294.068H294.043C294.018 163.086 294.018 163.086 293.993 163.086C293.944 163.086 293.894 163.086 293.844 163.086H211.483C210.409 163.086 209.535 163.933 209.485 164.98C209.485 165.005 209.485 165.055 209.485 165.08V170.241C209.485 170.266 209.485 170.316 209.485 170.341C209.485 170.391 209.485 170.466 209.51 170.516C209.635 171.363 210.284 172.036 211.133 172.186C211.158 172.186 211.208 172.186 211.233 172.211C211.308 172.211 211.408 172.236 211.483 172.236H289.175C289.2 172.211 289.225 172.186 289.225 172.161C289.475 171.887 289.699 171.613 289.924 171.338C290.249 170.964 290.548 170.59 290.873 170.216C291.197 169.817 291.547 169.418 291.871 168.995C292.196 168.596 292.496 168.197 292.82 167.798C292.995 167.573 293.17 167.349 293.344 167.15C293.669 166.751 293.969 166.327 294.293 165.903C294.418 165.728 294.543 165.579 294.668 165.404C294.992 164.98 295.292 164.557 295.616 164.108C295.641 164.083 295.641 164.058 295.666 164.033C295.566 163.983 295.566 163.958 295.541 163.933ZM289.175 163.285V163.061H288.876V172.136H289.225C289.475 171.862 289.699 171.588 289.924 171.313C290.249 170.939 290.548 170.565 290.873 170.191V163.26H289.175V163.285Z" fill="#FFB93E"/>
<path d="M255.422 172.211H211.258C211.233 172.211 211.183 172.211 211.158 172.211C211.108 172.211 211.083 172.211 211.033 172.211C210.184 172.086 209.51 171.313 209.485 170.341C209.485 170.316 209.485 170.266 209.485 170.241V165.055C209.485 165.03 209.485 164.98 209.485 164.955C209.535 163.908 210.309 163.061 211.258 163.061H249.979C250.004 163.135 250.004 163.21 250.029 163.285C250.678 165.928 252.101 169.493 255.322 172.136C255.372 172.161 255.397 172.186 255.422 172.211Z" fill="#FFA412"/>
<path d="M285.855 163.061H284.906V172.211H285.855V163.061Z" fill="#FFA412"/>
<path d="M282.684 163.061H281.735V172.211H282.684V163.061Z" fill="#FFA412"/>
<path d="M278.889 163.061H277.94V172.211H278.889V163.061Z" fill="#FFA412"/>
<path d="M273.073 163.061H272.124V172.211H273.073V163.061Z" fill="#FFA412"/>
<path d="M266.906 163.061H265.957V172.211H266.906V163.061Z" fill="#FFA412"/>
<path d="M257.444 163.061H256.495V172.211H257.444V163.061Z" fill="#FFA412"/>
<path d="M248.607 163.061H247.658V172.211H248.607V163.061Z" fill="#FFA412"/>
<path d="M240.717 163.061H239.769V172.211H240.717V163.061Z" fill="#FFA412"/>
<path d="M288.875 163.061H287.927V172.211H288.875V163.061Z" fill="#FFA412"/>
<path d="M290.872 163.061V170.216C290.573 170.59 290.248 170.964 289.924 171.338V163.061H290.872Z" fill="#FFA412"/>
<path d="M292.795 163.061V167.798C292.496 168.197 292.171 168.596 291.847 168.995V163.061H292.795Z" fill="#FFA412"/>
<path d="M294.243 163.086V165.878C293.943 166.302 293.618 166.726 293.294 167.125V163.061H293.868C293.918 163.061 293.968 163.061 294.018 163.061C294.043 163.061 294.043 163.061 294.068 163.061H294.093C294.118 163.061 294.118 163.061 294.118 163.061C294.118 163.061 294.143 163.061 294.168 163.061H294.193C294.218 163.086 294.218 163.086 294.243 163.086Z" fill="#FFA412"/>
<path d="M300.135 156.129V157.102C300.01 157.301 299.91 157.476 299.786 157.65C299.486 158.149 299.161 158.648 298.837 159.146C298.712 159.346 298.587 159.52 298.462 159.72C298.163 160.193 297.838 160.692 297.514 161.166C297.339 161.415 297.164 161.664 297.014 161.939C296.715 162.387 296.39 162.861 296.066 163.31H215.727C215.402 163.31 215.078 163.235 214.803 163.086C214.379 162.861 214.054 162.512 213.879 162.088C213.804 161.914 213.754 161.714 213.729 161.515V161.415V156.054C213.754 155.83 213.804 155.606 213.879 155.406C214.179 154.683 214.903 154.185 215.727 154.185H298.138C298.263 154.185 298.387 154.185 298.487 154.209C298.612 154.234 298.737 154.259 298.862 154.309C299.236 154.459 299.561 154.708 299.81 155.057C300.01 155.331 300.135 155.705 300.135 156.129Z" fill="#FFB93E"/>
<path d="M259.666 163.285H215.527C215.228 163.285 214.953 163.21 214.704 163.061C214.179 162.761 213.805 162.163 213.755 161.49C213.755 161.465 213.755 161.44 213.755 161.39C213.755 161.365 213.755 161.315 213.755 161.29V156.129C213.755 156.104 213.755 156.054 213.755 156.03C213.805 154.982 214.579 154.135 215.527 154.135H254.249C254.848 156.753 256.221 160.343 259.392 163.061C259.492 163.135 259.591 163.21 259.666 163.285Z" fill="#FFA412"/>
<path d="M290.123 154.135H289.175V163.285H290.123V154.135Z" fill="#FFA412"/>
<path d="M286.953 154.135H286.004V163.285H286.953V154.135Z" fill="#FFA412"/>
<path d="M283.159 154.135H282.21V163.285H283.159V154.135Z" fill="#FFA412"/>
<path d="M277.317 154.135H276.368V163.285H277.317V154.135Z" fill="#FFA412"/>
<path d="M271.15 154.135H270.201V163.285H271.15V154.135Z" fill="#FFA412"/>
<path d="M261.713 154.135H260.765V163.285H261.713V154.135Z" fill="#FFA412"/>
<path d="M252.875 154.135H251.927V163.285H252.875V154.135Z" fill="#FFA412"/>
<path d="M244.961 154.135H244.013V163.285H244.961V154.135Z" fill="#FFA412"/>
<path d="M293.145 154.135H292.196V163.285H293.145V154.135Z" fill="#FFA412"/>
<path d="M295.142 154.135H294.193V163.285H295.142V154.135Z" fill="#FFA412"/>
<path d="M297.04 154.135V161.914C296.74 162.363 296.415 162.836 296.091 163.285V154.135H297.04Z" fill="#FFA412"/>
<path d="M298.487 154.16V159.72C298.187 160.193 297.863 160.692 297.538 161.166V154.16H298.112C298.262 154.135 298.387 154.135 298.487 154.16Z" fill="#FFA412"/>
<path d="M299.786 155.007V157.65C299.486 158.149 299.161 158.648 298.837 159.146V154.259C299.236 154.409 299.561 154.683 299.786 155.007Z" fill="#FFA412"/>
<path d="M306.302 145.583C306.077 146.081 305.828 146.58 305.578 147.054C305.453 147.303 305.329 147.552 305.204 147.802C304.904 148.425 304.58 149.048 304.255 149.647C304.08 149.971 303.905 150.295 303.731 150.619C303.431 151.218 303.107 151.791 302.782 152.364C302.457 152.963 302.133 153.536 301.808 154.11H222.418C221.345 154.11 220.471 153.262 220.421 152.215C220.421 152.19 220.421 152.14 220.421 152.115V146.954C220.421 146.929 220.421 146.879 220.421 146.854C220.471 145.882 221.22 145.084 222.168 144.984C222.243 144.984 222.318 144.959 222.393 144.959H294.219H304.804C304.929 144.959 305.054 144.984 305.154 144.984C305.279 145.009 305.403 145.034 305.528 145.084C305.553 145.109 305.603 145.109 305.628 145.134C305.653 145.134 305.678 145.159 305.703 145.159C305.778 145.184 305.828 145.234 305.903 145.284C305.928 145.308 305.953 145.308 305.978 145.333C305.978 145.333 306.003 145.333 306.003 145.358C306.028 145.383 306.053 145.383 306.053 145.408C306.202 145.483 306.252 145.533 306.302 145.583Z" fill="#FFB93E"/>
<path d="M266.408 154.135H222.269C221.32 154.135 220.546 153.287 220.496 152.24C220.496 152.215 220.496 152.165 220.496 152.14V146.979C220.496 146.954 220.496 146.904 220.496 146.879C220.546 145.907 221.22 145.109 222.069 145.009C222.144 145.009 222.219 144.984 222.269 144.984H260.99C260.99 144.984 260.99 144.984 260.99 145.009C261.614 147.702 263.062 151.417 266.408 154.135Z" fill="#FFA412"/>
<path d="M296.865 144.984H295.916V154.135H296.865V144.984Z" fill="#FFA412"/>
<path d="M293.694 144.984H292.745V154.135H293.694V144.984Z" fill="#FFA412"/>
<path d="M289.874 144.984H288.926V154.135H289.874V144.984Z" fill="#FFA412"/>
<path d="M284.058 144.984H283.109V154.135H284.058V144.984Z" fill="#FFA412"/>
<path d="M277.891 144.984H276.942V154.135H277.891V144.984Z" fill="#FFA412"/>
<path d="M268.455 144.984H267.506V154.135H268.455V144.984Z" fill="#FFA412"/>
<path d="M259.592 144.984H258.644V154.135H259.592V144.984Z" fill="#FFA412"/>
<path d="M251.703 144.984H250.754V154.135H251.703V144.984Z" fill="#FFA412"/>
<path d="M299.886 144.984H298.938V154.135H299.886V144.984Z" fill="#FFA412"/>
<path d="M301.858 144.984H300.909V154.135H301.858V144.984Z" fill="#FFA412"/>
<path d="M303.781 144.984V150.644C303.481 151.242 303.157 151.816 302.832 152.389V144.984H303.781Z" fill="#FFA412"/>
<path d="M305.228 145.009V147.802C304.928 148.425 304.604 149.048 304.279 149.647V144.959H304.853C305.003 144.984 305.103 145.009 305.228 145.009Z" fill="#FFA412"/>
<path d="M306.302 145.583C306.077 146.081 305.828 146.58 305.578 147.054V145.109C305.603 145.134 305.653 145.134 305.678 145.159C305.703 145.159 305.728 145.184 305.753 145.184C305.828 145.209 305.878 145.259 305.953 145.308C305.978 145.333 306.003 145.333 306.027 145.358C306.027 145.358 306.052 145.358 306.052 145.383C306.077 145.408 306.102 145.408 306.102 145.433C306.202 145.483 306.252 145.533 306.302 145.583Z" fill="#FFA412"/>
<path d="M296.041 137.853V143.014C296.041 143.438 295.916 143.812 295.691 144.136C295.466 144.461 295.142 144.735 294.767 144.884C294.643 144.934 294.518 144.959 294.393 144.984C294.343 144.984 294.318 145.009 294.268 145.009C294.243 145.009 294.218 145.009 294.168 145.009C294.143 145.009 294.143 145.009 294.118 145.009C294.093 145.009 294.043 145.009 294.018 145.009H211.657C210.584 145.009 209.71 144.161 209.66 143.114C209.66 143.089 209.66 143.039 209.66 143.014V137.853C209.66 137.828 209.66 137.779 209.66 137.754C209.71 136.706 210.584 135.859 211.657 135.859H294.068C294.093 135.859 294.143 135.859 294.168 135.859C294.243 135.859 294.343 135.884 294.418 135.884C294.543 135.909 294.668 135.934 294.792 135.983C294.842 136.008 294.917 136.033 294.967 136.058C294.992 136.083 295.042 136.083 295.067 136.108C295.092 136.133 295.142 136.158 295.167 136.183C295.167 136.183 295.167 136.183 295.192 136.183C295.217 136.208 295.242 136.233 295.292 136.258C295.367 136.308 295.416 136.357 295.491 136.432C295.516 136.457 295.541 136.482 295.541 136.482C295.541 136.482 295.566 136.507 295.566 136.532C295.591 136.557 295.616 136.582 295.616 136.607C295.641 136.632 295.666 136.682 295.691 136.706C295.916 137.056 296.041 137.43 296.041 137.853Z" fill="#FFB93E"/>
<path d="M255.597 145.009H211.433C210.484 145.009 209.71 144.161 209.66 143.114C209.66 143.089 209.66 143.039 209.66 143.014V137.853C209.66 137.828 209.66 137.779 209.66 137.754C209.71 136.706 210.484 135.859 211.433 135.859H250.154C250.179 135.934 250.179 136.008 250.204 136.058C250.853 138.726 252.301 142.316 255.597 145.009C255.572 144.984 255.572 144.984 255.597 145.009Z" fill="#FFA412"/>
<path d="M286.03 135.859H285.081V145.009H286.03V135.859Z" fill="#FFA412"/>
<path d="M282.859 135.859H281.91V145.009H282.859V135.859Z" fill="#FFA412"/>
<path d="M279.064 135.859H278.115V145.009H279.064V135.859Z" fill="#FFA412"/>
<path d="M273.248 135.859H272.299V145.009H273.248V135.859Z" fill="#FFA412"/>
<path d="M267.081 135.859H266.132V145.009H267.081V135.859Z" fill="#FFA412"/>
<path d="M257.619 135.859H256.67V145.009H257.619V135.859Z" fill="#FFA412"/>
<path d="M248.782 135.859H247.833V145.009H248.782V135.859Z" fill="#FFA412"/>
<path d="M240.892 135.859H239.943V145.009H240.892V135.859Z" fill="#FFA412"/>
<path d="M289.05 135.859H288.102V145.009H289.05V135.859Z" fill="#FFA412"/>
<path d="M291.047 135.859H290.099V145.009H291.047V135.859Z" fill="#FFA412"/>
<path d="M292.97 135.859H292.021V145.009H292.97V135.859Z" fill="#FFA412"/>
<path d="M294.418 135.884V144.959C294.293 144.984 294.193 144.984 294.068 144.984H293.494V135.834H294.068C294.168 135.859 294.293 135.859 294.418 135.884Z" fill="#FFA412"/>
<path d="M295.716 136.732V144.112C295.491 144.436 295.166 144.71 294.792 144.86V135.984C295.166 136.133 295.491 136.407 295.716 136.732Z" fill="#FFA412"/>
<path d="M302.107 128.903V134.064C302.107 134.488 301.982 134.862 301.757 135.186C301.532 135.51 301.208 135.784 300.833 135.934C300.709 135.984 300.584 136.008 300.459 136.033C300.334 136.058 300.234 136.058 300.109 136.058H217.698C217.374 136.058 217.074 135.984 216.8 135.859C216.2 135.56 215.776 134.961 215.701 134.263C215.701 134.238 215.701 134.213 215.701 134.188C215.701 134.163 215.701 134.114 215.701 134.089V128.903C215.701 128.878 215.701 128.828 215.701 128.803C215.751 127.831 216.5 127.033 217.449 126.933C217.524 126.933 217.599 126.908 217.673 126.908H300.084C300.209 126.908 300.309 126.908 300.434 126.933C300.559 126.958 300.684 126.983 300.808 127.033C301.183 127.182 301.507 127.432 301.732 127.781C301.982 128.105 302.107 128.504 302.107 128.903Z" fill="#FFB93E"/>
<path d="M261.638 136.058H217.499C217.225 136.058 216.95 135.984 216.7 135.859C216.176 135.56 215.776 134.961 215.727 134.263C215.727 134.238 215.727 134.213 215.727 134.188C215.727 134.163 215.727 134.114 215.727 134.089V128.903C215.727 128.878 215.727 128.828 215.727 128.803C215.776 127.831 216.451 127.033 217.299 126.933C217.374 126.933 217.449 126.908 217.499 126.908H256.221C256.221 126.908 256.221 126.908 256.221 126.933C256.82 129.551 258.218 133.141 261.388 135.859C261.463 135.934 261.563 135.984 261.638 136.058Z" fill="#FFA412"/>
<path d="M292.095 126.908H291.146V136.058H292.095V126.908Z" fill="#FFA412"/>
<path d="M288.924 126.908H287.976V136.058H288.924V126.908Z" fill="#FFA412"/>
<path d="M285.13 126.908H284.182V136.058H285.13V126.908Z" fill="#FFA412"/>
<path d="M279.289 126.908H278.34V136.058H279.289V126.908Z" fill="#FFA412"/>
<path d="M273.122 126.908H272.173V136.058H273.122V126.908Z" fill="#FFA412"/>
<path d="M263.685 126.908H262.736V136.058H263.685V126.908Z" fill="#FFA412"/>
<path d="M254.847 126.908H253.898V136.058H254.847V126.908Z" fill="#FFA412"/>
<path d="M246.933 126.908H245.984V136.058H246.933V126.908Z" fill="#FFA412"/>
<path d="M295.117 126.908H294.168V136.058H295.117V126.908Z" fill="#FFA412"/>
<path d="M297.114 126.908H296.165V136.058H297.114V126.908Z" fill="#FFA412"/>
<path d="M299.036 126.908H298.087V136.058H299.036V126.908Z" fill="#FFA412"/>
<path d="M300.459 126.933V136.009C300.334 136.033 300.234 136.033 300.109 136.033H299.535V126.908H300.109C300.234 126.908 300.359 126.933 300.459 126.933Z" fill="#FFA412"/>
<path d="M301.758 127.781V135.161C301.533 135.485 301.208 135.759 300.834 135.909V127.033C301.208 127.182 301.533 127.457 301.758 127.781Z" fill="#FFA412"/>
<path d="M296.041 119.777V124.938C296.041 125.362 295.916 125.736 295.691 126.06C295.466 126.384 295.142 126.659 294.767 126.808C294.643 126.858 294.518 126.883 294.393 126.908C294.343 126.908 294.318 126.933 294.268 126.933C294.243 126.933 294.218 126.933 294.193 126.933C294.168 126.933 294.143 126.933 294.118 126.933C294.093 126.933 294.043 126.933 294.018 126.933H211.657C210.584 126.933 209.71 126.085 209.66 125.038C209.66 125.013 209.66 124.963 209.66 124.938V119.777C209.66 119.752 209.66 119.702 209.66 119.677C209.71 118.63 210.584 117.782 211.657 117.782H294.068C294.193 117.782 294.293 117.782 294.418 117.807C294.543 117.832 294.668 117.857 294.792 117.907C295.167 118.057 295.491 118.306 295.716 118.655C295.916 118.979 296.041 119.353 296.041 119.777Z" fill="#FFB93E"/>
<path d="M255.597 126.933H211.433C210.484 126.933 209.71 126.085 209.66 125.038C209.66 125.013 209.66 124.963 209.66 124.938V119.777C209.66 119.752 209.66 119.702 209.66 119.677C209.71 118.63 210.484 117.782 211.433 117.782H250.154C250.778 120.475 252.226 124.19 255.597 126.933C255.572 126.908 255.572 126.933 255.597 126.933Z" fill="#FFA412"/>
<path d="M286.03 117.783H285.081V126.933H286.03V117.783Z" fill="#FFA412"/>
<path d="M282.859 117.783H281.91V126.933H282.859V117.783Z" fill="#FFA412"/>
<path d="M279.064 117.783H278.115V126.933H279.064V117.783Z" fill="#FFA412"/>
<path d="M273.248 117.783H272.299V126.933H273.248V117.783Z" fill="#FFA412"/>
<path d="M267.081 117.783H266.132V126.933H267.081V117.783Z" fill="#FFA412"/>
<path d="M257.619 117.783H256.67V126.933H257.619V117.783Z" fill="#FFA412"/>
<path d="M248.782 117.783H247.833V126.933H248.782V117.783Z" fill="#FFA412"/>
<path d="M240.892 117.782H239.943V126.933H240.892V117.782Z" fill="#FFA412"/>
<path d="M289.05 117.783H288.102V126.933H289.05V117.783Z" fill="#FFA412"/>
<path d="M291.047 117.783H290.099V126.933H291.047V117.783Z" fill="#FFA412"/>
<path d="M292.97 117.783H292.021V126.933H292.97V117.783Z" fill="#FFA412"/>
<path d="M294.418 117.808V126.883C294.293 126.908 294.193 126.908 294.068 126.908H293.494V117.758H294.068C294.168 117.783 294.293 117.783 294.418 117.808Z" fill="#FFA412"/>
<path d="M295.716 118.655V126.035C295.491 126.36 295.166 126.634 294.792 126.783V117.907C295.166 118.057 295.491 118.331 295.716 118.655Z" fill="#FFA412"/>
<path d="M266.282 100.754L226.212 56.0739C221.893 51.2619 213.904 54.3037 213.904 60.7862V173.358C213.904 173.358 266.282 180.613 266.282 173.358C266.282 166.077 266.282 100.754 266.282 100.754Z" fill="#ED7D2B"/>
<path d="M196.055 171.787L213.605 169.543C213.605 169.543 212.132 158.747 214.629 144.137C216.476 133.366 220.471 120.5 228.834 108.408C243.09 87.7884 287.428 74.7486 287.428 74.7486L287.328 72.1556L285.706 72.0558C285.706 72.0558 286.38 71.5322 287.278 71.2331L287.029 65.1245C285.706 65.1494 283.808 65.324 281.961 65.8226C283.009 65.5234 285.206 64.925 287.004 64.7006L286.879 61.4843C222.044 65.8974 202.496 105.94 197.103 136.507C193.683 156.079 196.055 171.787 196.055 171.787Z" fill="#82B378"/>
<path d="M118.712 169.269L196.055 171.787C195.955 159.919 198.551 147.527 201.173 138.103C203.794 128.678 206.416 122.221 206.416 122.221C227.387 70.8092 286.904 61.4843 286.904 61.4843L219.398 37.0751C187.442 40.815 165.572 57.1211 150.643 77.0673C121.383 116.162 118.712 169.269 118.712 169.269Z" fill="#A8D29F"/>
<path opacity="0.5" d="M118.712 169.269L196.055 171.787L213.606 169.543C213.606 169.543 212.133 158.747 214.629 144.137C210.859 142.067 206.416 140.048 201.148 138.078C199.775 137.554 198.427 137.031 197.128 136.507C147.098 115.913 150.218 80.4831 150.643 77.0673C121.383 116.162 118.712 169.269 118.712 169.269Z" fill="#82B378"/>
<path d="M219.123 41.0394H218.923C218.349 41.0394 204.518 41.4134 187.117 50.5388C176.906 55.8744 167.619 63.1548 159.481 72.1306C156.335 75.5963 153.364 79.3362 150.568 83.3255C147.422 87.8134 144.501 92.6005 141.83 97.7117C140.407 100.404 139.059 103.172 137.786 106.039C137.686 106.289 137.561 106.538 137.436 106.812C136.462 109.006 135.539 111.25 134.64 113.519C134.29 114.367 128.623 128.628 125.552 143.189C125.228 144.735 124.928 146.256 124.679 147.802C124.504 148.849 124.354 149.871 124.204 150.893C123.855 153.511 123.63 156.079 123.605 158.473C123.58 159.745 123.63 160.966 123.705 162.138V162.163L124.304 168.222L124.429 169.518L124.629 171.463L124.828 173.433L124.903 174.131L125.003 175.028L174.01 171.987L178.055 171.737L178.529 171.712L181.176 171.563L183.822 171.413L193.658 170.815L193.359 169.518C193.309 169.344 190.038 154.309 193.908 135.186C194.008 134.737 194.108 134.263 194.207 133.814C194.507 132.393 194.857 130.972 195.256 129.526C195.556 128.404 195.88 127.282 196.23 126.135C196.604 124.913 197.029 123.717 197.453 122.52C197.503 122.37 197.553 122.221 197.603 122.071C199.575 116.71 202.047 111.624 205.018 106.812C205.167 106.563 205.342 106.289 205.492 106.039C207.289 103.172 209.287 100.38 211.459 97.7117C212.233 96.7393 213.031 95.7919 213.88 94.8694C215.253 93.2986 216.701 91.7777 218.199 90.3067C220.072 88.4616 222.044 86.6665 224.091 84.9461L224.116 84.9212C229.309 80.6078 235.101 76.6684 241.467 73.1279C241.991 72.8287 242.541 72.5296 243.09 72.2304C243.09 72.2304 243.09 72.2304 243.115 72.2304C243.115 72.2304 243.115 72.2304 243.14 72.2304C251.279 67.8921 260.341 64.1771 270.277 61.1602L273.623 60.138L219.123 41.0394ZM260.341 62.0827C253.001 64.7755 246.186 67.8921 239.919 71.3826C230.982 76.3692 223.167 82.1536 216.552 88.7109C215.653 89.6085 214.754 90.5061 213.905 91.4536C212.033 93.4731 210.235 95.5675 208.563 97.7117C202.421 105.64 197.728 114.442 194.532 124.016C194.407 124.365 194.307 124.714 194.207 125.038C194.158 125.188 194.108 125.362 194.058 125.537C193.384 127.731 192.784 129.875 192.31 131.994C192.135 132.742 191.961 133.465 191.811 134.188C191.636 135.036 191.461 135.859 191.311 136.682C189.863 144.635 189.639 151.641 189.764 156.728C189.913 162.462 190.538 166.651 190.887 168.67L180.851 169.269L178.205 169.418L177.63 169.443L173.661 169.693L159.231 170.565H159.206L127.075 172.535L126.776 169.518L126.002 161.864C125.902 160.792 125.877 159.645 125.902 158.398C125.952 154.16 126.651 149.023 127.924 143.114C128.698 139.574 129.672 135.734 130.87 131.67C133.716 121.996 136.762 114.367 136.787 114.292C137.786 111.724 138.834 109.206 139.933 106.737C140.032 106.513 140.132 106.289 140.232 106.064C141.555 103.172 142.928 100.38 144.401 97.6618C146.449 93.8471 148.621 90.2319 150.917 86.7662C154.063 82.0539 157.458 77.6907 161.103 73.6765C169.042 64.9001 178.105 57.7943 188.041 52.5833C198.826 46.8986 208.363 44.7045 213.88 43.8319C216.776 43.3831 219.747 43.6574 222.518 44.6297L260.291 57.8691C262.288 58.5672 262.313 61.3597 260.341 62.0827Z" fill="#82B378"/>
<path d="M158.732 94.5702C159.206 105.865 166.121 112.422 177.431 111.973C188.74 111.5 200.174 104.194 199.725 92.8997C199.251 81.6051 192.71 75.0976 181.4 75.5714C170.066 76.0202 158.257 83.2756 158.732 94.5702Z" fill="#82B378"/>
<path d="M266.283 100.753V191.683C264.835 192.581 263.362 193.429 261.864 194.227C260.715 194.85 259.542 195.448 258.369 196.047C256.571 196.919 254.749 197.767 252.876 198.54C252.577 198.665 252.252 198.789 251.928 198.939C251.378 199.163 250.829 199.388 250.28 199.587C249.481 199.886 248.682 200.186 247.883 200.485C246.086 201.133 244.263 201.731 242.416 202.28C241.767 202.479 241.093 202.679 240.443 202.853C237.897 203.576 235.276 204.2 232.604 204.748C230.557 205.272 228.46 205.646 226.363 205.87C221.495 206.618 216.477 207.092 211.234 207.316C210.385 207.366 209.536 207.391 208.662 207.391C207.414 207.416 206.141 207.441 204.868 207.441C203.345 207.441 201.797 207.416 200.249 207.391C187.217 207.092 173.736 205.596 160.704 202.803C159.73 202.604 158.731 202.38 157.758 202.155C146.199 199.512 135.064 195.872 124.978 191.185C124.729 191.06 124.454 190.935 124.204 190.836C121.658 189.639 119.186 188.367 116.814 187.046V100.753C116.814 99.083 118.188 97.7117 119.86 97.7117H263.237C263.362 97.7117 263.462 97.7117 263.586 97.7366C265.084 97.8862 266.283 99.1827 266.283 100.753Z" fill="#F99746"/>
<path d="M129.821 106.014H127.274C127.075 106.014 126.9 106.189 126.9 106.388C126.9 106.613 127.075 106.762 127.274 106.762H129.821C130.021 106.762 130.195 106.588 130.195 106.388C130.195 106.189 130.021 106.014 129.821 106.014ZM134.914 106.014H132.367C132.168 106.014 131.993 106.189 131.993 106.388C131.993 106.613 132.168 106.762 132.367 106.762H134.914C135.139 106.762 135.288 106.588 135.288 106.388C135.288 106.189 135.114 106.014 134.914 106.014ZM140.256 106.114C140.182 106.064 140.107 106.014 140.007 106.014H137.46C137.236 106.014 137.086 106.189 137.086 106.388C137.086 106.588 137.261 106.762 137.46 106.762C137.46 106.762 137.46 106.762 137.485 106.762H140.032C140.232 106.762 140.406 106.588 140.406 106.388C140.406 106.289 140.331 106.164 140.256 106.114ZM145.1 106.014H142.553C142.329 106.014 142.179 106.189 142.179 106.388C142.179 106.613 142.354 106.762 142.553 106.762H145.1C145.3 106.762 145.474 106.588 145.474 106.388C145.499 106.189 145.324 106.014 145.1 106.014ZM150.218 106.014H147.671C147.447 106.014 147.297 106.189 147.297 106.388C147.297 106.613 147.472 106.762 147.671 106.762H150.218C150.417 106.762 150.592 106.588 150.592 106.388C150.592 106.189 150.417 106.014 150.218 106.014ZM155.311 106.014H152.764C152.564 106.014 152.39 106.189 152.39 106.388C152.39 106.613 152.564 106.762 152.764 106.762H155.311C155.535 106.762 155.685 106.588 155.685 106.388C155.685 106.189 155.51 106.014 155.311 106.014ZM160.404 106.014H157.857C157.657 106.014 157.483 106.189 157.483 106.388C157.483 106.613 157.657 106.762 157.857 106.762H160.404C160.628 106.762 160.778 106.588 160.778 106.388C160.778 106.189 160.628 106.014 160.404 106.014ZM165.497 106.014H162.95C162.8 106.014 162.7 106.089 162.626 106.214C162.601 106.264 162.576 106.338 162.576 106.413C162.576 106.638 162.75 106.787 162.95 106.787H165.497C165.696 106.787 165.871 106.613 165.871 106.413C165.896 106.189 165.721 106.014 165.497 106.014ZM170.615 106.014H168.068C167.843 106.014 167.694 106.189 167.694 106.388C167.694 106.613 167.868 106.762 168.068 106.762H170.615C170.814 106.762 170.989 106.588 170.989 106.388C170.989 106.189 170.814 106.014 170.615 106.014ZM175.707 106.014H173.161C172.936 106.014 172.786 106.189 172.786 106.388C172.786 106.613 172.961 106.762 173.161 106.762H175.707C175.932 106.762 176.082 106.588 176.082 106.388C176.082 106.189 175.907 106.014 175.707 106.014ZM180.8 106.014H178.254C178.054 106.014 177.879 106.189 177.879 106.388C177.879 106.613 178.054 106.762 178.254 106.762H180.8C181.025 106.762 181.175 106.588 181.175 106.388C181.175 106.189 181 106.014 180.8 106.014ZM185.893 106.014H183.347C183.147 106.014 182.972 106.189 182.972 106.388C182.972 106.613 183.147 106.762 183.347 106.762H185.893C186.118 106.762 186.268 106.588 186.268 106.388C186.293 106.189 186.118 106.014 185.893 106.014ZM190.986 106.014H188.44C188.24 106.014 188.065 106.189 188.065 106.388C188.065 106.613 188.24 106.762 188.44 106.762H190.986C191.186 106.762 191.361 106.588 191.361 106.388C191.386 106.189 191.211 106.014 190.986 106.014ZM196.104 106.014H193.558C193.358 106.014 193.183 106.164 193.183 106.363V106.388C193.183 106.613 193.358 106.762 193.558 106.762H196.104C196.304 106.762 196.479 106.588 196.479 106.388C196.479 106.189 196.304 106.014 196.104 106.014ZM201.197 106.014H198.651C198.426 106.014 198.276 106.189 198.276 106.388C198.276 106.613 198.451 106.762 198.651 106.762H201.197C201.397 106.762 201.572 106.588 201.572 106.388C201.572 106.189 201.397 106.014 201.197 106.014ZM206.29 106.014H203.744C203.544 106.014 203.369 106.189 203.369 106.388C203.369 106.613 203.544 106.762 203.744 106.762H206.29C206.515 106.762 206.665 106.588 206.665 106.388C206.665 106.189 206.515 106.014 206.29 106.014ZM211.383 106.014H208.837C208.637 106.014 208.462 106.189 208.462 106.388C208.462 106.613 208.637 106.762 208.837 106.762H211.383C211.583 106.762 211.758 106.588 211.758 106.388C211.783 106.189 211.608 106.014 211.383 106.014ZM216.476 106.014H213.93C213.905 106.014 213.905 106.014 213.88 106.014C213.68 106.039 213.53 106.189 213.53 106.388C213.53 106.588 213.68 106.737 213.88 106.762C213.905 106.762 213.905 106.762 213.93 106.762H216.476C216.701 106.762 216.851 106.588 216.851 106.388C216.876 106.189 216.701 106.014 216.476 106.014ZM221.594 106.014H219.048C218.823 106.014 218.673 106.189 218.673 106.388C218.673 106.613 218.848 106.762 219.048 106.762H221.594C221.794 106.762 221.968 106.588 221.968 106.388C221.968 106.189 221.794 106.014 221.594 106.014ZM226.687 106.014H224.14C223.916 106.014 223.766 106.189 223.766 106.388C223.766 106.613 223.941 106.762 224.14 106.762H226.687C226.887 106.762 227.061 106.588 227.061 106.388C227.061 106.189 226.887 106.014 226.687 106.014ZM231.78 106.014H229.233C229.009 106.014 228.859 106.189 228.859 106.388C228.859 106.613 229.034 106.762 229.233 106.762H231.78C231.98 106.762 232.154 106.588 232.154 106.388C232.154 106.189 232.005 106.014 231.78 106.014ZM236.873 106.014H234.326C234.127 106.014 233.952 106.189 233.952 106.388C233.952 106.613 234.127 106.762 234.326 106.762H236.873C237.098 106.762 237.247 106.588 237.247 106.388C237.272 106.189 237.098 106.014 236.873 106.014ZM241.991 106.014H239.419C239.22 106.014 239.045 106.189 239.045 106.388C239.045 106.613 239.22 106.762 239.419 106.762H241.966C242.191 106.762 242.34 106.588 242.34 106.388C242.365 106.189 242.191 106.014 241.991 106.014ZM247.084 106.014H244.537C244.338 106.014 244.163 106.189 244.163 106.388C244.163 106.613 244.338 106.762 244.537 106.762H247.084C247.284 106.762 247.458 106.588 247.458 106.388C247.458 106.189 247.284 106.014 247.084 106.014ZM252.177 106.014H249.63C249.406 106.014 249.256 106.189 249.256 106.388C249.256 106.613 249.431 106.762 249.63 106.762H252.177C252.376 106.762 252.551 106.588 252.551 106.388C252.551 106.189 252.376 106.014 252.177 106.014ZM254.698 107.211C254.573 107.037 254.324 107.012 254.174 107.136C253.999 107.261 253.974 107.51 254.099 107.66C254.399 108.059 254.573 108.533 254.573 109.031V109.854C254.573 110.078 254.748 110.228 254.948 110.228C255.148 110.228 255.322 110.053 255.322 109.854V109.031C255.322 108.383 255.098 107.76 254.698 107.211ZM125.302 107.186C125.127 107.062 124.903 107.086 124.778 107.261C124.403 107.785 124.179 108.408 124.179 109.056V109.929C124.179 110.153 124.353 110.303 124.553 110.303C124.753 110.303 124.928 110.128 124.928 109.929V109.056C124.928 108.557 125.077 108.109 125.377 107.71C125.502 107.535 125.477 107.311 125.302 107.186ZM254.923 112.048C254.698 112.048 254.548 112.223 254.548 112.422V114.965C254.548 115.165 254.723 115.339 254.923 115.339C255.123 115.339 255.297 115.165 255.297 114.965V112.422C255.322 112.223 255.148 112.048 254.923 112.048ZM124.553 112.098C124.329 112.098 124.179 112.272 124.179 112.472V115.015C124.179 115.215 124.353 115.389 124.553 115.389C124.753 115.389 124.928 115.215 124.928 115.015V112.472C124.928 112.248 124.753 112.098 124.553 112.098ZM254.923 117.134C254.698 117.134 254.548 117.309 254.548 117.508V120.052C254.548 120.251 254.723 120.425 254.923 120.425C255.123 120.425 255.297 120.251 255.297 120.052V117.508C255.322 117.309 255.148 117.134 254.923 117.134ZM124.553 117.184C124.329 117.184 124.179 117.359 124.179 117.558V120.101C124.179 120.301 124.353 120.475 124.553 120.475C124.753 120.475 124.928 120.301 124.928 120.101V117.558C124.928 117.359 124.753 117.184 124.553 117.184ZM254.923 122.221C254.698 122.221 254.548 122.395 254.548 122.595V125.163C254.548 125.387 254.723 125.537 254.923 125.537C255.123 125.537 255.297 125.362 255.297 125.163V122.62C255.322 122.395 255.148 122.221 254.923 122.221ZM124.553 122.271C124.329 122.271 124.179 122.445 124.179 122.645V125.188C124.179 125.412 124.353 125.562 124.553 125.562C124.753 125.562 124.928 125.387 124.928 125.188V122.645C124.928 122.445 124.753 122.271 124.553 122.271ZM254.923 127.307C254.898 127.307 254.848 127.307 254.823 127.332C254.673 127.382 254.548 127.531 254.548 127.706V130.249C254.548 130.424 254.673 130.573 254.823 130.623C254.848 130.623 254.898 130.648 254.923 130.648C255.148 130.648 255.297 130.473 255.297 130.274V127.731C255.322 127.481 255.148 127.307 254.923 127.307ZM124.553 127.357C124.329 127.357 124.179 127.531 124.179 127.731V130.274C124.179 130.498 124.353 130.648 124.553 130.648C124.753 130.648 124.928 130.473 124.928 130.274V127.731C124.928 127.531 124.753 127.357 124.553 127.357ZM254.923 132.418C254.898 132.418 254.848 132.418 254.823 132.443C254.673 132.493 254.548 132.643 254.548 132.817V135.36C254.548 135.535 254.673 135.684 254.823 135.734C254.848 135.734 254.898 135.759 254.923 135.759C255.148 135.759 255.297 135.585 255.297 135.385V132.842C255.322 132.593 255.148 132.418 254.923 132.418ZM124.553 132.443C124.329 132.443 124.179 132.618 124.179 132.817V135.385C124.179 135.485 124.204 135.56 124.254 135.61C124.329 135.709 124.428 135.759 124.553 135.759C124.753 135.759 124.928 135.585 124.928 135.385V132.842C124.928 132.618 124.753 132.443 124.553 132.443ZM254.923 137.504C254.698 137.504 254.548 137.679 254.548 137.878V140.422C254.548 140.621 254.723 140.796 254.923 140.796C255.123 140.796 255.297 140.621 255.297 140.422V137.878C255.322 137.679 255.148 137.504 254.923 137.504ZM124.553 137.554C124.329 137.554 124.179 137.729 124.179 137.928V140.471C124.179 140.671 124.353 140.845 124.553 140.845C124.753 140.845 124.928 140.671 124.928 140.471V137.928C124.928 137.729 124.753 137.554 124.553 137.554ZM254.923 142.591C254.698 142.591 254.548 142.765 254.548 142.965V145.508C254.548 145.707 254.723 145.882 254.923 145.882C255.123 145.882 255.297 145.707 255.297 145.508V142.965C255.322 142.765 255.148 142.591 254.923 142.591ZM124.553 142.641C124.329 142.641 124.179 142.815 124.179 143.015V145.558C124.179 145.757 124.353 145.932 124.553 145.932C124.753 145.932 124.928 145.757 124.928 145.558V143.015C124.928 142.815 124.753 142.641 124.553 142.641ZM254.923 147.677C254.698 147.677 254.548 147.852 254.548 148.051V150.594C254.548 150.819 254.723 150.968 254.923 150.968C255.123 150.968 255.297 150.794 255.297 150.594V148.051C255.322 147.852 255.148 147.677 254.923 147.677ZM124.703 147.752C124.653 147.727 124.603 147.727 124.553 147.727C124.329 147.727 124.179 147.901 124.179 148.101V150.644C124.179 150.719 124.204 150.769 124.229 150.844C124.304 150.968 124.428 151.043 124.553 151.043C124.753 151.043 124.928 150.868 124.928 150.669V148.101C124.928 147.951 124.828 147.802 124.703 147.752ZM254.923 152.788C254.698 152.788 254.548 152.963 254.548 153.162V155.705C254.548 155.88 254.648 156.005 254.798 156.054C254.848 156.079 254.898 156.079 254.948 156.079C255.173 156.079 255.322 155.905 255.322 155.705V153.162C255.322 152.938 255.148 152.788 254.923 152.788ZM124.553 152.813C124.329 152.813 124.179 152.988 124.179 153.187V155.73C124.179 155.93 124.353 156.104 124.553 156.104C124.753 156.104 124.928 155.93 124.928 155.73V153.187C124.928 152.988 124.753 152.813 124.553 152.813ZM254.923 157.875C254.698 157.875 254.548 158.049 254.548 158.249V160.792C254.548 161.016 254.723 161.166 254.923 161.166C255.123 161.166 255.297 160.991 255.297 160.792V158.249C255.322 158.049 255.148 157.875 254.923 157.875ZM124.553 157.924C124.329 157.924 124.179 158.099 124.179 158.298V160.842C124.179 161.041 124.353 161.216 124.553 161.216C124.753 161.216 124.928 161.041 124.928 160.842V158.298C124.928 158.074 124.753 157.924 124.553 157.924ZM255.322 163.285C255.322 163.185 255.272 163.11 255.198 163.061C255.123 163.011 255.048 162.961 254.948 162.961C254.848 162.961 254.748 162.986 254.698 163.061C254.623 163.11 254.598 163.185 254.573 163.285C254.573 163.31 254.573 163.335 254.573 163.335V165.878C254.573 166.077 254.748 166.252 254.948 166.252C255.148 166.252 255.322 166.077 255.322 165.878V163.335C255.322 163.335 255.322 163.31 255.322 163.285ZM124.553 163.011C124.329 163.011 124.179 163.185 124.179 163.385V165.928C124.179 166.127 124.353 166.302 124.553 166.302C124.753 166.302 124.928 166.127 124.928 165.928V163.385C124.928 163.185 124.753 163.011 124.553 163.011ZM254.923 168.047C254.698 168.047 254.548 168.222 254.548 168.421V170.964C254.548 171.164 254.723 171.338 254.923 171.338C255.123 171.338 255.297 171.164 255.297 170.964V168.421C255.322 168.222 255.148 168.047 254.923 168.047ZM124.553 168.097C124.478 168.097 124.403 168.122 124.353 168.147C124.254 168.222 124.179 168.346 124.179 168.471V171.014C124.179 171.214 124.353 171.388 124.553 171.388C124.603 171.388 124.628 171.388 124.678 171.363C124.828 171.313 124.953 171.164 124.953 170.989V168.446C124.928 168.272 124.753 168.097 124.553 168.097ZM254.923 173.133C254.698 173.133 254.548 173.308 254.548 173.507V176.051C254.548 176.275 254.723 176.425 254.923 176.425C255.123 176.425 255.297 176.25 255.297 176.051V173.532C255.322 173.308 255.148 173.133 254.923 173.133ZM124.878 173.358C124.803 173.258 124.703 173.208 124.578 173.208C124.353 173.208 124.204 173.383 124.204 173.582V176.125C124.204 176.325 124.378 176.499 124.578 176.499C124.778 176.499 124.953 176.325 124.953 176.125V173.582C124.928 173.483 124.903 173.408 124.878 173.358ZM254.923 178.245C254.698 178.245 254.548 178.419 254.548 178.619V181.162C254.548 181.212 254.548 181.237 254.573 181.286C254.573 181.286 254.573 181.286 254.573 181.311C254.623 181.436 254.698 181.511 254.823 181.561C254.848 181.561 254.898 181.586 254.923 181.586C255.098 181.586 255.223 181.486 255.272 181.336C255.272 181.336 255.272 181.336 255.272 181.311C255.297 181.286 255.297 181.237 255.297 181.187V178.644C255.322 178.394 255.148 178.245 254.923 178.245ZM124.553 178.27C124.329 178.27 124.179 178.444 124.179 178.644V181.187C124.179 181.411 124.353 181.561 124.553 181.561C124.753 181.561 124.928 181.386 124.928 181.187V178.644C124.928 178.444 124.753 178.27 124.553 178.27ZM254.923 183.331C254.898 183.331 254.848 183.331 254.823 183.356C254.673 183.406 254.548 183.555 254.548 183.73V186.248C254.548 186.423 254.673 186.572 254.823 186.622C254.848 186.622 254.898 186.647 254.923 186.647C255.148 186.647 255.297 186.473 255.297 186.273V183.73C255.322 183.506 255.148 183.331 254.923 183.331ZM124.553 183.381C124.329 183.381 124.179 183.555 124.179 183.755V186.298C124.179 186.522 124.353 186.672 124.553 186.672C124.753 186.672 124.928 186.497 124.928 186.298V183.755C124.928 183.555 124.753 183.381 124.553 183.381ZM254.923 188.417C254.898 188.417 254.848 188.417 254.823 188.442C254.673 188.492 254.548 188.642 254.548 188.816V191.359C254.548 191.584 254.723 191.733 254.923 191.733C255.123 191.733 255.297 191.559 255.297 191.359V188.816C255.322 188.592 255.148 188.417 254.923 188.417ZM124.553 188.467C124.329 188.467 124.179 188.642 124.179 188.841V190.836C124.428 190.96 124.678 191.085 124.953 191.185V188.816C124.928 188.642 124.753 188.467 124.553 188.467ZM255.297 193.803C255.272 193.628 255.098 193.504 254.923 193.504C254.698 193.504 254.548 193.678 254.548 193.878V196.421C254.548 196.62 254.723 196.795 254.923 196.795C255.123 196.795 255.297 196.62 255.297 196.421V193.878C255.322 193.853 255.322 193.828 255.297 193.803ZM160.503 202.08H157.957C157.882 202.08 157.782 202.105 157.732 202.155C158.706 202.38 159.68 202.604 160.678 202.804C160.803 202.754 160.903 202.604 160.903 202.454C160.878 202.255 160.703 202.08 160.503 202.08ZM165.596 202.08H163.05C162.85 202.08 162.675 202.255 162.675 202.454C162.675 202.654 162.85 202.828 163.05 202.828H165.596C165.796 202.828 165.971 202.654 165.971 202.454C165.971 202.255 165.796 202.08 165.596 202.08ZM170.689 202.08H168.143C167.943 202.08 167.768 202.255 167.768 202.454C167.768 202.654 167.943 202.828 168.143 202.828H170.689C170.889 202.828 171.064 202.654 171.064 202.454C171.064 202.255 170.914 202.08 170.689 202.08ZM175.782 202.08H173.236C173.036 202.08 172.861 202.255 172.861 202.454C172.861 202.654 173.036 202.828 173.236 202.828H175.782C175.982 202.828 176.157 202.654 176.157 202.454C176.182 202.255 176.007 202.08 175.782 202.08ZM180.9 202.08H178.354C178.154 202.08 177.979 202.255 177.979 202.454C177.979 202.654 178.154 202.828 178.354 202.828H180.9C181.1 202.828 181.275 202.654 181.275 202.454C181.275 202.255 181.1 202.08 180.9 202.08ZM185.993 202.08H183.447C183.247 202.08 183.072 202.255 183.072 202.454C183.072 202.654 183.247 202.828 183.447 202.828H185.993C186.193 202.828 186.368 202.654 186.368 202.454C186.368 202.255 186.193 202.08 185.993 202.08ZM191.086 202.08H188.54C188.315 202.08 188.165 202.255 188.165 202.454C188.165 202.654 188.34 202.828 188.54 202.828H191.086C191.311 202.828 191.461 202.654 191.461 202.454C191.461 202.255 191.286 202.08 191.086 202.08ZM196.179 202.08H193.633C193.433 202.08 193.258 202.255 193.258 202.454C193.258 202.654 193.433 202.828 193.633 202.828H196.179C196.404 202.828 196.554 202.654 196.554 202.454C196.554 202.255 196.404 202.08 196.179 202.08ZM201.272 202.08H198.726C198.626 202.08 198.551 202.13 198.476 202.18C198.401 202.255 198.351 202.355 198.351 202.454C198.351 202.654 198.526 202.828 198.726 202.828H201.272C201.472 202.828 201.647 202.654 201.647 202.454C201.672 202.255 201.497 202.08 201.272 202.08ZM206.39 202.08H203.844C203.619 202.08 203.469 202.255 203.469 202.454C203.469 202.654 203.644 202.828 203.844 202.828H206.39C206.59 202.828 206.765 202.654 206.765 202.454C206.765 202.255 206.59 202.08 206.39 202.08ZM211.483 202.08H208.937C208.712 202.08 208.562 202.255 208.562 202.454C208.562 202.654 208.737 202.828 208.937 202.828H211.483C211.683 202.828 211.857 202.654 211.857 202.454C211.857 202.255 211.683 202.08 211.483 202.08ZM216.576 202.08H214.029C213.805 202.08 213.655 202.255 213.655 202.454C213.655 202.654 213.83 202.828 214.029 202.828H216.576C216.801 202.828 216.95 202.654 216.95 202.454C216.95 202.255 216.801 202.08 216.576 202.08ZM221.669 202.08H219.122C218.923 202.08 218.748 202.255 218.748 202.454C218.748 202.654 218.923 202.828 219.122 202.828H221.669C221.894 202.828 222.043 202.654 222.043 202.454C222.068 202.255 221.894 202.08 221.669 202.08ZM226.762 202.08H224.215C224.016 202.08 223.841 202.255 223.841 202.454C223.841 202.654 224.016 202.828 224.215 202.828H226.762C226.987 202.828 227.136 202.654 227.136 202.454C227.161 202.255 226.987 202.08 226.762 202.08ZM231.88 202.08H229.333C229.109 202.08 228.959 202.255 228.959 202.454C228.959 202.654 229.134 202.828 229.333 202.828H231.88C232.08 202.828 232.254 202.654 232.254 202.454C232.254 202.255 232.08 202.08 231.88 202.08ZM236.973 202.08H234.426C234.202 202.08 234.052 202.255 234.052 202.454C234.052 202.654 234.227 202.828 234.426 202.828H236.973C237.172 202.828 237.347 202.654 237.347 202.454C237.347 202.255 237.172 202.08 236.973 202.08ZM242.066 202.08H239.519C239.32 202.08 239.145 202.23 239.145 202.43V202.454C239.145 202.654 239.32 202.828 239.519 202.828H240.418C241.092 202.654 241.741 202.454 242.39 202.255C242.34 202.155 242.215 202.08 242.066 202.08Z" fill="#ED7D2B"/>
<path d="M129.746 158.423H106.828C103.607 158.423 100.961 155.78 100.961 152.564V149.023C100.961 145.807 103.607 143.164 106.828 143.164H129.746C132.967 143.164 135.613 145.807 135.613 149.023V152.564C135.638 155.78 132.992 158.423 129.746 158.423Z" fill="#ED7D2B"/>
<path d="M274.146 163.061C274.146 163.135 274.146 163.21 274.146 163.285C274.071 166.277 273.697 169.244 273.073 172.136C273.073 172.161 273.073 172.161 273.073 172.186C272.848 173.208 272.599 174.206 272.299 175.228C271.725 177.272 271.001 179.292 270.152 181.262C270.152 181.262 270.152 181.262 270.152 181.286C269.078 183.755 267.805 186.148 266.307 188.442C265.858 189.115 265.408 189.764 264.934 190.437C263.985 191.758 262.962 193.03 261.863 194.252C260.715 194.875 259.542 195.473 258.368 196.072C256.571 196.944 254.748 197.792 252.876 198.565C252.576 198.69 252.252 198.814 251.927 198.964C251.378 199.188 250.829 199.413 250.279 199.612C249.481 199.911 248.682 200.21 247.883 200.51C246.085 201.158 244.263 201.756 242.415 202.305C241.766 202.504 241.092 202.704 240.443 202.878C237.897 203.601 235.275 204.225 232.604 204.773C230.557 205.297 228.46 205.671 226.362 205.895C221.494 206.643 216.476 207.117 211.233 207.341C210.385 207.391 209.536 207.416 208.662 207.416C205.466 206.219 202.421 204.723 199.525 202.878C199.175 202.654 198.851 202.429 198.501 202.205C192.31 198.041 186.992 192.382 183.122 185.4C180.701 181.012 179.028 176.425 178.079 171.737C178.029 171.563 178.004 171.388 177.979 171.189C177.855 170.615 177.755 170.042 177.68 169.468C175.608 156.179 179.203 142.541 187.491 132.019C189.488 129.501 191.735 127.157 194.257 125.038C195.305 124.14 196.404 123.293 197.527 122.495C198.451 121.847 199.4 121.198 200.398 120.6C200.723 120.401 201.072 120.201 201.397 120.002C201.672 119.852 201.946 119.702 202.196 119.553C204.418 118.331 206.715 117.284 209.036 116.436C210.659 115.838 212.282 115.339 213.905 114.94C217.774 113.968 221.719 113.519 225.614 113.519C232.479 113.519 239.295 114.99 245.536 117.783C246.31 118.132 247.084 118.506 247.858 118.905C248.182 119.054 248.482 119.229 248.806 119.403C249.58 119.827 250.354 120.276 251.128 120.75C252.302 121.473 253.475 122.246 254.598 123.093C254.848 123.293 255.098 123.467 255.372 123.667C255.822 124.016 256.296 124.39 256.745 124.764C257.07 125.013 257.37 125.287 257.694 125.562C258.218 126.01 258.718 126.484 259.217 126.933C259.217 126.933 259.217 126.933 259.242 126.958C260.49 128.155 261.714 129.426 262.837 130.798C263.162 131.172 263.461 131.57 263.786 131.944C264.709 133.091 265.583 134.313 266.382 135.585C266.457 135.684 266.507 135.784 266.582 135.909C266.632 135.984 266.682 136.058 266.707 136.108C266.856 136.358 267.006 136.582 267.156 136.831C267.531 137.43 267.88 138.028 268.205 138.626C269.353 140.721 270.352 142.865 271.151 145.034C271.151 145.034 271.151 145.034 271.151 145.059C272.274 148.051 273.098 151.118 273.597 154.185C273.997 157.102 274.196 160.094 274.146 163.061Z" fill="#E2810E"/>
<path d="M269.753 172.136C269.753 172.161 269.753 172.186 269.753 172.211C269.228 175.303 268.38 178.344 267.256 181.286C267.256 181.286 267.256 181.286 267.256 181.311C266.957 182.109 266.632 182.882 266.283 183.655C265.509 185.4 264.66 187.096 263.686 188.716C263.387 189.24 263.062 189.739 262.737 190.237C262.687 190.312 262.638 190.387 262.613 190.437C261.339 192.407 259.916 194.276 258.344 196.047C256.546 196.919 254.723 197.767 252.851 198.54C252.551 198.665 252.227 198.789 251.902 198.939C251.353 199.163 250.804 199.388 250.255 199.587C249.456 199.886 248.657 200.186 247.858 200.485C246.06 201.133 244.238 201.731 242.391 202.28C241.741 202.479 241.067 202.679 240.418 202.853C237.872 203.576 235.25 204.2 232.579 204.748C230.532 205.272 228.435 205.646 226.338 205.87C221.469 206.618 216.451 207.092 211.209 207.316C210.36 207.366 209.511 207.391 208.637 207.391C207.389 207.416 206.116 207.441 204.842 207.441C203.32 207.441 201.772 207.416 200.224 207.391C191.711 203.153 184.346 196.371 179.403 187.42C176.681 182.458 174.884 177.247 174.01 171.962C173.96 171.662 173.91 171.363 173.86 171.039C173.785 170.59 173.735 170.142 173.686 169.693C172.038 155.78 176.557 141.668 186.093 131.271C188.315 128.853 190.787 126.659 193.508 124.689C193.858 124.44 194.182 124.215 194.532 123.966C195.53 123.293 196.579 122.645 197.627 122.021C197.902 121.872 198.177 121.697 198.451 121.547C199.075 121.198 199.7 120.874 200.324 120.575C200.648 120.426 200.973 120.251 201.297 120.101C201.597 119.977 201.872 119.827 202.171 119.702C204.069 118.855 205.991 118.157 207.938 117.558C208.113 117.508 208.313 117.458 208.487 117.409C210.26 116.885 212.057 116.486 213.855 116.187C214.804 116.037 215.777 115.888 216.726 115.788C219.273 115.514 221.844 115.464 224.365 115.589C228.46 115.813 232.479 116.536 236.374 117.758C237.572 118.132 238.721 118.556 239.894 119.004C240.219 119.129 240.518 119.254 240.843 119.378C241.642 119.727 242.44 120.076 243.239 120.475C244.812 121.248 246.335 122.096 247.808 123.019C248.133 123.218 248.432 123.417 248.757 123.617C250.255 124.614 251.728 125.711 253.126 126.883C253.126 126.883 253.151 126.883 253.151 126.908C253.4 127.107 253.65 127.332 253.9 127.531C254.124 127.731 254.349 127.93 254.549 128.13C254.649 128.205 254.724 128.304 254.823 128.379C254.998 128.529 255.148 128.678 255.323 128.828C256.246 129.701 257.12 130.598 257.969 131.546C259.192 132.892 260.341 134.313 261.414 135.834C261.414 135.834 261.414 135.834 261.414 135.859C261.464 135.934 261.514 135.984 261.539 136.058C262.563 137.504 263.511 139.025 264.41 140.621C265.034 141.743 265.608 142.89 266.133 144.062C266.183 144.186 266.233 144.286 266.283 144.411C266.357 144.61 266.457 144.785 266.532 144.984C266.532 144.984 266.532 144.984 266.532 145.009C266.882 145.807 267.206 146.605 267.481 147.428C267.83 148.375 268.13 149.298 268.43 150.245C268.829 151.542 269.154 152.838 269.428 154.135C269.778 155.855 270.052 157.575 270.202 159.296C270.327 160.542 270.402 161.814 270.427 163.061C270.427 163.135 270.427 163.21 270.427 163.285C270.477 166.277 270.252 169.219 269.753 172.136Z" fill="#FFB93E"/>
<path d="M266.407 163.285C266.407 163.21 266.407 163.135 266.407 163.061C266.382 162.387 266.357 161.689 266.307 161.016C266.133 158.697 265.758 156.404 265.209 154.135C265.084 153.611 264.934 153.087 264.784 152.564C264.06 149.971 263.087 147.453 261.863 145.009C261.863 145.009 261.863 145.009 261.863 144.984C261.564 144.386 261.264 143.788 260.94 143.214C259.941 141.419 258.843 139.723 257.644 138.103C257.345 137.704 257.02 137.28 256.696 136.881C256.471 136.607 256.246 136.333 256.022 136.058C255.972 135.984 255.897 135.909 255.847 135.859C255.672 135.659 255.522 135.46 255.347 135.285C255.198 135.111 255.023 134.911 254.848 134.737C254.748 134.637 254.673 134.537 254.574 134.438C254.349 134.213 254.149 133.964 253.924 133.74C251.802 131.546 249.481 129.601 246.959 127.905C246.659 127.706 246.335 127.481 246.01 127.282C245.811 127.157 245.636 127.033 245.436 126.908C245.436 126.908 245.411 126.908 245.411 126.883C243.963 125.986 242.465 125.188 240.892 124.465C240.593 124.315 240.268 124.19 239.944 124.041C238.171 123.268 236.349 122.62 234.476 122.071C230.357 120.874 226.188 120.301 222.019 120.301C219.297 120.301 216.576 120.575 213.905 121.074C212.482 121.348 211.059 121.697 209.661 122.096C208.412 122.47 207.164 122.894 205.941 123.392C204.218 124.091 202.496 124.888 200.848 125.786C200.324 126.06 199.824 126.359 199.325 126.659C197.927 127.506 196.579 128.404 195.305 129.401C194.282 130.199 193.283 131.022 192.31 131.895C191.735 132.418 191.161 132.967 190.612 133.515C185.519 138.676 181.774 145.034 179.727 152.19C178.079 157.85 177.605 163.684 178.229 169.369C178.304 169.967 178.379 170.565 178.454 171.139C178.479 171.313 178.504 171.463 178.529 171.637C179.328 176.524 181 181.311 183.472 185.774C187.192 192.531 192.509 198.066 198.901 202.006C199.325 202.28 199.749 202.529 200.199 202.779C203.22 204.499 206.49 205.895 209.91 206.868C210.36 206.992 210.784 207.117 211.233 207.217C216.451 206.992 221.494 206.518 226.363 205.77C221.145 206.294 215.827 205.82 210.659 204.324C209.136 203.876 207.638 203.352 206.19 202.754C205.616 202.504 205.017 202.255 204.468 201.981C196.579 198.291 190.088 192.232 185.819 184.478C183.547 180.339 181.999 175.951 181.225 171.438C181.2 171.363 181.2 171.263 181.175 171.189C181.05 170.515 180.975 169.842 180.9 169.169C180.276 163.784 180.726 158.249 182.274 152.888C184.046 146.73 187.167 141.195 191.361 136.582C191.96 135.934 192.559 135.31 193.183 134.687C193.533 134.338 193.907 133.989 194.282 133.665C195.58 132.493 196.953 131.396 198.426 130.399C199.625 129.551 200.873 128.778 202.171 128.08C203.02 127.606 203.869 127.182 204.742 126.783C206.365 126.035 208.038 125.387 209.711 124.839C211.109 124.39 212.532 124.041 213.955 123.742C216.227 123.268 218.548 123.019 220.87 122.944C225.189 122.819 229.533 123.343 233.802 124.589C235.899 125.188 237.947 125.961 239.894 126.858C239.894 126.858 239.919 126.858 239.919 126.883C242.066 127.88 244.138 129.077 246.06 130.424C246.385 130.648 246.684 130.872 247.009 131.097C248.931 132.518 250.704 134.089 252.352 135.809C252.427 135.884 252.476 135.959 252.551 136.008C253.275 136.781 253.974 137.579 254.623 138.402C254.873 138.726 255.123 139.05 255.397 139.374C255.872 139.998 256.321 140.646 256.771 141.294C257.095 141.768 257.42 142.267 257.719 142.765C258.069 143.314 258.393 143.862 258.693 144.436C258.793 144.61 258.868 144.785 258.967 144.934C259.217 145.408 259.467 145.857 259.691 146.331C260.915 148.824 261.863 151.417 262.562 154.06C263.336 156.977 263.761 159.969 263.861 162.986C263.861 163.061 263.861 163.135 263.861 163.21C263.961 166.152 263.711 169.119 263.162 172.061C263.162 172.086 263.162 172.111 263.162 172.136C262.937 173.383 262.637 174.604 262.288 175.826C262.263 175.876 262.263 175.926 262.238 175.976C261.714 177.771 261.09 179.516 260.341 181.187C260.341 181.187 260.341 181.187 260.341 181.212C259.042 184.204 257.37 186.996 255.422 189.564C255.273 189.764 255.098 189.988 254.923 190.187C254.873 190.237 254.848 190.287 254.798 190.337C254.748 190.412 254.698 190.462 254.648 190.537C254.099 191.21 253.55 191.858 252.951 192.506C252.651 192.855 252.327 193.179 252.002 193.504C249.905 195.623 247.583 197.543 245.037 199.188C244.887 199.288 244.712 199.413 244.562 199.487C243.838 199.961 243.089 200.385 242.34 200.809C241.567 201.233 240.793 201.632 239.994 202.006C239.744 202.13 239.494 202.255 239.22 202.355C237.073 203.327 234.876 204.075 232.654 204.673C235.325 204.125 237.947 203.502 240.493 202.779C241.167 202.604 241.816 202.405 242.465 202.205C244.313 201.657 246.135 201.058 247.933 200.41C248.357 200.111 248.757 199.812 249.156 199.512C250.13 198.764 251.078 197.991 251.977 197.169C252.302 196.894 252.601 196.595 252.926 196.296C253.5 195.747 254.074 195.174 254.623 194.576C254.873 194.301 255.123 194.027 255.372 193.753C256.321 192.681 257.245 191.534 258.094 190.362C259.966 187.794 261.539 185.001 262.812 182.059C262.937 181.785 263.062 181.511 263.162 181.237C263.162 181.237 263.162 181.237 263.162 181.212C263.761 179.766 264.285 178.27 264.71 176.724C264.884 176.1 265.059 175.477 265.209 174.854C265.434 173.956 265.608 173.059 265.783 172.136C265.783 172.111 265.783 172.086 265.783 172.061C265.858 171.613 265.933 171.164 266.008 170.715C266.158 169.743 266.257 168.77 266.332 167.798C266.407 166.327 266.432 164.806 266.407 163.285Z" fill="#FFA412"/>
<path d="M244.513 172.211C244.513 172.186 244.513 172.161 244.513 172.136C244.363 171.014 244.039 169.892 243.564 168.745C243.464 168.496 243.364 168.272 243.265 168.047C242.566 166.501 241.717 165.23 240.693 164.208C240.568 164.083 240.444 163.958 240.319 163.834C240.144 163.659 239.944 163.509 239.769 163.36C239.744 163.335 239.695 163.31 239.67 163.285C239.57 163.21 239.47 163.135 239.37 163.061C238.272 162.238 237.048 161.59 235.7 161.116C233.952 160.517 231.98 160.143 229.808 160.019C227.636 159.894 225.289 159.844 222.743 159.919C221.17 159.969 219.822 159.944 218.699 159.844C217.575 159.745 216.626 159.545 215.853 159.221C215.079 158.922 214.454 158.473 213.955 157.949C213.93 157.924 213.905 157.9 213.905 157.9C213.855 157.85 213.805 157.775 213.755 157.725C213.581 157.501 213.431 157.276 213.281 157.027C213.081 156.703 212.907 156.354 212.757 155.98C212.432 155.207 212.258 154.434 212.208 153.661C212.158 152.888 212.282 152.165 212.557 151.467C212.832 150.794 213.256 150.17 213.88 149.597C213.905 149.572 213.905 149.572 213.93 149.547C214.554 148.949 215.378 148.45 216.402 148.051C217.85 147.453 219.223 147.328 220.521 147.677C220.921 147.777 221.32 147.926 221.719 148.126C223.367 148.924 224.69 150.594 225.739 153.137L235.625 149.123C235.001 147.602 234.277 146.231 233.428 145.059C233.428 145.059 233.428 145.059 233.428 145.034C233.104 144.585 232.754 144.162 232.405 143.763C231.106 142.292 229.658 141.17 228.036 140.372C226.413 139.574 224.64 139.1 222.718 138.976C220.796 138.851 218.823 139.05 216.751 139.599L216.027 137.804L215.253 135.909L213.98 132.767L213.955 132.692L208.488 134.911L209.761 138.003L211.259 141.693C211.034 141.818 210.81 141.943 210.585 142.067C210.31 142.217 210.036 142.391 209.761 142.541C208.413 143.364 207.239 144.261 206.241 145.259C204.868 146.605 203.819 148.076 203.07 149.672C202.321 151.267 201.947 152.913 201.897 154.658C201.872 156.404 202.196 158.174 202.945 159.969C203.794 162.038 204.868 163.684 206.191 164.906C207.19 165.828 208.313 166.551 209.561 167.125C209.961 167.299 210.385 167.474 210.81 167.623C211.658 167.922 212.582 168.147 213.556 168.321C213.706 168.346 213.83 168.371 213.98 168.396C214.854 168.546 215.753 168.646 216.701 168.695C218.873 168.82 221.245 168.82 223.792 168.695C225.265 168.621 226.563 168.621 227.661 168.72C228.76 168.82 229.683 169.02 230.482 169.344C231.281 169.668 231.93 170.117 232.455 170.69C232.854 171.114 233.179 171.613 233.478 172.211C233.478 172.236 233.503 172.261 233.503 172.286C233.603 172.485 233.678 172.685 233.778 172.884C234.102 173.657 234.252 174.455 234.252 175.228C234.252 175.377 234.252 175.527 234.227 175.677C234.177 176.3 234.002 176.898 233.728 177.472C233.378 178.17 232.854 178.843 232.155 179.441C231.456 180.04 230.582 180.563 229.509 180.987C229.159 181.137 228.81 181.237 228.46 181.361C228.435 181.361 228.435 181.361 228.41 181.386C227.811 181.561 227.212 181.685 226.613 181.76C225.614 181.885 224.64 181.785 223.692 181.461C223.617 181.436 223.542 181.411 223.467 181.386C223.442 181.386 223.442 181.386 223.417 181.361C222.568 181.037 221.769 180.489 220.995 179.741C220.172 178.918 219.448 177.746 218.823 176.225L209.786 179.89L208.937 180.239C209.961 182.782 211.259 184.802 212.832 186.273C213.755 187.171 214.754 187.894 215.778 188.492C216.477 188.891 217.201 189.215 217.95 189.464C219.797 190.113 221.744 190.387 223.767 190.312C225.789 190.237 227.786 189.913 229.758 189.315L230.258 190.512L232.33 195.598L237.772 193.404L236.599 190.537L235.201 187.096C237.173 186.074 238.871 184.902 240.269 183.555C240.993 182.857 241.642 182.159 242.191 181.386C242.191 181.386 242.191 181.386 242.191 181.361C242.616 180.763 242.99 180.165 243.315 179.541C243.364 179.417 243.439 179.317 243.489 179.192C243.914 178.295 244.238 177.372 244.438 176.4C244.588 175.702 244.663 174.978 244.688 174.23C244.638 173.507 244.613 172.859 244.513 172.211Z" fill="#FFA412"/>
<path d="M107.476 154.209C109.476 154.209 111.096 152.591 111.096 150.594C111.096 148.598 109.476 146.979 107.476 146.979C105.477 146.979 103.856 148.598 103.856 150.594C103.856 152.591 105.477 154.209 107.476 154.209Z" fill="#FFB93E"/>
<path d="M686.226 436H0.77393C0.349517 436 0 435.651 0 435.227V434.953C0 434.529 0.349517 434.18 0.77393 434.18H686.201C686.625 434.18 686.975 434.529 686.975 434.953V435.227C687 435.651 686.65 436 686.226 436Z" fill="#2E3552"/>
</svg>
