<svg width="1440" height="591" viewBox="0 0 1440 591" fill="none" xmlns="http://www.w3.org/2000/svg">
<rect width="1440" height="591" fill="#194C75"/>
<g opacity="0.3">
<circle cx="1265" cy="207" r="2" fill="white"/>
<circle cx="1281" cy="207" r="2" fill="white"/>
<circle cx="1297" cy="207" r="2" fill="white"/>
<circle cx="1313" cy="207" r="2" fill="white"/>
<circle cx="1329" cy="207" r="2" fill="white"/>
<circle cx="1265" cy="223" r="2" fill="white"/>
<circle cx="1281" cy="223" r="2" fill="white"/>
<circle cx="1297" cy="223" r="2" fill="white"/>
<circle cx="1313" cy="223" r="2" fill="white"/>
<circle cx="1329" cy="223" r="2" fill="white"/>
<circle cx="1265" cy="239" r="2" fill="white"/>
<circle cx="1281" cy="239" r="2" fill="white"/>
<circle cx="1297" cy="239" r="2" fill="white"/>
<circle cx="1313" cy="239" r="2" fill="white"/>
<circle cx="1329" cy="239" r="2" fill="white"/>
<circle cx="1265" cy="255" r="2" fill="white"/>
<circle cx="1281" cy="255" r="2" fill="white"/>
<circle cx="1297" cy="255" r="2" fill="white"/>
<circle cx="1313" cy="255" r="2" fill="white"/>
<circle cx="1329" cy="255" r="2" fill="white"/>
<circle cx="1265" cy="271" r="2" fill="white"/>
<circle cx="1281" cy="271" r="2" fill="white"/>
<circle cx="1297" cy="271" r="2" fill="white"/>
<circle cx="1313" cy="271" r="2" fill="white"/>
<circle cx="1329" cy="271" r="2" fill="white"/>
</g>
<path d="M-6.29444e-06 541C39.7645 541 72 508.765 72 469C72 429.236 39.7645 397 0 397L-6.29444e-06 541Z" fill="#A0DCFF"/>
<path d="M1519 433C1519 472.764 1486.76 505 1447 505C1407.24 505 1375 472.764 1375 433H1519Z" fill="#C1E5C0"/>
</svg>
