<svg xmlns="http://www.w3.org/2000/svg" viewBox="0 0 463.35 339.35"><title>team</title><g id="Layer_2" data-name="Layer 2"><g id="OBJECTS"><path d="M201.06,72.78c-15.63-56.69-86-75-126.41-32.58q-.87.91-1.74,1.86c-57.86,62.9-30.53,217.89,90.22,257.17s246.35-32.45,253.4-96.58-48.65-84.28-135.11-66.34C232.6,146.43,210.79,108.07,201.06,72.78Z" style="fill:#bbe2f2"/><path d="M301.51,82.47c-16.16,2.63-20.63,16.94-8.16,27.1,4.12,3.36,10,6.14,18.4,7.54,32,5.3,48.91-8.84,36.1-27.17C339.95,78.63,317.52,79.87,301.51,82.47Z" style="fill:#bbe2f2"/><path d="M43.91,197c-10-12.92-24.75-10-27.7,5.81-1,5.23-.6,11.73,2.19,19.76,10.64,30.59,31.17,38.71,41.14,18.69C65.69,228.92,53.86,209.83,43.91,197Z" style="fill:#bbe2f2"/><path d="M427.93,210.09c-1.49,7.79,4.95,13.31,12.23,10.31a15.42,15.42,0,0,0,7-6.27c8.24-12.81,4.06-23.8-7.4-22.68C432.69,192.15,429.41,202.37,427.93,210.09Z" style="fill:#bbe2f2"/><path d="M387.09,127.88c7.76,1.62,13.39-4.72,10.51-12.06a15.42,15.42,0,0,0-6.15-7.11c-12.67-8.45-23.73-4.47-22.8,7C369.23,122.82,379.4,126.27,387.09,127.88Z" style="fill:#bbe2f2"/><path d="M198.36,44.5c6.15,5,14.06,2,14.88-5.87a15.43,15.43,0,0,0-2.19-9.14c-7.36-13.34-19-14.89-23.47-4.26C184.84,31.79,192.27,39.54,198.36,44.5Z" style="fill:#bbe2f2"/><path d="M447.18,249.07c12.33-12.39,21.72-26.4,12.38-28.58s-25.05,22.22-27.79,44.44L429,272.26c2.28-16.16-3.26-35.84-11.36-36.65s-3.18,12,3.22,22.88c4.87,8.31,6.15,14.87,6.47,18.25l-12.93,34.64c3.53-25.59-5.24-56.65-18.06-57.93s-5,19,5.11,36.3c7.67,13.09,9.73,23.44,10.26,28.85l-2.58,6.91,3.39,1.88,15.39-41.22a49.72,49.72,0,0,1,13.89-7.06c12-4.05,24-10.5,17.42-15.17-5.74-4.05-19.23,3.75-28.52,14.75l5.32-14.25C438.45,260.32,441.86,254.42,447.18,249.07Z" style="fill:#1c31b5"/><path d="M58.55,87.37c1.6-15,.35-29.44-7.1-25.87s-4.84,28.43,5.3,44.82l2.12,6.4c-7.18-12.08-21.51-22.31-27.39-18.48S35.79,104,46,107.87c7.75,3,12.15,6.67,14.19,8.77l10,30.24c-11.42-19.09-34.05-35.22-43.36-29.17s6.84,15.46,23,21.62C62,144,69,149.83,72.23,153.18l2,6,3.29-.56-11.88-36a42.81,42.81,0,0,1,5.52-12.23c5.86-9.18,10.48-20,3.52-19.58-6,.37-10.89,12.88-11.2,25.28L59.36,103.7A62.2,62.2,0,0,1,58.55,87.37Z" style="fill:#1c31b5"/><path d="M364,290.24c.16.85.34,1.77.55,2.76h0c2.22,10.32,7.67,27.22,19.93,30.54,0,0-6.67-34.8,17.12-43.87s21.16-17.7,19.8-33.06-6.62-18.29,9.89-32.68,13.35-35.83,13.35-35.83-15.62,24.47-32.31,25-19.61,14.81-18.9,25.4-13.46,11.79-21.13,17.93-9.11,38.41-9.11,38.41S363.37,287,364,290.24Z" style="fill:#009cf8"/><path d="M364,290.24c.16.85.34,1.77.55,2.76a52.73,52.73,0,0,1,6.37-12.87c5.34-7.91,12.85-14.4,19.61-17,10.76-4.06,16-14.61,17-34.23.59-11.39,12.5-18.11,12.62-18.18a.72.72,0,0,0-.7-1.27c-.52.29-12.74,7.17-13.37,19.37-1,19-5.95,29.13-16.1,33-7.13,2.69-14.72,9.23-20.3,17.49A54.8,54.8,0,0,0,364,290.24Z" style="fill:#006bde"/><path d="M100.63,323.35h16.72c-9-1.49-31.43-11.11-33.42-30.39C81.4,268.55,72.7,268.85,58,266.3s-18.69,1.62-28-17.34S0,227.61,0,227.61s18.92,20.64,15.3,36.33,8.92,22,19,23.92S41.9,303.33,45.72,312c1.74,4,8.87,8.06,16.11,11.35Z" style="fill:#006bde"/><path d="M64.42,299.32c.73,7.31,4.94,16,11.25,23.26l.69.77h1.9c-.54-.57-1.06-1.14-1.54-1.69-6-6.94-10.22-15.55-10.92-22.49-1.1-11-9.63-18.56-27.65-24.38-10.46-3.38-13.77-16.15-13.8-16.28a.7.7,0,0,0-1.35.34c.14.56,3.51,13.65,14.72,17.27C55.15,281.75,63.38,288.91,64.42,299.32Z" style="fill:#1c31b5"/><path d="M109.65,278c-.35,1.19-.76,2.48-1.21,3.85h0c-4.75,14.38-14.5,38.61-32.51,41.47,0,0,14.25-49.59-18.29-66.17S30.17,228.68,34.47,207s12.25-25.08-9.08-48.15-13.54-53.16-13.54-53.16S30.38,143,54.09,146.36s25.69,24.15,23.05,39.15,17.39,18.89,27.38,28.83,7.09,56.19,7.09,56.19S111,273.51,109.65,278Z" style="fill:#009cf8"/><path d="M109.65,278c-.35,1.19-.76,2.48-1.21,3.85a75.65,75.65,0,0,0-7.11-19.33C94.94,250.45,85.21,240,76,235.35c-14.73-7.44-20.6-23.31-19-51.45.91-16.33-15.05-27.76-15.22-27.87a1,1,0,0,1,1.19-1.7C43.59,154.82,60,166.52,59,184c-1.51,27.2,4,42.47,17.9,49.49,9.76,4.93,19.58,15.42,26.27,28.07A78.63,78.63,0,0,1,109.65,278Z" style="fill:#006bde"/><path d="M122.56,311.69c.06,3.77.12,7.69.21,11.66h36.36c.07-4.34.12-8.51.16-12.41.11-10.58.12-19.29.11-24.71,0-3.84,0-6,0-6l-37.08-.39s0,3.2,0,8.44C122.36,294.09,122.42,302.43,122.56,311.69Z" style="fill:#18315b"/><path d="M122.33,288.27c0,5.82.09,14.16.23,23.42a182.18,182.18,0,0,0,36.73-.75c.11-10.58.12-19.29.11-24.71Z" style="fill:#000b29"/><path d="M76.74,303.33c0,5.93.11,12.72.23,20h36.36c.09-4.28.16-8.5.22-12.54.13-8.66.19-16.47.22-22.07s0-8.91,0-8.91l-37.09.39s0,3.93,0,10.55C76.69,294.27,76.7,298.51,76.74,303.33Z" style="fill:#18315b"/><path d="M76.69,290.77c0,3.5,0,7.74,0,12.56a227.28,227.28,0,0,0,36.81,7.48c.13-8.66.19-16.47.22-22.07Z" style="fill:#000b29"/><path d="M137.64,84.75s5.84-5.63,5.82-11.18-3.8-3.92-5.82-9.09-8-8.34-11.35-7.7-10.28-12.25-19.74-10S97.92,61.19,93.84,63s-2.94,9-.79,10.61,3.06,8.24,4.26,8.09S137.64,84.75,137.64,84.75Z" style="fill:#18315b"/><path d="M98.32,84.62s-3.67-4.9-6.4-.85,1.13,16,7.82,13.09Z" style="fill:#f97853"/><path d="M98.27,93.17a.57.57,0,0,1-.54-.41c-1-3.69-4.86-5.19-4.9-5.21a.57.57,0,0,1,.4-1.06c.18.07,4.4,1.7,5.59,6a.57.57,0,0,1-.39.7Z" style="fill:#ea5143"/><path d="M94.41,91.31a.57.57,0,0,1-.47-.87,5.16,5.16,0,0,1,2.12-1.71.57.57,0,0,1,.46,1A4.09,4.09,0,0,0,94.88,91,.56.56,0,0,1,94.41,91.31Z" style="fill:#ea5143"/><path d="M136.17,84.62s3.67-4.9,6.4-.85-1.13,16-7.82,13.09Z" style="fill:#f97853"/><path d="M136.22,93.17a.57.57,0,0,0,.54-.41c1-3.69,4.86-5.19,4.9-5.21a.57.57,0,0,0-.4-1.06c-.18.07-4.4,1.7-5.59,6a.57.57,0,0,0,.39.7Z" style="fill:#ea5143"/><path d="M140.08,91.31a.57.57,0,0,0,.47-.87,5.16,5.16,0,0,0-2.12-1.71.57.57,0,0,0-.46,1A4.09,4.09,0,0,1,139.61,91,.56.56,0,0,0,140.08,91.31Z" style="fill:#ea5143"/><path d="M126.29,107v11.9s-3.55,6.06-8.35,6.47-9.05-5.22-9.05-5.22V107.85Z" style="fill:#ffa681"/><path d="M126.29,107v5.28c-3.22,3.57-8.94,4.46-17.4,3.22v-7.66Z" style="fill:#f97853"/><path d="M138.83,76.46a115.77,115.77,0,0,1-1.54,15c-.22,1.15-.47,2.24-.75,3.21-2.5,8.77-8.77,23.8-26.3,17.54-7.74-2.76-11.33-11.39-12.93-20.16A84.8,84.8,0,0,1,96.14,75.8a12.42,12.42,0,0,1,6.3-10.57c10.35-5.87,21.27-3.68,28.46-.92A12.38,12.38,0,0,1,138.83,76.46Z" style="fill:#ffa681"/><path d="M97.32,92.07s1.7,10.14,3.31,13.83,6,4.39,7.65,7.51c2.35,4.45,5.93,8,11.83,5.83,4.9-1.79,4.68-4.3,7.43-6.24,4.71-3.32,7-7,7.23-10s2.53-11.51,2.53-11.51l-2.53-.18a65.76,65.76,0,0,1-3.56,6.27c-2.13-4.67-12.37-1.27-12.37-1.27l-2,.63-2-.63s-10.36-3.25-12.41,1.64a18.46,18.46,0,0,1-2.74-6.36Zm19.57,6.44c11.75-2,9.65,4.86,9.57,5.11h0a11.63,11.63,0,0,1-2.41,1.83c-4.55,2.46-5,2.09-6.84,2.17a13.51,13.51,0,0,1-6.9-1.88,19.62,19.62,0,0,1-3.29-2.5S105.16,96.93,116.88,98.51Z" style="fill:#18315b"/><ellipse cx="108.36" cy="86.17" rx="1.46" ry="2.3" style="fill:#18315b"/><ellipse cx="125.74" cy="86.17" rx="1.46" ry="2.3" style="fill:#18315b"/><path d="M131.49,78.6s-6-2.39-10.69-.38l.47,2.59s6.83-.58,10.27.82A4.49,4.49,0,0,0,131.49,78.6Z" style="fill:#18315b"/><path d="M102.77,78.61s6.08-2.41,10.77-.38l-.47,2.61s-6.88-.58-10.34.82A4.52,4.52,0,0,1,102.77,78.61Z" style="fill:#18315b"/><path d="M117.44,95.81a6,6,0,0,0,2-.43.57.57,0,0,0-.43-1,3.39,3.39,0,0,1-2.27.21.61.61,0,0,1-.28-.53,85.55,85.55,0,0,1,.34-8.66.57.57,0,1,0-1.13-.09,83.73,83.73,0,0,0-.34,8.86,1.73,1.73,0,0,0,.82,1.38A2.38,2.38,0,0,0,117.44,95.81Z" style="fill:#f97853"/><path d="M110.24,99.64c.43,2.16,1.86,6.13,6.66,6.13s6.17-3.63,6.63-6.13Z" style="fill:#fff"/><path d="M138.83,76.46a115.77,115.77,0,0,1-1.54,15l-2.53-.18s.61-3.9.89-6.45.76-7.3-1.41-7.89-.89-6-3.91-8.36-9.7-4.43-14.15-1.7-9.49,1.22-11.54,1.7-4.83,3.29-4.08,5.93-1.5,4.24-2.05,7,1.2,10.08,1.2,10.08l-2.41.49A84.8,84.8,0,0,1,96.14,75.8a12.42,12.42,0,0,1,6.3-10.57c10.35-5.87,21.27-3.68,28.46-.92A12.38,12.38,0,0,1,138.83,76.46Z" style="fill:#18315b"/><path d="M167.06,298.1a201,201,0,0,1-34.31,5.63l-1.55.11q-2.36.16-4.72.26a194.71,194.71,0,0,1-23.35-.4q-2.36-.18-4.71-.42l-1.51-.16a204.48,204.48,0,0,1-27.89-5c-.09-8.57,0-35.66.54-65,.06-3.53.13-7.09.21-10.66.82-38.72,2.41-78,5.28-82,2.74-3.77,11-8.56,18.91-12.88l1.41-.77,5.15-2.79c3.5-1.91,6.52-3.6,8.39-4.91v1.08s4.25,5.63,9,5.21c4.37-.38,7.7-5.42,8.26-6.33a110.91,110.91,0,0,0,10.06,5.72l3.69,1.95,1.4.74c8.74,4.63,18.16,9.86,21,13.74a4.8,4.8,0,0,1,.6,1.43c1.67,5.67,2.71,24.47,3.34,47.24v.25c0,.92.05,1.85.07,2.78,0,.12,0,.24,0,.37.21,8,.36,16.4.48,24.84,0,.67,0,1.34,0,2,0,.34,0,.67,0,1q0,2.5.06,5,0,1.83,0,3.66C167.32,260.31,167.19,289.12,167.06,298.1Z" style="fill:#006bde"/><path d="M166.36,192.9c-2.75-4.49-5.71-9.08-8.49-13.14l0,0c-1.17-1.7-2.31-3.31-3.39-4.78l-.06-.08-1-1.35a.84.84,0,0,1-.12-.24h0a.76.76,0,0,1,1.33-.67c3.34,4.43,7.62,10.79,11.66,17.26v.25C166.32,191,166.34,192,166.36,192.9Z" style="fill:#264cbe"/><path d="M162.45,140.58s17.24,31.59,27.76,47.61c0,0,6-5.49,13.75-12.84,8.43-8,20-21.28,20-21.28l6.38,7.57s-25.9,46.62-37.52,52.47-33-35.61-33-35.61Z" style="fill:#006bde"/><path d="M89.44,265.1h0a.78.78,0,0,1-.75-.81c.9-25.51-12.33-33.78-12.46-33.86a.78.78,0,0,1,.8-1.34c.15.09,3.64,2.21,7,7.66,3.09,5,6.68,13.79,6.19,27.6A.78.78,0,0,1,89.44,265.1Z" style="fill:#264cbe"/><path d="M145.88,241.06a.78.78,0,0,1-.78-.72c-.42-5.37,1.35-9.29,3.59-14.25.66-1.45,1.33-3,2-4.64,4.35-10.55,2.16-22.61,2.14-22.73a.78.78,0,1,1,1.53-.29c.1.51,2.29,12.64-2.23,23.61-.7,1.71-1.39,3.22-2,4.68-2.23,4.94-3.85,8.52-3.46,13.49a.78.78,0,0,1-.72.84Z" style="fill:#264cbe"/><path d="M100.51,124c.33,2.51.82,5.77,1.36,9.47.16,1.1.33,2.24.49,3.41.54,3.82,1.1,8,1.58,12.19.13,1.13.25,2.26.36,3.39.42,4.16.74,8.3.85,12.15,0,1.16.05,2.3,0,3.4a54.13,54.13,0,0,1-.53,7.94q-.34,2.19-.61,4.28-.22,1.73-.4,3.41c-.45,4.34-.68,8.38-.75,12.19q0,1.73,0,3.4c0,4.32.28,8.35.64,12.19.11,1.15.22,2.28.34,3.39.47,4.19,1,8.18,1.57,12.12q.23,1.69.45,3.38c.23,1.8.45,3.61.64,5.42s.33,4.18.39,6.67c0,1.09,0,2.23,0,3.41,0,3.73-.08,7.87-.25,12.19q-.07,1.69-.15,3.43c-.19,4-.45,8.15-.73,12.22q-.12,1.72-.25,3.43c-.31,4.24-.66,8.38-1,12.22-.11,1.17-.21,2.31-.32,3.41-.41,4.23-.8,8-1.14,11a194.53,194.53,0,0,0,23.36.39c.18-3.19.68-8.35,1.17-14.41.09-1.11.18-2.25.27-3.42.29-3.86.56-8,.73-12.14,0-1.14.09-2.28.12-3.43.12-4.15.12-8.28-.06-12.15-.05-1.17-.12-2.32-.21-3.44s-.2-2.26-.33-3.33a68,68,0,0,1-.5-8.84c0-1.14,0-2.28.09-3.42.18-4,.61-7.92,1.11-12.13.13-1.12.27-2.25.41-3.41.45-3.74.92-7.71,1.29-12.06.1-1.11.19-2.25.27-3.42.26-3.73.43-7.73.46-12.1q0-1.69,0-3.45c0-3.78-.2-7.82-.51-12.17,0-.39-.05-.78-.08-1.17-.06-.76-.11-1.53-.14-2.3a115.84,115.84,0,0,1,.08-12.13q.09-1.72.22-3.43c.31-4.08.77-8.12,1.3-12,.16-1.15.32-2.29.48-3.41.64-4.24,1.32-8.24,2-11.81l.6-3.38c.43-2.41.8-4.56,1.07-6.38a111.16,111.16,0,0,1-10.06-5.72c-.56.91-3.89,6-8.26,6.33-4.79.42-9-5.21-9-5.21v-1.08C107,120.4,104,122.09,100.51,124Z" style="fill:#fff"/><path d="M101.86,133.47c.16,1.1.33,2.24.49,3.41a63.29,63.29,0,0,0,15.44-2,41.12,41.12,0,0,1,16.8-.4l.6-3.38a44.53,44.53,0,0,0-18.16.46A59.26,59.26,0,0,1,101.86,133.47Z" style="fill:#e3e3e3"/><path d="M103.93,149.07c.13,1.13.25,2.26.36,3.39a68.74,68.74,0,0,0,13.49-1.95,41.06,41.06,0,0,1,14.36-.76c.16-1.15.32-2.29.48-3.41a44.76,44.76,0,0,0-15.61.85A65.61,65.61,0,0,1,103.93,149.07Z" style="fill:#e3e3e3"/><path d="M105.15,164.6c0,1.16.05,2.3,0,3.4a71.53,71.53,0,0,0,12.59-1.91,41.28,41.28,0,0,1,12.83-.92q.09-1.72.22-3.43a44.93,44.93,0,0,0-13.82,1A69.62,69.62,0,0,1,105.15,164.6Z" style="fill:#e3e3e3"/><path d="M103.67,183.64a67.29,67.29,0,0,0,14.13-2,41.18,41.18,0,0,1,13-.91c0-.39-.05-.78-.08-1.17-.06-.76-.11-1.53-.14-2.3A44.91,44.91,0,0,0,117,178.36a65.8,65.8,0,0,1-13,1.87Q103.84,182,103.67,183.64Z" style="fill:#e3e3e3"/><path d="M102.91,199.22a64.86,64.86,0,0,0,14.88-2,41.26,41.26,0,0,1,13.5-.87q0-1.69,0-3.45a44.91,44.91,0,0,0-14.25,1,62.35,62.35,0,0,1-14.11,1.88Q102.89,197.56,102.91,199.22Z" style="fill:#e3e3e3"/><path d="M103.54,211.41c.11,1.15.22,2.28.34,3.39a67.72,67.72,0,0,0,13.9-2,41.18,41.18,0,0,1,12.77-.94c.1-1.11.19-2.25.27-3.42a44.82,44.82,0,0,0-13.81,1A64.48,64.48,0,0,1,103.54,211.41Z" style="fill:#e3e3e3"/><path d="M105.46,226.92q.23,1.69.45,3.38a73.82,73.82,0,0,0,11.88-1.87,41.46,41.46,0,0,1,11.07-1c.13-1.12.27-2.25.41-3.41A45.12,45.12,0,0,0,117,225.11,71,71,0,0,1,105.46,226.92Z" style="fill:#e3e3e3"/><path d="M106.94,242.4c0,1.09,0,2.23,0,3.41a76.74,76.74,0,0,0,10.8-1.8,41.86,41.86,0,0,1,9.87-1.08c0-1.14,0-2.28.09-3.42A45.41,45.41,0,0,0,117,240.69,76.26,76.26,0,0,1,106.94,242.4Z" style="fill:#e3e3e3"/><path d="M106.59,261.42a76.62,76.62,0,0,0,11.2-1.83,41.36,41.36,0,0,1,10.92-1c-.05-1.17-.12-2.32-.21-3.44A45.3,45.3,0,0,0,117,256.27,74.55,74.55,0,0,1,106.74,258Q106.67,259.69,106.59,261.42Z" style="fill:#e3e3e3"/><path d="M105.6,277.07a73.29,73.29,0,0,0,12.19-1.89,41.56,41.56,0,0,1,10.85-1.05c0-1.14.09-2.28.12-3.43A45.25,45.25,0,0,0,117,271.85a71.56,71.56,0,0,1-11.17,1.79Q105.73,275.37,105.6,277.07Z" style="fill:#e3e3e3"/><path d="M104.27,292.71a68.79,68.79,0,0,0,13.52-1.95,41.51,41.51,0,0,1,9.86-1.08c.09-1.11.18-2.25.27-3.42A45.23,45.23,0,0,0,117,287.44a67.84,67.84,0,0,1-12.44,1.86C104.48,290.46,104.37,291.6,104.27,292.71Z" style="fill:#e3e3e3"/><path d="M131.2,303.84l1.55-.11c3.07-18,1.3-44.53.64-52.64-.68-8.43.63-19.26,3.6-29.72,2.3-8.12.89-27-.24-42.09-.32-4.25-.62-8.26-.8-11.56-.58-10.65,3.28-30.37,5.4-40.25l-1.4-.74c-2.13,9.78-6.13,29.95-5.52,41.08.18,3.31.48,7.33.8,11.59,1.13,15,2.53,33.7.3,41.56-3,10.63-4.35,21.66-3.65,30.26C132.54,259.33,134.32,286,131.2,303.84Z" style="fill:#264cbe"/><path d="M99.76,230.42c1.8,11.09,1.24,18.3.58,26.64-.21,2.7-.43,5.48-.59,8.56-.48,9.65-2.11,29.1-2.84,37.5l1.51.16c.72-8.41,2.36-27.9,2.85-37.59.15-3.05.37-5.83.58-8.51.66-8.44,1.24-15.73-.59-27-.39-2.42-.81-4.88-1.22-7.32-2-12.09-4.16-24.59-3.16-30.58.24-1.46.55-3.12.89-4.88,1.36-7.23,3-16.22,2.52-24s-3.7-28.69-4.92-36.58l-1.41.77c1.27,8.26,4.3,28.4,4.82,35.92s-1.15,16.5-2.49,23.65c-.33,1.77-.65,3.43-.89,4.91-1,6.24,1,18.31,3.16,31.09C99,225.55,99.37,228,99.76,230.42Z" style="fill:#264cbe"/><path d="M69.94,153.3S54.5,204.77,50.68,223.12s-4.12,56.48-4.12,56.48-6.75,14-6.91,20.24c-.17,6.65,3.32,11.93,2.92,16.28s4.9,2,3.4-6.82,2.75-16.79,4.58-16.53-1.52,9.62.11,13,3.73-3.18,5.83-7.16c2.17-4.13,2-13.14,1.06-19.57s10.67-45.5,10.73-56.82L83,172.33S78.16,151.51,69.94,153.3Z" style="fill:#ffa681"/><path d="M84.93,171.08c-.52,3.31-2.35,9-4.72,16.13h0l-.61,1.84,0,.09-1.85,5.56v0c-2.62,7.95-5.52,17-7.95,26.39-.84,3.2-1.62,6.43-2.31,9.65-.89,4.11-1.64,8.21-2.19,12.22-2,14.45-5.75,32.76-5.75,32.76C54,278,45.33,275,45.33,275s-.22-26.37,1-36.61a274.53,274.53,0,0,1,5.88-32c6.63-28.49,18.3-56.36,21.5-63.76l.59-1.37h2.75C82.49,144.71,86.34,162.17,84.93,171.08Z" style="fill:#006bde"/><path d="M44.88,269.76l.43,6.07s8.23,2.67,14.4.79l1.63-5.41C55.4,271.52,49.91,271.37,44.88,269.76Z" style="fill:#009cf8"/><path d="M80.21,187.21h0a.79.79,0,0,1,0,.26c-.19.51-.38,1-.56,1.58l0,.09c-.61,1.72-1.22,3.59-1.85,5.56v0a299.11,299.11,0,0,0-8,31.37q0-2.48.06-5c-.84,3.2-1.62,6.43-2.31,9.65a116.29,116.29,0,0,1,2.35-12.67A296.78,296.78,0,0,1,78.74,187a.76.76,0,0,1,1.47.25Z" style="fill:#264cbe"/><path d="M356.35,323.35h36.46c-.12-2.53-.24-5-.36-7.24-.64-12.49-1.18-21-1.18-21l-29.66,1.32-2.46.11-4.36.2s.42,7.6,1.08,18.74C356,317.95,356.18,320.59,356.35,323.35Z" style="fill:#18315b"/><path d="M359.16,296.55l-4.36.2s.42,7.6,1.08,18.74a264.89,264.89,0,0,0,36.58.62c-.64-12.49-1.18-21-1.18-21l-29.66,1.32Z" style="fill:#000b29"/><path d="M363.13,323.35c-.67-11.56-1.21-21.43-1.51-26.91l-2.46.11c.3,5.46.84,15.28,1.51,26.8Z" style="fill:#000b29"/><path d="M345.65,323.35c.19-3.13.36-6.1.52-8.84.63-10.61,1-17.77,1-17.77l-4.73-.21-2.45-.11-29.29-1.3s-.32,5.07-.76,13.12c-.23,4.29-.5,9.44-.77,15.11Z" style="fill:#18315b"/><path d="M310,308.24a322.35,322.35,0,0,0,36.22,6.27c.63-10.61,1-17.77,1-17.77l-4.73-.21-2.45-.11-29.29-1.3S310.39,300.19,310,308.24Z" style="fill:#000b29"/><path d="M341,323.35c.67-11.53,1.21-21.36,1.51-26.82l-2.45-.11c-.3,5.48-.85,15.36-1.51,26.93Z" style="fill:#000b29"/><path d="M396.57,300.81a175,175,0,0,1-22.28,4.62q-3.88.54-7.75.9-5.22.48-10.44.65a165.18,165.18,0,0,1-17.26-.38,174.94,174.94,0,0,1-33.38-5.8c-.1-10.38.05-47.59.83-83.48q.06-2.42.11-4.82c0-.34,0-.68,0-1s0-.74,0-1.11c0-1.14.06-2.27.08-3.4q.09-3.46.18-6.86l.12-4c0-.28,0-.55,0-.83l.08-2.62h0c0-.27,0-.54,0-.81,0-.8.05-1.6.08-2.39s0-1.34.07-2c.86-24.21,2.12-43.31,3.93-46,3.06-4.56,13.48-10.62,21.86-15.56,3-1.75,6.55-3.58,8.59-4.93,3,2.4,5.14,4.56,9.55,4.41,4.94-.17,6.15-3.14,8-5.68,1.15.75,4.07,3.14,5.59,4,1.3.77,2.7,1.58,4.17,2.42,2.27,1.3,4.68,2.68,7.07,4.08,3.54,2.08,7,4.23,9.93,6.29a26.18,26.18,0,0,1,6.32,5.72c1.64,2.46,2.7,18.39,3.38,39.35,0,.73,0,1.48.08,2.23,0,.09,0,.18,0,.27,0,.76.05,1.54.07,2.32q.1,3.54.2,7.22c0,.52,0,1,0,1.56s0,.78,0,1.17l.07,3c0,.2,0,.41,0,.61.06,2.69.11,5.42.16,8.17q0,1.21,0,2.42C396.86,248.3,396.72,289.66,396.57,300.81Z" style="fill:#006bde"/><path d="M396.24,210.57,384.48,222.5l-11-11.11-11,11.11-11-11.16-11,11.16-11.07-11.23L318.41,222.5l-12-12.13c0-1.14.06-2.27.08-3.4q.09-3.46.18-6.86l11.69-11.86,11.07,11.23,11.07-11.23,11,11.16,11-11.16,11,11.11,11-11.11L396,200c.06,2.69.11,5.42.16,8.17Q396.22,209.36,396.24,210.57Z" style="fill:#264cbe"/><path d="M375.93,272.06h0c-15.75-.07-29.19-7.24-37.7-13.24a86.29,86.29,0,0,1-14.83-13.13.76.76,0,0,1,1.16-1,84.75,84.75,0,0,0,14.57,12.89c8.32,5.86,21.46,12.87,36.8,12.93a.76.76,0,0,1,0,1.52Z" style="fill:#264cbe"/><path d="M366.11,262.75c-13.41-2.64-25.28-12.91-25.82-13.38a.76.76,0,0,1,1-1.14c.14.12,14.11,12.2,28.34,13.5a.76.76,0,0,1-.14,1.51A33.19,33.19,0,0,1,366.11,262.75Z" style="fill:#264cbe"/><path d="M339.25,146.2a.76.76,0,0,1-.14-1.5c19.2-3.64,25-16,25-16.12a.76.76,0,1,1,1.38.62c-.24.54-6.18,13.2-26.14,17Z" style="fill:#264cbe"/><path d="M315.82,179.45h0a.76.76,0,0,1-.1.24l-.89,1.42,0,.08c-1,1.55-2,3.25-3,5l0,0c-1.61,2.82-3.28,5.88-4.91,9l.08-2.62h0c0-.27,0-.54,0-.81,2.63-4.89,5.26-9.46,7.46-12.93a.76.76,0,0,1,1.38.56Z" style="fill:#264cbe"/><path d="M412.58,151.37s24.55-7.89,31.82-24c2.1-4.67-15.21-52-15.21-52l-8.36.4s2.38,16.44,3.83,25.75c1.19,7.65,3.11,16.8,3.75,19.81l.22,1-1.24.23c-11.47,2.33-26.12,9.8-26.12,9.8Z" style="fill:#ffa681"/><path d="M434.8,126.83a.79.79,0,0,0,1.1-.17.77.77,0,0,0-.17-1.1,61.81,61.81,0,0,0-7.31-4.29l.22,1-1.24.23A62,62,0,0,1,434.8,126.83Z" style="fill:#f97853"/><path d="M375,129.69s-7.43,17.43,11.48,27.13c13.09,6.72,42.9-10.82,42.9-10.82l-10.63-22.56S391.49,134.69,375,129.69Z" style="fill:#006bde"/><path d="M424.91,48.68c-.74.52-.59,3.72-.26,6.74l-.32.05c-.88-4-2.63-10.87-4.13-9.56-1,.86.33,6.76,1.23,10.29l-.55.18c-1.13-4.19-3.56-12.26-5.17-10.69-1.08,1,1,8.15,2.14,11.78l-.47.19c-1.1-3.52-3.45-10.17-5.06-8.61C410.86,50.44,415,60.5,415,60.5h0l1.1,3.95s-1.3.56-3.33-1.74-4.46-2.7-2.77.62c1.91,3.76,4.73,6.45,6,9.11S421.15,76,421.15,76L429,75.6s1.52-13.26-1.41-19.59h0C427.09,52.26,426.2,47.77,424.91,48.68Z" style="fill:#ffa681"/><path d="M327.82,79.26c0,13.37,8.23,22.58,21.59,22.58s22.68-9.9,22.68-23.27a28.65,28.65,0,0,0-1.76-10.17c-.07-.18-.14-.36-.21-.54-.14-.35-.29-.69-.45-1-.23-.52-.49-1-.77-1.51-3.48-6.26-9.72-10.24-18.1-10.24C334.79,55.08,327.82,65.9,327.82,79.26Z" style="fill:#18315b"/><path d="M330.83,85s-3.71-5-6.47-.86,1.14,16.19,7.9,13.23Z" style="fill:#f97853"/><path d="M330.78,93.66a.57.57,0,0,1-.55-.42c-1-3.73-4.92-5.25-5-5.26a.57.57,0,0,1,.4-1.07c.18.07,4.44,1.72,5.65,6a.57.57,0,0,1-.4.7Z" style="fill:#ea5143"/><path d="M326.87,91.78a.57.57,0,0,1-.48-.88,5.21,5.21,0,0,1,2.14-1.73.57.57,0,1,1,.47,1,4.13,4.13,0,0,0-1.65,1.3A.57.57,0,0,1,326.87,91.78Z" style="fill:#ea5143"/><path d="M369.09,85s3.71-5,6.47-.86-1.14,16.19-7.9,13.23Z" style="fill:#f97853"/><path d="M369.14,93.66a.57.57,0,0,0,.55-.42c1-3.73,4.91-5.25,5-5.26a.57.57,0,0,0-.4-1.07c-.18.07-4.44,1.72-5.65,6a.57.57,0,0,0,.4.7Z" style="fill:#ea5143"/><path d="M373,91.78a.57.57,0,0,0,.48-.88,5.21,5.21,0,0,0-2.14-1.73.57.57,0,1,0-.47,1,4.13,4.13,0,0,1,1.65,1.3A.57.57,0,0,0,373,91.78Z" style="fill:#ea5143"/><path d="M359.1,107.65v12s-3.59,6.12-8.44,6.54-9.15-5.27-9.15-5.27V108.5Z" style="fill:#ffa681"/><path d="M359.1,107.65V113c-3.25,3.61-9,4.51-17.59,3.25V108.5Z" style="fill:#f97853"/><path d="M371.78,76.77A117,117,0,0,1,370.22,92c-.22,1.17-.47,2.26-.75,3.24-2.53,8.86-8.86,24.06-26.58,17.73-7.83-2.79-11.45-11.51-13.07-20.38a85.72,85.72,0,0,1-1.18-16.45A12.55,12.55,0,0,1,335,65.42c10.46-5.93,21.5-3.72,28.76-.93A12.51,12.51,0,0,1,371.78,76.77Z" style="fill:#ffa681"/><ellipse cx="340.88" cy="86.59" rx="1.48" ry="2.32" style="fill:#18315b"/><ellipse cx="358.3" cy="86.54" rx="1.48" ry="2.32" style="fill:#18315b"/><path d="M363.12,78.55s-4.66-1.84-8.25-.29l.36,2s5.27-.45,7.92.63A3.46,3.46,0,0,0,363.12,78.55Z" style="fill:#18315b"/><path d="M336,78.55s4.66-1.84,8.25-.29l-.36,2s-5.27-.45-7.92.63A3.46,3.46,0,0,1,336,78.55Z" style="fill:#18315b"/><path d="M350.16,96.33a6.09,6.09,0,0,0,2.07-.44.57.57,0,0,0-.43-1.06,3.43,3.43,0,0,1-2.29.22.62.62,0,0,1-.28-.53,86.44,86.44,0,0,1,.35-8.75.57.57,0,0,0-1.14-.09,84.62,84.62,0,0,0-.34,9,1.74,1.74,0,0,0,.83,1.39A2.41,2.41,0,0,0,350.16,96.33Z" style="fill:#f97853"/><path d="M342.49,99.23c.95,3.3,3.65,6.58,7.37,6.63s6.41-3.33,7.36-6.63Z" style="fill:#fff"/><path d="M349.54,109.44a6,6,0,0,0,2.78-.78.57.57,0,1,0-.59-1,4.86,4.86,0,0,1-2.19.62,4.63,4.63,0,0,1-2.08-.61.57.57,0,1,0-.6,1A5.71,5.71,0,0,0,349.54,109.44Z" style="fill:#f97853"/><path d="M371.17,85.12h-2.59c.29-2.6.7-7.18-1.44-7.83-6.75-2.07,2-6.84-1-9.22s-10.62-1.36-15.89-1.53-13.83-.1-15.89.38-.94,3.92-.18,6.59-2.54,5.61-3.1,8.37a12.16,12.16,0,0,0,0,3.24h-2.16c-.26-3.36-.29-6.48-.25-9A12.55,12.55,0,0,1,335,65.42c10.46-5.93,21.5-3.72,28.76-.93a12.51,12.51,0,0,1,8,12.28C371.66,79.33,371.47,82.24,371.17,85.12Z" style="fill:#18315b"/><path d="M340.62,93.32a6.47,6.47,0,1,1,6.47-6.47A6.47,6.47,0,0,1,340.62,93.32Zm0-11.93a5.46,5.46,0,1,0,5.46,5.46A5.47,5.47,0,0,0,340.62,81.39Z" style="fill:#fff"/><path d="M358.3,93.32a6.47,6.47,0,1,1,6.47-6.47A6.47,6.47,0,0,1,358.3,93.32Zm0-11.93a5.46,5.46,0,1,0,5.46,5.46A5.47,5.47,0,0,0,358.3,81.39Z" style="fill:#fff"/><path d="M335.25,84.77a.5.5,0,0,1-.36-.15h0a8,8,0,0,0-6.82-2,.5.5,0,0,1-.23-1,8.83,8.83,0,0,1,7.76,2.25.5.5,0,0,1-.36.86Z" style="fill:#fff"/><path d="M363.79,84.77a.5.5,0,0,1-.28-.93c.19-.13,4.77-3.08,8.66-2.44a.5.5,0,0,1-.16,1c-3.5-.58-7.9,2.26-7.95,2.29A.5.5,0,0,1,363.79,84.77Z" style="fill:#fff"/><path d="M352.19,85.4a4.08,4.08,0,0,0-2.78-1.64,3.71,3.71,0,0,0-2.65,1.63l-.84-.55a4.67,4.67,0,0,1,3.5-2.09,5,5,0,0,1,3.6,2.05Z" style="fill:#fff"/><path d="M313.69,178.5a183.53,183.53,0,0,1-14.83,23.64,61.65,61.65,0,0,1-7.27,8.12c-3.94,3.56-7.79,5.42-10.92,3.84-11.62-5.86-37.52-52.47-37.52-52.47l6.38-7.57s11.53,13.31,20,21.28c7.78,7.35,13.75,12.84,13.75,12.84,1.08-1.64,2.22-3.43,3.42-5.33s2.58-4.15,3.92-6.35c9.71-15.94,20.48-35.07,20.48-35.07Z" style="fill:#ffa681"/><path d="M298.86,202.14a61.65,61.65,0,0,1-7.27,8.12l-4.94-27.41c1.27-2,2.58-4.15,3.92-6.35Z" style="fill:#f97853"/><path d="M311.05,141.43l-23.28,36.62,7.81,32.21,19.27-31.37S317.19,157.43,311.05,141.43Z" style="fill:#006bde"/><path d="M281.78,323.35c-1.66-9.22-3.3-19.61-4.79-29.7q-.49-3.35-1-6.63c-1.19-8.36-2.26-16.26-3.12-22.82-.33-2.49-.62-4.79-.89-6.84-.83-6.55-1.32-10.61-1.32-10.61l-36.77,1.39L197,246.75s-1,8-2.47,19.71c-.28,2.12-.57,4.36-.89,6.7-.82,6.12-1.75,12.88-2.76,19.8l0,.3c-.32,2.16-.63,4.33-1,6.5a.67.67,0,0,1,0,.09h0c-.79,5.25-1.62,10.49-2.46,15.53-.35,2.08-.7,4.13-1,6.12l-.33,1.84Z" style="fill:#006bde"/><circle cx="202.06" cy="257.79" r="3.47" style="fill:#264cbe"/><circle cx="210.66" cy="271.22" r="3.47" style="fill:#264cbe"/><circle cx="227.58" cy="264.29" r="3.47" style="fill:#264cbe"/><circle cx="200.87" cy="285.48" r="3.47" style="fill:#264cbe"/><circle cx="222.01" cy="284" r="3.47" style="fill:#264cbe"/><path d="M196.83,269.71a3.46,3.46,0,0,1-3.14,3.45c.31-2.34.61-4.58.89-6.7A3.46,3.46,0,0,1,196.83,269.71Z" style="fill:#264cbe"/><circle cx="256.47" cy="304.36" r="3.47" style="fill:#264cbe"/><circle cx="254.83" cy="285.48" r="3.47" style="fill:#264cbe"/><path d="M277,293.65a3.47,3.47,0,1,1-1.36-6.65,2.8,2.8,0,0,1,.4,0Q276.5,290.3,277,293.65Z" style="fill:#264cbe"/><circle cx="258.3" cy="318.19" r="3.47" style="fill:#264cbe"/><circle cx="273.12" cy="312.66" r="3.47" style="fill:#264cbe"/><path d="M245.74,323.35a3.46,3.46,0,0,0-5.71,0Z" style="fill:#264cbe"/><circle cx="198.59" cy="307.37" r="3.47" style="fill:#264cbe"/><path d="M192.91,296.42a3.46,3.46,0,0,1-3,3.43.67.67,0,0,0,0-.09c.33-2.17.65-4.34,1-6.5A3.47,3.47,0,0,1,192.91,296.42Z" style="fill:#264cbe"/><path d="M188.86,318.19a3.47,3.47,0,0,1-2.47,3.32c.35-2,.7-4,1-6.12A3.46,3.46,0,0,1,188.86,318.19Z" style="fill:#264cbe"/><circle cx="207.19" cy="319.65" r="3.47" style="fill:#264cbe"/><circle cx="225.48" cy="316.94" r="3.47" style="fill:#264cbe"/><circle cx="212.43" cy="299.9" r="3.47" style="fill:#264cbe"/><circle cx="231.04" cy="296.44" r="3.47" style="fill:#264cbe"/><circle cx="239.42" cy="278.15" r="3.47" style="fill:#264cbe"/><path d="M272.9,264.2a3.25,3.25,0,0,1-.74.08,3.46,3.46,0,0,1-.14-6.93C272.28,259.41,272.58,261.71,272.9,264.2Z" style="fill:#264cbe"/><circle cx="251.37" cy="264.29" r="3.47" style="fill:#264cbe"/><circle cx="264.06" cy="276.64" r="3.47" style="fill:#264cbe"/><circle cx="242.88" cy="307.37" r="3.47" style="fill:#264cbe"/><path d="M272.93,247.66c-19.4,12.66-55,11.67-77.39,0,2.14-13.32,5-26.65,4.35-44.37q-.1-2.91-.25-5.79-.13-2.5-.29-5c-1.93-29.49-7-53.6-4.49-56.71a23.51,23.51,0,0,1,5.1-4.34q1.31-.89,2.79-1.8c2.32-1.42,4.9-2.84,7.5-4.24,6.15-3.28,12.4-6.33,15.53-8.41a19.9,19.9,0,0,0,8.24,2.08h.45a19.92,19.92,0,0,0,8.24-2.08c2.9,1.93,8.37,4.63,14,7.56a120.79,120.79,0,0,1,11.5,6.68,23.08,23.08,0,0,1,4.91,4.22c1.23,1.54.71,8.32-.34,18.35-1,9.87-2.59,22.91-3.53,37.23-.26,4-.47,8.06-.62,12.19C268,221,270.8,234.34,272.93,247.66Z" style="fill:#009cf8"/><path d="M261.07,232.93h0c-15.62-.07-29-7.18-37.39-13.13a85.58,85.58,0,0,1-14.7-13,.75.75,0,0,1,1.15-1,84,84,0,0,0,14.45,12.79c8.25,5.82,21.28,12.76,36.49,12.83a.75.75,0,0,1,0,1.5Z" style="fill:#006bde"/><path d="M250.73,223.84c-13.3-2.61-25.07-12.8-25.61-13.27a.75.75,0,0,1,1-1.13c.14.12,14,12.1,28.11,13.39a.75.75,0,1,1-.14,1.5A32.93,32.93,0,0,1,250.73,223.84Z" style="fill:#006bde"/><path d="M231,155a.75.75,0,0,1-.14-1.49c19-3.61,24.78-15.86,24.84-16a.75.75,0,1,1,1.37.62c-.24.53-6.12,13.09-25.93,16.85Z" style="fill:#006bde"/><path d="M256.66,124.61c-3.78,8.62-13.07,17.55-25.16,15.46-11.7-2-17.25-8.21-21.26-14.61,6.15-3.29,12.4-6.33,15.53-8.41a20,20,0,0,0,8.24,2.08h.45a20,20,0,0,0,8.24-2.08C245.61,119,251.08,121.67,256.66,124.61Z" style="fill:#ffa681"/><path d="M246.56,117.68a.59.59,0,0,0-.6.59c0,.48-.2,11.88-10.43,12.76-9.49.82-13.42-8.26-14.63-12a.53.53,0,0,0-.51-.37h-.11a.53.53,0,0,0-.51.7c1.29,3.89,5.43,13.28,15.1,12.93l.76,0c11.32-1,11.52-13.82,11.52-13.95A.6.6,0,0,0,246.56,117.68Z" style="fill:#fff"/><path d="M253.79,57.1s9.14,14.16,8.14,28.91,1.35,31.78-11.85,31-36.74,5.29-44.23-6.2S253.79,57.1,253.79,57.1Z" style="fill:#18315b"/><path d="M257.18,83.14s2.37,21.38-7.77,27.27-17.49-.69-17.49-.69S253.3,79.92,257.18,83.14Z" style="fill:#000b29"/><path d="M215,83s-3.64-4.86-6.35-.84,1.12,15.88,7.75,13Z" style="fill:#f97853"/><path d="M215,91.52a.56.56,0,0,1-.54-.41c-1-3.66-4.82-5.15-4.86-5.16a.56.56,0,0,1,.4-1,9.65,9.65,0,0,1,5.54,5.91.56.56,0,0,1-.39.69Z" style="fill:#ea5143"/><path d="M211.15,89.68a.56.56,0,0,1-.47-.86,5.12,5.12,0,0,1,2.1-1.7.56.56,0,0,1,.46,1,4.06,4.06,0,0,0-1.62,1.28A.56.56,0,0,1,211.15,89.68Z" style="fill:#ea5143"/><path d="M252.58,83s3.64-4.86,6.35-.84-1.12,15.88-7.75,13Z" style="fill:#f97853"/><path d="M252.62,91.52a.56.56,0,0,0,.54-.41c1-3.66,4.82-5.15,4.86-5.16a.56.56,0,0,0-.4-1,9.65,9.65,0,0,0-5.54,5.91.56.56,0,0,0,.39.69Z" style="fill:#ea5143"/><path d="M256.45,89.68a.56.56,0,0,0,.47-.86,5.12,5.12,0,0,0-2.1-1.7.56.56,0,0,0-.46,1A4.06,4.06,0,0,1,256,89.42.56.56,0,0,0,256.45,89.68Z" style="fill:#ea5143"/><path d="M242.77,105.25V117s-3.52,6-8.28,6.42-9-5.17-9-5.17V106.08Z" style="fill:#ffa681"/><path d="M242.77,105.25v5.24c-3.19,3.54-8.86,4.8-17.25,3.56v-8Z" style="fill:#f97853"/><path d="M255.21,74.95a114.8,114.8,0,0,1-1.53,14.9c-.22,1.14-.47,2.22-.74,3.18-2.48,8.69-8.69,23.6-26.08,17.39-7.68-2.74-11.24-11.29-12.82-20a84.1,84.1,0,0,1-1.16-16.14,12.32,12.32,0,0,1,6.25-10.48c10.26-5.82,21.09-3.65,28.22-.91A12.28,12.28,0,0,1,255.21,74.95Z" style="fill:#ffa681"/><ellipse cx="224.7" cy="83.74" rx="1.45" ry="2.28" style="fill:#18315b"/><ellipse cx="242.6" cy="83.74" rx="1.45" ry="2.28" style="fill:#18315b"/><path d="M221.83,76.95A24.2,24.2,0,0,1,228,76a1.08,1.08,0,0,1,1.07,1.26v0a1.07,1.07,0,0,1-1.11.88c-1.75-.08-6.33.16-8.49,1a1.62,1.62,0,0,1,.49-1.15A3.74,3.74,0,0,1,221.83,76.95Z" style="fill:#18315b"/><path d="M245.25,77a24.2,24.2,0,0,0-6.2-.93A1.08,1.08,0,0,0,238,77.33v0a1.07,1.07,0,0,0,1.11.88c1.75-.08,6.33.16,8.49,1a1.62,1.62,0,0,0-.49-1.15A3.73,3.73,0,0,0,245.25,77Z" style="fill:#18315b"/><path d="M234,94.14a2.36,2.36,0,0,1-1.22-.29,1.71,1.71,0,0,1-.81-1.37,83,83,0,0,1,.34-8.79.56.56,0,0,1,1.12.09,84.78,84.78,0,0,0-.34,8.58.61.61,0,0,0,.28.52,3.37,3.37,0,0,0,2.25-.21.56.56,0,0,1,.42,1A6,6,0,0,1,234,94.14Z" style="fill:#f97853"/><path d="M226.88,97.68c.42,2.13,1.83,6.05,6.58,6.05s6.09-3.58,6.55-6.05Z" style="fill:#fff"/><path d="M233.39,107a5.6,5.6,0,0,1-2.63-.77.56.56,0,0,1,.59-1h0a4.51,4.51,0,0,0,2,.6,4.77,4.77,0,0,0,2.15-.6.56.56,0,0,1,.58,1A5.86,5.86,0,0,1,233.39,107Z" style="fill:#f97853"/><path d="M257.47,74a1.85,1.85,0,0,1-1.35,1,35.64,35.64,0,0,1-.2,4.15c-.69,8.1-2.74,9.52-3.2,7.52a93.54,93.54,0,0,1-.14-11.45,26.45,26.45,0,0,1-3-.37l-1.88-7.86-.66,7.77c-2.82,1-9.39-.59-9.39-.59l-2.21-7.75-1.36,7.46c-4.23,2.06-9.51.69-9.51.69l-1.21-8-2.8,8s-9,3.24-9.12,0c-.06-1.88,1.32-7.18,2.48-11.29a17,17,0,0,1,8.19-10.4c11.19-6,23-2.81,27.07-.39C257.82,57.69,257.47,74,257.47,74Z" style="fill:#18315b"/><path d="M216.43,57.7s-7.42,8.83-9.87,24.6-5.82,27.42,3.68,32.63c10.29,5.64,9.4-5.92,9.25-9.06s-8.9-11.73-3.06-35.91C218.32,62.15,216.43,57.7,216.43,57.7Z" style="fill:#18315b"/><path d="M214.7,90.29v0c0,.12,0,.74.06,1.72,0,.61.06,1.35.12,2.19.35,5.31,1.38,14.49,4.42,17.67,1.2,1.26,3.51,1.89,6.23,2.15v-4.17a16.52,16.52,0,0,1-6.84-6.35,39,39,0,0,1-3.78-11.66Z" style="fill:#000b29"/><circle cx="254.03" cy="95.45" r="1.31" style="fill:#fff"/><path d="M282.11,194.37c-3.72,10.65-20.38,9.87-39.35,4.05l-.08,0-.18-.06-2.61-.83-1.08-.36q-3.07-1-6.17-2.21a211.58,211.58,0,0,1-20.05-8.88l0-.11,1.94-5,.66-1.71s35.17,3.83,52.86.13l.88-.19a11,11,0,0,0-.2-1.17c-9.37-31.9.88-38,4.31-42.47C273.07,135.51,289.13,174.27,282.11,194.37Z" style="fill:#009cf8"/><path d="M276.37,184.5a.76.76,0,0,1-.33.07.75.75,0,0,1-.67-.42c-1.34-2.74-5.89-4.38-7.29-4.82l.88-.19c-.07-.39-.14-.78-.2-1.17,1.78.59,6.42,2.38,8,5.53A.75.75,0,0,1,276.37,184.5Z" style="fill:#006bde"/><path d="M227.11,183.16c-7.18,0-13-.41-13.51-.45a.75.75,0,0,1,.11-1.5c.27,0,26.65,1.89,37.05-2.33a.75.75,0,0,1,.56,1.39C245.56,182.61,235.43,183.16,227.11,183.16Z" style="fill:#006bde"/><path d="M239.89,197.51h0c6-1.66,11.49-3.28,14.65-4.29,4.39-1.41,8-5.84,9.67-9.61a.75.75,0,0,1,1.37.6c-1.78,4.08-5.75,8.89-10.58,10.44-2.29.74-5.79,1.78-9.84,2.94a9.11,9.11,0,0,1-5.27-.08Z" style="fill:#006bde"/><path d="M256.11,192.36c-54.36,18.31-71.08,6.33-71.08,6.33-3.66-33.09,9.83-62.85,9.83-62.85,4,6.57,8.49,18,8.49,18l1.19,25.37-.09.7,0,.33-.22,1.73v0l.35.07c16.44,3.47,46.51-.41,46.51-.41Z" style="fill:#009cf8"/><path d="M204.53,182.12a53.56,53.56,0,0,0-8.21,8.55.75.75,0,0,1-1.2-.91h0a55,55,0,0,1,9.28-9.49l-.22,1.73v0Z" style="fill:#006bde"/><path d="M251,181.71s6-13.67,15.17-12.45l2.76,9.88c-5,2.13-5.74,10.71-12.85,13.22Z" style="fill:#ffa681"/><path d="M215.23,179.2a21.78,21.78,0,0,0-13.8-11.51c-10-2.59-16.37,2.12-17,3.9s3.77.08,3.77.08a8.63,8.63,0,0,0-4.55,3.54c-1.66,2.72,4-.21,4-.21s-4.09,1.79-4.61,3.45,4.87-1.15,5.89-1.09c0,0-4.81,1.91-4.78,3.63s5.53-1.08,9.64-.86a64.79,64.79,0,0,1,10.4,1.92,69,69,0,0,0,9.48,1.25Z" style="fill:#ffa681"/><path d="M311.81,40.5a6.71,6.71,0,1,1,6.71-6.71A6.72,6.72,0,0,1,311.81,40.5Zm0-11.32a4.61,4.61,0,1,0,4.61,4.61A4.61,4.61,0,0,0,311.81,29.18Z" style="fill:#006bde"/><path d="M370.39,29.1a6.71,6.71,0,1,1,6.71-6.71A6.72,6.72,0,0,1,370.39,29.1Zm0-11.32A4.61,4.61,0,1,0,375,22.38,4.61,4.61,0,0,0,370.39,17.78Z" style="fill:#009cf8"/><path d="M378.68,50.91a1.05,1.05,0,0,1-1.05-1.05V45.22a1.05,1.05,0,1,1,2.11,0v4.64A1.05,1.05,0,0,1,378.68,50.91Z" style="fill:#006bde"/><path d="M378.68,59A1.05,1.05,0,0,1,377.63,58V53.34a1.05,1.05,0,1,1,2.11,0V58A1.05,1.05,0,0,1,378.68,59Z" style="fill:#006bde"/><path d="M385.2,52.66H381a1.05,1.05,0,1,1,0-2.11h4.17a1.05,1.05,0,0,1,0,2.11Z" style="fill:#006bde"/><path d="M376.33,52.66h-4.17a1.05,1.05,0,1,1,0-2.11h4.17a1.05,1.05,0,1,1,0,2.11Z" style="fill:#006bde"/><path d="M343.22,22.78a1.05,1.05,0,0,1-1.05-1.05V17.08a1.05,1.05,0,1,1,2.11,0v4.64A1.05,1.05,0,0,1,343.22,22.78Z" style="fill:#1c31b5"/><path d="M343.22,30.91a1.05,1.05,0,0,1-1.05-1.05V25.21a1.05,1.05,0,1,1,2.11,0v4.64A1.05,1.05,0,0,1,343.22,30.91Z" style="fill:#1c31b5"/><path d="M349.74,24.52h-4.17a1.05,1.05,0,0,1,0-2.11h4.17a1.05,1.05,0,1,1,0,2.11Z" style="fill:#1c31b5"/><path d="M340.87,24.52H336.7a1.05,1.05,0,0,1,0-2.11h4.17a1.05,1.05,0,0,1,0,2.11Z" style="fill:#1c31b5"/><path d="M71.84,16.75a6.71,6.71,0,1,1,6.71,6.71A6.72,6.72,0,0,1,71.84,16.75Zm2.11,0a4.61,4.61,0,1,0,4.61-4.61A4.61,4.61,0,0,0,73.95,16.75Z" style="fill:#006bde"/><path d="M44.88,42.34a6.71,6.71,0,1,1,6.71,6.71A6.72,6.72,0,0,1,44.88,42.34Zm2.11,0a4.61,4.61,0,1,0,4.61-4.61A4.61,4.61,0,0,0,47,42.34Z" style="fill:#009cf8"/><path d="M30.92,51.77A1.05,1.05,0,0,0,32,50.71V46.07a1.05,1.05,0,1,0-2.11,0v4.64A1.05,1.05,0,0,0,30.92,51.77Z" style="fill:#006bde"/><path d="M30.92,59.89A1.05,1.05,0,0,0,32,58.84V54.2a1.05,1.05,0,1,0-2.11,0v4.64A1.05,1.05,0,0,0,30.92,59.89Z" style="fill:#006bde"/><path d="M24.4,53.51h4.17a1.05,1.05,0,0,0,0-2.11H24.4a1.05,1.05,0,1,0,0,2.11Z" style="fill:#006bde"/><path d="M33.27,53.51h4.17a1.05,1.05,0,0,0,0-2.11H33.27a1.05,1.05,0,0,0,0,2.11Z" style="fill:#006bde"/><path d="M55.19,16.07A1.05,1.05,0,0,0,56.24,15V10.37a1.05,1.05,0,1,0-2.11,0V15A1.05,1.05,0,0,0,55.19,16.07Z" style="fill:#1c31b5"/><path d="M55.19,24.19a1.05,1.05,0,0,0,1.05-1.05V18.5a1.05,1.05,0,1,0-2.11,0v4.64A1.05,1.05,0,0,0,55.19,24.19Z" style="fill:#1c31b5"/><path d="M48.67,17.81h4.17a1.05,1.05,0,0,0,0-2.11H48.67a1.05,1.05,0,1,0,0,2.11Z" style="fill:#1c31b5"/><path d="M57.54,17.81h4.17a1.05,1.05,0,0,0,0-2.11H57.54a1.05,1.05,0,0,0,0,2.11Z" style="fill:#1c31b5"/><path d="M256,17.24a.75.75,0,0,1-.37-.05c-1.28-.54-2-.79-2-.79A.75.75,0,0,1,254,15s.8.27,2.14.83a.75.75,0,0,1-.21,1.43Z" style="fill:#bbe2f2"/><path d="M294.07,57.34c.51,1.36,1,2.76,1.42,4.16a.75.75,0,0,0,.79.52l.14,0a.75.75,0,0,0,.5-.93c-.44-1.43-.93-2.86-1.44-4.24a.75.75,0,0,0-1.4.52Z" style="fill:#bbe2f2"/><path d="M296.66,65.74c.34,1.4.65,2.85.92,4.3a.75.75,0,0,0,.81.61h.06a.75.75,0,0,0,.6-.87c-.27-1.48-.59-2.95-.94-4.38a.75.75,0,0,0-1.45.35Z" style="fill:#bbe2f2"/><path d="M299.81,88.32a.75.75,0,0,0,.67-.73c0-1.5,0-3,0-4.47a.75.75,0,1,0-1.49,0c0,1.45.05,2.93,0,4.41a.75.75,0,0,0,.74.76Z" style="fill:#bbe2f2"/><path d="M298.9,73.55a.75.75,0,0,0-.64.84c.09.68.17,1.36.24,2s.15,1.56.22,2.35a.75.75,0,0,0,.8.69h0a.75.75,0,0,0,.67-.8c-.06-.8-.14-1.6-.22-2.39s-.15-1.38-.24-2.07a.75.75,0,0,0-.82-.65Z" style="fill:#bbe2f2"/><path d="M292.41,53.28a.75.75,0,0,0,1.37-.61c-.61-1.36-1.27-2.72-2-4a.75.75,0,0,0-1.32.7C291.16,50.62,291.81,51.95,292.41,53.28Z" style="fill:#bbe2f2"/><path d="M259.57,19c1.28.66,2.58,1.37,3.85,2.12a.75.75,0,0,0,.76-1.29c-1.3-.77-2.62-1.5-3.93-2.17a.75.75,0,0,0-.68,1.33Z" style="fill:#bbe2f2"/><path d="M270.71,26.08a.75.75,0,0,0,.91-1.19c-1.18-.9-2.41-1.78-3.64-2.62a.75.75,0,1,0-.84,1.24C268.35,24.33,269.55,25.19,270.71,26.08Z" style="fill:#bbe2f2"/><path d="M283.28,38.32a.75.75,0,1,0,1.17-.93c-.93-1.16-1.91-2.31-2.91-3.41a.75.75,0,1,0-1.11,1C281.41,36.06,282.37,37.19,283.28,38.32Z" style="fill:#bbe2f2"/><path d="M277.37,31.82a.75.75,0,1,0,1-1.07c-1.06-1-2.18-2.05-3.31-3a.75.75,0,0,0-1,1.13C275.24,29.81,276.33,30.81,277.37,31.82Z" style="fill:#bbe2f2"/><path d="M288.32,45.51a.75.75,0,1,0,1.28-.78c-.78-1.27-1.6-2.53-2.46-3.75a.75.75,0,1,0-1.22.86C286.75,43,287.56,44.27,288.32,45.51Z" style="fill:#bbe2f2"/><polygon points="255.95 12.12 259.22 0 219.13 0.34 255.95 12.12" style="fill:#009cf8"/><polygon points="219.13 0.34 254 15.05 254.1 15.09 255.6 17.57 255.95 12.12 219.13 0.34" style="fill:#006bde"/><polygon points="255.6 17.57 252.35 17.06 254.1 15.09 255.6 17.57" style="fill:#006bde"/><polygon points="249.71 13.24 254.1 15.09 245.06 25.27 219.13 0.34 249.71 13.24" style="fill:#009cf8"/><rect x="29.12" y="323.35" width="411.21" height="15.99" rx="7.63" ry="7.63" style="fill:#1c31b5"/><path d="M440.33,331v.37H29.12V331a7.63,7.63,0,0,1,7.63-7.63H432.7A7.63,7.63,0,0,1,440.33,331Z" style="fill:#006bde"/><rect x="165.55" y="223.5" width="135.15" height="75.84" rx="5.38" ry="5.38" style="fill:#18315b"/><rect x="222.66" y="299.26" width="20.93" height="23.86" style="fill:#000b29"/><circle cx="232.89" cy="262.35" r="10.39" style="fill:#1d567e"/><path d="M212.44,314.65h40.7a6.65,6.65,0,0,1,6.65,6.65v1.82a0,0,0,0,1,0,0h-54a0,0,0,0,1,0,0V321.3A6.65,6.65,0,0,1,212.44,314.65Z" style="fill:#18315b"/></g></g></svg>